<?xml version="1.0" encoding="utf-8"?>
<!-- Generator: Adobe Illustrator 23.0.2, SVG Export Plug-In . SVG Version: 6.00 Build 0)  -->
<svg version="1.1" id="Layer_1" xmlns="http://www.w3.org/2000/svg" xmlns:xlink="http://www.w3.org/1999/xlink" x="0px" y="0px"
	 viewBox="0 0 500 550" style="enable-background:new 0 0 500 550;" xml:space="preserve">
<style type="text/css">
	.st0{fill-rule:evenodd;clip-rule:evenodd;fill:#68067B;}
	.st1{fill-rule:evenodd;clip-rule:evenodd;fill:#26E3FC;}
	.st2{fill-rule:evenodd;clip-rule:evenodd;fill:#0090A3;}
	.st3{fill-rule:evenodd;clip-rule:evenodd;fill:#FDC00F;}
	.st4{fill-rule:evenodd;clip-rule:evenodd;fill:#FDAA10;}
	.st5{fill-rule:evenodd;clip-rule:evenodd;fill:#D9471A;}
	.st6{fill-rule:evenodd;clip-rule:evenodd;fill:#FFE817;}
	.st7{fill-rule:evenodd;clip-rule:evenodd;fill:#F15525;}
	.st8{fill-rule:evenodd;clip-rule:evenodd;fill:#CCF9FF;}
</style>
<g>
	<g>
		<path class="st0" d="M218.45,367.81h63.11c3.39,0,6.16,2.77,6.16,6.16v1.57c0,3.39-2.77,6.16-6.16,6.16h-63.11
			c-3.39,0-6.16-2.77-6.16-6.16v-1.57C212.29,370.59,215.06,367.81,218.45,367.81z"/>
		<path class="st0" d="M219.51,383.48h60.99c3.27,0,5.95,2.68,5.95,5.95v1.52c0,3.27-2.68,5.95-5.95,5.95h-60.99
			c-3.27,0-5.95-2.68-5.95-5.95v-1.52C213.55,386.16,216.23,383.48,219.51,383.48z"/>
		<path class="st0" d="M221.74,398.41h56.52c3.03,0,5.51,2.48,5.51,5.52v1.41c0,3.03-2.48,5.51-5.51,5.51h-56.52
			c-3.03,0-5.52-2.48-5.52-5.51v-1.41C216.23,400.89,218.71,398.41,221.74,398.41z"/>
		<path class="st0" d="M267.26,412.73l-12.42,12.69c-2.66,2.71-7.01,2.71-9.66,0l-12.42-12.69H267.26z"/>
	</g>
	<g>
		<g>
			<g>
				<path class="st1" d="M186.09,138.7c-22.36-2.04-32.18,15.63-21.56,34.87c-21.92-0.32-26.55,27.01-12.24,39.13
					c-16.06,7.45-15.71,35.9,1.86,40.72c-10.08,8.69-5.49,35.31,13.31,35.67c1.33,18.61,17.71,29.87,44.43,29.87h23.32
					c7.26,0,9.92-12.22,11.13-14.4V152.39C243.43,94.65,189.03,106.37,186.09,138.7z"/>
				<g>
					<path class="st2" d="M186.15,129.15c0.49-1.29,1.94-1.94,3.23-1.44c1.29,0.49,1.94,1.94,1.44,3.23
						c-2.86,7.45-1.77,10.21,0.97,11.26c1.98,0.76,4.91,0.99,7.99,1.24c10.41,0.83,22.32,1.77,20.76,20.62
						c-0.11,1.38-1.33,2.41-2.71,2.3c-1.38-0.11-2.41-1.33-2.3-2.71c1.14-13.82-8.07-14.55-16.14-15.19
						c-3.42-0.27-6.67-0.53-9.39-1.57C184.48,144.76,181.88,140.27,186.15,129.15z"/>
					<path class="st2" d="M161.42,172.42c-0.69-1.2-0.27-2.73,0.92-3.42c1.2-0.69,2.73-0.27,3.42,0.92
						c3.55,6.16,5.07,11.49,6.32,15.9v0.01c1.99,7.01,3.19,11.22,13.09,11.28c1.31,0.01,2.62,0.03,3.94,0.04
						c2.62,0.04,5.29,0.07,7.89,0.03c9.87-0.15,18.76-1.32,18.67-7.92c-0.08-5.68-2.44-6.13-4.61-6.55
						c-3.25-0.63-6.3-1.22-7.09-6.36l-0.01-0.01c-0.28-1.8-0.03-3.64,0.21-5.47c0.11-0.84,0.23-1.69,0.27-2.47
						c0.13-2.41-0.77-4.5-7.16-4.84c-4.47-0.24-8.32-0.32-11.14,0.23c-2.18,0.42-3.64,1.21-4.15,2.65
						c-0.16,0.46-0.29,1.03-0.34,1.65c-0.08,0.99,0.01,2.06,0.43,2.95c0.37,0.77,1.03,1.45,2.12,1.84c0.48,0.17,1.05,0.29,1.72,0.35
						c4.93,0.43,8.12,2.82,9.46,5.61c0.6,1.26,0.84,2.61,0.7,3.91c-0.14,1.33-0.67,2.61-1.58,3.72c-1.94,2.36-5.67,3.91-11.13,3.17
						c-1.37-0.18-2.34-1.45-2.15-2.82c0.18-1.37,1.45-2.34,2.82-2.15c3.5,0.48,5.65-0.23,6.59-1.38c0.27-0.32,0.42-0.69,0.46-1.07
						c0.04-0.4-0.04-0.82-0.23-1.22c-0.64-1.34-2.43-2.51-5.37-2.77c-1.09-0.09-2.08-0.31-2.96-0.62c-2.52-0.89-4.09-2.53-4.99-4.43
						c-0.84-1.79-1.05-3.76-0.9-5.5c0.09-1.06,0.32-2.07,0.61-2.91c1.21-3.42,3.98-5.15,7.95-5.91c3.31-0.64,7.51-0.56,12.34-0.3
						c10.73,0.57,12.19,4.98,11.91,10.1c-0.05,0.96-0.18,1.91-0.31,2.86c-0.2,1.46-0.39,2.92-0.21,4.08l-0.01,0
						c0.26,1.64,1.62,1.91,3.08,2.19c4.09,0.79,8.54,1.65,8.68,11.43c0.16,10.92-11.11,12.81-23.62,12.99
						c-2.65,0.04-5.36,0-8.01-0.03c-1.33-0.02-2.66-0.04-3.9-0.04c-13.67-0.08-15.26-5.65-17.9-14.92l0,0
						C166.07,183.03,164.63,177.98,161.42,172.42z"/>
					<path class="st2" d="M151.84,215.48c-1.24-0.61-1.75-2.12-1.14-3.36c0.61-1.24,2.12-1.75,3.36-1.14
						c10,4.96,21.65,4.98,37.79,5.01c4.68,0.01,9.72,0.02,15.17,0.15c7.1,0.16,10.9,1.54,12.99,3.5c2.43,2.28,2.54,4.91,2.47,7.48
						c-0.07,2.71-0.6,5.42-2.92,7.64c-2.12,2.02-5.66,3.42-11.68,3.61c-6.83,0.22-15.28,0.09-22.8-0.03
						c-7.08-0.11-13.32-0.21-16.51,0.02c-1.38,0.1-2.58-0.94-2.68-2.33c-0.1-1.38,0.94-2.58,2.33-2.68
						c3.27-0.24,9.68-0.14,16.95-0.02c7.45,0.12,15.81,0.25,22.56,0.04c4.6-0.15,7.09-1.01,8.38-2.24c1.08-1.03,1.33-2.55,1.37-4.12
						c0.04-1.42,0.01-2.86-0.9-3.71c-1.25-1.18-4-2.01-9.65-2.15c-5.46-0.13-10.45-0.14-15.08-0.15
						C175.01,220.97,162.87,220.94,151.84,215.48z"/>
					<path class="st2" d="M153.41,256.19c-1.38,0.11-2.59-0.93-2.7-2.31c-0.11-1.38,0.93-2.59,2.31-2.7
						c5.64-0.45,12.96-0.67,20.32-0.68c7.68-0.01,15.32,0.2,21.03,0.62c5.25,0.38,9.23,1.03,12.02,3.67
						c2.81,2.65,4.01,6.93,3.5,14.37c-0.09,1.38-1.29,2.43-2.67,2.34c-1.38-0.09-2.43-1.29-2.34-2.67c0.4-5.76-0.27-8.82-1.92-10.38
						c-1.67-1.57-4.75-2.01-8.94-2.32c-5.7-0.41-13.21-0.63-20.67-0.62C166.23,255.52,159.05,255.74,153.41,256.19z"/>
					<path class="st2" d="M192.93,265.02c1.38,0.03,2.48,1.18,2.45,2.56c-0.03,1.38-1.18,2.48-2.56,2.45l-3.48-0.09
						c-6.62-0.17-12.04-0.31-17.5,0.23c-2.74,0.27-4.32,1.1-4.96,2.12c-0.24,0.37-0.34,0.79-0.32,1.2h0
						c0.02,0.49,0.2,1.01,0.52,1.51c0.9,1.43,2.8,2.62,5.39,2.85c2.13,0.19,4.78,0.08,7.63-0.03c2.02-0.08,4.13-0.17,6-0.17
						c1.39,0,2.52,1.13,2.52,2.51c0,1.39-1.13,2.52-2.52,2.52c-2.16,0-4.02,0.08-5.8,0.15c-3.01,0.12-5.8,0.24-8.28,0.01
						c-4.28-0.39-7.53-2.54-9.18-5.17c-0.78-1.23-1.22-2.59-1.29-3.95v-0.01c-0.07-1.43,0.28-2.84,1.09-4.12
						c1.41-2.23,4.24-3.98,8.72-4.42c5.75-0.57,11.31-0.42,18.11-0.25L192.93,265.02z"/>
					<path class="st2" d="M241.2,136.32l0.49,152.27h-0.1l0.01,4.25c-0.16,2.09-0.54,3.51-1.19,4.41c-0.72,1.01-2.09,1.45-4.17,1.63
						c-1.58,0.14-3.2,0.06-5.09-0.03c-0.78-0.04-1.61-0.08-2.68-0.11c-2.54-0.08-2.57-2.5-2.64-7.62c-0.01-1.06-0.03-2.21-0.06-3.37
						c-0.14-4.9-0.08-10.94-0.02-17.05c0.08-7.88,0.16-15.87-0.17-21.67c-0.08-1.38-1.26-2.44-2.64-2.37
						c-1.38,0.08-2.44,1.26-2.37,2.64c0.33,5.76,0.25,13.61,0.17,21.36c-0.06,6.17-0.12,12.28,0.02,17.23
						c0.04,1.23,0.05,2.3,0.06,3.29c0.11,8.39,0.17,12.34,7.49,12.57h0.01c0.81,0.02,1.73,0.07,2.59,0.11
						c2.12,0.1,3.94,0.19,5.76,0.03c1.95-0.17,3.59-0.54,4.96-1.24c0.03,8.64-1.26,13.79-11.27,13.79h-18.48
						c-12.81,0-23.08-2.64-30.26-7.47c-6.98-4.69-11.05-11.53-11.66-20.06l-0.16-2.29l-2.3-0.04c-4.75-0.09-8.44-2.15-11.07-5.19
						c-1.69-1.96-2.95-4.33-3.78-6.87c-0.85-2.59-1.25-5.33-1.2-7.95c0.09-4.59,1.53-8.83,4.34-11.26l3.56-3.07L154.8,251
						c-4.63-1.27-7.88-4.49-9.75-8.53c-1.08-2.33-1.72-4.93-1.9-7.6c-0.19-2.7,0.07-5.46,0.78-8.04c1.4-5.11,4.55-9.61,9.4-11.86
						l3.57-1.66l-3-2.54c-3.58-3.03-5.83-7.15-6.78-11.51c-0.84-3.83-0.67-7.82,0.48-11.39c1.12-3.5,3.19-6.6,6.17-8.73
						c2.76-1.97,6.34-3.15,10.73-3.08l4.31,0.06l-2.08-3.77c-3.11-5.63-4.33-11.05-3.9-15.75c0.26-2.82,1.11-5.38,2.51-7.57
						c1.38-2.16,3.33-3.98,5.77-5.33c3.78-2.08,8.75-3.06,14.75-2.51l2.5,0.23l0.23-2.5c0.93-10.27,7.57-18.28,15.95-22.14
						c3.75-1.73,7.84-2.62,11.9-2.51c4.02,0.11,8.05,1.21,11.72,3.46C233.67,121.11,238.39,127.12,241.2,136.32L241.2,136.32z
						 M246.65,303.06l-0.03-10.07c0.07-0.95,0.1-1.98,0.1-3.11l-0.39-114.84l0.02-0.18v-38.83c-3.15-11.16-8.85-18.46-15.57-22.59
						c-4.44-2.73-9.32-4.06-14.21-4.19c-4.85-0.13-9.7,0.93-14.13,2.96c-9.23,4.25-16.67,12.8-18.53,23.83
						c-6.01-0.2-11.14,1-15.21,3.25c-3.18,1.76-5.74,4.16-7.58,7.04c-1.83,2.86-2.95,6.19-3.28,9.81
						c-0.43,4.66,0.45,9.83,2.76,15.14c-3.8,0.51-7.06,1.85-9.75,3.78c-3.91,2.79-6.59,6.79-8.03,11.28
						c-1.42,4.42-1.63,9.31-0.61,13.98c0.94,4.3,2.92,8.42,5.95,11.84c-4.57,3.17-7.59,8.01-9.06,13.35
						c-0.86,3.15-1.19,6.46-0.96,9.69c0.23,3.27,1.01,6.48,2.35,9.36c1.95,4.21,5.08,7.76,9.4,9.9c-2.23,3.29-3.38,7.56-3.46,12.02
						c-0.06,3.19,0.42,6.49,1.44,9.58c1.03,3.15,2.62,6.12,4.77,8.6c3.07,3.56,7.26,6.11,12.54,6.76
						c1.22,9.14,5.95,16.52,13.66,21.7c8.01,5.38,19.24,8.33,33.05,8.33h18.21C242.82,321.85,246.68,315.39,246.65,303.06z"/>
					<path class="st2" d="M205.63,221.11c-1.38-0.03-2.48-1.18-2.45-2.56s1.18-2.48,2.56-2.45l3.48,0.09
						c6.63,0.17,12.04,0.31,17.5-0.23c2.74-0.27,4.32-1.1,4.96-2.12c0.24-0.37,0.34-0.79,0.32-1.2h0c-0.02-0.49-0.2-1.01-0.52-1.51
						c-0.9-1.43-2.8-2.62-5.39-2.85c-2.13-0.19-4.78-0.08-7.63,0.03c-2.02,0.08-4.13,0.17-6,0.17c-1.39,0-2.52-1.13-2.52-2.52
						c0-1.39,1.13-2.52,2.52-2.52c2.16,0,4.02-0.08,5.8-0.15c3.01-0.12,5.8-0.24,8.28-0.01c4.28,0.39,7.53,2.54,9.18,5.17
						c0.78,1.23,1.22,2.59,1.29,3.95v0.01c0.07,1.43-0.28,2.84-1.09,4.12c-1.41,2.23-4.24,3.98-8.72,4.42
						c-5.75,0.57-11.31,0.42-18.11,0.25L205.63,221.11z"/>
					<path class="st2" d="M211.24,150.8c-1.18-0.73-1.54-2.27-0.81-3.45c0.73-1.18,2.27-1.54,3.45-0.81
						c2.74,1.69,5.68,2.45,8.32,2.43c1.9-0.02,3.62-0.43,4.96-1.19c1.17-0.66,2.03-1.59,2.4-2.72h0.01c0.28-0.84,0.3-1.84,0.01-3
						c-0.41-1.62-3.75-4.81-8.78-7.26c-3.71-1.81-8.26-3.07-13.12-2.78c-1.38,0.08-2.57-0.98-2.65-2.36
						c-0.08-1.38,0.98-2.57,2.36-2.65c5.84-0.35,11.23,1.14,15.62,3.27c6.36,3.1,10.77,7.87,11.45,10.56
						c0.53,2.11,0.45,4.06-0.13,5.79l0.01,0c-0.78,2.37-2.46,4.24-4.7,5.51c-2.07,1.17-4.64,1.82-7.4,1.84
						C218.72,154,214.83,153.01,211.24,150.8z"/>
					<path class="st2" d="M223.26,290.75l-18.8,0.16c-4.16,0.04-7.39,0.5-9.53,1.41c-1.44,0.62-2.25,1.41-2.31,2.37
						c-0.21,3.09,0.54,4.94,2.41,5.92c2.45,1.28,6.66,1.61,12.75,1.43c1.38-0.04,2.54,1.05,2.57,2.44c0.04,1.38-1.05,2.54-2.44,2.57
						c-6.95,0.2-11.91-0.27-15.21-1.98c-3.88-2.02-5.48-5.37-5.1-10.71c0.21-3.04,2.07-5.25,5.36-6.65
						c2.75-1.17,6.63-1.77,11.46-1.81l18.84-0.16V290.75z"/>
				</g>
			</g>
			<g>
				<path class="st3" d="M267.96,317.75h20.16c26.72,0,43.1-11.26,44.43-29.87c18.8-0.36,23.39-26.97,13.31-35.67
					c17.58-4.83,17.92-33.27,1.86-40.72c14.31-12.12,9.67-39.44-12.24-39.13c10.62-19.24,0.8-36.91-21.56-34.87
					c-2.54-27.94-51.91-45.68-59.32,14.93l-0.68,150.6C254.41,304.85,253.98,317.75,267.96,317.75z"/>
				<g>
					<path class="st4" d="M309.18,129.74c-0.49-1.29,0.15-2.74,1.44-3.23c1.29-0.49,2.74,0.15,3.23,1.44
						c4.27,11.12,1.67,15.61-3.85,17.73c-2.71,1.04-5.97,1.3-9.38,1.57c-8.07,0.64-17.28,1.37-16.14,15.19
						c0.11,1.38-0.92,2.6-2.3,2.71c-1.38,0.11-2.6-0.92-2.71-2.3c-1.56-18.84,10.34-19.79,20.76-20.62
						c3.08-0.24,6.01-0.48,7.99-1.24C310.95,139.95,312.04,137.2,309.18,129.74z"/>
					<path class="st4" d="M334.24,168.73c0.69-1.2,2.22-1.61,3.42-0.92c1.2,0.69,1.61,2.22,0.92,3.42
						c-3.21,5.57-4.64,10.61-5.83,14.78l0,0c-2.64,9.28-4.22,14.84-17.9,14.92c-1.24,0.01-2.57,0.03-3.9,0.04
						c-2.65,0.04-5.35,0.07-8.01,0.03c-12.51-0.18-23.78-2.07-23.62-12.99c0.14-9.78,4.59-10.64,8.68-11.43
						c1.46-0.28,2.82-0.55,3.08-2.19l-0.01,0c0.18-1.16-0.02-2.62-0.21-4.08c-0.13-0.95-0.25-1.91-0.31-2.86
						c-0.27-5.13,1.19-9.53,11.91-10.1c4.83-0.26,9.03-0.33,12.34,0.3c3.96,0.76,6.74,2.5,7.95,5.91c0.29,0.84,0.52,1.84,0.62,2.91
						c0.15,1.74-0.06,3.72-0.9,5.5c-0.9,1.9-2.47,3.54-4.99,4.43c-0.88,0.31-1.86,0.52-2.96,0.62c-2.94,0.25-4.73,1.42-5.37,2.77
						c-0.19,0.41-0.27,0.83-0.23,1.22c0.04,0.37,0.19,0.74,0.46,1.07c0.94,1.15,3.09,1.85,6.59,1.38c1.37-0.18,2.64,0.78,2.82,2.15
						c0.18,1.37-0.78,2.64-2.15,2.82c-5.47,0.75-9.2-0.8-11.13-3.17c-0.91-1.11-1.44-2.39-1.58-3.72c-0.14-1.3,0.09-2.65,0.7-3.91
						c1.34-2.79,4.53-5.19,9.46-5.61c0.67-0.06,1.25-0.18,1.72-0.35c1.09-0.39,1.76-1.06,2.12-1.84c0.42-0.89,0.51-1.96,0.43-2.95
						c-0.05-0.62-0.18-1.19-0.34-1.65c-0.51-1.44-1.98-2.23-4.15-2.65c-2.82-0.54-6.67-0.46-11.14-0.23
						c-6.39,0.34-7.29,2.42-7.16,4.84c0.04,0.78,0.16,1.63,0.27,2.47c0.24,1.83,0.49,3.67,0.21,5.47l-0.01,0.01
						c-0.8,5.15-3.84,5.73-7.09,6.36c-2.17,0.42-4.53,0.88-4.61,6.55c-0.1,6.6,8.8,7.78,18.67,7.92c2.6,0.04,5.28,0,7.89-0.03
						c1.32-0.02,2.62-0.04,3.94-0.04c9.9-0.06,11.1-4.27,13.09-11.28v-0.01C329.17,180.22,330.69,174.88,334.24,168.73z"/>
					<path class="st4" d="M345.95,209.78c1.24-0.61,2.75-0.1,3.36,1.14c0.61,1.24,0.1,2.75-1.14,3.36
						c-11.03,5.47-23.18,5.49-40.01,5.53c-4.62,0.01-9.62,0.02-15.08,0.15c-5.65,0.13-8.4,0.97-9.65,2.15
						c-0.91,0.85-0.93,2.28-0.89,3.71c0.04,1.57,0.29,3.09,1.37,4.12c1.29,1.23,3.78,2.09,8.38,2.24
						c6.75,0.22,15.12,0.08,22.56-0.04c7.27-0.12,13.68-0.22,16.95,0.02c1.38,0.1,2.43,1.3,2.33,2.68c-0.1,1.38-1.3,2.43-2.68,2.33
						c-3.19-0.23-9.43-0.14-16.51-0.02c-7.52,0.12-15.97,0.26-22.8,0.04c-6.02-0.19-9.57-1.59-11.68-3.61
						c-2.32-2.22-2.85-4.93-2.92-7.64c-0.07-2.57,0.03-5.2,2.47-7.48c2.09-1.96,5.89-3.34,12.99-3.5c5.45-0.13,10.5-0.14,15.17-0.15
						C324.3,214.76,335.94,214.74,345.95,209.78z"/>
					<path class="st4" d="M346.99,249.98c1.38,0.11,2.42,1.32,2.31,2.7c-0.11,1.38-1.32,2.42-2.7,2.31
						c-9.64-0.77-20.7-1.14-30.37-0.44c-4.19,0.3-6.9,0.09-8.56,1.67c-1.65,1.56-1.95,14.77-1.55,20.52
						c0.09,1.38-0.95,3.42-2.34,3.51c-1.38,0.09-2.58-1.79-2.67-3.18c-0.51-7.44-0.24-21.95,2.56-24.61
						c2.79-2.64,6.95-2.55,12.2-2.93C325.75,248.83,337.14,249.2,346.99,249.98z"/>
					<path class="st4" d="M257.53,302.55c-1.38,0.01-2.51-1.1-2.53-2.48c-0.01-1.38,1.1-2.51,2.49-2.53l22.33-0.19
						c4.16-0.04,7.39-0.5,9.53-1.42c1.44-0.62,2.25-1.41,2.31-2.37c0.21-3.09-0.54-4.94-2.41-5.92c-2.46-1.28-6.66-1.61-12.76-1.43
						c-1.38,0.04-2.54-1.05-2.57-2.44c-0.04-1.38,1.05-2.54,2.44-2.57c6.95-0.2,11.91,0.27,15.21,1.98
						c3.88,2.02,5.48,5.37,5.1,10.71c-0.21,3.04-2.07,5.25-5.36,6.65c-2.75,1.17-6.63,1.77-11.46,1.81L257.53,302.55z"/>
					<path class="st4" d="M303.84,275.03c-1.38-0.03-2.53,1.06-2.56,2.45c-0.03,1.38,1.06,2.53,2.45,2.56l3.48,0.09
						c6.8,0.18,12.36,0.32,18.11-0.25c4.48-0.44,7.3-2.19,8.72-4.42c0.81-1.27,1.16-2.69,1.09-4.12v-0.01
						c-0.06-1.36-0.51-2.71-1.29-3.95c-1.66-2.63-4.9-4.78-9.18-5.17c-2.48-0.23-5.28-0.11-8.28,0.01c-1.78,0.07-3.64,0.15-5.8,0.15
						c-1.39,0-2.52,1.13-2.52,2.52c0,1.39,1.13,2.51,2.52,2.51c1.87,0,3.98-0.09,6-0.17c2.85-0.12,5.51-0.23,7.63-0.03
						c2.6,0.24,4.49,1.42,5.39,2.86c0.32,0.5,0.5,1.02,0.52,1.51h0c0.02,0.41-0.09,0.83-0.32,1.2c-0.65,1.02-2.22,1.85-4.96,2.12
						c-5.46,0.54-10.88,0.4-17.5,0.23L303.84,275.03z"/>
					<path class="st4" d="M287.53,144.7c1.23-0.64,2.75-0.16,3.39,1.07c0.64,1.23,0.16,2.75-1.07,3.39
						c-3.62,1.88-7.3,2.77-10.54,2.75c-2.63-0.01-5-0.6-6.87-1.73c-2.05-1.23-3.52-3.07-4.13-5.45c-0.42-1.63-0.42-3.48,0.09-5.51
						c0.68-2.67,4.47-6.78,10.15-9.78c4.09-2.16,9.26-3.87,15.03-4.19c1.38-0.08,2.57,0.98,2.64,2.37c0.08,1.38-0.98,2.57-2.37,2.64
						c-4.97,0.28-9.43,1.76-12.97,3.62c-4.41,2.33-7.23,5.02-7.62,6.55c-0.31,1.21-0.33,2.22-0.11,3.05
						c0.26,1.02,0.92,1.83,1.85,2.39c1.11,0.67,2.59,1.02,4.3,1.02C281.77,146.92,284.64,146.21,287.53,144.7z"/>
					<path class="st4" d="M258.6,149.9c-0.08-3.92-0.1-7.72,0.8-11.23c2.07-8.15,7.28-16.52,14.57-21.04
						c7.47-4.62,15.92-4.33,23.51-0.15c7.46,4.1,13.16,11.66,13.94,20.25l0.23,2.5l2.49-0.23c6-0.55,10.97,0.42,14.75,2.51
						c2.44,1.35,4.39,3.17,5.77,5.33c1.4,2.19,2.25,4.75,2.51,7.57c0.43,4.7-0.79,10.13-3.9,15.75l-2.08,3.77l4.31-0.06
						c4.39-0.06,7.98,1.11,10.74,3.08c2.98,2.13,5.04,5.23,6.17,8.73c1.14,3.57,1.31,7.56,0.47,11.39
						c-0.95,4.35-3.2,8.48-6.78,11.51l-3,2.54l3.57,1.66c4.85,2.25,7.99,6.75,9.4,11.86c0.71,2.59,0.97,5.34,0.78,8.04
						c-0.18,2.66-0.82,5.27-1.9,7.6c-1.87,4.04-5.12,7.26-9.75,8.53l-4.54,1.25l3.55,3.07c2.81,2.43,4.26,6.66,4.34,11.26
						c0.05,2.63-0.35,5.37-1.2,7.95c-0.83,2.54-2.1,4.92-3.78,6.87c-2.62,3.04-6.32,5.1-11.07,5.19l-2.3,0.04l-0.16,2.28
						c-0.61,8.53-4.68,15.37-11.66,20.06c-7.18,4.83-17.45,7.47-30.26,7.47h-14.35c-14.46,0.37-14.53-2.56-14.72-10.63
						C257.88,253.05,258.79,201.47,258.6,149.9L258.6,149.9z M253.73,140.84c-0.09,0.25-0.14,0.51-0.14,0.78V304.7
						c0.56,7.57-0.76,15.94,20.09,15.57h14.44c13.81,0,25.04-2.95,33.05-8.33c7.71-5.18,12.44-12.56,13.66-21.7
						c5.28-0.65,9.46-3.19,12.54-6.76c2.14-2.48,3.73-5.46,4.77-8.6c1.02-3.1,1.5-6.4,1.44-9.58c-0.08-4.46-1.24-8.73-3.46-12.02
						c4.32-2.14,7.45-5.68,9.4-9.9c1.34-2.89,2.12-6.09,2.35-9.36c0.23-3.23-0.1-6.54-0.96-9.69c-1.47-5.34-4.49-10.18-9.06-13.35
						c3.04-3.42,5.02-7.54,5.95-11.84c1.02-4.67,0.8-9.57-0.61-13.98c-1.44-4.49-4.13-8.49-8.03-11.28
						c-2.69-1.93-5.95-3.26-9.75-3.78c2.32-5.31,3.19-10.47,2.76-15.14c-0.33-3.63-1.45-6.95-3.28-9.81
						c-1.84-2.88-4.4-5.29-7.58-7.04c-4.08-2.25-9.21-3.45-15.22-3.25c-1.69-9.3-8.06-17.31-16.19-21.78
						c-8.95-4.92-19.57-5.32-28.39,0.13C263.46,118.17,255.37,129.83,253.73,140.84z"/>
					<path class="st4" d="M283.01,190.07c1.38-0.07,2.56,0.99,2.63,2.37c0.07,1.38-0.99,2.56-2.37,2.63l-3.48,0.17
						c-6.62,0.32-3.47-0.53-8.88,0.42c-2.71,0.48-4.22,1.42-4.79,2.49c-0.21,0.39-0.28,0.81-0.23,1.22h0
						c0.06,0.48,0.28,0.99,0.63,1.47c1.01,1.36,2.98,2.4,5.59,2.44c2.13,0.03,4.77-0.28,7.61-0.61c2.01-0.23,4.11-0.48,5.97-0.62
						c1.38-0.1,2.59,0.93,2.7,2.32c0.1,1.38-0.94,2.59-2.32,2.7c-2.15,0.16-4,0.38-5.77,0.59c-2.99,0.35-5.77,0.67-8.26,0.63
						c-4.3-0.07-7.7-1.97-9.55-4.47c-0.87-1.17-1.41-2.49-1.58-3.84l0-0.01c-0.17-1.42,0.07-2.86,0.78-4.19
						c1.24-2.33,3.93-4.28,8.36-5.06c5.69-1,2.69-0.15,9.48-0.49L283.01,190.07z"/>
					<path class="st4" d="M257.15,248.85c-1.84-0.03-3.3-1.18-3.26-2.56s1.57-2.48,3.42-2.45l4.64,0.09l22.16-0.15v5.03l-22.31,0.13
						L257.15,248.85z"/>
					<path class="st4" d="M284.06,245.12c0.18,6.8,0.32,12.36-0.25,18.11c-0.44,4.48-2.19,7.3-4.42,8.72
						c-2.54,1.61-5.59,1.37-8.08-0.2c-5.44-3.43-5.1-8.55-5.1-13.78c0-1.39,1.13-2.52,2.52-2.52c1.39,0,2.51,1.13,2.51,2.52
						c0,3.13-0.86,7.26,2.74,9.53c0.75,0.47,1.91,0.71,2.71,0.2c1.02-0.65,1.85-2.22,2.12-4.96l0.23-17.5L284.06,245.12z"/>
				</g>
			</g>
		</g>
		<g>
			<g>
				<path class="st5" d="M267.96,317.75h20.16c26.72,0,43.1-11.26,44.43-29.87c18.8-0.36,23.39-26.97,13.31-35.67
					c17.58-4.83,17.92-33.27,1.86-40.72c14.31-12.12,9.67-39.44-12.24-39.13c10.62-19.24,0.8-36.91-21.56-34.87
					c-2.54-27.94-51.91-45.68-59.32,14.93l-0.68,150.6C254.41,304.85,253.98,317.75,267.96,317.75z"/>
				<path class="st6" d="M266.05,317.67c-3.38-2.22-6.76-4.41-10.15-6.55c-1.72-3.47-1.74-7.18-1.99-8.1l0.68-150.6
					c1.22-9.96,3.57-17.79,6.66-23.82c1.13-2.21,7.03-13.58,23.87-16.85c13.93-0.18,27.5,11.44,28.8,25.74
					c22.36-2.04,32.18,15.63,21.56,34.87c21.92-0.32,26.55,27.01,12.24,39.13c16.06,7.45,15.71,35.9-1.86,40.72
					c10.08,8.69,5.49,35.31-13.31,35.67c-1.33,18.61-17.71,29.87-44.43,29.87h-20.16C267.29,317.75,266.66,317.72,266.05,317.67z"/>
				<path class="st3" d="M328.64,300.68c-24.95-11.92-51.14-23.2-74.57-31.85l0.43-95.41c23.99-8.88,50.84-20.49,76.27-32.72
					c9.61,5.8,12.05,18.36,4.7,31.67c21.92-0.32,26.55,27.01,12.24,39.13c16.06,7.45,15.71,35.9-1.86,40.72
					c10.08,8.69,5.49,35.31-13.31,35.67C332.21,292.66,330.87,296.94,328.64,300.68z"/>
				<path class="st7" d="M351,267.6c-28.9-10.01-63.3-20.97-96.81-27.61l0.17-37.63c32.18-6.39,65.19-16.76,93.33-26.44
					c10.81,7.75,11.08,26.2,0.02,35.57c16.06,7.45,15.71,35.9-1.86,40.72C349.71,255.55,351.42,261.5,351,267.6z"/>
			</g>
			<g>
				<path class="st5" d="M309.18,129.74c-0.49-1.29,0.15-2.74,1.44-3.23c1.29-0.49,2.74,0.15,3.23,1.44
					c4.27,11.12,1.67,15.61-3.85,17.73c-2.71,1.04-5.97,1.3-9.38,1.57c-8.07,0.64-17.28,1.37-16.14,15.19
					c0.11,1.38-0.92,2.6-2.3,2.71c-1.38,0.11-2.6-0.92-2.71-2.3c-1.56-18.84,10.34-19.79,20.76-20.62c3.08-0.24,6.01-0.48,7.99-1.24
					C310.95,139.95,312.04,137.2,309.18,129.74z"/>
				<path class="st5" d="M334.24,168.73c0.69-1.2,2.22-1.61,3.42-0.92c1.2,0.69,1.61,2.22,0.92,3.42
					c-3.21,5.57-4.64,10.61-5.83,14.78l0,0c-2.64,9.28-4.22,14.84-17.9,14.92c-1.24,0.01-2.57,0.03-3.9,0.04
					c-2.65,0.04-5.35,0.07-8.01,0.03c-12.51-0.18-23.78-2.07-23.62-12.99c0.14-9.78,4.59-10.64,8.68-11.43
					c1.46-0.28,2.82-0.55,3.08-2.19l-0.01,0c0.18-1.16-0.02-2.62-0.21-4.08c-0.13-0.95-0.25-1.91-0.31-2.86
					c-0.27-5.13,1.19-9.53,11.91-10.1c4.83-0.26,9.03-0.33,12.34,0.3c3.96,0.76,6.74,2.5,7.95,5.91c0.29,0.84,0.52,1.84,0.62,2.91
					c0.15,1.74-0.06,3.72-0.9,5.5c-0.9,1.9-2.47,3.54-4.99,4.43c-0.88,0.31-1.86,0.52-2.96,0.62c-2.94,0.25-4.73,1.42-5.37,2.77
					c-0.19,0.41-0.27,0.83-0.23,1.22c0.04,0.37,0.19,0.74,0.46,1.07c0.94,1.15,3.09,1.85,6.59,1.38c1.37-0.18,2.64,0.78,2.82,2.15
					c0.18,1.37-0.78,2.64-2.15,2.82c-5.47,0.75-9.2-0.8-11.13-3.17c-0.91-1.11-1.44-2.39-1.58-3.72c-0.14-1.3,0.09-2.65,0.7-3.91
					c1.34-2.79,4.53-5.19,9.46-5.61c0.67-0.06,1.25-0.18,1.72-0.35c1.09-0.39,1.76-1.06,2.12-1.84c0.42-0.89,0.51-1.96,0.43-2.95
					c-0.05-0.62-0.18-1.19-0.34-1.65c-0.51-1.44-1.98-2.23-4.15-2.65c-2.82-0.54-6.67-0.46-11.14-0.23
					c-6.39,0.34-7.29,2.42-7.16,4.84c0.04,0.78,0.16,1.63,0.27,2.47c0.24,1.83,0.49,3.67,0.21,5.47l-0.01,0.01
					c-0.8,5.15-3.84,5.73-7.09,6.36c-2.17,0.42-4.53,0.88-4.61,6.55c-0.1,6.6,8.8,7.78,18.67,7.92c2.6,0.04,5.28,0,7.89-0.03
					c1.32-0.02,2.62-0.04,3.94-0.04c9.9-0.06,11.1-4.27,13.09-11.28v-0.01C329.17,180.22,330.69,174.88,334.24,168.73z"/>
				<path class="st5" d="M345.95,209.78c1.24-0.61,2.75-0.1,3.36,1.14c0.61,1.24,0.1,2.75-1.14,3.36
					c-11.03,5.47-23.18,5.49-40.01,5.53c-4.62,0.01-9.62,0.02-15.08,0.15c-5.65,0.13-8.4,0.97-9.65,2.15
					c-0.91,0.85-0.93,2.28-0.89,3.71c0.04,1.57,0.29,3.09,1.37,4.12c1.29,1.23,3.78,2.09,8.38,2.24c6.75,0.22,15.12,0.08,22.56-0.04
					c7.27-0.12,13.68-0.22,16.95,0.02c1.38,0.1,2.43,1.3,2.33,2.68c-0.1,1.38-1.3,2.43-2.68,2.33c-3.19-0.23-9.43-0.14-16.51-0.02
					c-7.52,0.12-15.97,0.26-22.8,0.04c-6.02-0.19-9.57-1.59-11.68-3.61c-2.32-2.22-2.85-4.93-2.92-7.64
					c-0.07-2.57,0.03-5.2,2.47-7.48c2.09-1.96,5.89-3.34,12.99-3.5c5.45-0.13,10.5-0.14,15.17-0.15
					C324.3,214.76,335.94,214.74,345.95,209.78z"/>
				<path class="st5" d="M346.99,249.98c1.38,0.11,2.42,1.32,2.31,2.7c-0.11,1.38-1.32,2.42-2.7,2.31
					c-9.64-0.77-20.7-1.14-30.37-0.44c-4.19,0.3-6.9,0.09-8.56,1.67c-1.65,1.56-1.95,14.77-1.55,20.52
					c0.09,1.38-0.95,3.42-2.34,3.51c-1.38,0.09-2.58-1.79-2.67-3.18c-0.51-7.44-0.24-21.95,2.56-24.61
					c2.79-2.64,6.95-2.55,12.2-2.93C325.75,248.83,337.14,249.2,346.99,249.98z"/>
				<path class="st5" d="M257.53,302.55c-1.38,0.01-2.51-1.1-2.53-2.48c-0.01-1.38,1.1-2.51,2.49-2.53l22.33-0.19
					c4.16-0.04,7.39-0.5,9.53-1.42c1.44-0.62,2.25-1.41,2.31-2.37c0.21-3.09-0.54-4.94-2.41-5.92c-2.46-1.28-6.66-1.61-12.76-1.43
					c-1.38,0.04-2.54-1.05-2.57-2.44c-0.04-1.38,1.05-2.54,2.44-2.57c6.95-0.2,11.91,0.27,15.21,1.98c3.88,2.02,5.48,5.37,5.1,10.71
					c-0.21,3.04-2.07,5.25-5.36,6.65c-2.75,1.17-6.63,1.77-11.46,1.81L257.53,302.55z"/>
				<path class="st5" d="M303.84,275.03c-1.38-0.03-2.53,1.06-2.56,2.45c-0.03,1.38,1.06,2.53,2.45,2.56l3.48,0.09
					c6.8,0.18,12.36,0.32,18.11-0.25c4.48-0.44,7.3-2.19,8.72-4.42c0.81-1.27,1.16-2.69,1.09-4.12v-0.01
					c-0.06-1.36-0.51-2.71-1.29-3.95c-1.66-2.63-4.9-4.78-9.18-5.17c-2.48-0.23-5.28-0.11-8.28,0.01c-1.78,0.07-3.64,0.15-5.8,0.15
					c-1.39,0-2.52,1.13-2.52,2.52c0,1.39,1.13,2.51,2.52,2.51c1.87,0,3.98-0.09,6-0.17c2.85-0.12,5.51-0.23,7.63-0.03
					c2.6,0.24,4.49,1.42,5.39,2.86c0.32,0.5,0.5,1.02,0.52,1.51h0c0.02,0.41-0.09,0.83-0.32,1.2c-0.65,1.02-2.22,1.85-4.96,2.12
					c-5.46,0.54-10.88,0.4-17.5,0.23L303.84,275.03z"/>
				<path class="st5" d="M287.53,144.7c1.23-0.64,2.75-0.16,3.39,1.07c0.64,1.23,0.16,2.75-1.07,3.39
					c-3.62,1.88-7.3,2.77-10.54,2.75c-2.63-0.01-5-0.6-6.87-1.73c-2.05-1.23-3.52-3.07-4.13-5.45c-0.42-1.63-0.42-3.48,0.09-5.51
					c0.68-2.67,4.47-6.78,10.15-9.78c4.09-2.16,9.26-3.87,15.03-4.19c1.38-0.08,2.57,0.98,2.64,2.37c0.08,1.38-0.98,2.57-2.37,2.64
					c-4.97,0.28-9.43,1.76-12.97,3.62c-4.41,2.33-7.23,5.02-7.62,6.55c-0.31,1.21-0.33,2.22-0.11,3.05
					c0.26,1.02,0.92,1.83,1.85,2.39c1.11,0.67,2.59,1.02,4.3,1.02C281.77,146.92,284.64,146.21,287.53,144.7z"/>
				<path class="st5" d="M258.6,149.9c-0.08-3.92-0.1-7.72,0.8-11.23c2.07-8.15,7.28-16.52,14.57-21.04
					c7.47-4.62,15.92-4.33,23.51-0.15c7.46,4.1,13.16,11.66,13.94,20.25l0.23,2.5l2.49-0.23c6-0.55,10.97,0.42,14.75,2.51
					c2.44,1.35,4.39,3.17,5.77,5.33c1.4,2.19,2.25,4.75,2.51,7.57c0.43,4.7-0.79,10.13-3.9,15.75l-2.08,3.77l4.31-0.06
					c4.39-0.06,7.98,1.11,10.74,3.08c2.98,2.13,5.04,5.23,6.17,8.73c1.14,3.57,1.31,7.56,0.47,11.39c-0.95,4.35-3.2,8.48-6.78,11.51
					l-3,2.54l3.57,1.66c4.85,2.25,7.99,6.75,9.4,11.86c0.71,2.59,0.97,5.34,0.78,8.04c-0.18,2.66-0.82,5.27-1.9,7.6
					c-1.87,4.04-5.12,7.26-9.75,8.53l-4.54,1.25l3.55,3.07c2.81,2.43,4.26,6.66,4.34,11.26c0.05,2.63-0.35,5.37-1.2,7.95
					c-0.83,2.54-2.1,4.92-3.78,6.87c-2.62,3.04-6.32,5.1-11.07,5.19l-2.3,0.04l-0.16,2.28c-0.61,8.53-4.68,15.37-11.66,20.06
					c-7.18,4.83-17.45,7.47-30.26,7.47h-14.35c-14.46,0.37-14.53-2.56-14.72-10.63C257.88,253.05,258.79,201.47,258.6,149.9
					L258.6,149.9z M253.73,140.84c-0.09,0.25-0.14,0.51-0.14,0.78V304.7c0.56,7.57-0.76,15.94,20.09,15.57h14.44
					c13.81,0,25.04-2.95,33.05-8.33c7.71-5.18,12.44-12.56,13.66-21.7c5.28-0.65,9.46-3.19,12.54-6.76c2.14-2.48,3.73-5.46,4.77-8.6
					c1.02-3.1,1.5-6.4,1.44-9.58c-0.08-4.46-1.24-8.73-3.46-12.02c4.32-2.14,7.45-5.68,9.4-9.9c1.34-2.89,2.12-6.09,2.35-9.36
					c0.23-3.23-0.1-6.54-0.96-9.69c-1.47-5.34-4.49-10.18-9.06-13.35c3.04-3.42,5.02-7.54,5.95-11.84c1.02-4.67,0.8-9.57-0.61-13.98
					c-1.44-4.49-4.13-8.49-8.03-11.28c-2.69-1.93-5.95-3.26-9.75-3.78c2.32-5.31,3.19-10.47,2.76-15.14
					c-0.33-3.63-1.45-6.95-3.28-9.81c-1.84-2.88-4.4-5.29-7.58-7.04c-4.08-2.25-9.21-3.45-15.22-3.25
					c-1.69-9.3-8.06-17.31-16.19-21.78c-8.95-4.92-19.57-5.32-28.39,0.13C263.46,118.17,255.37,129.83,253.73,140.84z"/>
				<path class="st5" d="M283.01,190.07c1.38-0.07,2.56,0.99,2.63,2.37c0.07,1.38-0.99,2.56-2.37,2.63l-3.48,0.17
					c-6.62,0.32-3.47-0.53-8.88,0.42c-2.71,0.48-4.22,1.42-4.79,2.49c-0.21,0.39-0.28,0.81-0.23,1.22h0
					c0.06,0.48,0.28,0.99,0.63,1.47c1.01,1.36,2.98,2.4,5.59,2.44c2.13,0.03,4.77-0.28,7.61-0.61c2.01-0.23,4.11-0.48,5.97-0.62
					c1.38-0.1,2.59,0.93,2.7,2.32c0.1,1.38-0.94,2.59-2.32,2.7c-2.15,0.16-4,0.38-5.77,0.59c-2.99,0.35-5.77,0.67-8.26,0.63
					c-4.3-0.07-7.7-1.97-9.55-4.47c-0.87-1.17-1.41-2.49-1.58-3.84l0-0.01c-0.17-1.42,0.07-2.86,0.78-4.19
					c1.24-2.33,3.93-4.28,8.36-5.06c5.69-1,2.69-0.15,9.48-0.49L283.01,190.07z"/>
				<path class="st5" d="M257.15,248.85c-1.84-0.03-3.3-1.18-3.26-2.56s1.57-2.48,3.42-2.45l4.64,0.09l22.16-0.15v5.03l-22.31,0.13
					L257.15,248.85z"/>
				<path class="st5" d="M284.06,245.12c0.18,6.8,0.32,12.36-0.25,18.11c-0.44,4.48-2.19,7.3-4.42,8.72
					c-2.54,1.61-5.59,1.37-8.08-0.2c-5.44-3.43-5.1-8.55-5.1-13.78c0-1.39,1.13-2.52,2.52-2.52c1.39,0,2.51,1.13,2.51,2.52
					c0,3.13-0.86,7.26,2.74,9.53c0.75,0.47,1.91,0.71,2.71,0.2c1.02-0.65,1.85-2.22,2.12-4.96l0.23-17.5L284.06,245.12z"/>
			</g>
		</g>
		<g>
			<g>
				<path class="st8" d="M188.93,283.1l24.6,6.33c-0.12,0.33-0.21,0.67-0.28,1.02l-24.71-6.39
					C188.69,283.75,188.83,283.43,188.93,283.1L188.93,283.1z M220.13,285.18l1.95-53.61c0.28,0.03,0.56,0.05,0.84,0.05
					c0.06,0,0.13,0,0.19,0l-1.97,53.72C220.81,285.26,220.47,285.2,220.13,285.18L220.13,285.18z M216.9,228.34l-29.26,18.82
					c-0.17-0.3-0.37-0.58-0.59-0.84l29.35-18.88C216.55,227.76,216.72,228.06,216.9,228.34L216.9,228.34z M179.49,245.15
					l-13.82-22.75c0.31-0.15,0.6-0.32,0.88-0.51l13.84,22.78C180.08,244.81,179.77,244.97,179.49,245.15L179.49,245.15z
					 M165.61,209.47l11.72-16.66c0.19,0.3,0.41,0.58,0.65,0.84l-11.48,16.31C166.22,209.78,165.92,209.61,165.61,209.47
					L165.61,209.47z M188.59,188.4l22.66-2.59c0.2,0.34,0.42,0.66,0.67,0.95l-23.24,2.66C188.68,189.07,188.65,188.73,188.59,188.4
					L188.59,188.4z M220.21,176.48l7.64-24.35c0.31,0.14,0.63,0.25,0.97,0.33l-7.71,24.59
					C220.82,176.83,220.52,176.64,220.21,176.48L220.21,176.48z M225.82,150.39c-0.19-0.29-0.36-0.6-0.49-0.93l-37.22,9.35
					c0.09,0.33,0.15,0.66,0.19,1.01L225.82,150.39z"/>
				<path class="st8" d="M187.28,164.19l23.53,15.79c-0.13,0.33-0.23,0.67-0.31,1.02l-23.84-16
					C186.88,164.75,187.09,164.48,187.28,164.19L187.28,164.19z M217.78,189.12l4.08,28.26c-0.34,0.05-0.68,0.13-1,0.22l-4.11-28.45
					c0.1,0,0.21,0.01,0.31,0.01C217.31,189.16,217.55,189.14,217.78,189.12L217.78,189.12z M216.92,220.55
					c0.19-0.29,0.39-0.56,0.62-0.81l-29.56-27.39c-0.16,0.31-0.35,0.6-0.56,0.87L216.92,220.55L216.92,220.55z M184.63,195.27v49.34
					c-0.33-0.12-0.67-0.22-1.02-0.28v-48.79C183.96,195.48,184.3,195.39,184.63,195.27L184.63,195.27z M184.54,255.56l-0.28,20.04
					c-0.29-0.04-0.59-0.07-0.89-0.07c-0.04,0-0.09,0-0.13,0l0.28-19.72C183.87,255.77,184.22,255.68,184.54,255.56L184.54,255.56z
					 M186.15,276.24l33.7-45.31c0.32,0.15,0.65,0.28,0.99,0.38L187,276.8C186.73,276.59,186.45,276.4,186.15,276.24z"/>
			</g>
			<g>
				<path class="st8" d="M184.04,182.9c0.62,0.16,1.2,0.41,1.74,0.73l1.28-1.26c0.92,0.62,1.71,1.42,2.33,2.35l-1.28,1.26
					c0.31,0.53,0.55,1.1,0.7,1.71l1.8,0.01c0.1,0.52,0.16,1.06,0.16,1.61c0,0.58-0.06,1.15-0.17,1.7l-1.8-0.01
					c-0.16,0.61-0.4,1.18-0.72,1.7l1.26,1.28c-0.62,0.92-1.42,1.71-2.35,2.33l-1.26-1.28c-0.52,0.3-1.08,0.54-1.68,0.69v1.8
					c-0.53,0.11-1.09,0.16-1.65,0.16s-1.12-0.06-1.65-0.16v-1.8c-0.62-0.16-1.2-0.41-1.73-0.72l-1.28,1.26
					c-0.92-0.62-1.71-1.42-2.33-2.35l1.28-1.26c-0.31-0.53-0.55-1.1-0.7-1.71l-1.8-0.01c-0.1-0.52-0.16-1.06-0.16-1.61
					c0-0.58,0.06-1.15,0.17-1.7l1.8,0.01c0.16-0.61,0.4-1.18,0.72-1.7l-1.26-1.28c0.62-0.92,1.42-1.71,2.35-2.33l1.26,1.28
					c0.52-0.3,1.08-0.54,1.68-0.69v-1.8c0.53-0.11,1.09-0.16,1.65-0.16s1.12,0.06,1.65,0.16V182.9L184.04,182.9z M184.78,187.48
					l-1.04,1.04c0.13,0.23,0.21,0.49,0.21,0.78s-0.08,0.55-0.21,0.78l1.04,1.04c0.38-0.51,0.61-1.14,0.61-1.82
					C185.4,188.62,185.17,187.99,184.78,187.48L184.78,187.48z M181.61,190.66l-1.04,1.04c0.51,0.39,1.14,0.61,1.82,0.61
					c0.69,0,1.32-0.23,1.82-0.61l-1.04-1.04c-0.23,0.13-0.49,0.21-0.78,0.21C182.1,190.86,181.84,190.79,181.61,190.66
					L181.61,190.66z M179.99,191.13l1.04-1.04c-0.13-0.23-0.21-0.49-0.21-0.78s0.08-0.55,0.21-0.78l-1.04-1.04
					c-0.39,0.51-0.61,1.14-0.61,1.82C179.38,189.99,179.6,190.62,179.99,191.13L179.99,191.13z M183.16,187.95l1.04-1.04
					c-0.51-0.39-1.14-0.61-1.82-0.61c-0.68,0-1.32,0.23-1.82,0.61l1.04,1.04c0.23-0.13,0.49-0.21,0.78-0.21
					C182.67,187.75,182.93,187.82,183.16,187.95L183.16,187.95z M182.39,183.64c-1.56,0-2.98,0.63-4.01,1.66
					c-1.03,1.03-1.66,2.44-1.66,4.01c0,1.56,0.63,2.98,1.66,4.01c1.03,1.03,2.44,1.66,4.01,1.66c1.57,0,2.98-0.63,4.01-1.66
					c1.03-1.03,1.66-2.44,1.66-4.01c0-1.57-0.63-2.98-1.66-4.01C185.37,184.27,183.95,183.64,182.39,183.64L182.39,183.64z
					 M185.92,185.77c-0.91-0.91-2.16-1.47-3.54-1.47c-1.38,0-2.63,0.56-3.54,1.47c-0.91,0.91-1.47,2.16-1.47,3.54
					c0,1.38,0.56,2.63,1.47,3.54c0.91,0.91,2.16,1.47,3.54,1.47c1.38,0,2.63-0.56,3.54-1.47c0.91-0.91,1.47-2.16,1.47-3.54
					C187.39,187.92,186.83,186.67,185.92,185.77L185.92,185.77z M182.39,185.22c-2.26,0-4.09,1.83-4.09,4.09
					c0,2.26,1.83,4.09,4.09,4.09c2.26,0,4.09-1.83,4.09-4.09C186.47,187.05,184.64,185.22,182.39,185.22L182.39,185.22z
					 M182.39,184.93c-2.42,0-4.38,1.96-4.38,4.38c0,2.42,1.96,4.38,4.38,4.38c2.42,0,4.38-1.96,4.38-4.38
					C186.76,186.89,184.8,184.93,182.39,184.93z"/>
				<path class="st8" d="M184.65,273.54l0.44-1.04c1.17,0.24,2.28,0.7,3.26,1.37l-0.44,1.04c0.69,0.5,1.31,1.12,1.82,1.84l1.05-0.43
					c0.31,0.47,0.59,0.99,0.81,1.53c0.24,0.58,0.41,1.16,0.52,1.75l-1.05,0.43c0.14,0.87,0.13,1.74-0.01,2.58l1.04,0.44
					c-0.24,1.17-0.7,2.28-1.37,3.26l-1.04-0.44c-0.49,0.68-1.1,1.29-1.8,1.79l0.43,1.05c-0.49,0.33-1.01,0.61-1.57,0.84
					c-0.56,0.23-1.13,0.4-1.7,0.52l-0.43-1.05c-0.88,0.15-1.77,0.14-2.62-0.01l-0.44,1.04c-1.17-0.24-2.28-0.7-3.26-1.37l0.44-1.04
					c-0.69-0.5-1.31-1.12-1.82-1.84l-1.05,0.43c-0.31-0.47-0.59-0.99-0.81-1.53c-0.24-0.57-0.41-1.16-0.52-1.75l1.05-0.43
					c-0.14-0.87-0.13-1.74,0.01-2.58l-1.04-0.44c0.24-1.17,0.7-2.28,1.37-3.27l1.04,0.44c0.49-0.68,1.1-1.29,1.8-1.79l-0.43-1.05
					c0.48-0.32,1.01-0.61,1.57-0.84c0.56-0.23,1.13-0.4,1.7-0.52l0.43,1.05C182.91,273.38,183.8,273.39,184.65,273.54L184.65,273.54
					z M187.82,277.98l-0.86,0.86c0.16,0.24,0.29,0.49,0.4,0.76c0.58,1.4,0.38,2.94-0.41,4.11l0.86,0.86
					c0.26-0.36,0.48-0.75,0.65-1.16c0.55-1.32,0.59-2.84,0-4.27C188.3,278.73,188.08,278.34,187.82,277.98L187.82,277.98z
					 M186.12,279.68l-1.01,1.01c0.13,0.39,0.12,0.81,0,1.18l1.01,1.01c0.07-0.12,0.13-0.24,0.18-0.36c0.32-0.76,0.34-1.65,0-2.47
					C186.25,279.92,186.19,279.8,186.12,279.68L186.12,279.68z M182.73,283.07l-1.01,1.01c0.12,0.07,0.24,0.13,0.36,0.18
					c0.76,0.32,1.65,0.34,2.47,0c0.13-0.05,0.25-0.11,0.36-0.18l-1.01-1.01C183.52,283.2,183.1,283.2,182.73,283.07L182.73,283.07z
					 M180.89,284.92l-0.86,0.86c0.36,0.26,0.75,0.48,1.16,0.65c1.32,0.55,2.84,0.59,4.27,0c0.42-0.17,0.81-0.39,1.16-0.65
					l-0.86-0.86c-0.23,0.16-0.49,0.29-0.76,0.41C183.59,285.91,182.06,285.7,180.89,284.92L180.89,284.92z M178.82,284.57l0.86-0.86
					c-0.16-0.23-0.29-0.49-0.41-0.76c-0.58-1.4-0.38-2.94,0.41-4.11l-0.86-0.86c-0.26,0.36-0.48,0.75-0.65,1.16
					c-0.55,1.32-0.59,2.84,0,4.27C178.35,283.83,178.57,284.22,178.82,284.57L178.82,284.57z M180.52,282.88l1.01-1.01
					c-0.13-0.39-0.12-0.81,0-1.18l-1.01-1.01c-0.07,0.12-0.13,0.24-0.18,0.36c-0.32,0.76-0.34,1.65,0,2.47
					C180.39,282.64,180.45,282.76,180.52,282.88L180.52,282.88z M183.91,279.48l1.01-1.01c-0.12-0.07-0.24-0.13-0.36-0.18
					c-0.76-0.32-1.65-0.34-2.47,0c-0.13,0.05-0.25,0.11-0.36,0.18l1.01,1.01C183.13,279.35,183.54,279.36,183.91,279.48
					L183.91,279.48z M185.76,277.64l0.86-0.86c-0.36-0.26-0.75-0.48-1.16-0.65c-1.32-0.55-2.84-0.59-4.27,0
					c-0.42,0.17-0.81,0.39-1.16,0.65l0.86,0.86c0.23-0.16,0.49-0.29,0.76-0.41C183.05,276.65,184.58,276.85,185.76,277.64z"/>
				<path class="st8" d="M219.59,282.21h0.38l0.07,1.21c0.17,0.01,0.33,0.02,0.5,0.03l0.22-1.19l0.38,0.05l-0.08,1.21
					c0.2,0.03,0.4,0.07,0.6,0.12l0.38-1.15l0.37,0.1l-0.24,1.18c0.16,0.05,0.32,0.1,0.47,0.16l0.52-1.09l0.35,0.14l-0.39,1.14
					c0.19,0.08,0.37,0.17,0.55,0.27l0.67-1.01l0.33,0.19l-0.54,1.08c0.14,0.09,0.28,0.18,0.42,0.28l0.79-0.92l0.31,0.23l-0.67,1.01
					c0.16,0.13,0.31,0.26,0.46,0.4l0.91-0.8l0.27,0.27l-0.8,0.91c0.11,0.12,0.22,0.25,0.33,0.37l1-0.68l0.24,0.3l-0.91,0.8
					c0.12,0.16,0.23,0.33,0.34,0.5l1.08-0.54l0.19,0.33l-1.01,0.67c0.08,0.15,0.15,0.29,0.22,0.45l1.14-0.4l0.15,0.35l-1.08,0.54
					c0.07,0.19,0.14,0.38,0.2,0.58l1.18-0.24l0.1,0.37l-1.15,0.38c0.04,0.16,0.07,0.33,0.1,0.49l1.21-0.09l0.05,0.38l-1.19,0.24
					c0.02,0.2,0.03,0.4,0.04,0.61l1.21,0.07v0.38l-1.21,0.07c-0.01,0.17-0.02,0.33-0.03,0.5l1.19,0.22l-0.05,0.38l-1.21-0.08
					c-0.03,0.2-0.07,0.4-0.12,0.6l1.15,0.38l-0.1,0.37l-1.18-0.24c-0.05,0.16-0.1,0.32-0.16,0.47l1.09,0.52l-0.14,0.36l-1.15-0.39
					c-0.08,0.19-0.17,0.37-0.27,0.55l1.01,0.67l-0.19,0.33l-1.08-0.54c-0.09,0.14-0.18,0.28-0.28,0.42l0.92,0.79l-0.23,0.31
					l-1.01-0.67c-0.13,0.16-0.26,0.31-0.4,0.46l0.8,0.91l-0.27,0.27l-0.91-0.8c-0.12,0.11-0.25,0.22-0.37,0.33l0.68,1l-0.3,0.24
					l-0.8-0.91c-0.16,0.12-0.33,0.23-0.5,0.34l0.54,1.08l-0.33,0.19l-0.67-1.01c-0.15,0.08-0.3,0.15-0.45,0.22l0.4,1.14l-0.35,0.15
					l-0.54-1.08c-0.19,0.07-0.38,0.14-0.58,0.2l0.24,1.18l-0.37,0.1l-0.38-1.15c-0.16,0.04-0.33,0.07-0.49,0.1l0.09,1.21l-0.38,0.05
					l-0.24-1.19c-0.2,0.02-0.4,0.04-0.61,0.04l-0.07,1.21h-0.38l-0.07-1.21c-0.17,0-0.33-0.02-0.5-0.03l-0.22,1.19l-0.38-0.05
					l0.08-1.21c-0.2-0.03-0.4-0.07-0.6-0.12l-0.38,1.15l-0.37-0.1l0.24-1.18c-0.16-0.05-0.32-0.1-0.47-0.16l-0.52,1.09l-0.36-0.14
					l0.39-1.14c-0.19-0.08-0.37-0.17-0.55-0.27l-0.67,1.01l-0.33-0.19l0.54-1.08c-0.14-0.09-0.28-0.18-0.42-0.28l-0.79,0.92
					l-0.31-0.23l0.67-1.01c-0.16-0.13-0.31-0.26-0.46-0.4l-0.91,0.8l-0.27-0.27l0.8-0.91c-0.11-0.12-0.22-0.25-0.33-0.38l-1,0.68
					l-0.24-0.3l0.91-0.8c-0.12-0.16-0.23-0.33-0.34-0.5l-1.08,0.54l-0.19-0.33l1.01-0.67c-0.08-0.15-0.15-0.3-0.22-0.45l-1.14,0.4
					l-0.15-0.35l1.08-0.54c-0.07-0.19-0.14-0.38-0.2-0.58l-1.18,0.24l-0.1-0.37l1.15-0.38c-0.04-0.16-0.07-0.32-0.1-0.49l-1.21,0.09
					l-0.05-0.38l1.19-0.24c-0.02-0.2-0.04-0.4-0.04-0.61l-1.21-0.07v-0.38l1.21-0.07c0.01-0.17,0.02-0.33,0.03-0.5l-1.19-0.22
					l0.05-0.38l1.21,0.08c0.03-0.2,0.07-0.4,0.12-0.6l-1.15-0.38l0.1-0.37l1.18,0.24c0.05-0.16,0.1-0.32,0.16-0.47l-1.09-0.52
					l0.14-0.35l1.14,0.39c0.08-0.19,0.17-0.37,0.27-0.55l-1.01-0.67l0.19-0.33l1.08,0.54c0.09-0.14,0.18-0.28,0.28-0.42l-0.92-0.79
					l0.23-0.31l1.01,0.67c0.13-0.16,0.26-0.31,0.4-0.46l-0.8-0.91l0.27-0.27l0.91,0.8c0.12-0.11,0.25-0.22,0.37-0.33l-0.68-1
					l0.3-0.24l0.8,0.91c0.16-0.12,0.33-0.23,0.5-0.34l-0.54-1.08l0.33-0.19l0.67,1.01c0.15-0.08,0.3-0.15,0.45-0.22l-0.4-1.14
					l0.35-0.15l0.54,1.08c0.19-0.07,0.38-0.14,0.58-0.2l-0.24-1.18l0.37-0.1l0.38,1.15c0.16-0.04,0.32-0.07,0.49-0.1l-0.09-1.21
					l0.38-0.05l0.24,1.19c0.2-0.02,0.4-0.04,0.61-0.04L219.59,282.21L219.59,282.21z M219.78,288.88c0.49,0,0.95,0.13,1.35,0.34
					l2.45-2.45c-1.05-0.81-2.37-1.3-3.8-1.3c-1.43,0-2.75,0.48-3.79,1.3l2.45,2.45C218.84,289.01,219.3,288.88,219.78,288.88
					L219.78,288.88z M222.24,290.34c0.22,0.4,0.34,0.86,0.34,1.35c0,0.49-0.13,0.95-0.34,1.35l2.45,2.45
					c0.81-1.05,1.3-2.37,1.3-3.79c0-1.43-0.48-2.75-1.3-3.8L222.24,290.34L222.24,290.34z M221.13,294.14
					c-0.4,0.22-0.86,0.34-1.35,0.34c-0.49,0-0.95-0.13-1.35-0.34l-2.45,2.45c1.05,0.81,2.37,1.3,3.79,1.3c1.43,0,2.75-0.48,3.8-1.3
					L221.13,294.14L221.13,294.14z M217.33,293.03c-0.22-0.4-0.34-0.86-0.34-1.35c0-0.49,0.12-0.95,0.34-1.35l-2.45-2.45
					c-0.81,1.05-1.3,2.37-1.3,3.8c0,1.43,0.48,2.75,1.3,3.79L217.33,293.03z"/>
				<path class="st8" d="M231.53,140.79c0.65,0.17,1.27,0.43,1.83,0.77l1.35-1.34c0.98,0.66,1.81,1.5,2.46,2.49l-1.35,1.34
					c0.33,0.56,0.58,1.16,0.74,1.81l1.9,0.01c0.11,0.55,0.16,1.12,0.16,1.7c0,0.61-0.06,1.21-0.18,1.79l-1.9-0.01
					c-0.17,0.64-0.43,1.25-0.76,1.8l1.34,1.35c-0.66,0.98-1.5,1.81-2.49,2.46l-1.34-1.35c-0.55,0.32-1.14,0.57-1.77,0.73v1.9
					c-0.57,0.11-1.15,0.17-1.75,0.17s-1.18-0.06-1.75-0.17v-1.9c-0.65-0.17-1.27-0.43-1.83-0.77l-1.35,1.34
					c-0.98-0.66-1.81-1.5-2.46-2.49l1.35-1.34c-0.33-0.56-0.58-1.17-0.74-1.81l-1.9-0.01c-0.11-0.55-0.16-1.12-0.16-1.7
					c0-0.61,0.06-1.21,0.18-1.79l1.9,0.01c0.17-0.64,0.43-1.25,0.76-1.8l-1.34-1.35c0.66-0.98,1.5-1.81,2.49-2.46l1.34,1.35
					c0.55-0.32,1.14-0.57,1.77-0.73v-1.9c0.57-0.11,1.15-0.17,1.75-0.17s1.18,0.06,1.75,0.17V140.79L231.53,140.79z M229.78,143.24
					c-2.39,0-4.32,1.94-4.32,4.32s1.94,4.32,4.32,4.32c2.39,0,4.32-1.94,4.32-4.32S232.17,143.24,229.78,143.24L229.78,143.24z
					 M229.78,143.74c-2.11,0-3.82,1.71-3.82,3.82s1.71,3.82,3.82,3.82c2.11,0,3.82-1.71,3.82-3.82S231.89,143.74,229.78,143.74
					L229.78,143.74z M229.78,142.93c-2.56,0-4.63,2.07-4.63,4.63c0,2.56,2.07,4.63,4.63,4.63c2.56,0,4.63-2.07,4.63-4.63
					C234.41,145,232.34,142.93,229.78,142.93z"/>
				<path class="st8" d="M184.37,240.91l1.53,0.5c0.34,0.11,0.52,0.47,0.41,0.81l-0.5,1.53c0.7,0.41,1.31,0.94,1.81,1.55l1.43-0.73
					c0.32-0.16,0.7-0.03,0.87,0.28l0.73,1.44c0.16,0.32,0.03,0.7-0.28,0.87l-1.43,0.73c0.2,0.76,0.27,1.56,0.19,2.37l1.53,0.5
					c0.34,0.11,0.52,0.47,0.41,0.81l-0.5,1.53c-0.11,0.34-0.47,0.52-0.81,0.41l-1.53-0.5c-0.41,0.7-0.94,1.31-1.55,1.81l0.73,1.43
					c0.16,0.32,0.03,0.71-0.28,0.87l-1.43,0.73c-0.32,0.16-0.71,0.03-0.87-0.28l-0.73-1.43c-0.76,0.2-1.56,0.27-2.37,0.19l-0.5,1.52
					c-0.11,0.34-0.47,0.52-0.81,0.41l-1.53-0.5c-0.34-0.11-0.52-0.47-0.41-0.81l0.5-1.52c-0.7-0.41-1.31-0.94-1.81-1.55l-1.43,0.73
					c-0.32,0.16-0.7,0.03-0.87-0.28l-0.73-1.43c-0.16-0.32-0.03-0.71,0.28-0.87l1.43-0.73c-0.2-0.76-0.27-1.56-0.19-2.37l-1.53-0.5
					c-0.34-0.11-0.52-0.47-0.41-0.81l0.5-1.53c0.11-0.34,0.47-0.52,0.81-0.41l1.52,0.5c0.41-0.7,0.94-1.31,1.55-1.81l-0.73-1.43
					c-0.16-0.32-0.03-0.7,0.28-0.87l1.43-0.73c0.32-0.16,0.71-0.03,0.87,0.28l0.73,1.43c0.76-0.2,1.56-0.27,2.37-0.19l0.5-1.53
					C183.67,240.99,184.03,240.8,184.37,240.91L184.37,240.91z M183.22,247.03c-1.41-0.46-2.92,0.31-3.38,1.72
					c-0.46,1.41,0.31,2.92,1.72,3.38c1.41,0.46,2.92-0.31,3.38-1.72C185.4,249,184.63,247.49,183.22,247.03z"/>
				<path class="st8" d="M163.38,207.22c0.74,0.05,1.45,0.19,2.13,0.42l0.31-0.74c0.06-0.14,0.21-0.2,0.35-0.15l0.57,0.24
					c0.14,0.06,0.2,0.21,0.15,0.35l-0.31,0.74c0.65,0.33,1.26,0.73,1.8,1.21l0.57-0.57c0.1-0.1,0.28-0.1,0.38,0l0.44,0.44
					c0.1,0.11,0.1,0.28,0,0.38l-0.57,0.57c0.48,0.54,0.88,1.15,1.21,1.8l0.74-0.31c0.14-0.06,0.3,0.01,0.35,0.15l0.24,0.57
					c0.06,0.14-0.01,0.3-0.15,0.35l-0.74,0.31c0.23,0.68,0.37,1.39,0.42,2.13h0.81c0.15,0,0.27,0.12,0.27,0.27V216
					c0,0.15-0.12,0.27-0.27,0.27h-0.81c-0.05,0.74-0.19,1.45-0.42,2.13l0.74,0.31c0.14,0.06,0.2,0.21,0.15,0.35l-0.24,0.57
					c-0.06,0.14-0.21,0.2-0.35,0.15l-0.74-0.31c-0.33,0.65-0.73,1.26-1.21,1.8l0.57,0.57c0.1,0.1,0.1,0.28,0,0.38l-0.44,0.44
					c-0.1,0.1-0.28,0.1-0.38,0l-0.57-0.57c-0.54,0.48-1.15,0.88-1.8,1.21l0.31,0.74c0.06,0.14-0.01,0.3-0.15,0.35l-0.57,0.24
					c-0.14,0.06-0.3-0.01-0.35-0.15l-0.31-0.74c-0.68,0.23-1.39,0.37-2.13,0.42v0.81c0,0.15-0.12,0.27-0.27,0.27h-0.62
					c-0.15,0-0.27-0.12-0.27-0.27v-0.81c-0.74-0.05-1.45-0.19-2.13-0.42l-0.31,0.74c-0.06,0.14-0.21,0.2-0.35,0.15l-0.57-0.24
					c-0.14-0.06-0.2-0.21-0.15-0.35l0.31-0.74c-0.65-0.33-1.26-0.73-1.81-1.21l-0.57,0.57c-0.1,0.1-0.28,0.1-0.38,0l-0.44-0.44
					c-0.1-0.11-0.1-0.28,0-0.38l0.57-0.57c-0.48-0.54-0.88-1.15-1.21-1.8l-0.74,0.31c-0.14,0.06-0.3-0.01-0.35-0.15l-0.24-0.57
					c-0.06-0.14,0.01-0.3,0.15-0.35l0.74-0.31c-0.23-0.68-0.37-1.39-0.42-2.13h-0.81c-0.15,0-0.27-0.12-0.27-0.27v-0.62
					c0-0.15,0.12-0.27,0.27-0.27h0.81c0.05-0.74,0.19-1.45,0.42-2.13l-0.74-0.31c-0.14-0.06-0.2-0.21-0.15-0.35l0.24-0.57
					c0.06-0.14,0.21-0.2,0.35-0.15l0.74,0.31c0.33-0.65,0.73-1.26,1.21-1.81l-0.57-0.57c-0.1-0.1-0.1-0.28,0-0.38l0.44-0.44
					c0.1-0.1,0.28-0.1,0.38,0l0.57,0.57c0.54-0.48,1.15-0.88,1.8-1.21l-0.31-0.74c-0.06-0.14,0.01-0.3,0.15-0.35l0.57-0.24
					c0.14-0.06,0.3,0.01,0.35,0.15l0.31,0.74c0.68-0.23,1.39-0.37,2.13-0.42v-0.81c0-0.15,0.12-0.27,0.27-0.27h0.62
					c0.15,0,0.27,0.12,0.27,0.27V207.22L163.38,207.22z M162.8,209.9c-3.2,0-5.79,2.59-5.79,5.79c0,3.2,2.59,5.79,5.79,5.79
					c3.2,0,5.79-2.59,5.79-5.79C168.59,212.5,166,209.9,162.8,209.9z"/>
				<path class="st8" d="M216.44,173.39l1.29,0l0.35,1.83c0.6,0.08,1.18,0.24,1.73,0.46l1.21-1.42l1.12,0.64l-0.62,1.76
					c0.47,0.37,0.9,0.79,1.27,1.26l1.76-0.62l0.65,1.12l-1.41,1.21c0.22,0.54,0.38,1.12,0.46,1.73l1.83,0.34l0,1.29l-1.83,0.35
					c-0.08,0.6-0.24,1.18-0.46,1.73l1.42,1.21l-0.64,1.12l-1.76-0.62c-0.37,0.47-0.79,0.9-1.26,1.27l0.62,1.76l-1.12,0.65
					l-1.21-1.41c-0.55,0.22-1.12,0.38-1.73,0.46l-0.34,1.83l-1.29,0l-0.35-1.83c-0.6-0.08-1.18-0.24-1.73-0.46l-1.21,1.42
					l-1.12-0.64l0.62-1.76c-0.47-0.37-0.9-0.79-1.27-1.26l-1.76,0.62l-0.65-1.12l1.41-1.21c-0.22-0.54-0.38-1.12-0.47-1.73
					l-1.83-0.34l0-1.29l1.83-0.35c0.08-0.6,0.24-1.18,0.46-1.73l-1.42-1.21l0.64-1.12l1.76,0.62c0.37-0.47,0.79-0.9,1.26-1.27
					l-0.62-1.76l1.12-0.65l1.22,1.41c0.54-0.22,1.12-0.38,1.73-0.47L216.44,173.39L216.44,173.39z M221.69,178.51l-1.13,1.13
					c0.59,0.75,0.94,1.69,0.94,2.71c0,1.04-0.36,2-0.96,2.75l1.13,1.13c0.89-1.05,1.42-2.4,1.42-3.88
					C223.09,180.89,222.56,179.55,221.69,178.51L221.69,178.51z M219.85,178.92l1.13-1.13c-1.05-0.89-2.4-1.42-3.88-1.42
					c-1.48,0-2.83,0.54-3.88,1.43l1.13,1.13c0.75-0.6,1.71-0.97,2.75-0.97C218.13,177.96,219.09,178.32,219.85,178.92L219.85,178.92
					z M214.4,185.83l-1.13,1.13c1.04,0.87,2.38,1.39,3.84,1.39c1.46,0,2.8-0.53,3.84-1.4l-1.13-1.13c-0.75,0.59-1.69,0.94-2.71,0.94
					C216.09,186.76,215.15,186.41,214.4,185.83L214.4,185.83z M212.55,186.25l1.13-1.13c-0.61-0.75-0.97-1.71-0.97-2.75
					c0-1.02,0.35-1.96,0.93-2.71l-1.13-1.13c-0.87,1.04-1.39,2.38-1.39,3.84C211.12,183.85,211.65,185.2,212.55,186.25
					L212.55,186.25z M217.1,179.38c-1.65,0-2.98,1.34-2.98,2.99c0,1.65,1.34,2.98,2.99,2.98c1.65,0,2.98-1.34,2.98-2.99
					C220.08,180.71,218.74,179.37,217.1,179.38z"/>
				<path class="st8" d="M180.73,155.72c2.69-0.44,5.23,1.38,5.67,4.07c0.44,2.69-1.38,5.23-4.07,5.67
					c-2.69,0.44-5.23-1.38-5.67-4.07C176.23,158.7,178.05,156.16,180.73,155.72L180.73,155.72z M179.3,151.26l-0.04,1.99
					c-0.62,0.19-1.2,0.46-1.74,0.79l-1.52-1.28l-1.06,0.87l0.96,1.74c-0.43,0.47-0.81,0.99-1.11,1.55l-1.96-0.35l-0.48,1.29
					l1.7,1.03c-0.14,0.61-0.2,1.25-0.19,1.9l-1.87,0.68l0.22,1.36l1.99,0.04c0.19,0.62,0.46,1.2,0.79,1.74l-1.28,1.52l0.87,1.06
					l1.74-0.96c0.47,0.43,0.99,0.81,1.55,1.11l-0.35,1.96l1.29,0.49l1.03-1.7c0.61,0.14,1.25,0.2,1.9,0.19l0.68,1.87l1.36-0.22
					l0.04-1.99c0.62-0.19,1.2-0.46,1.74-0.79l1.52,1.28l1.06-0.87l-0.96-1.74c0.43-0.47,0.81-0.99,1.11-1.55l1.96,0.35l0.49-1.29
					l-1.7-1.03c0.14-0.61,0.2-1.25,0.19-1.9l1.87-0.68l-0.22-1.36l-1.99-0.04c-0.19-0.62-0.46-1.2-0.79-1.74l1.28-1.52l-0.87-1.06
					l-1.74,0.96c-0.47-0.43-0.99-0.81-1.55-1.11l0.35-1.96l-1.29-0.49l-1.03,1.7c-0.61-0.14-1.25-0.2-1.9-0.19l-0.68-1.87
					L179.3,151.26L179.3,151.26z M180.5,154.29c-3.48,0.57-5.84,3.86-5.26,7.34c0.57,3.48,3.86,5.84,7.34,5.26
					c3.48-0.57,5.84-3.86,5.26-7.34C187.26,156.07,183.98,153.71,180.5,154.29z"/>
				<path class="st8" d="M222.65,215.43l-0.07,1.13c-0.19,0.01-0.38,0.02-0.57,0.04l-0.22-1.11l-0.35,0.05l0.09,1.12
					c-0.15,0.03-0.31,0.06-0.46,0.09l-0.36-1.07l-0.35,0.09l0.23,1.1c-0.18,0.06-0.36,0.12-0.54,0.18l-0.5-1.01l-0.33,0.14
					l0.37,1.06c-0.14,0.07-0.28,0.13-0.42,0.21l-0.62-0.94l-0.31,0.18l0.5,1.01c-0.16,0.1-0.32,0.21-0.47,0.32l-0.75-0.85
					l-0.28,0.22l0.64,0.93c-0.12,0.1-0.24,0.2-0.35,0.31l-0.84-0.75l-0.25,0.25l0.75,0.84c-0.13,0.14-0.25,0.28-0.37,0.43
					l-0.94-0.63l-0.22,0.29l0.86,0.73c-0.09,0.13-0.18,0.26-0.26,0.39l-1.01-0.5l-0.18,0.31l0.94,0.62
					c-0.09,0.17-0.17,0.34-0.25,0.51l-1.07-0.36l-0.13,0.33l1.02,0.49c-0.05,0.15-0.1,0.29-0.15,0.44l-1.1-0.23l-0.09,0.35
					l1.07,0.36c-0.04,0.18-0.08,0.37-0.11,0.56l-1.13-0.07l-0.04,0.35l1.11,0.21c-0.01,0.15-0.02,0.31-0.03,0.46l-1.13,0.07v0.36
					l1.13,0.07c0.01,0.19,0.02,0.38,0.04,0.57l-1.11,0.22l0.05,0.35l1.12-0.09c0.03,0.15,0.06,0.31,0.09,0.46l-1.07,0.36l0.09,0.35
					l1.1-0.23c0.05,0.18,0.12,0.36,0.18,0.54l-1.01,0.5l0.14,0.33l1.06-0.38c0.06,0.14,0.13,0.28,0.21,0.42l-0.94,0.62l0.18,0.31
					l1.01-0.5c0.1,0.16,0.21,0.32,0.32,0.47l-0.85,0.75l0.22,0.28l0.93-0.64c0.1,0.12,0.2,0.24,0.31,0.35l-0.75,0.85l0.25,0.25
					l0.84-0.75c0.14,0.13,0.28,0.25,0.43,0.37l-0.63,0.94l0.29,0.22l0.73-0.86c0.13,0.09,0.26,0.18,0.39,0.26l-0.5,1.01l0.31,0.18
					l0.62-0.94c0.17,0.09,0.34,0.17,0.51,0.25l-0.36,1.07l0.33,0.13l0.49-1.02c0.15,0.05,0.29,0.1,0.44,0.15l-0.23,1.1l0.35,0.09
					l0.36-1.07c0.18,0.04,0.37,0.08,0.56,0.11l-0.07,1.13l0.35,0.04l0.21-1.11c0.15,0.01,0.31,0.02,0.46,0.03l0.07,1.13h0.36
					l0.07-1.13c0.19-0.01,0.38-0.02,0.56-0.04l0.22,1.11l0.35-0.05l-0.09-1.12c0.15-0.03,0.31-0.06,0.46-0.09l0.36,1.07l0.35-0.09
					l-0.23-1.1c0.18-0.06,0.36-0.12,0.54-0.18l0.5,1.01l0.33-0.14l-0.37-1.06c0.14-0.07,0.28-0.13,0.42-0.21l0.62,0.94l0.31-0.18
					l-0.5-1.01c0.16-0.1,0.32-0.21,0.47-0.32l0.75,0.85l0.28-0.22l-0.64-0.93c0.12-0.1,0.24-0.2,0.35-0.31l0.85,0.75l0.25-0.25
					l-0.75-0.85c0.13-0.14,0.25-0.28,0.37-0.43l0.94,0.63l0.22-0.29l-0.86-0.73c0.09-0.13,0.18-0.26,0.26-0.39l1.01,0.5l0.18-0.31
					l-0.94-0.62c0.09-0.17,0.17-0.34,0.25-0.51l1.07,0.36l0.13-0.33l-1.02-0.49c0.05-0.15,0.1-0.29,0.15-0.44l1.1,0.23l0.09-0.35
					l-1.07-0.36c0.04-0.18,0.08-0.37,0.11-0.56l1.13,0.07l0.04-0.35l-1.11-0.21c0.01-0.15,0.02-0.31,0.03-0.46l1.13-0.07v-0.36
					l-1.13-0.07c-0.01-0.19-0.02-0.38-0.04-0.57l1.11-0.22l-0.05-0.35l-1.12,0.09c-0.03-0.15-0.06-0.31-0.09-0.46l1.07-0.36
					l-0.09-0.35l-1.1,0.23c-0.06-0.18-0.12-0.36-0.18-0.54l1.01-0.5l-0.14-0.33l-1.06,0.37c-0.06-0.14-0.13-0.28-0.21-0.42
					l0.94-0.62l-0.18-0.31l-1.01,0.5c-0.1-0.16-0.21-0.32-0.32-0.47l0.85-0.75l-0.22-0.28l-0.93,0.64c-0.1-0.12-0.2-0.24-0.31-0.35
					l0.75-0.84l-0.25-0.25l-0.85,0.75c-0.14-0.13-0.28-0.25-0.43-0.37l0.63-0.94l-0.29-0.22l-0.73,0.86
					c-0.13-0.09-0.26-0.18-0.39-0.26l0.5-1.01l-0.31-0.18l-0.62,0.94c-0.17-0.09-0.34-0.17-0.51-0.25l0.36-1.07l-0.33-0.13
					l-0.49,1.02c-0.15-0.05-0.29-0.1-0.44-0.15l0.23-1.1l-0.35-0.09l-0.36,1.07c-0.18-0.04-0.37-0.08-0.56-0.11l0.07-1.13
					l-0.35-0.04l-0.21,1.11c-0.15-0.01-0.31-0.02-0.46-0.03l-0.07-1.13H222.65L222.65,215.43z M222.82,219.46
					c0.33,0,0.61,0.27,0.61,0.61c0,0.33-0.27,0.61-0.61,0.61c-0.33,0-0.61-0.27-0.61-0.61
					C222.21,219.73,222.49,219.46,222.82,219.46L222.82,219.46z M227.03,223.64c0.34,0,0.61,0.27,0.61,0.61
					c0,0.33-0.27,0.61-0.61,0.61c-0.33,0-0.61-0.27-0.61-0.61C226.42,223.91,226.69,223.64,227.03,223.64L227.03,223.64z
					 M218.63,223.64c0.33,0,0.61,0.27,0.61,0.61c0,0.33-0.27,0.61-0.61,0.61c-0.33,0-0.61-0.27-0.61-0.61
					C218.02,223.91,218.3,223.64,218.63,223.64L218.63,223.64z M222.8,227.85c0.33,0,0.61,0.27,0.61,0.61
					c0,0.34-0.27,0.61-0.61,0.61c-0.33,0-0.61-0.27-0.61-0.61C222.2,228.12,222.47,227.85,222.8,227.85L222.8,227.85z
					 M222.82,218.66c-0.65,0-1.2,0.45-1.36,1.05c-0.52,0.16-1.01,0.4-1.43,0.71l-0.74-0.74c0.98-0.76,2.21-1.21,3.54-1.21
					c1.33,0,2.56,0.45,3.54,1.21l-0.74,0.74c-0.43-0.32-0.92-0.56-1.45-0.72C224.02,219.1,223.47,218.66,222.82,218.66
					L222.82,218.66z M224.17,220.47c0.34,0.12,0.65,0.28,0.94,0.48l-1.02,1.02c-0.37-0.2-0.8-0.32-1.26-0.32
					c-0.46,0-0.88,0.12-1.25,0.32l-1.02-1.02c0.28-0.2,0.6-0.36,0.93-0.48c0.18,0.58,0.71,1,1.34,1
					C223.46,221.47,223.99,221.05,224.17,220.47L224.17,220.47z M227.38,222.89c-0.16-0.52-0.4-1-0.71-1.43l0.74-0.74
					c0.76,0.98,1.21,2.21,1.21,3.54c0,1.33-0.45,2.56-1.21,3.54l-0.74-0.74c0.32-0.44,0.57-0.93,0.72-1.46
					c0.6-0.16,1.04-0.71,1.04-1.36C228.43,223.59,227.98,223.04,227.38,222.89L227.38,222.89z M226.62,225.59
					c-0.12,0.34-0.28,0.66-0.48,0.95l-1.02-1.02c0.2-0.37,0.32-0.8,0.32-1.26c0-0.46-0.12-0.88-0.32-1.26l1.02-1.02
					c0.19,0.28,0.35,0.59,0.47,0.92c-0.57,0.18-0.99,0.71-0.99,1.34C225.62,224.88,226.04,225.42,226.62,225.59L226.62,225.59z
					 M219.04,222.9c0.12-0.33,0.28-0.64,0.47-0.92l1.02,1.02c-0.2,0.37-0.32,0.8-0.32,1.26c0,0.45,0.12,0.88,0.32,1.26l-1.02,1.02
					c-0.2-0.29-0.36-0.61-0.48-0.95c0.58-0.17,1-0.71,1-1.35C220.03,223.61,219.62,223.08,219.04,222.9L219.04,222.9z M218.27,225.6
					c0.16,0.53,0.4,1.02,0.72,1.46l-0.74,0.74c-0.76-0.98-1.21-2.21-1.21-3.54c0-1.33,0.45-2.56,1.21-3.54l0.74,0.74
					c-0.31,0.43-0.55,0.91-0.71,1.43c-0.61,0.16-1.05,0.71-1.05,1.36C217.23,224.9,217.67,225.44,218.27,225.6L218.27,225.6z
					 M222.8,227.06c-0.63,0-1.17,0.42-1.34,0.99c-0.33-0.12-0.63-0.28-0.91-0.47l1.02-1.02c0.37,0.2,0.8,0.32,1.25,0.32
					c0.46,0,0.88-0.12,1.26-0.32l1.02,1.02c-0.29,0.2-0.61,0.37-0.96,0.48C223.98,227.48,223.44,227.06,222.8,227.06L222.8,227.06z
					 M224.16,228.82c0.54-0.16,1.03-0.4,1.47-0.72l0.74,0.74c-0.98,0.76-2.21,1.21-3.54,1.21c-1.33,0-2.56-0.45-3.54-1.21l0.74-0.74
					c0.42,0.31,0.9,0.55,1.42,0.71c0.15,0.61,0.71,1.06,1.36,1.06C223.45,229.86,224,229.42,224.16,228.82L224.16,228.82z
					 M222.83,223.25c0.56,0,1.01,0.45,1.01,1.01c0,0.56-0.45,1.01-1.01,1.01c-0.56,0-1.01-0.45-1.01-1.01
					C221.82,223.71,222.27,223.25,222.83,223.25z"/>
			</g>
		</g>
	</g>
	<g>
		<g>
			<path class="st0" d="M291.17,321.53h0.4l0.08,1.27c0.18,0.01,0.35,0.02,0.53,0.03l0.23-1.25l0.4,0.05l-0.08,1.27
				c0.21,0.03,0.42,0.07,0.63,0.12l0.4-1.21l0.39,0.1l-0.26,1.25c0.17,0.05,0.34,0.11,0.5,0.17l0.55-1.15l0.37,0.15l-0.41,1.21
				c0.2,0.09,0.39,0.18,0.58,0.28l0.7-1.06l0.35,0.2l-0.57,1.14c0.15,0.09,0.29,0.19,0.44,0.29l0.83-0.97l0.32,0.24l-0.71,1.06
				c0.17,0.13,0.33,0.28,0.48,0.42l0.96-0.85l0.29,0.29l-0.85,0.96c0.12,0.13,0.24,0.26,0.35,0.39l1.05-0.72l0.25,0.32l-0.96,0.84
				c0.13,0.17,0.25,0.35,0.36,0.53l1.14-0.57l0.2,0.35l-1.06,0.7c0.08,0.15,0.16,0.31,0.24,0.47l1.2-0.42l0.16,0.37l-1.14,0.57
				c0.08,0.2,0.15,0.4,0.21,0.61l1.25-0.25l0.1,0.39l-1.21,0.4c0.04,0.17,0.07,0.34,0.1,0.52l1.27-0.1l0.06,0.4l-1.25,0.25
				c0.02,0.21,0.04,0.42,0.04,0.64l1.27,0.08v0.4l-1.27,0.08c-0.01,0.18-0.02,0.35-0.03,0.53l1.25,0.23l-0.05,0.4l-1.27-0.08
				c-0.03,0.21-0.07,0.42-0.12,0.63l1.21,0.4l-0.1,0.39l-1.25-0.25c-0.05,0.17-0.11,0.33-0.17,0.5l1.15,0.55l-0.15,0.37l-1.21-0.41
				c-0.09,0.2-0.18,0.39-0.28,0.58l1.06,0.7l-0.2,0.35l-1.14-0.57c-0.09,0.15-0.19,0.3-0.29,0.44l0.97,0.83l-0.24,0.32l-1.06-0.71
				c-0.13,0.17-0.28,0.33-0.42,0.48l0.85,0.96l-0.29,0.29l-0.96-0.85c-0.13,0.12-0.26,0.24-0.39,0.35l0.72,1.05l-0.32,0.25
				l-0.84-0.96c-0.17,0.13-0.35,0.25-0.53,0.36l0.57,1.14l-0.35,0.2l-0.7-1.06c-0.15,0.08-0.31,0.16-0.47,0.24l0.42,1.2l-0.37,0.16
				l-0.57-1.14c-0.2,0.08-0.4,0.15-0.61,0.21l0.26,1.25l-0.39,0.1l-0.4-1.21c-0.17,0.04-0.34,0.07-0.52,0.1l0.1,1.27l-0.4,0.06
				l-0.25-1.25c-0.21,0.02-0.42,0.04-0.64,0.04l-0.08,1.27h-0.4l-0.08-1.27c-0.18-0.01-0.35-0.02-0.53-0.03l-0.23,1.25l-0.4-0.05
				l0.08-1.27c-0.21-0.03-0.42-0.07-0.63-0.12l-0.4,1.21l-0.39-0.1l0.26-1.25c-0.17-0.05-0.34-0.11-0.5-0.17l-0.55,1.15l-0.38-0.15
				l0.41-1.21c-0.2-0.09-0.39-0.18-0.58-0.28l-0.7,1.06l-0.35-0.2l0.57-1.14c-0.15-0.09-0.29-0.19-0.44-0.29l-0.83,0.97l-0.32-0.24
				l0.71-1.06c-0.17-0.13-0.33-0.28-0.48-0.42l-0.96,0.85l-0.29-0.29l0.85-0.96c-0.12-0.13-0.24-0.26-0.35-0.39l-1.05,0.72
				l-0.25-0.32l0.96-0.84c-0.13-0.17-0.25-0.35-0.36-0.53l-1.14,0.57l-0.2-0.35l1.06-0.7c-0.08-0.15-0.16-0.31-0.24-0.47l-1.2,0.42
				l-0.16-0.37l1.14-0.57c-0.08-0.2-0.15-0.4-0.21-0.61l-1.25,0.26l-0.11-0.39l1.21-0.4c-0.04-0.17-0.07-0.34-0.1-0.52l-1.27,0.1
				l-0.06-0.4l1.25-0.25c-0.02-0.21-0.04-0.42-0.04-0.64l-1.27-0.08v-0.4l1.27-0.08c0.01-0.18,0.02-0.35,0.03-0.53l-1.25-0.23
				l0.05-0.4l1.27,0.08c0.03-0.21,0.07-0.42,0.12-0.63l-1.21-0.4l0.11-0.39l1.25,0.25c0.05-0.17,0.11-0.34,0.17-0.5l-1.15-0.55
				l0.15-0.38l1.21,0.41c0.09-0.2,0.18-0.39,0.28-0.58l-1.06-0.7l0.2-0.35l1.14,0.57c0.09-0.15,0.19-0.29,0.29-0.44l-0.97-0.83
				l0.24-0.32l1.06,0.71c0.13-0.17,0.28-0.33,0.42-0.48l-0.85-0.96l0.29-0.29l0.96,0.85c0.13-0.12,0.26-0.24,0.39-0.35l-0.72-1.05
				l0.32-0.25l0.84,0.96c0.17-0.13,0.35-0.25,0.53-0.36l-0.57-1.14l0.35-0.2l0.7,1.06c0.15-0.08,0.31-0.16,0.47-0.24l-0.42-1.2
				l0.37-0.16l0.57,1.14c0.2-0.08,0.4-0.15,0.61-0.21l-0.26-1.25l0.39-0.1l0.4,1.21c0.17-0.04,0.34-0.07,0.52-0.1l-0.1-1.27
				l0.4-0.06l0.25,1.25c0.21-0.02,0.42-0.04,0.64-0.04L291.17,321.53L291.17,321.53z M291.37,328.57c0.51,0,1,0.13,1.42,0.36
				l2.58-2.58c-1.11-0.86-2.5-1.37-4-1.37c-1.51,0-2.9,0.51-4.01,1.37l2.59,2.58C290.37,328.7,290.86,328.57,291.37,328.57
				L291.37,328.57z M293.96,330.11c0.23,0.42,0.36,0.91,0.36,1.42c0,0.52-0.13,1-0.36,1.42l2.59,2.58c0.86-1.11,1.37-2.5,1.37-4
				s-0.51-2.9-1.37-4L293.96,330.11L293.96,330.11z M292.79,334.12c-0.42,0.23-0.91,0.36-1.42,0.36c-0.51,0-1-0.13-1.42-0.36
				l-2.59,2.58c1.11,0.86,2.5,1.37,4.01,1.37c1.51,0,2.9-0.51,4-1.37L292.79,334.12L292.79,334.12z M288.78,332.95
				c-0.23-0.42-0.36-0.91-0.36-1.42c0-0.51,0.13-1,0.36-1.42l-2.58-2.58c-0.86,1.11-1.37,2.5-1.37,4s0.51,2.9,1.37,4L288.78,332.95z
				"/>
			<path class="st0" d="M268.11,337.35l2.02-0.27l0.92,2.8c0.96,0,1.9,0.13,2.8,0.36l1.6-2.47l1.89,0.78l-0.6,2.89
				c0.82,0.48,1.57,1.05,2.25,1.71l2.63-1.34l1.25,1.62l-1.96,2.2c0.46,0.81,0.83,1.68,1.09,2.61l2.94,0.15l0.27,2.02l-2.8,0.92
				c0,0.96-0.13,1.9-0.36,2.8l2.47,1.6l-0.78,1.89l-2.89-0.6c-0.48,0.82-1.05,1.57-1.71,2.25l1.34,2.63l-1.62,1.25l-2.2-1.96
				c-0.81,0.46-1.68,0.83-2.61,1.09l-0.15,2.94l-2.02,0.27l-0.92-2.8c-0.96,0-1.9-0.13-2.8-0.36l-1.6,2.47l-1.89-0.78l0.6-2.89
				c-0.82-0.48-1.57-1.05-2.25-1.71l-2.63,1.34l-1.25-1.62l1.96-2.2c-0.46-0.81-0.83-1.68-1.09-2.61l-2.94-0.15l-0.27-2.02l2.8-0.92
				c0-0.96,0.13-1.9,0.36-2.8l-2.47-1.6l0.78-1.89l2.89,0.6c0.48-0.82,1.05-1.57,1.71-2.25l-1.34-2.63l1.62-1.25l2.2,1.96
				c0.81-0.46,1.68-0.83,2.61-1.09L268.11,337.35L268.11,337.35z M277.41,344.29l-1.53,2.01c1.07,1.05,1.82,2.45,2.03,4.05
				c0.22,1.63-0.15,3.21-0.93,4.51l2.01,1.53c1.17-1.83,1.73-4.06,1.42-6.38C280.09,347.72,278.99,345.73,277.41,344.29
				L277.41,344.29z M274.6,345.31l1.53-2.01c-1.83-1.17-4.06-1.73-6.38-1.42c-2.32,0.31-4.33,1.44-5.78,3.05l2.01,1.53
				c1.05-1.11,2.47-1.87,4.11-2.09C271.72,344.16,273.29,344.52,274.6,345.31L274.6,345.31z M267.5,357.27l-1.53,2.01
				c1.81,1.14,4.02,1.68,6.31,1.38c2.29-0.31,4.28-1.41,5.72-2.99l-2.01-1.54c-1.05,1.07-2.45,1.82-4.05,2.03
				C270.34,358.38,268.79,358.03,267.5,357.27L267.5,357.27z M264.67,358.31l1.53-2.01c-1.1-1.05-1.87-2.48-2.09-4.11
				c-0.22-1.6,0.13-3.15,0.89-4.44l-2.01-1.53c-1.14,1.81-1.68,4.02-1.38,6.31C261.94,354.85,263.06,356.86,264.67,358.31
				L264.67,358.31z M270.38,346.6c-2.58,0.35-4.4,2.72-4.05,5.3c0.35,2.58,2.72,4.4,5.3,4.05c2.58-0.35,4.39-2.72,4.05-5.3
				C275.34,348.06,272.97,346.25,270.38,346.6z"/>
			<path class="st0" d="M248.32,339.91l2.17,0.7c0.48,0.16,0.74,0.67,0.58,1.15l-0.7,2.16c0.99,0.58,1.85,1.33,2.56,2.19l2.02-1.03
				c0.45-0.23,1-0.05,1.23,0.4l1.03,2.03c0.23,0.45,0.05,1-0.4,1.23l-2.03,1.03c0.28,1.08,0.38,2.21,0.26,3.36l2.16,0.7
				c0.48,0.16,0.74,0.67,0.59,1.15l-0.71,2.17c-0.15,0.48-0.67,0.74-1.15,0.58l-2.16-0.7c-0.58,0.99-1.33,1.85-2.19,2.56l1.03,2.03
				c0.23,0.45,0.05,1-0.4,1.22l-2.03,1.03c-0.45,0.23-1,0.05-1.23-0.4l-1.03-2.03c-1.08,0.28-2.21,0.38-3.36,0.26l-0.7,2.16
				c-0.16,0.48-0.67,0.74-1.15,0.58l-2.17-0.71c-0.48-0.16-0.74-0.67-0.58-1.15l0.7-2.16c-0.99-0.58-1.85-1.33-2.56-2.19l-2.02,1.03
				c-0.45,0.23-1,0.05-1.23-0.4l-1.03-2.03c-0.23-0.45-0.05-1,0.4-1.23l2.02-1.03c-0.28-1.08-0.38-2.21-0.26-3.36l-2.16-0.7
				c-0.48-0.16-0.74-0.67-0.58-1.15l0.71-2.17c0.16-0.48,0.67-0.74,1.15-0.58l2.16,0.7c0.58-0.99,1.33-1.85,2.19-2.56l-1.03-2.03
				c-0.23-0.45-0.05-1,0.4-1.23l2.03-1.03c0.45-0.23,1-0.05,1.23,0.4l1.03,2.03c1.08-0.28,2.21-0.38,3.36-0.26l0.7-2.16
				C247.33,340.02,247.84,339.76,248.32,339.91L248.32,339.91z M246.7,348.57c-1.99-0.65-4.14,0.44-4.79,2.44
				c-0.65,2,0.44,4.14,2.44,4.79c2,0.65,4.14-0.44,4.79-2.44C249.79,351.36,248.69,349.22,246.7,348.57z"/>
			<path class="st0" d="M253.5,319.15h0.41l0.08,1.31c0.18,0.01,0.36,0.02,0.54,0.03l0.24-1.29l0.41,0.05l-0.08,1.3
				c0.22,0.03,0.43,0.08,0.65,0.13l0.41-1.24l0.4,0.11l-0.26,1.28c0.17,0.05,0.34,0.11,0.51,0.17l0.56-1.18l0.38,0.16l-0.42,1.24
				c0.2,0.09,0.4,0.19,0.59,0.29l0.72-1.09l0.36,0.21l-0.58,1.17c0.15,0.09,0.3,0.2,0.45,0.3l0.85-0.99l0.33,0.25l-0.73,1.09
				c0.17,0.14,0.33,0.28,0.5,0.43l0.98-0.87l0.29,0.29l-0.87,0.98c0.12,0.13,0.24,0.27,0.36,0.4l1.08-0.74l0.25,0.33l-0.98,0.86
				c0.13,0.18,0.25,0.36,0.37,0.55l1.17-0.58l0.21,0.36l-1.09,0.72c0.08,0.16,0.17,0.32,0.24,0.48l1.23-0.43l0.16,0.38l-1.17,0.58
				c0.08,0.2,0.15,0.41,0.21,0.62l1.28-0.26l0.11,0.4l-1.24,0.41c0.04,0.17,0.08,0.35,0.11,0.53l1.3-0.1l0.06,0.41l-1.28,0.26
				c0.02,0.22,0.04,0.44,0.04,0.66l1.31,0.08v0.42l-1.31,0.08c-0.01,0.18-0.02,0.36-0.03,0.54l1.29,0.24l-0.05,0.41l-1.3-0.08
				c-0.03,0.22-0.08,0.43-0.13,0.65l1.24,0.41l-0.11,0.4l-1.28-0.26c-0.05,0.17-0.11,0.34-0.17,0.51l1.18,0.56l-0.16,0.38
				l-1.24-0.42c-0.09,0.2-0.19,0.4-0.29,0.59l1.09,0.72l-0.21,0.36l-1.17-0.58c-0.09,0.15-0.19,0.3-0.3,0.45l0.99,0.85l-0.25,0.33
				l-1.09-0.73c-0.14,0.17-0.28,0.33-0.43,0.5l0.87,0.98l-0.29,0.29l-0.98-0.87c-0.13,0.12-0.27,0.24-0.4,0.36l0.74,1.08l-0.33,0.25
				l-0.86-0.98c-0.18,0.13-0.36,0.25-0.54,0.37l0.58,1.17l-0.36,0.21l-0.72-1.09c-0.16,0.08-0.32,0.16-0.48,0.24l0.43,1.23
				l-0.38,0.16l-0.58-1.17c-0.2,0.08-0.41,0.15-0.62,0.21l0.26,1.28l-0.4,0.11l-0.41-1.24c-0.17,0.04-0.35,0.08-0.53,0.11l0.1,1.3
				l-0.41,0.06l-0.26-1.28c-0.22,0.02-0.44,0.04-0.66,0.04l-0.08,1.31h-0.41l-0.08-1.31c-0.18,0-0.36-0.02-0.54-0.03l-0.24,1.29
				l-0.41-0.05l0.08-1.3c-0.22-0.03-0.43-0.08-0.65-0.13l-0.41,1.24l-0.4-0.11l0.26-1.28c-0.17-0.05-0.34-0.11-0.51-0.17l-0.56,1.18
				l-0.38-0.16l0.42-1.24c-0.2-0.09-0.4-0.19-0.59-0.29l-0.72,1.09l-0.36-0.21l0.58-1.17c-0.15-0.09-0.3-0.19-0.45-0.3l-0.85,0.99
				l-0.33-0.25l0.73-1.09c-0.17-0.14-0.34-0.28-0.5-0.43l-0.98,0.87l-0.29-0.29l0.87-0.98c-0.12-0.13-0.24-0.27-0.36-0.4l-1.08,0.74
				l-0.25-0.33l0.98-0.86c-0.13-0.18-0.25-0.36-0.37-0.54l-1.17,0.58l-0.21-0.36l1.09-0.72c-0.08-0.16-0.17-0.32-0.24-0.48
				l-1.23,0.43l-0.16-0.38l1.17-0.58c-0.08-0.2-0.15-0.41-0.21-0.62l-1.28,0.26l-0.11-0.4l1.24-0.41c-0.04-0.17-0.08-0.35-0.11-0.53
				l-1.3,0.1l-0.06-0.41l1.28-0.26c-0.02-0.22-0.04-0.43-0.04-0.66l-1.31-0.08v-0.42l1.31-0.08c0.01-0.18,0.02-0.36,0.03-0.54
				l-1.29-0.24l0.05-0.41l1.31,0.08c0.03-0.22,0.08-0.43,0.13-0.65l-1.24-0.41l0.11-0.4l1.28,0.26c0.05-0.17,0.11-0.34,0.17-0.51
				l-1.18-0.56l0.16-0.38l1.24,0.42c0.09-0.2,0.19-0.4,0.29-0.59l-1.09-0.72l0.21-0.36l1.17,0.58c0.09-0.15,0.19-0.3,0.3-0.45
				l-0.99-0.85l0.25-0.33l1.09,0.73c0.14-0.17,0.28-0.33,0.43-0.5l-0.87-0.98l0.29-0.29l0.98,0.87c0.13-0.12,0.27-0.24,0.4-0.36
				l-0.74-1.08l0.33-0.25l0.86,0.98c0.18-0.13,0.36-0.25,0.55-0.37l-0.58-1.17l0.36-0.21l0.72,1.09c0.16-0.09,0.32-0.17,0.48-0.24
				l-0.43-1.23l0.38-0.16l0.58,1.17c0.2-0.08,0.41-0.15,0.62-0.21l-0.26-1.28l0.4-0.11l0.41,1.24c0.17-0.04,0.35-0.08,0.53-0.11
				l-0.1-1.3l0.41-0.06l0.26,1.28c0.22-0.02,0.44-0.04,0.66-0.04L253.5,319.15L253.5,319.15z M253.89,321.19v0.66
				c1.95,0.04,3.72,0.83,5.04,2.09l0.47-0.47C257.95,322.09,256.02,321.23,253.89,321.19L253.89,321.19z M253.54,321.85v-0.66
				c-2.13,0.04-4.07,0.9-5.5,2.28l0.47,0.47C249.82,322.68,251.59,321.89,253.54,321.85L253.54,321.85z M259.39,335.32l-0.47-0.47
				c-1.32,1.26-3.08,2.04-5.04,2.09v0.66C256.02,337.55,257.95,336.69,259.39,335.32L259.39,335.32z M259.17,334.6l0.47,0.47
				c1.38-1.44,2.23-3.37,2.28-5.5h-0.66C261.21,331.52,260.43,333.29,259.17,334.6L259.17,334.6z M248.25,324.18l-0.47-0.47
				c-1.38,1.44-2.23,3.37-2.28,5.5h0.66C246.21,327.27,247,325.5,248.25,324.18L248.25,324.18z M261.26,329.22h0.66
				c-0.04-2.13-0.9-4.07-2.28-5.5l-0.47,0.47C260.43,325.5,261.21,327.27,261.26,329.22L261.26,329.22z M246.17,329.57h-0.66
				c0.04,2.13,0.9,4.07,2.28,5.5l0.47-0.47C247,333.29,246.21,331.52,246.17,329.57L246.17,329.57z M253.54,337.6v-0.66
				c-1.95-0.04-3.72-0.83-5.04-2.09l-0.47,0.47C249.47,336.69,251.4,337.55,253.54,337.6L253.54,337.6z M253.71,327.78
				c-0.89,0-1.61,0.72-1.61,1.61c0,0.89,0.72,1.61,1.61,1.61c0.89,0,1.61-0.72,1.61-1.61C255.33,328.5,254.6,327.78,253.71,327.78
				L253.71,327.78z M247.71,329.27h2.98c0.03-0.73,0.32-1.4,0.78-1.91l-2.11-2.11C248.36,326.3,247.74,327.71,247.71,329.27
				L247.71,329.27z M256.74,329.27h2.98c-0.03-1.56-0.65-2.97-1.65-4.02l-2.11,2.11C256.42,327.87,256.71,328.54,256.74,329.27
				L256.74,329.27z M259.71,329.51h-2.98c-0.03,0.73-0.32,1.4-0.78,1.91l2.11,2.11C259.06,332.48,259.68,331.07,259.71,329.51
				L259.71,329.51z M250.69,329.51h-2.98c0.03,1.56,0.65,2.97,1.65,4.02l2.11-2.11C251.01,330.91,250.71,330.25,250.69,329.51
				L250.69,329.51z M253.83,323.39v2.98c0.73,0.03,1.4,0.32,1.91,0.78l2.11-2.11C256.8,324.04,255.39,323.42,253.83,323.39
				L253.83,323.39z M253.83,332.42v2.98c1.56-0.03,2.97-0.65,4.02-1.65l-2.11-2.11C255.23,332.1,254.57,332.39,253.83,332.42
				L253.83,332.42z M253.59,335.39v-2.98c-0.73-0.03-1.4-0.32-1.91-0.78l-2.11,2.11C250.62,334.74,252.03,335.36,253.59,335.39
				L253.59,335.39z M253.59,326.37v-2.98c-1.56,0.03-2.97,0.65-4.02,1.65l2.11,2.11C252.19,326.68,252.86,326.39,253.59,326.37
				L253.59,326.37z M248.71,324.18l0.75,0.75c1.11-1.05,2.6-1.7,4.25-1.7c1.65,0,3.14,0.65,4.25,1.7l0.75-0.75
				c-1.3-1.25-3.06-2.01-5-2.01C251.77,322.17,250.01,322.93,248.71,324.18L248.71,324.18z M258.18,333.64l0.75,0.75
				c1.25-1.3,2.01-3.06,2.01-5c0-1.94-0.77-3.7-2.01-5l-0.75,0.75c1.05,1.11,1.7,2.6,1.7,4.25
				C259.88,331.04,259.23,332.54,258.18,333.64L258.18,333.64z M258.71,334.61l-0.75-0.75c-1.11,1.05-2.6,1.7-4.25,1.7
				c-1.65,0-3.15-0.65-4.25-1.7l-0.75,0.75c1.3,1.25,3.06,2.01,5,2.01C255.65,336.62,257.42,335.85,258.71,334.61L258.71,334.61z
				 M249.25,325.14l-0.75-0.75c-1.25,1.3-2.01,3.06-2.01,5c0,1.94,0.77,3.7,2.01,5l0.75-0.75c-1.05-1.11-1.7-2.6-1.7-4.25
				C247.55,327.74,248.19,326.25,249.25,325.14z"/>
			<path class="st0" d="M233.13,328.44c0.95-0.15,1.89-0.09,2.78,0.16l0.69-1.43c0.77,0.24,1.49,0.59,2.16,1.04l-0.69,1.43
				c0.75,0.54,1.39,1.24,1.86,2.08l1.5-0.53c0.18,0.35,0.34,0.72,0.48,1.1c0.13,0.38,0.24,0.77,0.31,1.16l-1.5,0.53
				c0.15,0.95,0.09,1.89-0.16,2.78l1.43,0.69c-0.24,0.77-0.59,1.49-1.04,2.16l-1.43-0.69c-0.54,0.75-1.24,1.38-2.08,1.86l0.53,1.5
				c-0.35,0.18-0.72,0.34-1.1,0.48c-0.38,0.13-0.77,0.24-1.16,0.31l-0.53-1.5c-0.95,0.15-1.89,0.09-2.78-0.16l-0.69,1.43
				c-0.77-0.24-1.49-0.59-2.16-1.04l0.69-1.43c-0.75-0.54-1.38-1.24-1.86-2.08l-1.5,0.53c-0.18-0.35-0.34-0.72-0.48-1.1
				c-0.13-0.38-0.24-0.77-0.31-1.16l1.5-0.53c-0.15-0.95-0.09-1.89,0.16-2.78l-1.43-0.69c0.24-0.77,0.59-1.49,1.04-2.16l1.43,0.69
				c0.54-0.75,1.24-1.38,2.08-1.86l-0.53-1.5c0.35-0.18,0.72-0.34,1.1-0.48c0.38-0.13,0.77-0.24,1.16-0.31L233.13,328.44
				L233.13,328.44z M232.8,331.11c-2.15,0.75-3.28,3.1-2.53,5.25c0.75,2.15,3.1,3.28,5.25,2.53c2.15-0.75,3.28-3.1,2.53-5.25
				C237.3,331.49,234.95,330.36,232.8,331.11z"/>
			<path class="st0" d="M226.3,322.47c0.31,0.08,0.6,0.2,0.86,0.36l0.64-0.63c0.46,0.31,0.85,0.71,1.16,1.17l-0.64,0.63
				c0.15,0.26,0.27,0.55,0.35,0.85l0.89,0c0.05,0.26,0.08,0.53,0.08,0.8c0,0.29-0.03,0.57-0.09,0.84l-0.89,0
				c-0.08,0.3-0.2,0.59-0.36,0.85l0.63,0.64c-0.31,0.46-0.71,0.85-1.17,1.16l-0.63-0.64c-0.26,0.15-0.54,0.27-0.83,0.34v0.89
				c-0.27,0.05-0.54,0.08-0.82,0.08c-0.28,0-0.56-0.03-0.82-0.08v-0.89c-0.31-0.08-0.6-0.2-0.86-0.36l-0.64,0.63
				c-0.46-0.31-0.85-0.71-1.16-1.17l0.64-0.63c-0.15-0.26-0.27-0.55-0.35-0.85l-0.89,0c-0.05-0.26-0.08-0.53-0.08-0.8
				c0-0.29,0.03-0.57,0.09-0.84l0.89,0c0.08-0.3,0.2-0.59,0.36-0.85l-0.63-0.63c0.31-0.46,0.71-0.85,1.17-1.16l0.63,0.64
				c0.26-0.15,0.54-0.27,0.83-0.34v-0.89c0.27-0.05,0.54-0.08,0.82-0.08c0.28,0,0.56,0.03,0.82,0.08V322.47L226.3,322.47z
				 M225.47,323.63c-1.12,0-2.03,0.91-2.03,2.03c0,1.12,0.91,2.04,2.03,2.04s2.03-0.91,2.03-2.04
				C227.51,324.54,226.6,323.63,225.47,323.63L225.47,323.63z M225.47,323.87c-0.99,0-1.8,0.8-1.8,1.8c0,0.99,0.8,1.8,1.8,1.8
				s1.8-0.8,1.8-1.8C227.27,324.67,226.47,323.87,225.47,323.87L225.47,323.87z M225.47,323.48c-1.2,0-2.18,0.98-2.18,2.18
				c0,1.2,0.98,2.18,2.18,2.18c1.2,0,2.18-0.98,2.18-2.18C227.65,324.46,226.68,323.48,225.47,323.48z"/>
		</g>
		<path class="st0" d="M225.82,343.94v0.74c0,0.89-0.72,1.61-1.61,1.61c-0.89,0-1.61-0.72-1.61-1.61v-0.74
			c-1.28,0.23-2.49,0.73-3.56,1.47l0.52,0.52c0.63,0.63,0.63,1.65,0,2.28c-0.63,0.63-1.65,0.63-2.28,0l-0.52-0.52
			c-0.74,1.07-1.24,2.28-1.47,3.55h0.74c0.89,0,1.61,0.72,1.61,1.61c0,0.89-0.72,1.61-1.61,1.61h-0.74
			c0.23,1.28,0.73,2.49,1.47,3.56l0.52-0.52c0.63-0.63,1.65-0.63,2.28,0c0.63,0.63,0.63,1.65,0,2.28l-0.52,0.52
			c1.07,0.74,2.28,1.24,3.56,1.47v-0.74c0-0.89,0.72-1.61,1.61-1.61c0.89,0,1.61,0.72,1.61,1.61v0.74c1.28-0.23,2.49-0.73,3.55-1.47
			l-0.52-0.52c-0.63-0.63-0.63-1.65,0-2.28c0.63-0.63,1.65-0.63,2.28,0l0.52,0.52c0.74-1.07,1.24-2.28,1.47-3.56h-0.74
			c-0.89,0-1.61-0.72-1.61-1.61c0-0.89,0.72-1.61,1.61-1.61h0.74c-0.23-1.28-0.73-2.49-1.47-3.55l-0.52,0.52
			c-0.63,0.63-1.65,0.63-2.28,0c-0.63-0.63-0.63-1.65,0-2.28l0.52-0.52C228.31,344.67,227.1,344.17,225.82,343.94L225.82,343.94z
			 M224.21,347.93c2.72,0,4.92,2.2,4.92,4.92c0,2.72-2.21,4.92-4.92,4.92c-2.72,0-4.92-2.21-4.92-4.92
			C219.28,350.13,221.49,347.93,224.21,347.93L224.21,347.93z M230.9,355.63c-0.2,0.47-0.74,0.7-1.21,0.5
			c-0.47-0.2-0.7-0.74-0.5-1.21c0.2-0.47,0.74-0.7,1.21-0.5C230.87,354.61,231.09,355.15,230.9,355.63L230.9,355.63z M219.24,350.79
			c-0.2,0.47-0.74,0.7-1.21,0.5c-0.47-0.2-0.7-0.74-0.5-1.21c0.2-0.47,0.74-0.7,1.21-0.5C219.21,349.77,219.43,350.32,219.24,350.79
			L219.24,350.79z M230.9,350.08c0.2,0.47-0.03,1.02-0.5,1.21c-0.47,0.2-1.02-0.03-1.21-0.5c-0.2-0.47,0.03-1.02,0.5-1.21
			C230.16,349.39,230.7,349.61,230.9,350.08L230.9,350.08z M219.24,354.91c0.2,0.47-0.03,1.02-0.5,1.21
			c-0.47,0.2-1.02-0.03-1.21-0.5c-0.2-0.47,0.03-1.02,0.5-1.21C218.5,354.21,219.04,354.44,219.24,354.91L219.24,354.91z
			 M226.98,346.17c0.47,0.2,0.7,0.74,0.5,1.21c-0.2,0.47-0.74,0.7-1.21,0.5c-0.47-0.2-0.7-0.74-0.5-1.21
			C225.96,346.2,226.51,345.97,226.98,346.17L226.98,346.17z M222.15,357.83c0.47,0.2,0.7,0.74,0.5,1.21
			c-0.2,0.47-0.74,0.7-1.21,0.5c-0.47-0.2-0.7-0.74-0.5-1.21C221.13,357.86,221.68,357.63,222.15,357.83L222.15,357.83z
			 M221.44,346.16c0.47-0.19,1.02,0.03,1.21,0.5c0.2,0.47-0.03,1.02-0.5,1.21c-0.47,0.2-1.02-0.03-1.21-0.5
			S220.97,346.36,221.44,346.16L221.44,346.16z M226.27,357.83c0.47-0.2,1.02,0.03,1.21,0.5c0.2,0.47-0.03,1.02-0.5,1.21
			c-0.47,0.2-1.02-0.03-1.21-0.5C225.57,358.57,225.8,358.02,226.27,357.83z"/>
		<path class="st0" d="M273.12,321.68l-0.06,1.05c-0.18,0.01-0.35,0.02-0.53,0.04l-0.21-1.03l-0.33,0.05l0.08,1.05
			c-0.14,0.02-0.29,0.05-0.43,0.09l-0.33-1l-0.32,0.09l0.21,1.03c-0.17,0.05-0.34,0.11-0.5,0.17l-0.47-0.94l-0.31,0.13l0.35,0.99
			c-0.13,0.06-0.26,0.13-0.39,0.19l-0.58-0.88l-0.29,0.17l0.47,0.94c-0.15,0.09-0.3,0.19-0.44,0.3l-0.69-0.79l-0.26,0.2l0.6,0.87
			c-0.11,0.09-0.22,0.19-0.33,0.29l-0.79-0.7l-0.24,0.24l0.7,0.79c-0.12,0.13-0.24,0.26-0.35,0.4l-0.88-0.58l-0.2,0.27l0.8,0.68
			c-0.08,0.12-0.16,0.24-0.24,0.36l-0.94-0.47l-0.17,0.29l0.88,0.58c-0.08,0.16-0.16,0.31-0.23,0.47l-1-0.34l-0.13,0.31l0.95,0.45
			c-0.05,0.14-0.1,0.27-0.14,0.41l-1.03-0.21l-0.09,0.32l1,0.33c-0.04,0.17-0.07,0.34-0.1,0.52l-1.05-0.07l-0.04,0.33l1.03,0.19
			c-0.01,0.14-0.02,0.29-0.03,0.43l-1.05,0.06v0.33l1.05,0.06c0.01,0.18,0.02,0.35,0.04,0.53l-1.03,0.21l0.05,0.33l1.05-0.08
			c0.02,0.14,0.05,0.29,0.09,0.43l-1,0.33l0.09,0.32l1.03-0.21c0.05,0.17,0.11,0.34,0.17,0.5l-0.94,0.47l0.13,0.31l0.99-0.35
			c0.06,0.13,0.13,0.26,0.19,0.39l-0.88,0.58l0.17,0.29l0.94-0.47c0.09,0.15,0.19,0.3,0.29,0.44l-0.79,0.7l0.21,0.26l0.87-0.59
			c0.09,0.11,0.19,0.22,0.29,0.33l-0.7,0.79l0.24,0.24l0.79-0.7c0.13,0.12,0.26,0.24,0.4,0.35l-0.58,0.88l0.27,0.2l0.68-0.8
			c0.12,0.08,0.24,0.16,0.36,0.24l-0.47,0.94l0.29,0.17l0.58-0.88c0.16,0.08,0.31,0.16,0.48,0.23l-0.34,1l0.31,0.13l0.45-0.95
			c0.14,0.05,0.27,0.1,0.41,0.14l-0.21,1.03l0.32,0.09l0.33-1c0.17,0.04,0.34,0.07,0.52,0.1l-0.07,1.05l0.33,0.04l0.19-1.03
			c0.14,0.01,0.29,0.02,0.43,0.03l0.06,1.05h0.33l0.06-1.05c0.18-0.01,0.35-0.02,0.53-0.04l0.21,1.03l0.33-0.05l-0.08-1.05
			c0.14-0.02,0.29-0.05,0.43-0.09l0.33,1l0.32-0.09l-0.21-1.03c0.17-0.05,0.34-0.11,0.5-0.17l0.47,0.94l0.31-0.13l-0.35-0.99
			c0.13-0.06,0.26-0.13,0.39-0.19l0.58,0.88l0.29-0.17l-0.47-0.94c0.15-0.09,0.3-0.19,0.44-0.29l0.69,0.79l0.26-0.21l-0.59-0.87
			c0.11-0.09,0.22-0.19,0.33-0.29l0.79,0.7l0.24-0.24l-0.7-0.79c0.12-0.13,0.24-0.26,0.35-0.4l0.88,0.58l0.2-0.27l-0.8-0.68
			c0.08-0.12,0.16-0.24,0.24-0.36l0.94,0.47l0.17-0.29l-0.88-0.58c0.08-0.15,0.16-0.31,0.23-0.47l1,0.34l0.13-0.31l-0.95-0.45
			c0.05-0.14,0.1-0.27,0.14-0.41l1.03,0.21l0.09-0.32l-1-0.33c0.04-0.17,0.07-0.34,0.1-0.52l1.05,0.07l0.04-0.33l-1.03-0.19
			c0.01-0.14,0.02-0.29,0.03-0.43l1.05-0.06v-0.33l-1.05-0.06c0-0.18-0.02-0.35-0.04-0.53l1.03-0.21l-0.05-0.33l-1.05,0.08
			c-0.02-0.14-0.05-0.29-0.09-0.43l1-0.33l-0.09-0.32l-1.03,0.21c-0.05-0.17-0.11-0.34-0.17-0.5l0.94-0.47l-0.13-0.31l-0.99,0.35
			c-0.06-0.13-0.13-0.26-0.19-0.39l0.88-0.58l-0.17-0.29l-0.94,0.47c-0.09-0.15-0.19-0.3-0.29-0.44l0.79-0.69l-0.21-0.26l-0.87,0.6
			c-0.09-0.11-0.19-0.22-0.29-0.33l0.7-0.79l-0.24-0.24l-0.79,0.7c-0.13-0.12-0.26-0.24-0.4-0.35l0.58-0.88l-0.27-0.2l-0.68,0.8
			c-0.12-0.08-0.24-0.16-0.36-0.24l0.47-0.94l-0.29-0.17l-0.58,0.88c-0.15-0.08-0.31-0.16-0.47-0.23l0.34-1l-0.31-0.13l-0.45,0.95
			c-0.13-0.05-0.27-0.1-0.41-0.14l0.21-1.03l-0.32-0.09l-0.33,1c-0.17-0.04-0.34-0.07-0.52-0.1l0.07-1.05l-0.33-0.04l-0.19,1.03
			c-0.14-0.01-0.29-0.02-0.43-0.03l-0.06-1.05H273.12L273.12,321.68z M273.28,325.44c0.31,0,0.57,0.25,0.57,0.57
			s-0.25,0.57-0.57,0.57s-0.57-0.25-0.57-0.57S272.96,325.44,273.28,325.44L273.28,325.44z M277.2,329.34
			c0.31,0,0.57,0.25,0.57,0.57c0,0.31-0.25,0.57-0.57,0.57c-0.31,0-0.57-0.25-0.57-0.57C276.63,329.59,276.89,329.34,277.2,329.34
			L277.2,329.34z M269.37,329.34c0.31,0,0.57,0.25,0.57,0.57c0,0.31-0.25,0.57-0.57,0.57c-0.31,0-0.57-0.25-0.57-0.57
			C268.81,329.59,269.06,329.34,269.37,329.34L269.37,329.34z M273.26,333.27c0.31,0,0.57,0.25,0.57,0.56
			c0,0.31-0.25,0.57-0.57,0.57s-0.57-0.25-0.57-0.57C272.7,333.52,272.95,333.27,273.26,333.27L273.26,333.27z M273.28,324.69
			c-0.61,0-1.12,0.42-1.27,0.98c-0.49,0.15-0.94,0.37-1.34,0.67l-0.69-0.69c0.91-0.71,2.06-1.13,3.3-1.13c1.24,0,2.39,0.42,3.3,1.13
			l-0.69,0.69c-0.4-0.3-0.86-0.52-1.35-0.67C274.4,325.11,273.88,324.69,273.28,324.69L273.28,324.69z M274.53,326.38
			c0.31,0.11,0.61,0.26,0.88,0.45l-0.95,0.95c-0.35-0.19-0.75-0.3-1.17-0.3c-0.42,0-0.82,0.11-1.17,0.3l-0.95-0.95
			c0.27-0.18,0.56-0.33,0.86-0.44c0.16,0.54,0.66,0.93,1.25,0.93C273.87,327.31,274.37,326.92,274.53,326.38L274.53,326.38z
			 M277.53,328.63c-0.15-0.48-0.37-0.93-0.66-1.33l0.69-0.69c0.71,0.91,1.13,2.06,1.13,3.3c0,1.24-0.42,2.39-1.13,3.3l-0.69-0.69
			c0.3-0.41,0.53-0.87,0.67-1.36c0.56-0.15,0.97-0.66,0.97-1.27C278.51,329.29,278.09,328.78,277.53,328.63L277.53,328.63z
			 M276.83,331.16c-0.11,0.32-0.26,0.61-0.45,0.88l-0.95-0.95c0.19-0.35,0.3-0.75,0.3-1.17c0-0.42-0.11-0.82-0.3-1.17l0.95-0.95
			c0.18,0.26,0.33,0.55,0.44,0.86c-0.54,0.17-0.93,0.66-0.93,1.25C275.89,330.49,276.28,331,276.83,331.16L276.83,331.16z
			 M269.76,328.65c0.11-0.31,0.26-0.59,0.44-0.86l0.95,0.95c-0.19,0.35-0.3,0.75-0.3,1.17c0,0.42,0.11,0.82,0.3,1.17l-0.95,0.95
			c-0.19-0.27-0.34-0.57-0.45-0.88c0.54-0.16,0.94-0.66,0.94-1.25C270.68,329.31,270.29,328.81,269.76,328.65L269.76,328.65z
			 M269.03,331.17c0.15,0.5,0.38,0.96,0.67,1.36l-0.69,0.69c-0.71-0.91-1.13-2.06-1.13-3.3c0-1.24,0.42-2.39,1.13-3.3l0.69,0.69
			c-0.29,0.4-0.52,0.85-0.66,1.33c-0.56,0.15-0.98,0.66-0.98,1.27C268.06,330.51,268.47,331.02,269.03,331.17L269.03,331.17z
			 M273.26,332.52c-0.59,0-1.09,0.39-1.25,0.92c-0.3-0.11-0.59-0.26-0.85-0.44l0.95-0.95c0.35,0.19,0.75,0.3,1.17,0.3
			c0.42,0,0.82-0.11,1.17-0.3l0.95,0.95c-0.27,0.19-0.57,0.34-0.89,0.45C274.36,332.92,273.86,332.52,273.26,332.52L273.26,332.52z
			 M274.53,334.17c0.5-0.15,0.96-0.38,1.37-0.68l0.69,0.69c-0.91,0.71-2.06,1.13-3.3,1.13c-1.24,0-2.39-0.42-3.3-1.13l0.69-0.69
			c0.4,0.29,0.84,0.51,1.32,0.66c0.14,0.57,0.66,0.98,1.27,0.98C273.87,335.14,274.38,334.73,274.53,334.17L274.53,334.17z
			 M273.29,328.98c0.52,0,0.94,0.42,0.94,0.94c0,0.52-0.42,0.94-0.94,0.94c-0.52,0-0.94-0.42-0.94-0.94
			C272.34,329.4,272.77,328.98,273.29,328.98z"/>
		<path class="st0" d="M212.24,324.56c0.91,0.23,1.76,0.59,2.55,1.06l1.87-1.85c1.35,0.91,2.51,2.08,3.41,3.45l-1.87,1.85
			c0.45,0.77,0.8,1.62,1.02,2.51l2.64,0.01c0.15,0.76,0.23,1.55,0.23,2.36c0,0.85-0.09,1.68-0.25,2.49l-2.64-0.01
			c-0.23,0.89-0.59,1.73-1.05,2.5l1.85,1.87c-0.91,1.35-2.08,2.51-3.45,3.41l-1.85-1.87c-0.76,0.44-1.59,0.79-2.46,1.01v2.64
			c-0.78,0.16-1.59,0.24-2.42,0.24c-0.83,0-1.64-0.08-2.42-0.24v-2.64c-0.91-0.23-1.76-0.59-2.55-1.06l-1.87,1.85
			c-1.35-0.91-2.51-2.09-3.41-3.45l1.87-1.85c-0.45-0.77-0.8-1.62-1.02-2.51l-2.64-0.01c-0.15-0.76-0.23-1.55-0.23-2.36
			c0-0.85,0.09-1.68,0.25-2.49l2.64,0.01c0.23-0.89,0.59-1.73,1.05-2.5l-1.85-1.87c0.91-1.35,2.08-2.51,3.45-3.41l1.85,1.87
			c0.76-0.44,1.58-0.79,2.46-1.01v-2.64c0.78-0.16,1.59-0.24,2.42-0.24c0.83,0,1.64,0.08,2.42,0.24V324.56L212.24,324.56z
			 M213.33,331.28l-1.53,1.53c0.19,0.34,0.3,0.73,0.3,1.14c0,0.42-0.11,0.8-0.3,1.14l1.53,1.53c0.57-0.74,0.9-1.67,0.9-2.67
			C214.23,332.94,213.9,332.02,213.33,331.28L213.33,331.28z M208.68,335.93l-1.53,1.53c0.74,0.56,1.67,0.9,2.67,0.9
			s1.93-0.34,2.67-0.9l-1.53-1.53c-0.34,0.19-0.73,0.3-1.14,0.3C209.4,336.24,209.01,336.13,208.68,335.93L208.68,335.93z
			 M206.3,336.62l1.53-1.53c-0.19-0.34-0.3-0.73-0.3-1.14c0-0.42,0.11-0.8,0.3-1.14l-1.53-1.53c-0.57,0.74-0.9,1.67-0.9,2.67
			C205.4,334.95,205.74,335.88,206.3,336.62L206.3,336.62z M210.96,331.97l1.53-1.53c-0.74-0.56-1.67-0.9-2.67-0.9
			s-1.93,0.34-2.67,0.9l1.53,1.53c0.34-0.19,0.73-0.3,1.14-0.3C210.23,331.66,210.62,331.77,210.96,331.97L210.96,331.97z
			 M209.82,325.64c-2.3,0-4.37,0.93-5.88,2.44c-1.5,1.5-2.44,3.58-2.44,5.88s0.93,4.38,2.44,5.88c1.5,1.5,3.58,2.43,5.88,2.43
			c2.3,0,4.38-0.93,5.88-2.43c1.5-1.5,2.44-3.58,2.44-5.88s-0.93-4.38-2.44-5.88C214.19,326.57,212.11,325.64,209.82,325.64
			L209.82,325.64z M215.01,328.76c-1.33-1.33-3.16-2.15-5.19-2.15c-2.03,0-3.86,0.82-5.19,2.15c-1.33,1.33-2.15,3.16-2.15,5.19
			c0,2.03,0.82,3.86,2.15,5.19c1.33,1.33,3.16,2.15,5.19,2.15c2.03,0,3.86-0.82,5.19-2.15c1.33-1.33,2.15-3.16,2.15-5.19
			C217.16,331.92,216.33,330.09,215.01,328.76L215.01,328.76z M209.82,327.95c-3.31,0-6,2.69-6,6c0,3.31,2.69,6,6,6
			c3.31,0,6-2.68,6-6C215.81,330.64,213.13,327.95,209.82,327.95L209.82,327.95z M209.82,327.53c-3.55,0-6.42,2.87-6.42,6.42
			s2.87,6.42,6.42,6.42c3.55,0,6.42-2.87,6.42-6.42S213.36,327.53,209.82,327.53z"/>
	</g>
	<path class="st6" d="M132.31,65.64L132.31,65.64c-1.92,1.31-2.42,3.96-1.11,5.88l27.73,40.66c1.31,1.92,3.96,2.42,5.88,1.11h0
		c1.92-1.31,2.42-3.96,1.11-5.88l-27.73-40.66C136.88,64.83,134.23,64.33,132.31,65.64z"/>
	<path class="st6" d="M55.05,161.43L55.05,161.43c-0.85,2.17,0.23,4.64,2.4,5.49l45.83,17.94c2.17,0.85,4.64-0.23,5.49-2.4l0,0
		c0.85-2.17-0.23-4.64-2.4-5.48l-45.83-17.94C58.37,158.18,55.9,159.26,55.05,161.43z"/>
	<path class="st6" d="M43.29,274.12L43.29,274.12c0.41,2.29,2.62,3.83,4.91,3.42l48.45-8.68c2.29-0.41,3.83-2.62,3.42-4.91l0,0
		c-0.41-2.29-2.62-3.83-4.91-3.42l-48.45,8.68C44.42,269.62,42.88,271.83,43.29,274.12z"/>
	<path class="st6" d="M94.84,379.26L94.84,379.26c1.58,1.71,4.27,1.81,5.98,0.23l36.13-33.42c1.71-1.58,1.81-4.27,0.23-5.98l0,0
		c-1.58-1.71-4.27-1.81-5.98-0.23l-36.13,33.42C93.36,374.85,93.26,377.55,94.84,379.26z"/>
	<g>
		<path class="st6" d="M250,30.1L250,30.1c2.33,0,4.23,1.9,4.23,4.23v49.22c0,2.33-1.9,4.23-4.23,4.23h0c-2.33,0-4.23-1.9-4.23-4.23
			V34.34C245.77,32.01,247.67,30.1,250,30.1z"/>
		<path class="st6" d="M367.69,65.64L367.69,65.64c1.92,1.31,2.42,3.96,1.11,5.88l-27.73,40.66c-1.31,1.92-3.96,2.42-5.88,1.11h0
			c-1.92-1.31-2.42-3.96-1.11-5.88l27.73-40.66C363.12,64.83,365.77,64.33,367.69,65.64z"/>
		<path class="st6" d="M444.95,161.43L444.95,161.43c0.85,2.17-0.23,4.64-2.4,5.49l-45.83,17.94c-2.17,0.85-4.64-0.23-5.49-2.4l0,0
			c-0.85-2.17,0.23-4.64,2.4-5.48l45.83-17.94C441.64,158.18,444.1,159.26,444.95,161.43z"/>
		<path class="st6" d="M456.71,274.12L456.71,274.12c-0.41,2.29-2.62,3.83-4.91,3.42l-48.45-8.68c-2.29-0.41-3.83-2.62-3.42-4.91
			l0,0c0.41-2.29,2.62-3.83,4.91-3.42l48.45,8.68C455.58,269.62,457.12,271.83,456.71,274.12z"/>
		<path class="st6" d="M405.16,379.26L405.16,379.26c-1.58,1.71-4.27,1.81-5.98,0.23l-36.13-33.42c-1.71-1.58-1.81-4.27-0.23-5.98
			l0,0c1.58-1.71,4.27-1.81,5.98-0.23l36.13,33.42C406.64,374.85,406.74,377.55,405.16,379.26z"/>
	</g>
</g>
</svg>
