<?xml version="1.0" encoding="utf-8"?>
<!-- Generator: Adobe Illustrator 23.0.2, SVG Export Plug-In . SVG Version: 6.00 Build 0)  -->
<svg version="1.1" xmlns="http://www.w3.org/2000/svg" xmlns:xlink="http://www.w3.org/1999/xlink" x="0px" y="0px"
	 viewBox="0 0 500 500" style="enable-background:new 0 0 500 500;" xml:space="preserve">
<style type="text/css">
	.st0{display:none;}
	.st1{display:inline;}
	.st2{clip-path:url(#SVGID_2_);fill:#FFFFFF;}
	.st3{opacity:0.14;clip-path:url(#SVGID_2_);fill:url(#SVGID_3_);}
	.st4{clip-path:url(#SVGID_2_);fill:none;}
	.st5{opacity:0.14;clip-path:url(#SVGID_2_);fill:url(#SVGID_4_);}
	.st6{opacity:0.14;clip-path:url(#SVGID_2_);fill:url(#SVGID_5_);}
	.st7{opacity:0.34;fill:#6A64FF;}
	.st8{fill:#4D70FF;}
	.st9{opacity:0.2;}
	.st10{opacity:0.91;fill:url(#SVGID_6_);}
	.st11{fill:#9A9FB3;}
	.st12{fill:#FF8888;}
	.st13{opacity:0.83;}
	.st14{clip-path:url(#SVGID_8_);}
	.st15{fill:#FFFFFF;}
	.st16{opacity:0.28;fill:url(#SVGID_9_);}
	.st17{opacity:0.28;fill:url(#SVGID_10_);}
	.st18{fill:#2D24A3;}
	.st19{fill:#FFADAD;}
	.st20{fill:#212226;}
	.st21{fill:#4340A3;}
	.st22{fill:#A67070;}
	.st23{fill:#402C2C;}
	.st24{opacity:0.91;fill:url(#SVGID_11_);}
	.st25{clip-path:url(#SVGID_13_);}
	.st26{opacity:0.28;fill:url(#SVGID_14_);}
	.st27{opacity:0.28;fill:url(#SVGID_15_);}
	.st28{opacity:0.28;fill:url(#SVGID_16_);}
	.st29{opacity:0.28;fill:url(#SVGID_17_);}
	.st30{fill:url(#SVGID_18_);}
	.st31{fill:url(#SVGID_19_);}
	.st32{fill:none;stroke:#FFFFFF;stroke-linecap:round;stroke-linejoin:round;stroke-miterlimit:10;}
	.st33{opacity:0.28;fill:url(#SVGID_20_);}
	.st34{fill:#FFE7DB;}
	.st35{fill:none;stroke:#9A9FB3;stroke-width:0.25;stroke-miterlimit:10;}
	.st36{opacity:0.68;fill:#FF8888;}
	.st37{fill:none;stroke:#FFFFFF;stroke-miterlimit:10;}
</style>
<g id="BACKGROUND" class="st0">
	<g class="st1">
		<defs>
			<rect id="SVGID_1_" width="500" height="500"/>
		</defs>
		<clipPath id="SVGID_2_">
			<use xlink:href="#SVGID_1_"  style="overflow:visible;"/>
		</clipPath>
		<rect class="st2" width="500" height="500"/>
		<rect class="st2" width="500" height="500"/>
		<linearGradient id="SVGID_3_" gradientUnits="userSpaceOnUse" x1="51.189" y1="-42.6942" x2="411.1888" y2="487.3059">
			<stop  offset="0" style="stop-color:#FF9C9C"/>
			<stop  offset="0.9911" style="stop-color:#4D70FF"/>
		</linearGradient>
		<rect class="st3" width="500" height="500"/>
		<rect class="st4" width="500" height="500"/>
		<linearGradient id="SVGID_4_" gradientUnits="userSpaceOnUse" x1="378.8403" y1="-55.0686" x2="572.0348" y2="229.3569">
			<stop  offset="0" style="stop-color:#FF9C9C"/>
			<stop  offset="0.9911" style="stop-color:#4D70FF"/>
		</linearGradient>
		<path class="st5" d="M349.67-31c0,58.67-7.28,122.11,45.33,150.5c75.67,40.83,97.5,72,116,190.5V-31H349.67z"/>
		<linearGradient id="SVGID_5_" gradientUnits="userSpaceOnUse" x1="-95.9418" y1="215.2111" x2="107.8182" y2="515.1912">
			<stop  offset="0" style="stop-color:#FF9C9C"/>
			<stop  offset="0.9911" style="stop-color:#4D70FF"/>
		</linearGradient>
		<path class="st6" d="M-11,162c0,0,15,134,81,172s118.09,104,96,183H-12.04L-11,162z"/>
	</g>
</g>
<g id="OBJECTS">
	<g>
		<ellipse class="st7" cx="126.77" cy="446.45" rx="59" ry="11.55"/>
		<ellipse class="st7" cx="351.29" cy="446.45" rx="59" ry="11.55"/>
		<path class="st8" d="M219.42,42.68c104.13-7.08,152.44,45.76,179.19,116.61c26.75,70.85,66.37,95.24,39.01,176.78
			c-27.36,81.55-126.18,92.33-164.79,82.8c-38.61-9.53-78.68-34.24-126.76-52.79c-71.53-27.6-89.21-63.91-90.63-99.68
			c-2.02-50.6,24.66-56.26,33.24-111.73C98.95,88.2,137.96,48.22,219.42,42.68z"/>
		<path class="st7" d="M78.43,128.16c-51.09,82.02-9.29,186.08,46.28,239.68c49.56,47.81,136.54,81.01,184.51,50.43
			c35.04-22.34,26.31-64.1,79.5-106.2c34.57-27.36,51.62-20.29,62.89-39.75c26.9-46.47-29.07-158.13-119.84-199.93
			C255.88,37.45,132.84,40.79,78.43,128.16z"/>
		<path class="st9" d="M426.9,110.73c-16.88,0-30.57,13.69-30.57,30.57c0,3.16,0.48,6.21,1.37,9.08l-14.06,12.1l19.54-1.9
			c5.61,6.88,14.14,11.29,23.71,11.29c16.88,0,30.57-13.69,30.57-30.57S443.78,110.73,426.9,110.73z"/>
		<g>
			
				<linearGradient id="SVGID_6_" gradientUnits="userSpaceOnUse" x1="189.2579" y1="178.0163" x2="189.2579" y2="268.5646" gradientTransform="matrix(1 0 -0.1879 1 46.0309 0)">
				<stop  offset="0" style="stop-color:#FFFFFF"/>
				<stop  offset="1" style="stop-color:#000000"/>
			</linearGradient>
			<polygon class="st10" points="243.04,226.23 142.52,226.23 154.48,162.58 255,162.58 			"/>
			<g>
				<polygon class="st11" points="239.97,179.62 210.16,179.62 210.4,178.36 240.21,178.36 				"/>
				<polygon class="st11" points="239,184.82 209.19,184.82 209.42,183.55 239.24,183.55 				"/>
				<polygon class="st11" points="238.02,190.02 208.21,190.02 208.45,188.75 238.26,188.75 				"/>
				<polygon class="st11" points="237.04,195.21 207.23,195.21 207.47,193.95 237.28,193.95 				"/>
				<polygon class="st11" points="236.07,200.41 206.26,200.41 206.49,199.14 236.31,199.14 				"/>
				<polygon class="st11" points="233.85,212.2 223.95,212.2 224.19,210.93 234.09,210.93 				"/>
			</g>
			<path class="st12" d="M159.77,166.31c-0.15,0.78-0.9,1.42-1.69,1.42c-0.78,0-1.3-0.64-1.15-1.42c0.15-0.78,0.9-1.42,1.69-1.42
				C159.4,164.89,159.92,165.53,159.77,166.31z"/>
			<path class="st12" d="M166.11,166.31c-0.15,0.78-0.9,1.42-1.69,1.42c-0.78,0-1.3-0.64-1.15-1.42c0.15-0.78,0.9-1.42,1.69-1.42
				C165.74,164.89,166.26,165.53,166.11,166.31z"/>
			<path class="st12" d="M172.45,166.31c-0.15,0.78-0.9,1.42-1.69,1.42s-1.3-0.64-1.15-1.42c0.15-0.78,0.9-1.42,1.69-1.42
				C172.08,164.89,172.6,165.53,172.45,166.31z"/>
			<g class="st13">
				
					<ellipse transform="matrix(0.7394 -0.6732 0.6732 0.7394 -82.796 172.8914)" class="st8" cx="181.96" cy="193.41" rx="21.48" ry="17.8"/>
				<g>
					<defs>
						
							<ellipse id="SVGID_7_" transform="matrix(0.7394 -0.6732 0.6732 0.7394 -82.796 172.8914)" cx="181.96" cy="193.41" rx="21.48" ry="17.8"/>
					</defs>
					<clipPath id="SVGID_8_">
						<use xlink:href="#SVGID_7_"  style="overflow:visible;"/>
					</clipPath>
					<g class="st14">
						<path class="st15" d="M189.46,188.99c-0.69,3.69-4.24,6.67-7.93,6.67c-3.69,0-6.11-2.99-5.42-6.67
							c0.69-3.69,4.24-6.67,7.93-6.67S190.16,185.31,189.46,188.99z"/>
						<path class="st15" d="M193.76,212.96c-1.61,8.55-9.84,15.48-18.39,15.48c-8.55,0-14.18-6.93-12.57-15.48
							c1.61-8.55,9.84-15.48,18.39-15.48C189.74,197.48,195.37,204.41,193.76,212.96z"/>
					</g>
				</g>
			</g>
		</g>
		<linearGradient id="SVGID_9_" gradientUnits="userSpaceOnUse" x1="198.7605" y1="277.0313" x2="198.7605" y2="220.8885">
			<stop  offset="0" style="stop-color:#FFFFFF"/>
			<stop  offset="1" style="stop-color:#392ECF"/>
		</linearGradient>
		<polygon class="st16" points="243.04,226.51 142.52,226.51 154.48,290.15 255,290.15 		"/>
		
			<linearGradient id="SVGID_10_" gradientUnits="userSpaceOnUse" x1="328.5078" y1="291.2234" x2="328.5078" y2="239.2592" gradientTransform="matrix(-1 0 0 1 635.7705 0)">
			<stop  offset="0" style="stop-color:#FFFFFF"/>
			<stop  offset="1" style="stop-color:#392ECF"/>
		</linearGradient>
		<polygon class="st17" points="266.28,244.46 359.32,244.46 348.25,303.37 255.21,303.37 		"/>
		<g>
			<path class="st12" d="M133.23,425.71l-1.18,19.65h35.18c0,0-14.35-9.56-20.76-12.71l-0.72-6.94H133.23z"/>
			<path class="st18" d="M144.11,269.44l2.36,161.53h-13.89c0,0-15.34-63.28-7.8-81.75l-13.38-79.78H144.11z"/>
			<path class="st9" d="M144.11,269.44h-32.7l13.38,79.78c-2.61,6.4-2.48,18.18-1.18,30.85l22.53,27.49L144.11,269.44z"/>
			<path class="st12" d="M96.1,428.22l-5.37,19.65h38.39c0,0-16.24-9.56-22.66-12.71l1.18-6.94H96.1z"/>
			<path class="st18" d="M145.09,267.47l-13.68,80.96l-22.96,82.53H94.67c0,0,4.42-79.22,18.65-87.48l-11.24-76.02H145.09z"/>
			<polygon class="st9" points="144.16,273 145.09,267.47 102.08,267.47 103.05,274.05 144.25,279.31 			"/>
			<path class="st19" d="M167.23,211.53c0,0,8.52-13.8,21.88-16.92l-5.24,6.31c0,0,2.49,6.55-0.66,9.83
				c-3.14,3.28-8.25,3.54-8.25,3.54l-3.54,3.93L167.23,211.53z"/>
			<path class="st15" d="M133.43,200.27l11.66,23.84l22.93-15.46l5.76,8.78c0,0-19.91,37.47-28.69,34.72
				c-8.78-2.75-16.38-22.53-16.38-22.53L133.43,200.27z"/>
			<path class="st9" d="M145.09,224.11l-11.66-23.84l-4.72,29.35c0,0,7.6,19.78,16.38,22.53c0.21,0.06,0.42,0.09,0.64,0.11
				l10.59-35.71L145.09,224.11z"/>
			<path class="st19" d="M142.34,143.87c0,0,1.37,12.19,2.75,15.13h-3.83c0,0,0.29,11.69-2.06,13.17c-1.69,1.05-6.62,0-7.78,1.38
				c-1.16,1.38-2.83,11.1-2.83,11.1l-15.23-1.28l1.57-13.66c0,0-8.55-10.22-5.99-22.8C111.49,134.34,140.08,132.18,142.34,143.87z"
				/>
			<path class="st9" d="M123.28,164.18l-12.06-0.62c1.76,3.8,3.71,6.15,3.71,6.15l-1.57,13.66l15.23,1.28c0,0,1.67-9.73,2.83-11.1
				c0.43-0.51,1.39-0.69,2.51-0.76C128.12,171.13,122.83,164.47,123.28,164.18z"/>
			<path class="st20" d="M142.84,147.87c0,0-3.19,1.9-9.67-2.36c0,0-4.32,7.79-8.12,6.81c0,0-0.2,5.57-0.98,5.96
				c-0.79,0.39-2.42-4.78-4.06-5.11c-1.64-0.33-3.28,1.31-1.57,6.16c1.7,4.85,4.85,4.85,4.85,4.85l-8.35,5.54
				c0,0-6.58-2.13-7.89-7.57c0,0-8.38-8.19-3.34-13.95c0,0-5.57-4.72,7.4-10.42c0,0,3.05-11.3,9.14-6.09c0,0,11.18-8.35,13.98-0.92
				c0,0,14.41-1.18,15.33,6.62c0.92,7.8-2.55,9.69-2.55,9.69s0.79,6.42-3.2,6.81L142.84,147.87z"/>
			<path class="st21" d="M102.78,199.22c0,0-7.6-1.83-6.29-9.96c1.31-8.12,11.97-11.79,33.8-6.68c2.58,0.6,4.59,4.85,2.88,8.52
				c0,0,7.01,17.23,9.17,31.38c2.16,14.15,3.34,28.89,5.7,35.77c2.36,6.88,0.39,14.54-6.09,14.54c-6.48,0-31.99,0-39.87,0
				s-8.91-11-5.74-22.4C99.5,238.98,104.09,207.41,102.78,199.22z"/>
			<path class="st15" d="M120.53,194.77c12.46,2.65,3.79,27.32,1.3,34.39c-2.48,7.07-5.24,13.36-1.3,18.86
				c3.93,5.5,10.89,11.59,10.89,11.59l-4.64,9.83c0,0-25.94-3.34-32.11-11c-6.17-7.66-2.67-24.81,2.67-36.55
				C102.69,210.14,111.29,192.8,120.53,194.77z"/>
			<path class="st22" d="M126.01,271.14L126.01,271.14c-0.31-0.14-0.44-0.51-0.3-0.81l6.33-13.69c0.14-0.31,0.51-0.44,0.81-0.3l0,0
				c0.31,0.14,0.44,0.51,0.3,0.81l-6.33,13.69C126.68,271.15,126.32,271.28,126.01,271.14z"/>
		</g>
		<g>
			<path class="st18" d="M334.38,254.79l-4.62,6.57c0,0-5.24,71.43-3.85,91.87c1.39,20.44,7.18,80.83,7.18,80.83l-25.83,12.4
				l37.73-1.95c0,0-3.81-7.16-1.18-26.04c4.13-29.67,2.75-47.95-1.97-62.49c0,0,15.33-80.97,20.04-98.65L334.38,254.79z"/>
			<path class="st9" d="M350.13,273.38l-23.4,90.51c2.08,25.5,6.37,70.17,6.37,70.17l-25.83,12.4l37.73-1.95
				c0,0-3.81-7.16-1.18-26.04c4.13-29.67,2.75-47.95-1.97-62.49c0,0,7.35-38.82,13.44-68.57L350.13,273.38z"/>
			<path class="st19" d="M345.43,404.42h-15.12c1.5,16.28,2.78,29.64,2.78,29.64l-25.83,12.4l37.73-1.95c0,0-3.81-7.16-1.18-26.04
				C344.51,413.46,345.04,408.81,345.43,404.42z"/>
			<path class="st18" d="M346.73,252.22c0,0,7.77,78.11,10.48,98.4c2.72,20.29,17.65,74.53,18.04,80.03
				c0.39,5.5-8.65,24.78-8.65,24.78s19.65-12.99,24.37-19.28c0,0-7.58-7.47-7.33-14.54c0.25-7.07-2.5-56.69-9.96-70.99
				c0,0,4.72-48.33,5.9-58.23c1.18-9.91,1.57-33.88-2.75-40.17H346.73z"/>
			<path class="st9" d="M376.83,252.22h-30.1c0,0,0.13,1.36,0.37,3.74l-12.72-1.17l-4.62,6.57c0,0-0.15,2.01-0.39,5.44
				c16.67,3.65,39.81,1.22,50.65-0.28C379.56,260.25,378.58,254.77,376.83,252.22z"/>
			<path class="st23" d="M348.92,124.68c12.77-0.35,14.35,11.2,16.31,23.38c1.97,12.18,3.34,16.51,7.86,22.21
				c4.52,5.7,1.57,10.42,5.7,16.11c4.13,5.7,19.06,26.33,0.98,34.19c-18.08,7.86-29.28,0.79-34.59-9.83
				c-5.31-10.61-7.47-17.29-13.95-22.4c-6.48-5.11-6.68-15.33-2.55-22.4c4.13-7.07,3.14-12.77,1.77-21.03
				C329.08,136.67,334.38,125.08,348.92,124.68z"/>
			<path class="st9" d="M357.21,189.28c0.48-12.01-4.11-14.83-8.27-24.62c-4.15-9.79-14.56-16.11-14.56-16.11
				c-1.11,0.37-2.14,0.97-3.1,1.75c0.72,5.59,0.57,10.21-2.6,15.64c-4.13,7.07-3.93,17.29,2.55,22.4c3.93,3.1,6.27,6.78,8.69,11.55
				C349.2,200.68,356.84,198.4,357.21,189.28z"/>
			<path class="st19" d="M334.5,182.51c0,0-4.57,1.85-7.19,11.54c-2.62,9.69-10.35,42.18-10.35,42.18l-23.58,30.26
				c0,0-5.37,0.52-8.52,2.1c-3.14,1.57-5.11,4.85-5.11,4.85s2.75-0.39,5.76-1.31l-5.76,9.17h11c0,0,5.9-5.11,8.91-11.4l29.35-29.87
				c0,0,5.76-29.61,8.12-36.29C339.49,197.06,334.5,182.51,334.5,182.51z"/>
			<path class="st9" d="M334.5,182.51c0,0-4.57,1.85-7.19,11.54c-2.62,9.69-10.35,42.18-10.35,42.18l-8.37,10.74l20.42-6.94
				c0,0,5.76-29.61,8.12-36.29C339.49,197.06,334.5,182.51,334.5,182.51z"/>
			<path class="st19" d="M334.38,148.56c0,0,6.78-2.06,11-5.11c0,0-2.06,3.24-0.88,3.24c1.18,0,8.25-7.47,8.25-7.47
				s-0.98,14.64,6.29,21.22v17.49h-12.58l-0.25-7.56c0,0-1.89,0.78-2.87,0.78c-0.98,0-6.61-6.19-6.31-12.57
				C337.23,154.26,335.66,149.15,334.38,148.56z"/>
			<path class="st9" d="M346.22,170.38l0.23,6.93c9.1-2.28,9.91-15.17,9.91-15.17C352.58,169.15,346.22,170.38,346.22,170.38z"/>
			<path class="st12" d="M343.91,179.31v-4.62h16.9c0,0-0.49,4.22,0.98,5.21c1.47,0.98,9.92,2.85,11.99,6.68
				c2.06,3.83,4.3,21.14,1.56,35.68c-2.74,14.53-2.54,17.19-0.28,22.2c2.26,5.01,5.7,11.89,6.09,16.9c0,0-32.92,5.9-51.39,0
				c0,0,8.55-20.93,7.5-31.41s-7.73-14.02-8.78-20.18c-1.05-6.16,4.06-15.07,4.06-15.07s-0.26-10.09,1.95-12.2
				C336.31,180.78,343.91,179.31,343.91,179.31z"/>
			<path class="st9" d="M381.15,261.36c-0.39-5.01-3.83-11.89-6.09-16.9c-2.09-4.63-2.41-7.27-0.29-19.1l-44.2-10.62l0,0
				c2.39,3.85,5.95,7.79,6.69,15.2c1.05,10.48-7.5,31.41-7.5,31.41C348.24,267.25,381.15,261.36,381.15,261.36z"/>
			<path class="st19" d="M372.2,184.76c0,0-5.39,3-5,13.32c0.39,10.32,3.47,31.34,3.47,31.34l-35.31-1.67c0,0-9.14-5.99-12.87-6.88
				c-3.73-0.88-12.38-0.49-12.67,1.47c-0.29,1.97,9.04,5.01,9.04,5.01l4.13,4.22c0,0-6.88-2.16-7.17-1.08
				c-0.29,1.08,7.76,6.88,18.57,4.13c0,0,45.11,7.91,48.05,5.9c3.57-2.46-1.77-32.62-2.46-37.14
				C379.28,198.87,377.35,188.29,372.2,184.76z"/>
			<path class="st19" d="M375.26,430.65c0.39,5.5-8.65,24.78-8.65,24.78s19.65-12.99,24.37-19.28c0,0-7.58-7.47-7.33-14.54
				c0.11-2.97-0.32-13.47-1.4-25.69l-14.4,3.29C371.68,414.73,375.07,428.07,375.26,430.65z"/>
			<path class="st23" d="M342.98,434.06h-9.89l-25.83,12.4l37.73-1.95C344.99,444.51,343.38,441.43,342.98,434.06z"/>
			<path class="st23" d="M390.98,436.15c0,0-3.59-3.53-5.75-8.04c-4.98,5.29-9.98,2.54-9.98,2.54c0.39,5.5-8.65,24.78-8.65,24.78
				S386.26,442.44,390.98,436.15z"/>
		</g>
		<g>
			
				<linearGradient id="SVGID_11_" gradientUnits="userSpaceOnUse" x1="444.7744" y1="199.6945" x2="444.7744" y2="283.5037" gradientTransform="matrix(-1 0 0.1879 1 711.6647 0)">
				<stop  offset="0" style="stop-color:#FFFFFF"/>
				<stop  offset="1" style="stop-color:#000000"/>
			</linearGradient>
			<polygon class="st24" points="266.28,244.32 359.32,244.32 348.25,185.41 255.21,185.41 			"/>
			<g>
				<polygon class="st11" points="269.12,201.18 296.71,201.18 296.49,200.01 268.9,200.01 				"/>
				<polygon class="st11" points="270.02,205.99 297.61,205.99 297.39,204.82 269.8,204.82 				"/>
				<polygon class="st11" points="270.92,210.8 298.52,210.8 298.3,209.63 270.7,209.63 				"/>
				<polygon class="st11" points="271.83,215.61 299.42,215.61 299.2,214.44 271.61,214.44 				"/>
				<polygon class="st11" points="272.73,220.42 300.33,220.42 300.1,219.25 272.51,219.25 				"/>
				<polygon class="st11" points="274.78,231.33 283.95,231.33 283.73,230.16 274.56,230.16 				"/>
			</g>
			<path class="st12" d="M343.35,188.86c0.14,0.73,0.83,1.31,1.56,1.31c0.73,0,1.2-0.59,1.07-1.31c-0.14-0.73-0.83-1.31-1.56-1.31
				C343.69,187.55,343.21,188.13,343.35,188.86z"/>
			<path class="st12" d="M337.48,188.86c0.14,0.73,0.83,1.31,1.56,1.31c0.73,0,1.2-0.59,1.07-1.31c-0.14-0.73-0.83-1.31-1.56-1.31
				C337.82,187.55,337.35,188.13,337.48,188.86z"/>
			<path class="st12" d="M331.62,188.86c0.14,0.73,0.83,1.31,1.56,1.31s1.2-0.59,1.07-1.31c-0.14-0.73-0.83-1.31-1.56-1.31
				C331.96,187.55,331.48,188.13,331.62,188.86z"/>
			<g class="st13">
				
					<ellipse transform="matrix(0.6732 -0.7394 0.7394 0.6732 -52.7091 308.6144)" class="st12" cx="322.81" cy="213.94" rx="16.48" ry="19.88"/>
				<g>
					<defs>
						
							<ellipse id="SVGID_12_" transform="matrix(0.6732 -0.7394 0.7394 0.6732 -52.7091 308.6144)" cx="322.81" cy="213.94" rx="16.48" ry="19.88"/>
					</defs>
					<clipPath id="SVGID_13_">
						<use xlink:href="#SVGID_12_"  style="overflow:visible;"/>
					</clipPath>
					<g class="st25">
						
							<ellipse transform="matrix(0.6732 -0.7394 0.7394 0.6732 -49.9367 306.7093)" class="st15" cx="322.04" cy="209.85" rx="5.62" ry="6.79"/>
						<path class="st15" d="M311.89,232.04c1.49,7.91,9.11,14.33,17.02,14.33s13.12-6.41,11.63-14.33
							c-1.49-7.91-9.11-14.33-17.02-14.33C315.61,217.71,310.4,224.13,311.89,232.04z"/>
					</g>
				</g>
			</g>
		</g>
		<linearGradient id="SVGID_14_" gradientUnits="userSpaceOnUse" x1="179.9519" y1="146.8411" x2="179.9519" y2="63.6156">
			<stop  offset="0" style="stop-color:#FFFFFF"/>
			<stop  offset="1" style="stop-color:#000000"/>
		</linearGradient>
		<rect x="164.69" y="31.15" class="st26" width="30.52" height="131.42"/>
		<linearGradient id="SVGID_15_" gradientUnits="userSpaceOnUse" x1="219.9296" y1="32.3638" x2="219.9296" y2="113.1714">
			<stop  offset="0" style="stop-color:#FFFFFF"/>
			<stop  offset="1" style="stop-color:#392ECF"/>
		</linearGradient>
		<rect x="204.67" y="31.15" class="st27" width="30.52" height="131.42"/>
		<linearGradient id="SVGID_16_" gradientUnits="userSpaceOnUse" x1="286.4183" y1="55.1944" x2="286.4183" y2="136.0019">
			<stop  offset="0" style="stop-color:#FFFFFF"/>
			<stop  offset="1" style="stop-color:#392ECF"/>
		</linearGradient>
		<rect x="271.16" y="53.98" class="st28" width="30.52" height="131.42"/>
		<linearGradient id="SVGID_17_" gradientUnits="userSpaceOnUse" x1="323.1772" y1="169.6716" x2="323.1772" y2="86.4462">
			<stop  offset="0" style="stop-color:#FFFFFF"/>
			<stop  offset="1" style="stop-color:#000000"/>
		</linearGradient>
		<rect x="307.92" y="53.98" class="st29" width="30.52" height="131.42"/>
		<g>
			<path class="st15" d="M251.09,131.17c-1.81,0-3.29,1.48-3.29,3.29c0,1.81,1.48,3.29,3.29,3.29s3.29-1.48,3.29-3.29
				C254.38,132.64,252.9,131.17,251.09,131.17z"/>
			<g>
				<path class="st15" d="M251.09,122.91c-3.14,0-5.98,1.27-8.05,3.31c-0.81,0.8-0.8,2.12-0.02,2.95l0,0
					c0.8,0.85,2.15,0.92,2.98,0.1c1.31-1.3,3.1-2.11,5.09-2.11c1.99,0,3.78,0.81,5.09,2.11c0.83,0.82,2.18,0.75,2.98-0.1l0,0
					c0.78-0.83,0.79-2.15-0.02-2.95C257.06,124.18,254.23,122.91,251.09,122.91z"/>
				<path class="st15" d="M251.09,101.64c-8.76,0-16.71,3.47-22.6,9.09c-0.83,0.79-0.82,2.12-0.03,2.95l0.21,0.22
					c0.79,0.84,2.13,0.92,2.97,0.12c5.07-4.84,11.92-7.83,19.46-7.83c7.55,0,14.39,2.99,19.46,7.83c0.84,0.8,2.17,0.72,2.97-0.12
					l0.21-0.22c0.78-0.83,0.79-2.16-0.03-2.95C267.8,105.12,259.85,101.64,251.09,101.64z"/>
				<path class="st15" d="M251.09,113.21c-5.6,0-10.7,2.19-14.5,5.75c-0.93,0.87-0.99,2.32-0.12,3.25l0,0
					c0.86,0.92,2.29,0.94,3.21,0.08c2.99-2.8,7-4.53,11.41-4.53c4.41,0,8.42,1.72,11.41,4.53c0.92,0.86,2.34,0.84,3.21-0.08l0,0
					c0.87-0.93,0.81-2.38-0.12-3.25C261.79,115.4,256.69,113.21,251.09,113.21z"/>
			</g>
		</g>
		<linearGradient id="SVGID_18_" gradientUnits="userSpaceOnUse" x1="402.5796" y1="326.743" x2="458.3635" y2="326.743">
			<stop  offset="0" style="stop-color:#FFE7DB"/>
			<stop  offset="0.326" style="stop-color:#FFE4D9"/>
			<stop  offset="0.5573" style="stop-color:#FFDBD1"/>
			<stop  offset="0.7592" style="stop-color:#FFCBC5"/>
			<stop  offset="0.9434" style="stop-color:#FFB5B4"/>
			<stop  offset="1" style="stop-color:#FFADAD"/>
		</linearGradient>
		<circle class="st30" cx="430.47" cy="326.74" r="27.89"/>
		<linearGradient id="SVGID_19_" gradientUnits="userSpaceOnUse" x1="41.6365" y1="148.5584" x2="77.5454" y2="148.5584">
			<stop  offset="0" style="stop-color:#FFE7DB"/>
			<stop  offset="0.326" style="stop-color:#FFE4D9"/>
			<stop  offset="0.5573" style="stop-color:#FFDBD1"/>
			<stop  offset="0.7592" style="stop-color:#FFCBC5"/>
			<stop  offset="0.9434" style="stop-color:#FFB5B4"/>
			<stop  offset="1" style="stop-color:#FFADAD"/>
		</linearGradient>
		<circle class="st31" cx="59.59" cy="148.56" r="17.95"/>
		<path class="st18" d="M424.4,105.62c-16.88,0-30.57,13.69-30.57,30.57c0,3.16,0.48,6.21,1.37,9.08l-14.06,12.1l19.54-1.9
			c5.61,6.88,14.14,11.29,23.71,11.29c16.88,0,30.57-13.69,30.57-30.57S441.29,105.62,424.4,105.62z"/>
		<path class="st32" d="M441.83,132.78h-2.25c0-2.65-2.15-4.81-4.81-4.81c-0.41,0-0.8,0.07-1.18,0.16
			c-1.07-3.21-4.06-5.55-7.63-5.55c-2.96,0-5.51,1.61-6.92,3.98c-0.42-0.08-0.84-0.13-1.28-0.13c-3.63,0-6.57,2.8-6.86,6.35h-0.8
			c-2.77,0-5.02,2.25-5.02,5.02s2.25,5.02,5.02,5.02h31.74c2.77,0,5.02-2.25,5.02-5.02S444.6,132.78,441.83,132.78z"/>
		<g>
			<linearGradient id="SVGID_20_" gradientUnits="userSpaceOnUse" x1="177.9674" y1="332.6056" x2="275.2939" y2="332.6056">
				<stop  offset="0" style="stop-color:#FFFFFF"/>
				<stop  offset="1" style="stop-color:#392ECF"/>
			</linearGradient>
			<path class="st33" d="M269.5,281.73h-85.74c-3.2,0-5.79,2.59-5.79,5.79v90.17c0,3.2,2.59,5.79,5.79,5.79h85.74
				c3.2,0,5.79-2.59,5.79-5.79v-90.17C275.29,284.32,272.7,281.73,269.5,281.73z"/>
			<path class="st15" d="M266.31,278.35h-85.74c-3.2,0-5.79,2.59-5.79,5.79v90.17c0,3.2,2.59,5.79,5.79,5.79h85.74
				c3.2,0,5.79-2.59,5.79-5.79v-90.17C272.1,280.94,269.51,278.35,266.31,278.35z"/>
			<path class="st12" d="M266.31,278.35h-85.74c-3.2,0-5.79,2.59-5.79,5.79v8.35h97.33v-8.35
				C272.1,280.94,269.51,278.35,266.31,278.35z"/>
			<g>
				<circle class="st15" cx="181.25" cy="285.61" r="1.94"/>
				<circle class="st15" cx="190.04" cy="285.61" r="1.94"/>
				<path class="st15" d="M200.77,285.61c0,1.07-0.87,1.94-1.94,1.94c-1.07,0-1.94-0.87-1.94-1.94c0-1.07,0.87-1.94,1.94-1.94
					C199.9,283.66,200.77,284.53,200.77,285.61z"/>
			</g>
			<g>
				<rect x="257.28" y="283.01" class="st15" width="6.23" height="0.82"/>
				<rect x="257.28" y="285.01" class="st15" width="6.23" height="0.82"/>
				<rect x="257.28" y="287.01" class="st15" width="6.23" height="0.82"/>
			</g>
			<g>
				<rect x="187.02" y="303.32" class="st9" width="75.6" height="27.61"/>
				<rect x="185.64" y="301.61" class="st34" width="75.6" height="27.61"/>
				<g>
					<line class="st35" x1="190.98" y1="308.3" x2="253.42" y2="308.3"/>
					<line class="st35" x1="190.98" y1="313.05" x2="253.42" y2="313.05"/>
					<line class="st35" x1="190.98" y1="317.79" x2="253.42" y2="317.79"/>
					<line class="st35" x1="190.98" y1="322.54" x2="218.42" y2="322.54"/>
				</g>
			</g>
			<g>
				<rect x="187.02" y="342.01" class="st9" width="75.6" height="27.61"/>
				<rect x="185.64" y="340.31" class="st34" width="75.6" height="27.61"/>
				<g>
					<line class="st35" x1="190.98" y1="347" x2="253.42" y2="347"/>
					<line class="st35" x1="190.98" y1="351.74" x2="253.42" y2="351.74"/>
					<line class="st35" x1="190.98" y1="356.49" x2="253.42" y2="356.49"/>
					<line class="st35" x1="190.98" y1="361.23" x2="218.42" y2="361.23"/>
				</g>
			</g>
		</g>
		<g>
			<circle class="st36" cx="269.59" cy="326.3" r="17.82"/>
			<polygon class="st15" points="280.89,323.71 262.03,318.97 266.77,337.83 270.19,334.4 290.5,356.73 299.79,347.44 
				277.46,327.13 			"/>
		</g>
		<g>
			<line class="st37" x1="402.58" y1="262.52" x2="411.85" y2="262.52"/>
			<line class="st37" x1="407.21" y1="257.88" x2="407.21" y2="267.15"/>
		</g>
		<g>
			<line class="st37" x1="190.58" y1="254.79" x2="199.85" y2="254.79"/>
			<line class="st37" x1="195.21" y1="250.15" x2="195.21" y2="259.42"/>
		</g>
		<g>
			<line class="st37" x1="292.07" y1="383.48" x2="301.34" y2="383.48"/>
			<line class="st37" x1="296.71" y1="378.85" x2="296.71" y2="388.11"/>
		</g>
		<g>
			<line class="st37" x1="70.63" y1="256.28" x2="79.9" y2="256.28"/>
			<line class="st37" x1="75.27" y1="251.65" x2="75.27" y2="260.91"/>
		</g>
	</g>
</g>
<g id="DESIGNED_BY_FREEPIK">
</g>
</svg>
