<?xml version="1.0" encoding="utf-8"?>
<!-- Generator: Adobe Illustrator 23.0.2, SVG Export Plug-In . SVG Version: 6.00 Build 0)  -->
<svg version="1.1" id="Calque_1" xmlns="http://www.w3.org/2000/svg" xmlns:xlink="http://www.w3.org/1999/xlink" x="0px" y="0px"
	 viewBox="0 0 337.33 322" style="enable-background:new 0 0 337.33 322;" xml:space="preserve">
<style type="text/css">
	.st0{display:none;}
	.st1{display:inline;}
	.st2{fill:url(#SVGID_1_);}
	.st3{opacity:0.8;fill:url(#SVGID_2_);enable-background:new    ;}
	.st4{opacity:0.8;fill:url(#SVGID_3_);enable-background:new    ;}
	.st5{fill:#FFFFFF;}
	.st6{fill:#999999;}
	.st7{fill:url(#SVGID_4_);}
	.st8{fill:url(#SVGID_5_);}
	.st9{fill:#545454;}
	.st10{fill:url(#SVGID_6_);}
	.st11{opacity:0.2;}
	.st12{opacity:0.4;fill:url(#SVGID_7_);enable-background:new    ;}
	.st13{opacity:0.4;fill:url(#SVGID_8_);enable-background:new    ;}
	.st14{opacity:0.5;fill:url(#SVGID_9_);enable-background:new    ;}
	.st15{fill:url(#SVGID_10_);}
	.st16{opacity:0.5;enable-background:new    ;}
	.st17{fill:url(#SVGID_11_);}
	.st18{opacity:0.05;enable-background:new    ;}
	.st19{opacity:0.1;enable-background:new    ;}
	.st20{opacity:0.16;enable-background:new    ;}
	.st21{opacity:0.1;}
	.st22{fill:url(#SVGID_12_);}
	.st23{fill:url(#SVGID_13_);}
	.st24{fill:#EBEBEB;}
	.st25{opacity:0.2;enable-background:new    ;}
	.st26{fill:#F56300;}
	.st27{fill:#FFD350;}
	.st28{fill:#B6FF1C;}
	.st29{fill:#EDD478;}
	.st30{fill:#713000;}
	.st31{fill:#FF9804;}
	.st32{fill:url(#SVGID_14_);}
	.st33{opacity:0.4;enable-background:new    ;}
	.st34{fill:#FF7F50;}
	.st35{fill:#E6C087;}
	.st36{fill:#FFD596;}
	.st37{fill:#C9C9C9;}
</style>
<g id="BACKGROUND" class="st0">
	<g class="st1">
		
			<linearGradient id="SVGID_1_" gradientUnits="userSpaceOnUse" x1="-103.66" y1="-68.3844" x2="396.34" y2="431.6156" gradientTransform="matrix(1 0 0 -1 0 323.2756)">
			<stop  offset="0" style="stop-color:#B47CEE"/>
			<stop  offset="0.9951" style="stop-color:#4B52D3"/>
		</linearGradient>
		<rect x="-103.66" y="-108.34" class="st2" width="500" height="500"/>
		
			<linearGradient id="SVGID_2_" gradientUnits="userSpaceOnUse" x1="-103.66" y1="331.2906" x2="-8.5905" y2="331.2906" gradientTransform="matrix(1 0 0 -1 0 323.2756)">
			<stop  offset="0" style="stop-color:#B47CEE"/>
			<stop  offset="0.9951" style="stop-color:#4B52D3"/>
		</linearGradient>
		<path class="st3" d="M-103.66,92.31c28.09-15.12,51.93-38.86,67.78-66.71C-13.02-14.57-5.61-62.14-9.63-108.34h-94.03
			C-103.66-108.34-103.66,92.31-103.66,92.31z"/>
		
			<linearGradient id="SVGID_3_" gradientUnits="userSpaceOnUse" x1="80.1882" y1="168.0506" x2="396.34" y2="168.0506" gradientTransform="matrix(1 0 0 -1 0 323.2756)">
			<stop  offset="0" style="stop-color:#B47CEE"/>
			<stop  offset="0.9951" style="stop-color:#4B52D3"/>
		</linearGradient>
		<path class="st4" d="M396.34-81.22c-6.34,6.02-13.68,11.18-21.2,15.59c-16.34,9.59-34.17,16.74-49.32,28.11
			S298.06-9.13,298.37,9.81c0.36,22.01,17.84,41.72,15.51,63.61c-2.59,24.4-27.93,39.18-51.1,47.24
			c-27.57,9.59-56.34,15.4-83.94,24.9s-54.68,23.23-73.63,45.44c-33.76,39.56-33.3,104.04,1.03,143.11
			c20.2,22.99,48.9,36.39,73.31,54.85c1.16,0.88,2.32,1.79,3.46,2.71h213.32V-81.22H396.34z"/>
		<g>
			<ellipse class="st5" cx="68.19" cy="-59.27" rx="12.01" ry="12.01"/>
			<path class="st5" d="M242.72-77.24c0,2.19-1.78,3.97-3.97,3.97c-2.2,0-3.97-1.78-3.97-3.97s1.78-3.97,3.97-3.97
				C240.95-81.22,242.72-79.44,242.72-77.24z"/>
			<path class="st5" d="M49.85,351.1c0,2.19-1.78,3.97-3.97,3.97c-2.19,0-3.97-1.78-3.97-3.97c0-2.2,1.78-3.97,3.97-3.97
				S49.85,348.9,49.85,351.1z"/>
			<path class="st5" d="M163.54-28.59c0,3.01-2.44,5.44-5.44,5.44c-3.01,0-5.44-2.44-5.44-5.44s2.44-5.44,5.44-5.44
				C161.11-34.04,163.54-31.6,163.54-28.59z"/>
			<path class="st5" d="M317.5-76.24c0,2.75-2.23,4.97-4.97,4.97c-2.75,0-4.97-2.23-4.97-4.97s2.23-4.97,4.97-4.97
				C315.28-81.22,317.5-78.99,317.5-76.24z"/>
			<path class="st5" d="M-27.4,332.86c0,7.6-6.16,13.75-13.75,13.75c-7.6,0-13.75-6.16-13.75-13.75s6.16-13.75,13.75-13.75
				S-27.4,325.26-27.4,332.86z"/>
		</g>
		<g>
			<g>
				<path class="st5" d="M241.65,333.86c-4.34,0-7.88-3.53-7.88-7.88s3.53-7.88,7.88-7.88c4.34,0,7.88,3.53,7.88,7.88
					S246,333.86,241.65,333.86z M241.65,320.11c-3.24,0-5.88,2.64-5.88,5.88s2.64,5.88,5.88,5.88s5.88-2.64,5.88-5.88
					C247.53,322.74,244.89,320.11,241.65,320.11z"/>
			</g>
			<g>
				<path class="st5" d="M-49.78-50.02c-5.31,0-9.63-4.32-9.63-9.63s4.32-9.63,9.63-9.63s9.63,4.32,9.63,9.63
					C-40.15-54.34-44.47-50.02-49.78-50.02z M-49.78-67.28c-4.21,0-7.63,3.42-7.63,7.63s3.42,7.63,7.63,7.63s7.63-3.42,7.63-7.63
					C-42.15-63.86-45.57-67.28-49.78-67.28z"/>
			</g>
			<g>
				<path class="st5" d="M326.28,347.61c-8.13,0-14.75-6.62-14.75-14.75s6.62-14.75,14.75-14.75s14.75,6.62,14.75,14.75
					C341.04,340.99,334.42,347.61,326.28,347.61z M326.28,320.11c-7.03,0-12.75,5.72-12.75,12.75s5.72,12.75,12.75,12.75
					s12.75-5.72,12.75-12.75C339.04,325.83,333.31,320.11,326.28,320.11z"/>
			</g>
		</g>
	</g>
</g>
<g id="OBJECTS">
	<g>
		<g>
			<g>
				<g>
					<path class="st6" d="M234.94,128.74c-0.17-0.63,0.22-1.28,0.85-1.44l0,0c0.63-0.15,1.27,0.24,1.44,0.86l0,0
						c0.15,0.63-0.24,1.28-0.86,1.43l0,0c0,0,0,0,0,0.01l0,0c-0.09,0.03-0.19,0.03-0.28,0.03l0,0
						C235.56,129.62,235.08,129.27,234.94,128.74z M241.74,126.76c-0.24-0.6,0.08-1.29,0.69-1.51l0,0c0.61-0.24,1.29,0.08,1.52,0.69
						l0,0c0.22,0.62-0.08,1.29-0.69,1.52l0,0c-0.13,0.05-0.27,0.07-0.41,0.07l0,0C242.36,127.53,241.91,127.23,241.74,126.76z
						 M248.26,124.03c-0.3-0.58-0.06-1.29,0.52-1.58l0,0c0.58-0.3,1.29-0.06,1.59,0.52l0,0c0.28,0.58,0.06,1.29-0.52,1.58l0,0
						c-0.18,0.09-0.36,0.13-0.53,0.13l0,0C248.89,124.68,248.47,124.45,248.26,124.03z M254.44,120.6
						c-0.36-0.54-0.21-1.29,0.33-1.64l0,0c0.54-0.36,1.28-0.21,1.64,0.33l0,0c0.36,0.54,0.21,1.28-0.33,1.62l0,0
						c-0.2,0.14-0.44,0.2-0.65,0.2l0,0C255.05,121.12,254.66,120.94,254.44,120.6z M260.18,116.46c-0.42-0.5-0.36-1.24,0.13-1.67
						l0,0c0.5-0.42,1.24-0.36,1.67,0.13l0,0c0.42,0.5,0.36,1.24-0.13,1.67l0,0c-0.22,0.19-0.49,0.28-0.77,0.28l0,0
						C260.74,116.87,260.41,116.73,260.18,116.46z M265.38,111.66c-0.48-0.45-0.52-1.19-0.08-1.68l0,0
						c0.45-0.48,1.19-0.52,1.68-0.07l0,0c0.47,0.44,0.51,1.18,0.07,1.67l0,0l0,0l0,0c-0.24,0.25-0.55,0.38-0.87,0.38l0,0
						C265.88,111.96,265.6,111.86,265.38,111.66z M269.9,106.22c-0.53-0.36-0.66-1.11-0.3-1.64l0,0c0.36-0.54,1.11-0.67,1.64-0.3
						l0,0c0.54,0.36,0.68,1.1,0.3,1.64l0,0c0,0,0,0-0.01,0l0,0c-0.22,0.33-0.59,0.51-0.96,0.51l0,0
						C270.33,106.43,270.11,106.36,269.9,106.22z M273.67,100.23c-0.59-0.3-0.83-1-0.53-1.58l0,0c0.3-0.59,0.99-0.83,1.58-0.53l0,0
						c0.58,0.3,0.81,1,0.53,1.58l0,0c-0.21,0.41-0.63,0.66-1.06,0.66l0,0C274.01,100.36,273.83,100.31,273.67,100.23z M276.51,93.76
						c-0.62-0.2-0.94-0.87-0.74-1.49l0,0c0.2-0.61,0.87-0.96,1.49-0.74l0,0c0.63,0.2,0.96,0.86,0.75,1.49l0,0
						c-0.17,0.5-0.63,0.8-1.12,0.8l0,0C276.76,93.82,276.64,93.8,276.51,93.76z M278.43,86.95c-0.65-0.12-1.07-0.73-0.96-1.37v-0.01
						c0.12-0.63,0.73-1.06,1.38-0.95l0,0c0.63,0.12,1.06,0.73,0.94,1.38l0,0c-0.1,0.57-0.6,0.96-1.16,0.96l0,0
						C278.57,86.97,278.5,86.96,278.43,86.95z M279.37,79.95c-0.65-0.03-1.15-0.58-1.13-1.23l0,0c0.03-0.65,0.58-1.16,1.23-1.13l0,0
						c0.65,0.03,1.16,0.58,1.13,1.23l0,0c-0.03,0.63-0.54,1.13-1.18,1.13l0,0C279.41,79.95,279.39,79.95,279.37,79.95z
						 M202.14,72.61L202.14,72.61L202.14,72.61c-0.09-0.63,0.36-1.24,0.99-1.34l0,0c0.65-0.09,1.25,0.36,1.35,0.99l0,0
						c0.09,0.65-0.36,1.25-1,1.35l0,0c-0.06,0-0.12,0.01-0.18,0.01l0,0C202.72,73.62,202.21,73.2,202.14,72.61z M278.03,71.82
						c-0.07-0.65,0.41-1.23,1.05-1.29l0,0c0.65-0.07,1.24,0.4,1.29,1.05l0,0l0,0l0,0c0.07,0.65-0.4,1.23-1.05,1.29l0,0
						c-0.04,0-0.08,0-0.13,0l0,0C278.61,72.87,278.1,72.42,278.03,71.82z M203.02,66.55c-0.65-0.06-1.12-0.63-1.07-1.29l0,0l0,0l0,0
						c0.06-0.65,0.63-1.12,1.29-1.06l0,0c0.65,0.06,1.13,0.63,1.06,1.29l0,0c-0.06,0.61-0.57,1.06-1.17,1.06l0,0
						C203.1,66.55,203.05,66.55,203.02,66.55z M276.82,65.04c-0.16-0.63,0.21-1.28,0.84-1.44l0,0c0.63-0.16,1.28,0.21,1.44,0.84l0,0
						c0.16,0.63-0.21,1.29-0.84,1.44l0,0c-0.11,0.03-0.2,0.04-0.3,0.04l0,0C277.43,65.92,276.94,65.56,276.82,65.04z M204.21,59.6
						c-0.62-0.2-0.96-0.87-0.75-1.49l0,0c0.2-0.63,0.86-0.96,1.49-0.77l0,0c0.61,0.2,0.96,0.87,0.75,1.49l0,0
						c-0.17,0.5-0.63,0.81-1.13,0.81l0,0C204.45,59.65,204.33,59.63,204.21,59.6z M274.55,58.54c-0.27-0.59,0-1.29,0.6-1.56l0,0
						c0.59-0.26,1.29,0.01,1.56,0.6l0,0c0.26,0.6-0.01,1.29-0.6,1.56l0,0c-0.15,0.07-0.32,0.11-0.48,0.11l0,0
						C275.17,59.24,274.73,58.99,274.55,58.54z M206.84,53.03c-0.57-0.32-0.77-1.04-0.45-1.61l0,0l0,0l0,0
						c0.32-0.57,1.04-0.77,1.61-0.45l0,0c0.57,0.32,0.76,1.04,0.45,1.61l0,0c-0.21,0.39-0.61,0.6-1.02,0.6l0,0
						C207.21,53.18,207.02,53.13,206.84,53.03z M271.25,52.53L271.25,52.53c-0.37-0.54-0.22-1.29,0.32-1.64l0,0
						c0.53-0.36,1.28-0.22,1.62,0.32l0,0c0.36,0.54,0.22,1.28-0.32,1.64l0,0c-0.2,0.13-0.42,0.2-0.66,0.2l0,0
						C271.84,53.06,271.47,52.86,271.25,52.53z M266.92,47.2c-0.45-0.47-0.44-1.22,0.03-1.68l0,0c0.46-0.45,1.21-0.44,1.66,0.03l0,0
						c0.45,0.46,0.44,1.22-0.03,1.67l0,0c-0.24,0.22-0.53,0.33-0.83,0.33l0,0C267.47,47.56,267.15,47.44,266.92,47.2z M210.68,47.11
						c-0.5-0.42-0.56-1.17-0.13-1.67l0,0c0.41-0.51,1.15-0.57,1.67-0.14l0,0c0.5,0.41,0.56,1.17,0.13,1.67l0,0
						c-0.24,0.27-0.57,0.41-0.9,0.41l0,0C211.18,47.38,210.91,47.29,210.68,47.11z M261.76,42.68c-0.53-0.39-0.63-1.12-0.26-1.64
						l0,0c0.39-0.53,1.13-0.63,1.65-0.26l0,0c0.53,0.39,0.63,1.13,0.25,1.65l0,0c-0.22,0.32-0.59,0.48-0.94,0.48l0,0
						C262.2,42.91,261.96,42.84,261.76,42.68z M215.58,42c-0.41-0.51-0.33-1.25,0.18-1.67l0,0l0,0l0,0
						c0.51-0.41,1.25-0.33,1.67,0.18l0,0c0.4,0.51,0.33,1.25-0.18,1.65l0,0c-0.22,0.18-0.48,0.27-0.74,0.27l0,0
						C216.16,42.44,215.82,42.29,215.58,42z M255.89,39.06h0.02c-0.59-0.3-0.81-1-0.52-1.58l0,0c0.3-0.58,1.01-0.81,1.58-0.52l0,0
						l0,0l0,0c0.58,0.3,0.81,1.01,0.52,1.59l0,0c-0.21,0.4-0.63,0.63-1.06,0.63l0,0C256.25,39.2,256.07,39.16,255.89,39.06z
						 M221.34,37.91c-0.3-0.58-0.08-1.29,0.5-1.59l0,0c0.58-0.3,1.29-0.07,1.59,0.5l0,0c0.3,0.58,0.08,1.29-0.5,1.59l0,0
						c-0.18,0.09-0.36,0.14-0.54,0.14l0,0C221.97,38.55,221.56,38.31,221.34,37.91z M249.54,36.47c-0.63-0.2-0.96-0.86-0.78-1.47
						l0,0c0.2-0.63,0.86-0.96,1.49-0.78l0,0c0.61,0.19,0.96,0.86,0.76,1.49l0,0c-0.15,0.5-0.63,0.83-1.12,0.83l0,0
						C249.77,36.53,249.66,36.51,249.54,36.47z M227.82,35.07c-0.18-0.63,0.19-1.28,0.83-1.45l0,0c0.63-0.17,1.28,0.2,1.45,0.82l0,0
						c0.16,0.63-0.2,1.28-0.83,1.45l0,0c-0.1,0.03-0.21,0.05-0.32,0.05l0,0C228.43,35.94,227.96,35.6,227.82,35.07z M242.84,34.99
						L242.84,34.99c-0.65-0.08-1.1-0.67-1.02-1.32l0,0c0.07-0.63,0.68-1.1,1.31-1.02l0,0c0,0,0,0,0.01,0l0,0
						c0.63,0.08,1.1,0.67,1.02,1.32l0,0c-0.08,0.59-0.59,1.02-1.17,1.02l0,0C242.94,35.01,242.89,35.01,242.84,34.99z M234.75,33.67
						c-0.03-0.65,0.47-1.21,1.11-1.25l0,0c0.65-0.05,1.2,0.45,1.25,1.1l0,0c0.03,0.65-0.46,1.22-1.11,1.25l0,0
						c-0.03,0-0.05,0-0.08,0l0,0C235.31,34.77,234.79,34.3,234.75,33.67z"/>
				</g>
			</g>
			<g>
				<g>
					<g>
						<path class="st6" d="M232.29,89.77c-0.08,0-0.15,0-0.24-0.03c-0.07-0.01-0.14-0.03-0.21-0.06c-0.07-0.03-0.14-0.07-0.21-0.12
							c-0.06-0.03-0.12-0.08-0.18-0.14c-0.11-0.11-0.19-0.24-0.25-0.38c-0.06-0.15-0.09-0.3-0.09-0.46c0-0.3,0.13-0.61,0.34-0.84
							c0.27-0.27,0.69-0.39,1.07-0.32c0.07,0.01,0.14,0.03,0.21,0.07c0.07,0.03,0.14,0.07,0.2,0.11c0.08,0.05,0.13,0.09,0.19,0.14
							c0.21,0.22,0.34,0.53,0.34,0.84c0,0.15-0.03,0.3-0.09,0.46c-0.06,0.14-0.14,0.27-0.25,0.38c-0.06,0.06-0.12,0.11-0.19,0.14
							c-0.06,0.05-0.13,0.08-0.2,0.12c-0.07,0.03-0.14,0.05-0.21,0.06C232.45,89.77,232.36,89.77,232.29,89.77z"/>
					</g>
					<g>
						<path class="st6" d="M156.15,213.79c-0.66-0.03-1.17-0.57-1.14-1.22l0,0c0.03-0.66,0.57-1.17,1.22-1.14l0,0l0,0l0,0
							c0.65,0.01,1.17,0.57,1.14,1.22l0,0c-0.03,0.63-0.54,1.14-1.18,1.14l0,0C156.17,213.79,156.16,213.79,156.15,213.79z
							 M162.09,212.58c-0.03-0.65,0.46-1.2,1.11-1.24l0,0l0,0l0,0c0.65-0.05,1.2,0.46,1.25,1.11l0,0c0.03,0.65-0.46,1.2-1.11,1.24
							l0,0c-0.03,0-0.04,0.01-0.07,0.01l0,0C162.65,213.7,162.12,213.21,162.09,212.58z M148.97,213.23
							c-0.65-0.08-1.11-0.67-1.02-1.32l0,0c0.07-0.65,0.66-1.11,1.31-1.02l0,0c0.65,0.08,1.11,0.66,1.02,1.31l0,0
							c-0.08,0.6-0.58,1.04-1.17,1.04l0,0C149.08,213.23,149.02,213.23,148.97,213.23z M141.87,212.04
							c-0.63-0.13-1.04-0.75-0.91-1.4l0,0c0.13-0.63,0.77-1.05,1.4-0.91l0,0c0.63,0.13,1.04,0.75,0.91,1.4l0,0
							c-0.12,0.55-0.61,0.94-1.16,0.94l0,0C142.04,212.07,141.96,212.06,141.87,212.04z M134.92,210.26
							c-0.63-0.2-0.98-0.86-0.79-1.47l0,0c0.19-0.63,0.85-0.98,1.47-0.79l0,0c0.63,0.19,0.98,0.85,0.79,1.47l0,0
							c-0.17,0.51-0.63,0.84-1.13,0.84l0,0C135.14,210.3,135.04,210.29,134.92,210.26z M128.13,207.87
							c-0.62-0.25-0.9-0.93-0.66-1.53l0,0c0.25-0.6,0.93-0.9,1.55-0.66l0,0c0,0,0,0-0.01,0l0,0c0.6,0.25,0.9,0.93,0.66,1.53l0,0
							c-0.19,0.46-0.63,0.74-1.1,0.74l0,0C128.43,207.95,128.28,207.93,128.13,207.87z M121.59,204.89c-0.59-0.3-0.81-1-0.52-1.58
							l0,0c0.28-0.58,1-0.81,1.58-0.52l0,0c0.58,0.3,0.81,1.01,0.52,1.58l0,0c-0.21,0.41-0.63,0.65-1.05,0.65l0,0
							C121.95,205.02,121.75,204.99,121.59,204.89z M115.33,201.35c-0.55-0.35-0.73-1.07-0.38-1.62l0,0
							c0.34-0.55,1.07-0.73,1.62-0.37l0,0c0.56,0.34,0.72,1.07,0.36,1.62l0,0c-0.23,0.36-0.6,0.56-1.01,0.56l0,0
							C115.73,201.53,115.52,201.49,115.33,201.35z M109.39,197.27c-0.52-0.4-0.61-1.14-0.21-1.67l0,0
							c0.39-0.51,1.13-0.61,1.65-0.22l0,0c0.52,0.4,0.61,1.13,0.22,1.65l0,0c-0.24,0.3-0.59,0.47-0.94,0.47l0,0
							C109.87,197.51,109.62,197.43,109.39,197.27z M103.88,192.65c-0.48-0.44-0.52-1.19-0.07-1.67l0,0
							c0.44-0.48,1.18-0.52,1.67-0.07l0,0l0,0l0,0c0.48,0.44,0.51,1.18,0.07,1.67l0,0c-0.24,0.25-0.55,0.38-0.87,0.38l0,0
							C104.39,192.96,104.11,192.86,103.88,192.65z M98.82,187.53c-0.44-0.47-0.4-1.23,0.08-1.67l0,0c0.48-0.44,1.24-0.4,1.68,0.08
							l0,0c0,0,0,0-0.01,0l0,0c0.44,0.48,0.4,1.24-0.08,1.68l0,0c-0.22,0.2-0.51,0.3-0.79,0.3l0,0
							C99.37,187.92,99.05,187.79,98.82,187.53z M94.24,181.99c-0.39-0.52-0.29-1.26,0.24-1.65l0,0c0.52-0.39,1.26-0.28,1.65,0.24
							l0,0c0.39,0.52,0.28,1.26-0.24,1.65l0,0c-0.21,0.15-0.47,0.24-0.71,0.24l0,0C94.83,182.46,94.47,182.3,94.24,181.99z
							 M90.17,176.05L90.17,176.05c-0.35-0.56-0.18-1.28,0.38-1.62l0,0c0.56-0.36,1.29-0.18,1.62,0.38l0,0
							c0.35,0.54,0.18,1.28-0.38,1.62l0,0c-0.2,0.13-0.41,0.18-0.63,0.18l0,0C90.79,176.61,90.4,176.42,90.17,176.05z M86.63,169.79
							c-0.3-0.58-0.06-1.29,0.52-1.58l0,0c0.58-0.3,1.29-0.07,1.59,0.52l0,0c0.3,0.58,0.06,1.29-0.52,1.58l0,0
							c-0.18,0.09-0.36,0.13-0.54,0.13l0,0C87.26,170.44,86.84,170.2,86.63,169.79z M83.66,163.26c-0.25-0.62,0.05-1.29,0.65-1.55
							l0,0c0.6-0.24,1.29,0.06,1.53,0.66l0,0l0,0l0,0c0.25,0.6-0.05,1.29-0.65,1.53l0,0c-0.14,0.06-0.3,0.08-0.45,0.08l0,0
							C84.29,163.99,83.84,163.71,83.66,163.26z M81.26,156.48c-0.19-0.63,0.16-1.29,0.79-1.47l0,0c0.61-0.19,1.28,0.16,1.46,0.78
							l0,0c0.2,0.63-0.15,1.29-0.78,1.47l0,0c-0.12,0.03-0.24,0.06-0.35,0.06l0,0C81.88,157.31,81.41,156.99,81.26,156.48z
							 M79.46,149.52c-0.14-0.65,0.27-1.28,0.91-1.4l0,0c0.63-0.13,1.26,0.27,1.4,0.91l0,0c0.14,0.63-0.27,1.26-0.91,1.4l0,0
							c-0.08,0.01-0.17,0.03-0.25,0.03l0,0C80.06,150.45,79.58,150.08,79.46,149.52z M78.28,142.42c-0.08-0.65,0.39-1.24,1.02-1.31
							l0,0c0.65-0.08,1.24,0.38,1.32,1.02l0,0c0.07,0.65-0.39,1.24-1.04,1.31l0,0c-0.04,0.01-0.09,0.01-0.14,0.01l0,0
							C78.86,143.46,78.36,143.02,78.28,142.42z M77.76,135.23L77.76,135.23c-0.03-0.65,0.49-1.19,1.14-1.2l0,0
							c0.65-0.03,1.19,0.5,1.22,1.14l0,0c0.01,0.65-0.51,1.19-1.16,1.22l0,0c0,0-0.01,0-0.03,0l0,0
							C78.3,136.39,77.77,135.89,77.76,135.23z M79.02,129.3c-0.65-0.06-1.13-0.63-1.08-1.28l0,0c0.06-0.65,0.63-1.13,1.28-1.08l0,0
							c0.65,0.06,1.13,0.63,1.08,1.28l0,0c-0.05,0.61-0.57,1.08-1.18,1.08l0,0C79.08,129.3,79.05,129.3,79.02,129.3z M79.8,122.25
							c-0.65-0.11-1.07-0.72-0.96-1.37l0,0c0.12-0.63,0.72-1.06,1.37-0.95l0,0c0.63,0.11,1.06,0.72,0.96,1.37l0,0
							c-0.11,0.57-0.6,0.96-1.17,0.96l0,0C79.94,122.27,79.86,122.27,79.8,122.25z M81.27,115.32c-0.63-0.19-0.99-0.84-0.81-1.46
							l0,0c0.18-0.63,0.83-0.99,1.46-0.81l0,0c0.63,0.18,0.99,0.82,0.81,1.45l0,0l0,0l0,0c-0.15,0.52-0.63,0.86-1.14,0.86l0,0
							C81.49,115.36,81.38,115.35,81.27,115.32z M83.42,108.56c-0.62-0.22-0.91-0.91-0.68-1.52l0,0c0.24-0.6,0.92-0.91,1.52-0.67
							l0,0c0.62,0.24,0.91,0.92,0.69,1.53l0,0c0,0,0,0-0.01,0l0,0c-0.18,0.46-0.63,0.74-1.1,0.74l0,0
							C83.71,108.64,83.57,108.61,83.42,108.56z M86.21,102.05c-0.59-0.3-0.83-1.01-0.53-1.59l0,0c0.3-0.58,1-0.81,1.58-0.52l0,0
							c0.59,0.3,0.83,1.01,0.53,1.58l0,0l0,0l0,0c-0.21,0.41-0.63,0.65-1.07,0.65l0,0C86.55,102.17,86.38,102.13,86.21,102.05z
							 M89.58,95.82c-0.54-0.36-0.7-1.08-0.36-1.62l0,0c0.36-0.56,1.08-0.72,1.62-0.38l0,0c0.55,0.36,0.72,1.08,0.38,1.62l0,0l0,0
							l0,0c-0.23,0.36-0.62,0.55-1.01,0.55l0,0C90.01,96,89.78,95.94,89.58,95.82z M93.57,89.95c-0.52-0.4-0.61-1.14-0.21-1.65l0,0
							c0.4-0.52,1.14-0.61,1.65-0.21l0,0c0.52,0.4,0.61,1.14,0.21,1.67l0,0c-0.24,0.3-0.58,0.45-0.93,0.45l0,0
							C94.03,90.19,93.78,90.11,93.57,89.95z M225.06,88.82C225.06,88.82,225.06,88.82,225.06,88.82L225.06,88.82
							c-0.63-0.11-1.07-0.72-0.96-1.36l0,0c0.12-0.63,0.73-1.07,1.37-0.96l0,0c0.63,0.12,1.07,0.73,0.96,1.37l0,0
							c-0.1,0.57-0.6,0.98-1.17,0.98l0,0C225.2,88.84,225.13,88.82,225.06,88.82z M218.04,87.36L218.04,87.36L218.04,87.36
							c-0.63-0.14-1.02-0.78-0.87-1.41l0,0c0.15-0.63,0.79-1.02,1.43-0.87l0,0c0.63,0.15,1.02,0.79,0.87,1.41l0,0
							c-0.13,0.54-0.61,0.91-1.14,0.91l0,0C218.23,87.4,218.14,87.39,218.04,87.36z M211.15,85.52L211.15,85.52L211.15,85.52
							c-0.63-0.18-0.98-0.84-0.8-1.46l0,0c0.18-0.63,0.84-0.98,1.46-0.8l0,0c0.63,0.19,0.98,0.85,0.8,1.47l0,0
							c-0.15,0.51-0.63,0.85-1.13,0.85l0,0C211.37,85.57,211.25,85.55,211.15,85.52z M98.1,84.51c-0.47-0.45-0.48-1.19-0.03-1.67
							l0,0c0.45-0.47,1.2-0.48,1.67-0.03l0,0c0.47,0.45,0.48,1.19,0.03,1.67l0,0c-0.23,0.25-0.54,0.36-0.85,0.36l0,0
							C98.63,84.84,98.33,84.74,98.1,84.51z M204.34,83.37c-0.62-0.21-0.96-0.89-0.74-1.5l0,0c0.2-0.61,0.87-0.95,1.49-0.74l0,0
							c0.63,0.2,0.96,0.87,0.75,1.5l0,0c-0.16,0.48-0.63,0.8-1.12,0.8l0,0C204.59,83.43,204.47,83.41,204.34,83.37z M197.62,81.04
							c-0.61-0.22-0.93-0.9-0.71-1.51l0,0c0.21-0.62,0.88-0.93,1.51-0.72l0,0c0.61,0.22,0.93,0.9,0.71,1.51l0,0
							c-0.18,0.48-0.63,0.79-1.11,0.79l0,0C197.89,81.12,197.75,81.09,197.62,81.04z M103.19,79.59c-0.41-0.51-0.34-1.25,0.15-1.67
							l0,0c0.5-0.42,1.25-0.36,1.67,0.14l0,0c0.41,0.51,0.36,1.25-0.15,1.67l0,0c-0.21,0.19-0.48,0.27-0.75,0.27l0,0
							C103.76,80.01,103.43,79.86,103.19,79.59z M190.95,78.6c-0.61-0.22-0.93-0.9-0.71-1.51l0,0c0.22-0.61,0.91-0.93,1.52-0.69l0,0
							c0.6,0.22,0.92,0.9,0.69,1.51l0,0c-0.18,0.47-0.63,0.77-1.11,0.77l0,0C191.21,78.67,191.09,78.66,190.95,78.6z M184.3,76.16
							c-0.62-0.22-0.93-0.9-0.71-1.51l0,0c0.21-0.61,0.9-0.93,1.51-0.71l0,0c0.61,0.22,0.93,0.9,0.7,1.51l0,0
							c-0.18,0.48-0.63,0.78-1.11,0.78l0,0C184.56,76.22,184.43,76.21,184.3,76.16z M108.81,75.25c-0.36-0.54-0.2-1.28,0.34-1.62
							l0,0c0.54-0.36,1.28-0.2,1.62,0.34l0,0c0.36,0.54,0.2,1.28-0.35,1.62l0,0c-0.2,0.13-0.42,0.2-0.63,0.2l0,0
							C109.41,75.79,109.03,75.61,108.81,75.25z M177.64,73.81c-0.63-0.21-0.94-0.89-0.74-1.5l0,0c0.21-0.63,0.89-0.96,1.5-0.74l0,0
							c0.63,0.21,0.96,0.89,0.74,1.5l0,0c-0.18,0.49-0.63,0.8-1.13,0.8l0,0C177.89,73.87,177.75,73.85,177.64,73.81z M114.89,71.61
							c-0.3-0.58-0.04-1.29,0.53-1.58l0,0c0.59-0.28,1.29-0.05,1.58,0.54l0,0c0.28,0.59,0.04,1.29-0.54,1.58l0,0
							c-0.17,0.08-0.35,0.12-0.52,0.12l0,0C115.51,72.28,115.09,72.04,114.89,71.61z M170.92,71.64L170.92,71.64L170.92,71.64
							c-0.63-0.19-0.98-0.85-0.79-1.46l0,0c0.19-0.63,0.85-0.98,1.47-0.79l0,0c0.63,0.19,0.98,0.84,0.78,1.46l0,0
							c-0.15,0.52-0.62,0.84-1.12,0.84l0,0C171.15,71.69,171.04,71.67,170.92,71.64z M164.15,69.75L164.15,69.75L164.15,69.75
							c-0.63-0.16-1.02-0.8-0.85-1.43l0,0c0.15-0.63,0.8-1.02,1.43-0.86l0,0c0.63,0.16,1.02,0.8,0.86,1.44l0,0
							c-0.14,0.53-0.62,0.89-1.14,0.89l0,0C164.35,69.79,164.24,69.78,164.15,69.75z M121.38,68.78c-0.21-0.61,0.12-1.29,0.73-1.5
							l0,0c0.63-0.2,1.29,0.13,1.5,0.74l0,0c0.21,0.62-0.12,1.29-0.74,1.5l0,0c-0.12,0.03-0.25,0.06-0.38,0.06l0,0
							C122.01,69.57,121.54,69.27,121.38,68.78z M157.29,68.22c-0.63-0.12-1.05-0.74-0.93-1.38l0,0c0.12-0.63,0.74-1.06,1.38-0.93
							l0,0c0.63,0.12,1.07,0.74,0.93,1.38l0,0c-0.1,0.57-0.6,0.96-1.15,0.96l0,0C157.44,68.25,157.38,68.25,157.29,68.22z
							 M128.18,66.81c-0.13-0.63,0.28-1.26,0.93-1.38l0,0c0.63-0.13,1.25,0.29,1.38,0.92l0,0c0.13,0.65-0.3,1.26-0.93,1.39l0,0
							c-0.08,0.01-0.15,0.03-0.23,0.03l0,0C128.79,67.76,128.29,67.37,128.18,66.81z M150.38,67.16c-0.65-0.08-1.12-0.68-1.04-1.31
							l0,0c0.08-0.65,0.66-1.12,1.31-1.04l0,0c0.65,0.07,1.11,0.66,1.04,1.31l0,0c-0.07,0.6-0.59,1.04-1.18,1.04l0,0
							C150.47,67.16,150.43,67.16,150.38,67.16z M135.17,65.72c-0.04-0.65,0.44-1.21,1.1-1.26h-0.01c0.65-0.06,1.22,0.44,1.28,1.08
							l0,0c0.05,0.65-0.44,1.22-1.08,1.26l0,0l0,0l0,0c-0.03,0-0.07,0-0.09,0l0,0C135.74,66.81,135.22,66.33,135.17,65.72z
							 M143.41,66.64c-0.65-0.01-1.17-0.56-1.14-1.2l0,0c0.01-0.66,0.56-1.17,1.22-1.16l0,0c0.65,0.03,1.16,0.57,1.14,1.22l0,0
							c-0.03,0.65-0.54,1.14-1.18,1.14l0,0C143.43,66.64,143.42,66.64,143.41,66.64z"/>
					</g>
					<g>
						<path class="st6" d="M170.4,212.95c-0.32,0-0.62-0.12-0.84-0.35c-0.12-0.1-0.2-0.24-0.26-0.38c-0.06-0.15-0.09-0.3-0.09-0.46
							c0-0.07,0.01-0.15,0.03-0.23c0.03-0.07,0.04-0.15,0.07-0.22c0.03-0.08,0.08-0.14,0.11-0.2c0.04-0.07,0.09-0.13,0.15-0.18
							c0.1-0.12,0.24-0.2,0.37-0.26c0.44-0.18,0.96-0.08,1.29,0.26c0.06,0.05,0.1,0.11,0.15,0.18c0.03,0.06,0.07,0.13,0.11,0.2
							c0.03,0.07,0.04,0.15,0.07,0.22c0.01,0.08,0.03,0.15,0.03,0.23c0,0.16-0.03,0.3-0.09,0.46c-0.06,0.14-0.14,0.27-0.26,0.38
							c-0.11,0.11-0.24,0.2-0.38,0.26C170.7,212.93,170.55,212.95,170.4,212.95z"/>
					</g>
				</g>
			</g>
			
				<linearGradient id="SVGID_4_" gradientUnits="userSpaceOnUse" x1="47.0486" y1="46.0855" x2="151.6815" y2="46.0855" gradientTransform="matrix(1 0 0 -1 0 323.2756)">
				<stop  offset="0" style="stop-color:#B47CEE"/>
				<stop  offset="0.9951" style="stop-color:#4B52D3"/>
			</linearGradient>
			<path class="st7" d="M151.68,277.19c0,4.65-23.42,8.41-52.32,8.41s-52.32-3.77-52.32-8.41s23.42-8.41,52.32-8.41
				C128.25,268.78,151.68,272.54,151.68,277.19z"/>
			
				<linearGradient id="SVGID_5_" gradientUnits="userSpaceOnUse" x1="115.3908" y1="60.5797" x2="279.397" y2="60.5797" gradientTransform="matrix(1 0 0 -1 0 323.2756)">
				<stop  offset="0" style="stop-color:#B47CEE"/>
				<stop  offset="0.9951" style="stop-color:#4B52D3"/>
			</linearGradient>
			<path class="st8" d="M279.4,262.7c0,4.39-36.71,7.95-82.01,7.95c-45.29,0-82-3.56-82-7.95c0-4.39,36.71-7.95,82-7.95
				C242.68,254.74,279.4,258.3,279.4,262.7z"/>
			<g>
				<path class="st9" d="M246.36,262.7h-97.92c-6.71,0-12.15-5.44-12.15-12.15V68.32c0-6.71,5.44-12.15,12.15-12.15h97.92
					c6.71,0,12.15,5.44,12.15,12.15v182.22C258.51,257.26,253.07,262.7,246.36,262.7z"/>
				
					<linearGradient id="SVGID_6_" gradientUnits="userSpaceOnUse" x1="197.4024" y1="66.4773" x2="197.4024" y2="261.2066" gradientTransform="matrix(1 0 0 -1 0 323.2756)">
					<stop  offset="0" style="stop-color:#FFB412"/>
					<stop  offset="1" style="stop-color:#FFCB59"/>
				</linearGradient>
				<path class="st10" d="M240.5,62.07h-17.65c-2.17,0-3.93,1.76-3.93,3.93l0,0c0,2.17-1.76,3.93-3.93,3.93h-34.5
					c-2.17,0-3.93-1.76-3.93-3.93l0,0c0-2.17-1.76-3.93-3.93-3.93H154.3c-6.68,0-12.11,5.42-12.11,12.11v170.51
					c0,6.68,5.42,12.11,12.11,12.11h86.21c6.68,0,12.11-5.42,12.11-12.11V74.18C252.61,67.49,247.19,62.07,240.5,62.07z"/>
				<g class="st11">
					<path class="st5" d="M142.18,212.91l110.43-110.43v-28.3c0-0.49-0.03-0.97-0.09-1.45L142.18,183.07L142.18,212.91
						L142.18,212.91z"/>
					<polygon class="st5" points="252.61,126.55 252.61,111.63 142.18,222.06 142.18,236.98 					"/>
				</g>
				
					<linearGradient id="SVGID_7_" gradientUnits="userSpaceOnUse" x1="142.1795" y1="130.8937" x2="252.6084" y2="130.8937" gradientTransform="matrix(1 0 0 -1 0 323.2756)">
					<stop  offset="0" style="stop-color:#B47CEE"/>
					<stop  offset="0.9951" style="stop-color:#4B52D3"/>
				</linearGradient>
				<path class="st12" d="M252.61,244.69v-75.5c-6.56,4.67-12.1,12.1-19.84,11c-4.36-0.63-7.84-4.02-10.2-7.74
					c-5.35-8.48-6.34-18.94-10.15-28.21c-3.82-9.27-12.78-18.14-22.55-15.94c-6.58,1.48-11.03,7.39-15.49,12.45
					c-4.46,5.06-10.68,9.99-17.27,8.54c-6.78-1.5-10.09-8.72-14.93-13.85V244.7c0,6.68,5.42,12.11,12.11,12.11h86.21
					C247.19,256.8,252.61,251.38,252.61,244.69z"/>
				
					<linearGradient id="SVGID_8_" gradientUnits="userSpaceOnUse" x1="142.1795" y1="123.5196" x2="252.6084" y2="123.5196" gradientTransform="matrix(1 0 0 -1 0 323.2756)">
					<stop  offset="0" style="stop-color:#B47CEE"/>
					<stop  offset="0.9951" style="stop-color:#4B52D3"/>
				</linearGradient>
				<path class="st13" d="M251.24,211.11c-7.63,3.55-16.73,4.82-24.44,1.49c-9.8-4.24-15.34-14.91-17.43-25.38
					s-1.51-21.31-3.13-31.87c-0.87-5.64-3.71-12.35-9.4-12.63c-4.25-0.21-7.59,3.39-10.28,6.69c-8.5,10.43-17.01,20.87-25.52,31.31
					c-3.38,4.14-7.25,8.58-12.54,9.32c-2.23,0.31-4.36-0.09-6.31-0.99v55.65c0,6.68,5.42,12.11,12.11,12.11h86.21
					c6.68,0,12.11-5.42,12.11-12.11v-34.29C252.15,210.64,251.7,210.89,251.24,211.11z"/>
				
					<linearGradient id="SVGID_9_" gradientUnits="userSpaceOnUse" x1="173.6725" y1="73.4748" x2="221.8176" y2="73.4748" gradientTransform="matrix(1 0 0 -1 0 323.2756)">
					<stop  offset="0" style="stop-color:#B47CEE"/>
					<stop  offset="0.9951" style="stop-color:#4B52D3"/>
				</linearGradient>
				<path class="st14" d="M218.72,252.9h-41.95c-1.71,0-3.1-1.39-3.1-3.1l0,0c0-1.71,1.39-3.1,3.1-3.1h41.95
					c1.71,0,3.1,1.39,3.1,3.1l0,0C221.82,251.51,220.43,252.9,218.72,252.9z"/>
			</g>
			<g>
				
					<linearGradient id="SVGID_10_" gradientUnits="userSpaceOnUse" x1="128.5652" y1="219.3145" x2="169.0019" y2="219.3145" gradientTransform="matrix(1 0 0 -1 0 323.2756)">
					<stop  offset="4.887820e-03" style="stop-color:#4B52D3"/>
					<stop  offset="1" style="stop-color:#B47CEE"/>
				</linearGradient>
				<path class="st15" d="M162.26,124.18h-26.95c-3.72,0-6.74-3.02-6.74-6.74V90.49c0-3.72,3.02-6.74,6.74-6.74h26.95
					c3.72,0,6.74,3.02,6.74,6.74v26.95C169,121.16,165.98,124.18,162.26,124.18z"/>
				<path class="st16" d="M162.26,124.18h-26.95c-3.72,0-6.74-3.02-6.74-6.74V90.49c0-3.72,3.02-6.74,6.74-6.74h26.95
					c3.72,0,6.74,3.02,6.74,6.74v26.95C169,121.16,165.98,124.18,162.26,124.18z"/>
				
					<linearGradient id="SVGID_11_" gradientUnits="userSpaceOnUse" x1="148.7835" y1="201.3849" x2="148.7835" y2="241.8132" gradientTransform="matrix(1 0 0 -1 0 323.2756)">
					<stop  offset="4.887820e-03" style="stop-color:#4B52D3"/>
					<stop  offset="1" style="stop-color:#B47CEE"/>
				</linearGradient>
				<path class="st17" d="M162.26,121.89h-26.95c-3.72,0-6.74-3.02-6.74-6.74V88.21c0-3.72,3.02-6.74,6.74-6.74h26.95
					c3.72,0,6.74,3.02,6.74,6.74v26.95C169,118.88,165.98,121.89,162.26,121.89z"/>
				<g>
					<rect x="134.07" y="91.7" class="st5" width="29.44" height="19.95"/>
					<polygon class="st18" points="148.79,101.68 143.52,98.11 134.07,111.65 163.51,111.65 154.05,98.11 					"/>
					<polygon class="st19" points="148.79,106.52 163.51,91.7 134.07,91.7 					"/>
					<polygon class="st20" points="148.79,101.68 163.51,91.7 134.07,91.7 					"/>
				</g>
				<g class="st21">
					<path class="st5" d="M169,91.46c0-1.51-0.35-2.93-0.94-4.21l-33.71,33.71c1.28,0.59,2.7,0.94,4.21,0.94h0.99L169,92.45V91.46z"
						/>
					<path class="st5" d="M159.01,81.46h-1.95l-28.49,28.49v1.95c0,2.84,1.19,5.4,3.1,7.22l34.56-34.56
						C164.41,82.66,161.85,81.46,159.01,81.46z"/>
				</g>
			</g>
			<g>
				
					<linearGradient id="SVGID_12_" gradientUnits="userSpaceOnUse" x1="238.2918" y1="265.9576" x2="278.7285" y2="265.9576" gradientTransform="matrix(1 0 0 -1 0 323.2756)">
					<stop  offset="4.887820e-03" style="stop-color:#4B52D3"/>
					<stop  offset="1" style="stop-color:#B47CEE"/>
				</linearGradient>
				<path class="st22" d="M271.98,77.54h-26.95c-3.72,0-6.74-3.02-6.74-6.74V43.84c0-3.72,3.02-6.74,6.74-6.74h26.95
					c3.72,0,6.74,3.02,6.74,6.74v26.94C278.72,74.52,275.71,77.54,271.98,77.54z"/>
				<path class="st16" d="M271.98,77.54h-26.95c-3.72,0-6.74-3.02-6.74-6.74V43.84c0-3.72,3.02-6.74,6.74-6.74h26.95
					c3.72,0,6.74,3.02,6.74,6.74v26.94C278.72,74.52,275.71,77.54,271.98,77.54z"/>
				
					<linearGradient id="SVGID_13_" gradientUnits="userSpaceOnUse" x1="258.5102" y1="248.0323" x2="258.5102" y2="288.4605" gradientTransform="matrix(1 0 0 -1 0 323.2756)">
					<stop  offset="4.887820e-03" style="stop-color:#4B52D3"/>
					<stop  offset="1" style="stop-color:#B47CEE"/>
				</linearGradient>
				<path class="st23" d="M271.98,75.24h-26.95c-3.72,0-6.74-3.02-6.74-6.74V41.56c0-3.72,3.02-6.74,6.74-6.74h26.95
					c3.72,0,6.74,3.02,6.74,6.74v26.95C278.72,72.23,275.71,75.24,271.98,75.24z"/>
				<path class="st5" d="M269.49,48.33c-3.61-5.55-8.83-2.59-11.08-0.91c-2.23-1.68-7.46-4.65-11.08,0.91
					c-4.37,6.73,5.91,16.8,11.08,18.73C263.57,65.12,273.86,55.05,269.49,48.33z"/>
				<path class="st19" d="M269.49,48.33c-3.61-5.55-8.83-2.59-11.08-0.91c-2.07-1.57-6.73-4.22-10.26-0.15
					c3.41-2.88,7.54-0.5,9.46,0.95c2.24-1.68,7.46-4.65,11.08,0.91c2.74,4.22-0.29,9.76-4.2,13.78
					C268.77,58.85,272.42,52.84,269.49,48.33z"/>
				<g class="st21">
					<path class="st5" d="M278.72,44.81c0-1.51-0.35-2.93-0.94-4.21l-33.7,33.7c1.28,0.59,2.7,0.94,4.21,0.94h0.98l29.45-29.45
						V44.81L278.72,44.81z"/>
					<path class="st5" d="M268.73,34.82h-1.95L238.29,63.3v1.95c0,2.84,1.19,5.4,3.1,7.22l34.56-34.56
						C274.13,36.01,271.57,34.82,268.73,34.82z"/>
				</g>
			</g>
			<g>
				<path class="st24" d="M297.09,154.5h-77.17c-2.5,0-4.53-2.02-4.53-4.53V96.69c0-2.5,2.02-4.53,4.53-4.53h77.17
					c2.5,0,4.53,2.02,4.53,4.53v53.29C301.62,152.48,299.59,154.5,297.09,154.5z"/>
				<path class="st25" d="M297.09,154.5h-77.17c-2.5,0-4.53-2.02-4.53-4.53V96.69c0-2.5,2.02-4.53,4.53-4.53h77.17
					c2.5,0,4.53,2.02,4.53,4.53v53.29C301.62,152.48,299.59,154.5,297.09,154.5z"/>
				<path class="st24" d="M297.09,151.62h-77.17c-2.5,0-4.53-2.02-4.53-4.53V93.81c0-2.5,2.02-4.53,4.53-4.53h77.17
					c2.5,0,4.53,2.02,4.53,4.53v53.29C301.62,149.59,299.59,151.62,297.09,151.62z"/>
				<rect x="221.33" y="101.82" class="st5" width="32.18" height="19.59"/>
				<rect x="221.33" y="125.6" class="st5" width="32.18" height="19.59"/>
				<rect x="264.29" y="101.82" class="st5" width="32.18" height="19.59"/>
				<rect x="264.29" y="125.6" class="st5" width="32.18" height="19.59"/>
				<polygon class="st24" points="215.4,104.22 301.62,97.35 215.4,97.35 				"/>
				<path class="st24" d="M301.62,97.35v-1.37c0-3.7-3-6.7-6.7-6.7h-72.81c-3.7,0-6.7,3-6.7,6.7v1.37H301.62z"/>
				<path class="st26" d="M224.76,93.88c0,0.95-0.77,1.72-1.72,1.72c-0.95,0-1.72-0.77-1.72-1.72c0-0.95,0.77-1.72,1.72-1.72
					C224,92.17,224.76,92.94,224.76,93.88z"/>
				<path class="st27" d="M232.65,93.88c0,0.95-0.77,1.72-1.72,1.72s-1.72-0.77-1.72-1.72c0-0.95,0.77-1.72,1.72-1.72
					S232.65,92.94,232.65,93.88z"/>
				<path class="st28" d="M240.53,93.88c0,0.95-0.77,1.72-1.72,1.72s-1.72-0.77-1.72-1.72c0-0.95,0.77-1.72,1.72-1.72
					S240.53,92.94,240.53,93.88z"/>
			</g>
			<g>
				<path class="st24" d="M195.42,173.48h-60.17c-4.19,0-7.58,3.39-7.58,7.58v32.93c0,4.19,3.39,7.58,7.58,7.58h41.18l5.97,7.77
					l5.88-7.77h7.15c4.19,0,7.58-3.39,7.58-7.58v-32.93C203,176.87,199.61,173.48,195.42,173.48z"/>
				<path class="st25" d="M195.42,173.48h-60.17c-4.19,0-7.58,3.39-7.58,7.58v32.93c0,4.19,3.39,7.58,7.58,7.58h41.18l5.97,7.77
					l5.88-7.77h7.15c4.19,0,7.58-3.39,7.58-7.58v-32.93C203,176.87,199.61,173.48,195.42,173.48z"/>
				<path class="st24" d="M195.42,170.16h-60.17c-4.19,0-7.58,3.39-7.58,7.58v32.93c0,4.19,3.39,7.58,7.58,7.58h41.18l5.97,7.77
					l5.88-7.77h7.15c4.19,0,7.58-3.39,7.58-7.58v-32.93C203,173.56,199.61,170.16,195.42,170.16z"/>
				<path class="st5" d="M191.37,183.27h-52.82c-1.25,0-2.27-1.02-2.27-2.27l0,0c0-1.25,1.02-2.27,2.27-2.27h52.82
					c1.25,0,2.27,1.02,2.27,2.27l0,0C193.62,182.25,192.61,183.27,191.37,183.27z"/>
				<path class="st5" d="M191.37,194.64h-52.82c-1.25,0-2.27-1.02-2.27-2.27l0,0c0-1.25,1.02-2.27,2.27-2.27h52.82
					c1.25,0,2.27,1.02,2.27,2.27l0,0C193.62,193.63,192.61,194.64,191.37,194.64z"/>
				<path class="st5" d="M191.37,206.01h-52.82c-1.25,0-2.27-1.02-2.27-2.27l0,0c0-1.25,1.02-2.27,2.27-2.27h52.82
					c1.25,0,2.27,1.02,2.27,2.27l0,0C193.62,205,192.61,206.01,191.37,206.01z"/>
			</g>
			<g>
				<path class="st29" d="M179.16,55.98c0.23-0.84,0.47-1.69,0.98-2.39s1.4-1.19,2.24-1.02c-0.46-1.08,0.53-2.24,1.33-3.11
					c0.65-0.72,1.41-1.49,2.39-1.51c0.47-0.01,0.91,0.16,1.33,0.36c0.81,0.4,1.59,0.97,1.98,1.79c0.61,1.26,0.16,2.78-0.52,4.01
					c-1.55,2.75-4.33,4.78-7.43,5.41c-0.48-0.55-1.25-0.45-1.81-0.91C178.81,57.9,179.44,57.01,179.16,55.98z"/>
				<path class="st30" d="M92.33,72.52c-1.46,0.39-2.93-0.44-4.21-1.24c-1.73-1.07-3.48-2.17-4.81-3.69
					c-2.28-2.6-3.27-6.02-3.74-9.44c-2.73-1.51-5.27-3.6-6.58-6.42c-1.3-2.83-1.11-6.5,1.07-8.73c0.97-1,2.26-1.64,3.56-2.12
					c7.2-2.65,15.92-0.43,20.99,5.33c0.62,0.7,1.22,1.48,2.07,1.87c1.73-0.49,3.48,0.35,4.62,1.74c1.39,1.7,1.84,4.1,1.18,6.19
					c-0.69,2.17-2.46,3.84-3.48,5.89c-0.95,1.9-1.22,4.04-1.78,6.08c-0.56,2.04-1.53,4.14-3.36,5.2
					C96.02,74.24,93.05,74.51,92.33,72.52z"/>
				<path class="st31" d="M85.45,273.26L85.45,273.26l-12.21,6.8c0,0-2.01,1.83,5.21,1.4c7.22-0.43,12.86,0.72,13.36-1.15
					c0.5-1.87-0.21-6.51-0.21-6.51L85.45,273.26z"/>
				
					<linearGradient id="SVGID_14_" gradientUnits="userSpaceOnUse" x1="95.934" y1="48.1246" x2="95.934" y2="171.2794" gradientTransform="matrix(1 0 0 -1 0 323.2756)">
					<stop  offset="0" style="stop-color:#B47CEE"/>
					<stop  offset="0.9951" style="stop-color:#4B52D3"/>
				</linearGradient>
				<polygon class="st32" points="69.54,152 85.02,273.81 91.6,273.81 97,170.05 112.23,275.15 118.81,275.15 122.33,152 				"/>
				<polygon class="st33" points="69.54,152 85.02,273.81 91.6,273.81 97,170.05 112.23,275.15 118.81,275.15 122.33,152 				"/>
				<polygon class="st33" points="85.02,273.81 91.6,273.81 97,170.05 112.23,275.15 114.2,275.15 115.39,273.5 102.15,173.48 
					105.86,156.13 95.19,163.99 88.69,159.43 92.35,169.27 89.32,267.26 				"/>
				<path class="st31" d="M118.11,273.26L118.11,273.26l12.21,6.8c0,0,2.01,1.83-5.21,1.4c-7.22-0.43-12.86,0.72-13.36-1.15
					c-0.5-1.87,0.21-6.51,0.21-6.51L118.11,273.26z"/>
				<path class="st34" d="M183.11,59.78c-1.07-1.76-2.65-4.25-4.43-5.28C166.17,66.77,150,74.77,133.25,79.91
					c-4.7,1.45-9.54,2.69-14.46,2.72c-4.04,0.03-8.03-0.76-11.98-1.7c-1.35-0.79-2.68-1.58-3.95-2.48
					c-3.81-2.67-7.22-6.72-7.04-11.36c-2.67-1.77-5.14-0.37-7.87,1.33c1.75,4.35-1.07,9.28-4.67,12.28c-3.6,3-8.06,4.93-11.34,8.28
					c-3.93,3.99-5.79,9.57-6.96,15.05c-3.47,16.22-1.95,33.47,4.31,48.83h53.03c4.22-7.15,3.11-15.88,2.62-24.17
					c-0.26-4.39-0.52-8.78-0.79-13.18c-0.27-4.54-0.64-9.28-1.59-13.78C145.8,93.11,166.88,78.51,183.11,59.78z"/>
				<path class="st19" d="M183.11,59.78c-0.53-0.89-1.21-1.96-1.96-2.94c-19.12,19.73-43.33,34.51-69.65,42.43
					c1.24,1.63,2.25,2.2,4.01,3.25c-1.39,0.46-3.11,1.01-4.5,1.46c2.5,1.22,4.67,3.03,7.17,4.25c0.12,8.98-0.93,18.5-1.96,27.42
					c-0.28,2.4-0.6,4.82-1.42,7.09c-1.43,3.99-4.26,7.21-7.41,10.1h14.94c4.22-7.15,3.11-15.88,2.62-24.17
					c-0.26-4.39-0.52-8.78-0.79-13.18c-0.27-4.54-0.64-9.28-1.59-13.78C145.8,93.11,166.88,78.51,183.11,59.78z"/>
				<path class="st19" d="M105.94,115.34c-0.9-1.02-2.44-1.27-3.77-0.96c-1.32,0.31-2.87,0.53-3.55,1.71
					c-0.63,1.07-1.04,2.28-1.19,3.51c-0.14,1.13-0.12,2.39-0.55,3.41c-0.31-0.3-0.62-0.58-0.94-0.88c-1.3,2.44-3.73,4.62-6.19,5.89
					c-3.1,1.59-6.94,1.98-10.06,0.44c-2.53-1.24-4.39-3.89-4.59-6.66c-4.4-0.14-8.63-4.05-7.27-9.4c-0.03,0.01-0.08,0.01-0.11,0.02
					c0.11-0.26,0.24-0.52,0.36-0.79c0.12-0.34,0.25-0.69,0.42-1.04c0.13-0.27,0.26-0.55,0.39-0.83c0.06-0.13,0.14-0.24,0.21-0.36
					c1.2-2.5,2.53-4.94,3.86-7.39c0.12-0.77,0.35-1.57,0.71-2.4c1-2.26,2-4.44,2.72-6.81c0.3-0.82,0.69-1.52,1.13-2.13
					c-3.35,2.12-6.21,5.09-8.45,8.39c-1.99,2.93-3.54,6.1-4.88,9.38c-1.65,10.5-1.25,21.31,1.12,31.67
					c4.51,2.76,10.62,3.37,15.81,1.79c7.84-2.39,13.95-8.43,19.55-14.4c-0.3-0.49-0.62-0.95-0.95-1.39c0.39-0.56,0.8-1.09,1.25-1.59
					c1.43-1.55,3.27-2.63,4.98-3.87c0.19-0.14,0.4-0.3,0.52-0.5c0.11-0.18,0.15-0.39,0.19-0.6
					C106.9,118.11,106.91,116.45,105.94,115.34z"/>
				<path class="st35" d="M83.97,80.11c3.27,2.12,7.11,3.34,10.98,3.22c3.53-0.12,7.03-1.43,9.72-3.67
					c-0.62-0.38-1.22-0.77-1.81-1.19c-3.81-2.67-7.22-6.72-7.04-11.36c-2.67-1.77-5.14-0.37-7.87,1.33
					C89.59,72.5,87.23,77.08,83.97,80.11z"/>
				<path class="st19" d="M95.82,67.1c-2.67-1.77-5.14-0.37-7.87,1.33c0.8,2.01,0.64,4.13-0.12,6.13c1.82,1.53,3.99,2.65,6.3,3.2
					c2.48,0.58,5.09,0.5,7.55-0.18C98.38,74.93,95.66,71.26,95.82,67.1z"/>
				<path class="st36" d="M85.53,49.79c-1.93,3.86-2.71,8.36-1.69,12.55c1.02,4.19,3.96,7.97,7.97,9.54
					c2.62-0.42,5.09-2.43,6.56-4.64c1.46-2.21,2.13-4.89,2.21-7.55c0.04-1.46-0.09-2.96-0.66-4.32c-1.02-2.45-3.35-4.16-5.87-4.98
					C91.53,49.59,88.17,49.65,85.53,49.79z"/>
				<path class="st19" d="M95.66,51.08c0.46,3.61,0.85,7.26,0.46,10.88c-0.4,3.61-1.68,7.23-4.14,9.88
					c2.56-0.48,4.95-2.44,6.39-4.59c1.46-2.21,2.13-4.89,2.21-7.55c0.04-1.46-0.09-2.96-0.66-4.32
					C99.12,53.48,97.52,52.02,95.66,51.08z"/>
				<path class="st24" d="M108,115.36H96.12c-0.99,0-1.8-0.8-1.8-1.8V91.99c0-0.99,0.8-1.8,1.8-1.8H108c0.99,0,1.8,0.8,1.8,1.8
					v21.58C109.79,114.55,108.99,115.36,108,115.36z"/>
				<path class="st29" d="M95.43,118.01c1.13-1.06,1.02-2.83,1.22-4.37c0.15-1.24,0.56-2.44,1.19-3.52c0.69-1.18,2.23-1.4,3.55-1.71
					c1.32-0.31,2.86-0.06,3.77,0.96c0.97,1.11,0.96,2.77,0.71,4.22c-0.03,0.21-0.08,0.41-0.19,0.6c-0.12,0.21-0.32,0.36-0.52,0.5
					c-1.71,1.24-3.55,2.32-4.98,3.87c-0.9,0.97-1.61,2.1-2.32,3.22C96.46,120.88,95.41,119.67,95.43,118.01z"/>
				<path class="st34" d="M82.84,82c-6.04,1.56-11.05,5.94-14.55,11.09c-3.5,5.16-5.68,11.09-7.7,16.99
					c-2.02,5.89-3.89,12.47-1.38,18.17c3.32,7.49,13.28,10.07,21.12,7.67s13.95-8.42,19.55-14.4c-1.29-2.12-2.89-3.71-4.73-5.37
					c-1.3,2.44-3.73,4.62-6.19,5.89c-3.1,1.59-6.94,1.98-10.06,0.44c-3.12-1.54-5.24-5.21-4.43-8.6c0.29-1.24,0.92-2.35,1.55-3.46
					c1.57-2.77,3.13-5.53,4.7-8.3c3.02-5.34,6.14-11.34,4.75-17.3C85.17,83.54,84.11,81.67,82.84,82z"/>
				<path class="st30" d="M81.77,57.59c4.88,1.15,10.31-0.35,13.92-3.83c1.09,2.6,3.36,4.48,5.97,5.54
					c0.15-2.87,0.39-6.07-1.62-8.12c-1.68-1.71-4.24-2.06-6.53-2.73c-1.68-0.5-3.32-1.21-5.06-1.46c-1.74-0.24-3.69,0.09-4.87,1.4
					c-0.81,0.9-1.15,2.12-1.37,3.3C81.83,53.71,81.55,55.55,81.77,57.59z"/>
				<path class="st37" d="M105.13,97.91c0,1.7-1.38,3.07-3.07,3.07c-1.7,0-3.07-1.38-3.07-3.07c0-1.7,1.38-3.07,3.07-3.07
					C103.75,94.84,105.13,96.21,105.13,97.91z"/>
			</g>
		</g>
	</g>
</g>
<g id="DESIGNED_BY_FREEPIK">
</g>
</svg>
