<?xml version="1.0" encoding="utf-8"?>
<!-- Generator: Adobe Illustrator 23.0.2, SVG Export Plug-In . SVG Version: 6.00 Build 0)  -->
<svg version="1.1" xmlns="http://www.w3.org/2000/svg" xmlns:xlink="http://www.w3.org/1999/xlink" x="0px" y="0px"
	 viewBox="0 0 575 500" style="enable-background:new 0 0 575 500;" xml:space="preserve">
<style type="text/css">
	.st0{display:none;}
	.st1{display:inline;fill:#FFFFFF;}
	.st2{display:inline;}
	.st3{fill:url(#SVGID_1_);}
	.st4{fill:url(#SVGID_2_);}
	.st5{opacity:0.07;fill:url(#SVGID_3_);}
	.st6{opacity:0.2;}
	.st7{fill:#C7E1F9;}
	.st8{opacity:0.5026;}
	.st9{opacity:0.3;}
	.st10{fill:#3B62C1;}
	.st11{opacity:0.2;fill:#5275A0;}
	.st12{fill:#FFFFFF;}
	.st13{fill:#78B1EA;}
	.st14{fill:#D1EBFF;}
	.st15{opacity:0.3417;fill:#D1EBFF;}
	.st16{fill:#DFE3E5;}
	.st17{fill:url(#SVGID_4_);}
	.st18{opacity:0.2238;fill:none;stroke:#D6451E;stroke-width:0.7555;stroke-miterlimit:10;}
	.st19{opacity:0.2412;fill:url(#SVGID_5_);}
	.st20{opacity:0.2412;fill:url(#SVGID_6_);}
	.st21{fill:none;stroke:#F9D938;stroke-width:0.7555;stroke-miterlimit:10;}
	.st22{fill:url(#SVGID_7_);}
	.st23{fill:none;stroke:#4D70FF;stroke-width:1.0103;stroke-linecap:round;stroke-linejoin:round;stroke-miterlimit:10;}
	.st24{fill:#4D70FF;}
	.st25{fill:none;stroke:#4D70FF;stroke-width:0.8976;stroke-linecap:round;stroke-linejoin:round;stroke-miterlimit:10;}
	.st26{fill:none;stroke:#00FCFF;stroke-width:1.0103;stroke-linecap:round;stroke-linejoin:round;stroke-miterlimit:10;}
	.st27{fill:none;stroke:#00FCFF;stroke-width:0.9959;stroke-linecap:round;stroke-linejoin:round;stroke-miterlimit:10;}
	.st28{fill:none;stroke:#FF4F92;stroke-width:0.8976;stroke-linecap:round;stroke-linejoin:round;stroke-miterlimit:10;}
	.st29{fill:none;stroke:#FF4F92;stroke-width:1.1717;stroke-linecap:round;stroke-linejoin:round;stroke-miterlimit:10;}
	.st30{fill:none;stroke:#FF8B00;stroke-width:1.0103;stroke-linecap:round;stroke-linejoin:round;stroke-miterlimit:10;}
	.st31{fill:#FFE1BD;}
	.st32{fill:#2D24A3;}
	.st33{fill:#F4D5B5;}
	.st34{fill:#8C4200;}
	.st35{fill:#E8C5A0;}
	.st36{fill:#E5BB98;}
	.st37{fill:#632F00;}
	.st38{opacity:0.27;fill:#2D24A3;}
	.st39{fill:#402C2C;}
	.st40{opacity:0.2;fill:#474747;}
	.st41{fill:#006466;}
	.st42{fill:#00D5CF;}
	.st43{fill:#00AD9F;}
	.st44{font-family:'OpenSans-Bold';}
	.st45{font-size:21.0082px;}
	.st46{opacity:0.45;fill:#04004C;}
	.st47{fill:#0B0B3A;}
	.st48{fill:#007D87;}
	.st49{opacity:0.38;fill:#006466;}
	.st50{fill:url(#SVGID_8_);}
	.st51{fill:none;stroke:#A8A8A8;stroke-width:0.7555;stroke-miterlimit:10;}
	.st52{fill:none;stroke:#3B2F7C;stroke-width:0.7555;stroke-miterlimit:10;}
	.st53{fill:none;stroke:#3B2F7C;stroke-width:0.7555;stroke-linecap:round;stroke-linejoin:round;stroke-miterlimit:10;}
	.st54{fill:#F9FBFC;}
</style>
<g id="BACKGROUND" class="st0">
	<rect x="-59" class="st1" width="700" height="500"/>
	<g class="st2">
		<linearGradient id="SVGID_1_" gradientUnits="userSpaceOnUse" x1="693.9645" y1="-21.9627" x2="532.9575" y2="214.7075">
			<stop  offset="0" style="stop-color:#FF6E3A"/>
			<stop  offset="0.9826" style="stop-color:#FFB846"/>
		</linearGradient>
		<path class="st3" d="M666,0v310.75c-12.58-11.54-24.06-24.11-34.33-37.49c-4.41-5.73-8.59-11.61-12.55-17.62
			c-3.91-5.96-7.61-12.05-11.06-18.25c-5.43-9.73-10.27-19.74-14.51-29.98c-1.61-3.87-3.12-7.78-4.54-11.71
			c-5.17-14.25-9.16-28.88-11.9-43.71c-0.7-3.78-1.31-7.58-1.84-11.38c-1.1-7.84-1.9-15.86-2.9-23.83
			c-2.3-18.13-5.71-36-16.26-51.08C537.2,38.71,499.03,26.29,480.64,0H666z"/>
		<linearGradient id="SVGID_2_" gradientUnits="userSpaceOnUse" x1="-49.7679" y1="374.6066" x2="559.6191" y2="582.8638">
			<stop  offset="0" style="stop-color:#FEA600"/>
			<stop  offset="1" style="stop-color:#EF1829"/>
		</linearGradient>
		<path class="st4" d="M458.53,500H-84V276.79c9.04-5.62,19.05-10.32,29.61-13.81c18.81-6.21,39.27-8.56,58.7-5.44
			c5.25,0.84,10.44,2.09,15.5,3.77c1.08,0.36,2.14,0.73,3.19,1.12c31.1,11.48,49.39,35.56,67.33,60.23
			c2.57,3.51,5.11,7.02,7.68,10.53c3.8,5.15,7.66,10.26,11.7,15.2c13.01,15.96,27.88,30.25,48.47,39.16
			c37.68,16.31,83.93,9.93,126.21,15.74c39.45,5.4,75.55,21.6,106.36,41.9c12.49,8.22,24.21,17.11,35.46,26.4
			c1.56,1.29,3.11,2.58,4.65,3.88c0.39,0.32,0.79,0.65,1.16,0.99c0.92,0.77,1.82,1.53,2.72,2.31
			C442.85,485.69,450.74,492.82,458.53,500z"/>
		<linearGradient id="SVGID_3_" gradientUnits="userSpaceOnUse" x1="-84" y1="393.5341" x2="665.2963" y2="393.5341">
			<stop  offset="0" style="stop-color:#FEA600"/>
			<stop  offset="1" style="stop-color:#EF1829"/>
		</linearGradient>
		<path class="st5" d="M665.3,383.83V500H-84V352.63c23.99-3.38,47.58-9.18,70.97-15.97c3.3-0.95,6.59-1.93,9.88-2.92
			c14.27-4.31,28.47-8.9,42.65-13.46c7.46-2.41,14.93-4.8,22.39-7.13c4.56-1.43,9.13-2.84,13.71-4.21
			c14.58-4.36,29.37-8.43,44.28-11.85c0.01,0,0.01,0,0.03,0c0.09-0.03,0.19-0.06,0.28-0.07c0.87-0.21,1.75-0.41,2.64-0.59
			c0.87-0.21,1.74-0.39,2.61-0.59c0.87-0.18,1.75-0.38,2.62-0.56c0.87-0.18,1.74-0.36,2.61-0.55c0.88-0.18,1.77-0.36,2.64-0.53
			c0.7-0.14,1.39-0.28,2.08-0.41h0.01c8.93-1.75,17.89-3.22,26.87-4.32c17.74-2.2,35.55-3.04,53.26-1.93
			c3.12,0.2,6.23,0.45,9.35,0.77c6.16,0.63,12.32,1.51,18.45,2.66c15.57,2.92,30.47,7.48,44.94,13.15c1.92,0.74,3.82,1.51,5.72,2.31
			c10.1,4.17,20.01,8.85,29.78,13.85c10.16,5.19,20.2,10.73,30.18,16.38c37.7,21.36,74.82,44.48,116.19,57.88
			c58.49,18.97,124.34,16.7,181.52-5.26C656.71,387.35,661.19,385.49,665.3,383.83z"/>
	</g>
</g>
<g id="OBJECTS">
	<g>
		<g>
			<g class="st6">
				<path class="st7" d="M383.43,131.74h7.42c0.97,0,1.77-0.79,1.77-1.77v-17.2c0-0.97-0.79-1.77-1.77-1.77h-7.42
					c-0.21-0.91-0.45-1.81-0.72-2.69l6.42-3.71c0.84-0.49,1.13-1.57,0.65-2.41l-8.6-14.9c-0.49-0.84-1.57-1.13-2.41-0.65l-6.43,3.71
					c-0.64-0.67-1.29-1.33-1.96-1.96c0,0,0,0,0,0l3.71-6.43c0.49-0.84,0.2-1.92-0.65-2.41l-14.9-8.6c-0.84-0.49-1.92-0.2-2.41,0.65
					l-3.71,6.43c-0.88-0.27-1.78-0.51-2.69-0.72c0,0,0,0,0,0v-7.42c0-0.97-0.79-1.77-1.77-1.77h-17.2c-0.97,0-1.77,0.79-1.77,1.77
					v7.42c0,0,0,0,0,0c-0.91,0.21-1.81,0.45-2.69,0.72l-3.71-6.43c-0.49-0.84-1.57-1.13-2.41-0.65l-14.9,8.6
					c-0.84,0.49-1.13,1.57-0.65,2.41l3.71,6.43c0,0,0,0,0,0c-0.67,0.64-1.33,1.29-1.96,1.96l-6.43-3.71
					c-0.84-0.49-1.92-0.2-2.41,0.65l-8.6,14.9c-0.49,0.84-0.2,1.92,0.65,2.41l6.42,3.71c-0.27,0.88-0.51,1.79-0.72,2.69h-7.42
					c-0.97,0-1.77,0.79-1.77,1.77v17.2c0,0.97,0.79,1.77,1.77,1.77h7.42c0.21,0.91,0.45,1.81,0.72,2.69c0,0,0,0,0,0l-6.43,3.71
					c-0.84,0.49-1.13,1.57-0.65,2.41l8.6,14.9c0.49,0.84,1.57,1.13,2.41,0.65l6.43-3.71c0.64,0.67,1.29,1.33,1.97,1.97c0,0,0,0,0,0
					l-3.71,6.43c-0.49,0.84-0.2,1.92,0.65,2.41l14.9,8.6c0.84,0.49,1.92,0.2,2.41-0.65l3.71-6.43c0.88,0.27,1.78,0.51,2.69,0.72
					c0,0,0,0,0,0v7.42c0,0.97,0.79,1.77,1.77,1.77h17.2c0.97,0,1.77-0.79,1.77-1.77v-7.42c0,0,0,0,0,0
					c0.91-0.21,1.81-0.45,2.69-0.72l3.71,6.43c0.49,0.84,1.57,1.13,2.41,0.65l14.9-8.6c0.84-0.49,1.13-1.57,0.65-2.41l-3.71-6.43
					c0,0,0,0,0,0c0.67-0.64,1.33-1.29,1.97-1.97l6.43,3.71c0.84,0.49,1.92,0.2,2.41-0.65l8.6-14.9c0.49-0.84,0.2-1.92-0.65-2.41
					l-6.43-3.71c0,0,0,0,0,0C382.97,133.55,383.22,132.65,383.43,131.74z M344.31,146.06c-17.61,3.54-33.18-12.02-29.64-29.64
					c1.99-9.91,9.87-17.78,19.79-19.74c17.57-3.48,33.08,12.02,29.59,29.59C362.09,136.19,354.22,144.06,344.31,146.06z"/>
			</g>
			<g class="st8">
				<path class="st7" d="M250.78,373.12h7.42c0.98,0,1.77-0.79,1.77-1.77v-17.2c0-0.97-0.79-1.77-1.77-1.77h-7.42
					c-0.21-0.91-0.45-1.81-0.72-2.69l6.42-3.71c0.84-0.49,1.13-1.57,0.65-2.41l-8.6-14.9c-0.49-0.84-1.57-1.13-2.41-0.65l-6.43,3.71
					c-0.64-0.67-1.29-1.33-1.96-1.96c0,0,0,0,0,0l3.71-6.43c0.49-0.84,0.2-1.92-0.65-2.41l-14.9-8.6c-0.84-0.49-1.92-0.2-2.41,0.65
					l-3.71,6.43c-0.88-0.27-1.78-0.51-2.69-0.72c0,0,0,0,0,0v-7.42c0-0.97-0.79-1.77-1.76-1.77h-17.2c-0.98,0-1.77,0.79-1.77,1.77
					v7.42c0,0,0,0,0,0c-0.91,0.21-1.81,0.45-2.69,0.72l-3.71-6.43c-0.49-0.84-1.57-1.13-2.41-0.65l-14.9,8.6
					c-0.84,0.49-1.13,1.57-0.65,2.41l3.71,6.43c0,0,0,0,0,0c-0.67,0.64-1.33,1.29-1.96,1.96l-6.43-3.71
					c-0.84-0.49-1.92-0.2-2.41,0.65l-8.6,14.9c-0.49,0.84-0.2,1.92,0.65,2.41l6.42,3.71c-0.27,0.88-0.51,1.79-0.72,2.69h-7.42
					c-0.97,0-1.77,0.79-1.77,1.77v17.2c0,0.97,0.79,1.77,1.77,1.77h7.42c0.21,0.91,0.45,1.81,0.72,2.69c0,0,0,0,0,0l-6.43,3.71
					c-0.84,0.49-1.13,1.57-0.65,2.41l8.6,14.9c0.49,0.84,1.57,1.13,2.41,0.65l6.43-3.71c0.64,0.67,1.29,1.33,1.97,1.97c0,0,0,0,0,0
					l-3.71,6.43c-0.49,0.84-0.2,1.92,0.65,2.41l14.9,8.6c0.84,0.49,1.92,0.2,2.41-0.65l3.71-6.43c0.88,0.27,1.78,0.51,2.69,0.72
					c0,0,0,0,0,0v7.42c0,0.97,0.79,1.77,1.77,1.77h17.2c0.97,0,1.76-0.79,1.76-1.77v-7.42c0,0,0,0,0,0
					c0.91-0.21,1.81-0.45,2.69-0.72l3.71,6.43c0.49,0.84,1.57,1.13,2.41,0.65l14.9-8.6c0.84-0.49,1.13-1.57,0.65-2.41l-3.71-6.43
					c0,0,0,0,0,0c0.67-0.64,1.33-1.29,1.97-1.97l6.43,3.71c0.84,0.49,1.92,0.2,2.41-0.65l8.6-14.9c0.49-0.84,0.2-1.92-0.65-2.41
					l-6.43-3.71c0,0,0,0,0,0C250.33,374.92,250.57,374.02,250.78,373.12z M211.66,387.43c-17.61,3.54-33.18-12.02-29.64-29.64
					c1.99-9.91,9.87-17.78,19.79-19.74c17.57-3.48,33.08,12.02,29.59,29.59C229.44,377.56,221.58,385.44,211.66,387.43z"/>
			</g>
			<g class="st6">
				<path class="st7" d="M338.57,358.07h4.11c0.54,0,0.98-0.44,0.98-0.98v-9.53c0-0.54-0.44-0.98-0.98-0.98h-4.11
					c-0.12-0.5-0.25-1-0.4-1.49l3.56-2.05c0.47-0.27,0.63-0.87,0.36-1.34l-4.76-8.25c-0.27-0.47-0.87-0.63-1.34-0.36l-3.56,2.06
					c-0.35-0.37-0.72-0.73-1.09-1.09c0,0,0,0,0,0l2.06-3.56c0.27-0.47,0.11-1.07-0.36-1.34l-8.25-4.76
					c-0.47-0.27-1.07-0.11-1.34,0.36l-2.06,3.56c-0.49-0.15-0.99-0.28-1.49-0.4c0,0,0,0,0,0v-4.11c0-0.54-0.44-0.98-0.98-0.98h-9.53
					c-0.54,0-0.98,0.44-0.98,0.98v4.11c0,0,0,0,0,0c-0.5,0.12-1,0.25-1.49,0.4l-2.06-3.56c-0.27-0.47-0.87-0.63-1.34-0.36
					l-8.25,4.76c-0.47,0.27-0.63,0.87-0.36,1.34l2.06,3.56c0,0,0,0,0,0c-0.37,0.35-0.73,0.72-1.09,1.09l-3.56-2.06
					c-0.47-0.27-1.07-0.11-1.34,0.36l-4.76,8.25c-0.27,0.47-0.11,1.07,0.36,1.34l3.56,2.05c-0.15,0.49-0.28,0.99-0.4,1.49h-4.11
					c-0.54,0-0.98,0.44-0.98,0.98v9.53c0,0.54,0.44,0.98,0.98,0.98h4.11c0.12,0.5,0.25,1,0.4,1.49c0,0,0,0,0,0l-3.56,2.05
					c-0.47,0.27-0.63,0.87-0.36,1.34l4.76,8.25c0.27,0.47,0.87,0.63,1.34,0.36l3.56-2.06c0.35,0.37,0.72,0.74,1.09,1.09c0,0,0,0,0,0
					l-2.06,3.56c-0.27,0.47-0.11,1.07,0.36,1.34l8.25,4.76c0.47,0.27,1.07,0.11,1.34-0.36l2.06-3.56c0.49,0.15,0.99,0.28,1.49,0.4
					c0,0,0,0,0,0v4.11c0,0.54,0.44,0.98,0.98,0.98h9.53c0.54,0,0.98-0.44,0.98-0.98v-4.11c0,0,0,0,0,0c0.5-0.12,1-0.25,1.49-0.4
					l2.06,3.56c0.27,0.47,0.87,0.63,1.34,0.36l8.25-4.76c0.47-0.27,0.63-0.87,0.36-1.34l-2.06-3.56c0,0,0,0,0,0
					c0.37-0.35,0.73-0.72,1.09-1.09l3.56,2.06c0.47,0.27,1.07,0.11,1.34-0.36l4.76-8.25c0.27-0.47,0.11-1.07-0.36-1.34l-3.56-2.05
					c0,0,0,0,0,0C338.32,359.07,338.46,358.57,338.57,358.07z M316.91,366c-9.76,1.96-18.38-6.66-16.42-16.42
					c1.1-5.49,5.47-9.85,10.96-10.94c9.73-1.93,18.32,6.66,16.39,16.39C326.75,360.53,322.4,364.89,316.91,366z"/>
			</g>
			<g class="st9">
				<path class="st7" d="M113.83,111.25h3.6c0.47,0,0.86-0.38,0.86-0.86v-8.36c0-0.47-0.38-0.86-0.86-0.86h-3.6
					c-0.1-0.44-0.22-0.88-0.35-1.31l3.12-1.8c0.41-0.24,0.55-0.76,0.31-1.17l-4.18-7.24c-0.24-0.41-0.76-0.55-1.17-0.31l-3.12,1.8
					c-0.31-0.33-0.63-0.64-0.95-0.95c0,0,0,0,0,0l1.8-3.12c0.24-0.41,0.1-0.93-0.31-1.17l-7.24-4.18c-0.41-0.24-0.93-0.1-1.17,0.31
					l-1.8,3.12c-0.43-0.13-0.86-0.25-1.31-0.35c0,0,0,0,0,0V81.2c0-0.47-0.38-0.86-0.86-0.86h-8.36c-0.47,0-0.86,0.38-0.86,0.86
					v3.61c0,0,0,0,0,0c-0.44,0.1-0.88,0.22-1.31,0.35l-1.8-3.12c-0.24-0.41-0.76-0.55-1.17-0.31l-7.24,4.18
					c-0.41,0.24-0.55,0.76-0.31,1.17l1.8,3.13c0,0,0,0,0,0c-0.33,0.31-0.64,0.63-0.95,0.95l-3.13-1.8c-0.41-0.24-0.93-0.1-1.17,0.31
					l-4.18,7.24c-0.24,0.41-0.1,0.93,0.31,1.17l3.12,1.8c-0.13,0.43-0.25,0.87-0.35,1.31h-3.6c-0.47,0-0.86,0.38-0.86,0.86v8.36
					c0,0.47,0.38,0.86,0.86,0.86h3.6c0.1,0.44,0.22,0.88,0.35,1.31c0,0,0,0,0,0l-3.12,1.8c-0.41,0.24-0.55,0.76-0.31,1.17l4.18,7.24
					c0.24,0.41,0.76,0.55,1.17,0.31l3.12-1.8c0.31,0.33,0.63,0.64,0.95,0.95c0,0,0,0,0,0l-1.8,3.12c-0.24,0.41-0.1,0.93,0.31,1.17
					l7.24,4.18c0.41,0.24,0.93,0.1,1.17-0.31l1.8-3.12c0.43,0.13,0.87,0.25,1.31,0.35c0,0,0,0,0,0v3.6c0,0.47,0.38,0.86,0.86,0.86
					h8.36c0.47,0,0.86-0.38,0.86-0.86v-3.6c0,0,0,0,0,0c0.44-0.1,0.88-0.22,1.31-0.35l1.8,3.12c0.24,0.41,0.76,0.55,1.17,0.31
					l7.24-4.18c0.41-0.24,0.55-0.76,0.31-1.17l-1.8-3.12c0,0,0,0,0,0c0.33-0.31,0.64-0.63,0.95-0.95l3.12,1.8
					c0.41,0.24,0.93,0.1,1.17-0.31l4.18-7.24c0.24-0.41,0.1-0.93-0.31-1.17l-3.12-1.8c0,0,0,0,0,0
					C113.61,112.12,113.73,111.69,113.83,111.25z M94.83,118.2c-8.56,1.72-16.12-5.84-14.4-14.4c0.97-4.81,4.8-8.64,9.61-9.59
					c8.54-1.69,16.07,5.84,14.38,14.38C103.46,113.4,99.64,117.23,94.83,118.2z"/>
			</g>
			<g class="st9">
				<path class="st7" d="M143.26,80.94h2.17c0.28,0,0.52-0.23,0.52-0.52V75.4c0-0.29-0.23-0.52-0.52-0.52h-2.17
					c-0.06-0.26-0.13-0.53-0.21-0.79l1.88-1.08c0.25-0.14,0.33-0.46,0.19-0.7l-2.51-4.35c-0.14-0.25-0.46-0.33-0.7-0.19l-1.88,1.09
					c-0.19-0.2-0.38-0.39-0.57-0.57c0,0,0,0,0,0l1.09-1.88c0.14-0.25,0.06-0.56-0.19-0.7l-4.35-2.51c-0.25-0.14-0.56-0.06-0.7,0.19
					l-1.08,1.88c-0.26-0.08-0.52-0.15-0.79-0.21c0,0,0,0,0,0v-2.17c0-0.28-0.23-0.52-0.52-0.52h-5.03c-0.28,0-0.52,0.23-0.52,0.52
					v2.17l0,0c-0.27,0.06-0.53,0.13-0.79,0.21l-1.08-1.88c-0.14-0.25-0.46-0.33-0.7-0.19l-4.35,2.51c-0.25,0.14-0.33,0.46-0.19,0.7
					l1.09,1.88c0,0,0,0,0,0c-0.2,0.19-0.39,0.38-0.57,0.57l-1.88-1.09c-0.25-0.14-0.56-0.06-0.7,0.19l-2.51,4.35
					c-0.14,0.25-0.06,0.56,0.19,0.7l1.88,1.08c-0.08,0.26-0.15,0.52-0.21,0.79h-2.17c-0.29,0-0.52,0.23-0.52,0.52v5.03
					c0,0.28,0.23,0.52,0.52,0.52h2.17c0.06,0.26,0.13,0.53,0.21,0.79c0,0,0,0,0,0l-1.88,1.08c-0.25,0.14-0.33,0.46-0.19,0.7
					l2.51,4.35c0.14,0.25,0.46,0.33,0.7,0.19l1.88-1.09c0.19,0.2,0.38,0.39,0.57,0.57c0,0,0,0,0,0l-1.09,1.88
					c-0.14,0.25-0.06,0.56,0.19,0.7l4.35,2.51c0.25,0.14,0.56,0.06,0.7-0.19l1.08-1.88c0.26,0.08,0.52,0.15,0.79,0.21h0v2.17
					c0,0.28,0.23,0.52,0.52,0.52h5.03c0.28,0,0.52-0.23,0.52-0.52v-2.17c0,0,0,0,0,0c0.27-0.06,0.53-0.13,0.79-0.21l1.08,1.88
					c0.14,0.25,0.46,0.33,0.7,0.19l4.35-2.51c0.25-0.14,0.33-0.46,0.19-0.7l-1.09-1.88c0,0,0,0,0,0c0.2-0.19,0.39-0.38,0.57-0.57
					l1.88,1.09c0.25,0.14,0.56,0.06,0.7-0.19l2.51-4.35c0.14-0.25,0.06-0.56-0.19-0.7l-1.88-1.08c0,0,0,0,0,0
					C143.13,81.47,143.2,81.21,143.26,80.94z M131.83,85.13c-5.15,1.04-9.7-3.51-8.66-8.66c0.58-2.9,2.89-5.2,5.78-5.77
					c5.14-1.02,9.67,3.51,8.65,8.65C137.02,82.24,134.72,84.54,131.83,85.13z"/>
			</g>
			<g>
				<path class="st10" d="M426.11,92.09h2.56c0.34,0,0.61-0.27,0.61-0.61v-5.94c0-0.34-0.27-0.61-0.61-0.61h-2.56
					c-0.07-0.31-0.16-0.63-0.25-0.93l2.22-1.28c0.29-0.17,0.39-0.54,0.22-0.83l-2.97-5.15c-0.17-0.29-0.54-0.39-0.83-0.22
					l-2.22,1.28c-0.22-0.23-0.45-0.46-0.68-0.68c0,0,0,0,0,0l1.28-2.22c0.17-0.29,0.07-0.66-0.22-0.83l-5.15-2.97
					c-0.29-0.17-0.66-0.07-0.83,0.22l-1.28,2.22c-0.3-0.09-0.62-0.18-0.93-0.25c0,0,0,0,0,0v-2.56c0-0.34-0.27-0.61-0.61-0.61h-5.94
					c-0.34,0-0.61,0.27-0.61,0.61v2.56c0,0,0,0,0,0c-0.31,0.07-0.62,0.16-0.93,0.25l-1.28-2.22c-0.17-0.29-0.54-0.39-0.83-0.22
					l-5.15,2.97c-0.29,0.17-0.39,0.54-0.22,0.83l1.28,2.22c0,0,0,0,0,0c-0.23,0.22-0.46,0.45-0.68,0.68l-2.22-1.28
					c-0.29-0.17-0.66-0.07-0.83,0.22l-2.97,5.15c-0.17,0.29-0.07,0.66,0.22,0.83l2.22,1.28c-0.09,0.3-0.18,0.62-0.25,0.93h-2.56
					c-0.34,0-0.61,0.27-0.61,0.61v5.94c0,0.34,0.27,0.61,0.61,0.61h2.56c0.07,0.31,0.16,0.62,0.25,0.93c0,0,0,0,0,0l-2.22,1.28
					c-0.29,0.17-0.39,0.54-0.22,0.83l2.97,5.15c0.17,0.29,0.54,0.39,0.83,0.22l2.22-1.28c0.22,0.23,0.45,0.46,0.68,0.68c0,0,0,0,0,0
					l-1.28,2.22c-0.17,0.29-0.07,0.66,0.22,0.83l5.15,2.97c0.29,0.17,0.66,0.07,0.83-0.22l1.28-2.22c0.3,0.09,0.62,0.18,0.93,0.25
					c0,0,0,0,0,0v2.56c0,0.34,0.27,0.61,0.61,0.61h5.94c0.34,0,0.61-0.27,0.61-0.61v-2.56c0,0,0,0,0,0
					c0.31-0.07,0.62-0.16,0.93-0.25l1.28,2.22c0.17,0.29,0.54,0.39,0.83,0.22l5.15-2.97c0.29-0.17,0.39-0.54,0.22-0.83l-1.28-2.22
					c0,0,0,0,0,0c0.23-0.22,0.46-0.45,0.68-0.68l2.22,1.28c0.29,0.17,0.66,0.07,0.83-0.22l2.97-5.15c0.17-0.29,0.07-0.66-0.22-0.83
					l-2.22-1.28c0,0,0,0,0,0C425.96,92.72,426.04,92.41,426.11,92.09z M412.6,97.04c-6.09,1.22-11.46-4.15-10.24-10.24
					c0.69-3.42,3.41-6.14,6.84-6.82c6.07-1.2,11.43,4.15,10.22,10.22C418.74,93.63,416.02,96.35,412.6,97.04z"/>
			</g>
			<path class="st11" d="M475.2,359.06l-341.17,0.7c-4.55,0.01-8.25-3.67-8.26-8.22l-0.47-226.02c-0.01-4.55,3.67-8.25,8.22-8.26
				l341.17-0.7c4.55-0.01,8.25,3.67,8.26,8.22l0.47,226.02C483.43,355.35,479.75,359.05,475.2,359.06z"/>
			<path class="st12" d="M490.81,343.36v0.02c0,4.54-3.68,8.22-8.22,8.24l-218.31,0.45l-122.85,0.26c-4.55,0.01-8.26-3.67-8.27-8.22
				l-0.46-226.02c-0.01-4.54,3.67-8.25,8.22-8.26l341.16-0.7c4.55-0.01,8.26,3.67,8.27,8.22l0.02,8.8L490.81,343.36z"/>
			<path class="st13" d="M481.54,111.08l-339.71,0.7c-4.95,0.01-8.96,4.04-8.95,8.99l0.02,7.8l357.66-0.74l-0.02-7.8
				C490.52,115.08,486.49,111.07,481.54,111.08z"/>
			<path class="st12" d="M184.71,337.04l-39.17,0.08c-1.85,0-3.36-1.5-3.36-3.35l0,0c0-1.85,1.5-3.36,3.35-3.36l39.16-0.08
				c1.85,0,3.36,1.5,3.36,3.35l0,0C188.06,335.53,186.56,337.03,184.71,337.04z"/>
			<path class="st14" d="M252.28,300.48H147.43c-1.72,0-3.11-1.39-3.11-3.11v-26.75c0-1.72,1.39-3.11,3.11-3.11h104.85
				c1.72,0,3.11,1.39,3.11,3.11v26.75C255.39,299.08,253.99,300.48,252.28,300.48z"/>
			<path class="st15" d="M258.83,291.69H153.98c-1.72,0-3.11-1.39-3.11-3.11v-26.75c0-1.72,1.39-3.11,3.11-3.11h104.85
				c1.72,0,3.11,1.39,3.11,3.11v26.75C261.94,290.3,260.55,291.69,258.83,291.69z"/>
			<path class="st12" d="M152.49,120c0,1.6-1.29,2.89-2.88,2.9c-1.6,0-2.89-1.29-2.9-2.88c0-1.6,1.29-2.89,2.88-2.9
				C151.19,117.11,152.48,118.41,152.49,120z"/>
			<path class="st12" d="M164.72,119.98c0,1.6-1.29,2.89-2.88,2.9c-1.6,0-2.89-1.29-2.9-2.88c0-1.6,1.29-2.89,2.88-2.9
				C163.42,117.09,164.72,118.38,164.72,119.98z"/>
			<path class="st12" d="M176.96,119.95c0,1.6-1.29,2.89-2.88,2.9c-1.6,0-2.89-1.29-2.9-2.88c0-1.6,1.29-2.89,2.88-2.9
				C175.66,117.06,176.95,118.36,176.96,119.95z"/>
			<path class="st15" d="M458.38,303.42H331.33c-1.72,0-3.11-1.39-3.11-3.11v-66.94c0-1.72,1.39-3.11,3.11-3.11h127.05
				c1.72,0,3.11,1.39,3.11,3.11v66.94C461.49,302.03,460.1,303.42,458.38,303.42z"/>
			<path class="st14" d="M464.47,310.68H337.42c-1.72,0-3.11-1.39-3.11-3.11V233.2c0-1.72,1.39-3.11,3.11-3.11h127.05
				c1.72,0,3.11,1.39,3.11,3.11v74.37C467.58,309.29,466.19,310.68,464.47,310.68z"/>
			<g>
				<path class="st16" d="M328.52,329.91l-59.48,0.12c-0.57,0-1.03-0.46-1.03-1.03l0,0c0-0.57,0.46-1.03,1.03-1.03l59.48-0.12
					c0.57,0,1.03,0.46,1.03,1.03v0C329.55,329.44,329.09,329.91,328.52,329.91z"/>
				<path class="st16" d="M328.52,325.39l-59.48,0.12c-0.57,0-1.03-0.46-1.03-1.03l0,0c0-0.57,0.46-1.03,1.03-1.03l59.48-0.12
					c0.57,0,1.03,0.46,1.03,1.03l0,0C329.55,324.93,329.09,325.39,328.52,325.39z"/>
				<path class="st16" d="M328.53,334.42l-59.48,0.12c-0.57,0-1.03-0.46-1.03-1.03l0,0c0-0.57,0.46-1.03,1.03-1.03l59.47-0.12
					c0.57,0,1.03,0.46,1.03,1.03v0C329.55,333.96,329.09,334.42,328.53,334.42z"/>
				<path class="st16" d="M328.53,338.94l-59.48,0.12c-0.57,0-1.03-0.46-1.03-1.03l0,0c0-0.57,0.46-1.03,1.03-1.03l59.48-0.12
					c0.57,0,1.03,0.46,1.03,1.03l0,0C329.56,338.48,329.1,338.94,328.53,338.94z"/>
				<path class="st16" d="M314.48,343.46l-45.41,0.09c-0.57,0-1.03-0.46-1.03-1.03l0,0c0-0.57,0.46-1.03,1.03-1.03l45.41-0.09
					c0.57,0,1.03,0.46,1.03,1.03l0,0C315.5,343,315.04,343.46,314.48,343.46z"/>
			</g>
			<g>
				<path class="st16" d="M397.25,329.94l-59.48,0.12c-0.57,0-1.03-0.46-1.03-1.03l0,0c0-0.57,0.46-1.03,1.03-1.03l59.48-0.12
					c0.57,0,1.03,0.46,1.03,1.03v0C398.28,329.48,397.82,329.94,397.25,329.94z"/>
				<path class="st16" d="M397.25,325.42l-59.47,0.12c-0.57,0-1.03-0.46-1.03-1.03l0,0c0-0.57,0.46-1.03,1.03-1.03l59.47-0.12
					c0.57,0,1.03,0.46,1.03,1.03l0,0C398.27,324.96,397.82,325.42,397.25,325.42z"/>
				<path class="st16" d="M397.26,334.45l-59.48,0.12c-0.57,0-1.03-0.46-1.03-1.03l0,0c0-0.57,0.46-1.03,1.03-1.03l59.48-0.12
					c0.57,0,1.03,0.46,1.03,1.03v0C398.28,333.99,397.82,334.45,397.26,334.45z"/>
				<path class="st16" d="M397.26,338.97l-59.48,0.12c-0.57,0-1.03-0.46-1.03-1.03l0,0c0-0.57,0.46-1.03,1.03-1.03l59.48-0.12
					c0.57,0,1.03,0.46,1.03,1.03l0,0C398.29,338.51,397.83,338.97,397.26,338.97z"/>
				<path class="st16" d="M383.2,343.49l-45.41,0.09c-0.57,0-1.03-0.46-1.03-1.03l0,0c0-0.57,0.46-1.03,1.03-1.03l45.41-0.09
					c0.57,0,1.03,0.46,1.03,1.03l0,0C384.23,343.03,383.77,343.49,383.2,343.49z"/>
			</g>
			<g>
				<path class="st16" d="M465.98,329.94l-59.48,0.12c-0.57,0-1.03-0.46-1.03-1.03l0,0c0-0.57,0.46-1.03,1.03-1.03l59.48-0.12
					c0.57,0,1.03,0.46,1.03,1.03l0,0C467.01,329.48,466.55,329.94,465.98,329.94z"/>
				<path class="st16" d="M465.98,325.42l-59.48,0.12c-0.57,0-1.03-0.46-1.03-1.03l0,0c0-0.57,0.46-1.03,1.03-1.03l59.47-0.12
					c0.57,0,1.03,0.46,1.03,1.03l0,0C467,324.96,466.54,325.42,465.98,325.42z"/>
				<path class="st16" d="M465.99,334.45l-59.48,0.12c-0.57,0-1.03-0.46-1.03-1.03l0,0c0-0.57,0.46-1.03,1.03-1.03l59.48-0.12
					c0.57,0,1.03,0.46,1.03,1.03v0C467.01,333.99,466.55,334.45,465.99,334.45z"/>
				<path class="st16" d="M465.99,338.97l-59.48,0.12c-0.57,0-1.03-0.46-1.03-1.03v0c0-0.57,0.46-1.03,1.03-1.03l59.48-0.12
					c0.57,0,1.03,0.46,1.03,1.03l0,0C467.02,338.51,466.56,338.97,465.99,338.97z"/>
				<path class="st16" d="M451.93,343.49l-45.41,0.09c-0.57,0-1.03-0.46-1.03-1.03l0,0c0-0.57,0.46-1.03,1.03-1.03l45.41-0.09
					c0.57,0,1.03,0.46,1.03,1.03v0C452.96,343.03,452.5,343.49,451.93,343.49z"/>
			</g>
			<g>
				<path class="st16" d="M166.62,342.13l-18.88,0.04c-0.57,0-1.03-0.46-1.03-1.03l0,0c0-0.57,0.46-1.03,1.03-1.03l18.88-0.04
					c0.57,0,1.03,0.46,1.03,1.03v0C167.65,341.67,167.19,342.13,166.62,342.13z"/>
				<path class="st16" d="M195.47,342.13l-18.88,0.04c-0.57,0-1.03-0.46-1.03-1.03l0,0c0-0.57,0.46-1.03,1.03-1.03l18.88-0.04
					c0.57,0,1.03,0.46,1.03,1.03v0C196.5,341.67,196.04,342.13,195.47,342.13z"/>
				<path class="st16" d="M224.32,342.13l-18.88,0.04c-0.57,0-1.03-0.46-1.03-1.03v0c0-0.57,0.46-1.03,1.03-1.03l18.88-0.04
					c0.57,0,1.03,0.46,1.03,1.03l0,0C225.34,341.67,224.88,342.13,224.32,342.13z"/>
				<path class="st16" d="M253.16,342.13l-18.88,0.04c-0.57,0-1.03-0.46-1.03-1.03l0,0c0-0.57,0.46-1.03,1.03-1.03l18.88-0.04
					c0.57,0,1.03,0.46,1.03,1.03v0C254.19,341.67,253.73,342.13,253.16,342.13z"/>
			</g>
			<g>
				<path class="st11" d="M456.1,257.7L456.1,257.7c0,1.99-1.5,3.59-3.35,3.6l-89.06,0.19l-50.12,0.11
					c-1.86,0.01-3.37-1.6-3.37-3.58l-0.19-98.5c0-1.98,1.5-3.59,3.36-3.6l139.17-0.31c1.86,0,3.37,1.6,3.37,3.58l0.01,3.84
					L456.1,257.7z"/>
				<linearGradient id="SVGID_4_" gradientUnits="userSpaceOnUse" x1="426.846" y1="165.8874" x2="315.9962" y2="250.6986">
					<stop  offset="0" style="stop-color:#FF6E3A"/>
					<stop  offset="0.9826" style="stop-color:#FFB846"/>
				</linearGradient>
				<path class="st17" d="M451.44,252.04L451.44,252.04c0,1.99-1.5,3.59-3.36,3.6l-89.06,0.19l-50.12,0.11
					c-1.86,0-3.37-1.6-3.37-3.58l-0.19-98.5c0-1.98,1.5-3.59,3.35-3.6l139.17-0.31c1.86,0,3.37,1.6,3.37,3.58l0.01,3.84
					L451.44,252.04z"/>
				<polyline class="st18" points="441.4,247.07 315.4,247.07 315.4,161.71 				"/>
				<linearGradient id="SVGID_5_" gradientUnits="userSpaceOnUse" x1="315.4012" y1="209.5804" x2="440.2411" y2="209.5804">
					<stop  offset="0" style="stop-color:#FFFFFF"/>
					<stop  offset="1" style="stop-color:#FFFFFF;stop-opacity:0"/>
				</linearGradient>
				<polygon class="st19" points="315.4,222.73 347.41,189.3 355.64,202.53 367.79,172.17 376.35,197.45 386.75,180.94 
					401.22,211.47 428.13,180.74 440.24,206.28 440.24,246.99 315.4,246.99 				"/>
				<linearGradient id="SVGID_6_" gradientUnits="userSpaceOnUse" x1="377.8212" y1="187.6143" x2="377.8212" y2="246.3334">
					<stop  offset="0" style="stop-color:#FFFFFF"/>
					<stop  offset="1" style="stop-color:#FFFFFF;stop-opacity:0"/>
				</linearGradient>
				<polygon class="st20" points="315.4,212.15 350.87,227.77 377.24,174.16 391.64,212.15 415.29,187.41 440.24,214.4 
					440.24,246.99 315.4,246.99 				"/>
				<line class="st21" x1="421.14" y1="160.3" x2="439.28" y2="160.3"/>
				<line class="st21" x1="421.14" y1="163.29" x2="439.28" y2="163.29"/>
				<line class="st21" x1="421.14" y1="166.28" x2="439.28" y2="166.28"/>
				<line class="st21" x1="409.38" y1="160.3" x2="417.6" y2="160.3"/>
				<line class="st21" x1="409.38" y1="163.29" x2="417.6" y2="163.29"/>
				<line class="st21" x1="409.38" y1="166.28" x2="417.6" y2="166.28"/>
				<path class="st18" d="M322.88,197.93c4.97,2.47,8.06,7.55,10.4,12.58c2.34,5.03,4.27,10.4,7.99,14.53
					c3.71,4.13,9.87,6.71,14.91,4.39c4.45-2.05,6.58-7.07,8.18-11.7c4.67-13.5,8.15-27.41,10.38-41.52
					c0.33-2.09,0.65-4.24,1.66-6.11c1-1.87,2.86-3.43,4.98-3.46c2.49-0.04,4.51,1.93,6.08,3.86c10.55,12.88,15.13,29.59,24.08,43.62
					c1.76,2.75,4.07,5.64,7.31,5.98c2.59,0.28,5.03-1.18,7.15-2.69c6.32-4.49,11.89-10.04,16.41-16.34"/>
				<g>
					<circle class="st12" cx="322.88" cy="197.5" r="0.97"/>
					<path class="st12" d="M339.04,220.72c0,0.54-0.43,0.97-0.97,0.97c-0.54,0-0.97-0.43-0.97-0.97c0-0.54,0.43-0.97,0.97-0.97
						C338.61,219.75,339.04,220.18,339.04,220.72z"/>
					<path class="st12" d="M373.67,187.09c0,0.54-0.43,0.97-0.97,0.97c-0.54,0-0.97-0.43-0.97-0.97c0-0.54,0.43-0.97,0.97-0.97
						C373.24,186.12,373.67,186.56,373.67,187.09z"/>
					<path class="st12" d="M371.1,197.97c0,0.54-0.43,0.97-0.97,0.97c-0.54,0-0.97-0.43-0.97-0.97c0-0.54,0.43-0.97,0.97-0.97
						C370.66,197,371.1,197.43,371.1,197.97z"/>
					<path class="st12" d="M443.39,201.31c0,0.54-0.43,0.97-0.97,0.97c-0.54,0-0.97-0.43-0.97-0.97c0-0.54,0.43-0.97,0.97-0.97
						C442.95,200.34,443.39,200.77,443.39,201.31z"/>
					<path class="st12" d="M436.55,209.12c0,0.54-0.43,0.97-0.97,0.97s-0.97-0.43-0.97-0.97s0.43-0.97,0.97-0.97
						S436.55,208.58,436.55,209.12z"/>
					<path class="st12" d="M368.16,208.61c0,0.54-0.43,0.97-0.97,0.97c-0.54,0-0.97-0.43-0.97-0.97c0-0.54,0.43-0.97,0.97-0.97
						C367.72,207.64,368.16,208.07,368.16,208.61z"/>
					<path class="st12" d="M404.8,199.91c0,0.54-0.43,0.97-0.97,0.97c-0.54,0-0.97-0.43-0.97-0.97c0-0.54,0.43-0.97,0.97-0.97
						C404.36,198.94,404.8,199.37,404.8,199.91z"/>
				</g>
			</g>
			<g>
				<path class="st11" d="M295.06,241.49L295.06,241.49c0,1.99-1.5,3.59-3.36,3.6l-89.06,0.19l-50.12,0.11
					c-1.86,0-3.37-1.6-3.37-3.58l-0.19-82.29c0-1.98,1.5-3.59,3.36-3.6l139.17-0.31c1.86,0,3.37,1.6,3.37,3.58l0.01,3.84
					L295.06,241.49z"/>
				<linearGradient id="SVGID_7_" gradientUnits="userSpaceOnUse" x1="263.1151" y1="159.8406" x2="158.4236" y2="239.9401">
					<stop  offset="0" style="stop-color:#22115B"/>
					<stop  offset="1" style="stop-color:#401B89"/>
				</linearGradient>
				<path class="st22" d="M290.4,235.83L290.4,235.83c0,1.99-1.5,3.59-3.35,3.6l-89.06,0.19l-50.12,0.11c-1.86,0-3.37-1.6-3.37-3.58
					l-0.19-82.29c0-1.98,1.5-3.59,3.35-3.6l139.17-0.31c1.86,0,3.37,1.6,3.37,3.58l0.01,3.84L290.4,235.83z"/>
			</g>
			<circle class="st14" cx="291.45" cy="288.89" r="20.25"/>
			<circle class="st12" cx="291.45" cy="288.89" r="8.72"/>
			<polygon class="st12" points="298.79,266.77 290.79,288.89 316.46,282.86 			"/>
			<g>
				<polyline class="st23" points="158.1,158.84 152.85,164.09 158.09,169.34 				"/>
				<polyline class="st23" points="171.3,158.84 176.55,164.09 171.31,169.34 				"/>
				<line class="st23" x1="162.48" y1="170.24" x2="166.64" y2="158.84"/>
				<circle class="st24" cx="182.13" cy="170.33" r="1.48"/>
				<circle class="st24" cx="188.27" cy="170.33" r="1.48"/>
				<path class="st24" d="M195.88,170.33c0,0.82-0.66,1.48-1.48,1.48c-0.82,0-1.48-0.66-1.48-1.48c0-0.82,0.66-1.48,1.48-1.48
					C195.22,168.85,195.88,169.52,195.88,170.33z"/>
				<line class="st25" x1="155.47" y1="181.01" x2="278.98" y2="181.01"/>
				<line class="st26" x1="155.47" y1="187.53" x2="254.25" y2="187.53"/>
				<line class="st27" x1="261.94" y1="187.53" x2="278.98" y2="187.53"/>
				<line class="st27" x1="278.98" y1="194.68" x2="238.59" y2="194.68"/>
				<line class="st26" x1="231.98" y1="194.68" x2="222.3" y2="194.68"/>
				<line class="st26" x1="214.6" y1="194.68" x2="204.92" y2="194.68"/>
				<line class="st26" x1="197.22" y1="194.68" x2="187.54" y2="194.68"/>
				<line class="st26" x1="179.84" y1="194.68" x2="170.16" y2="194.68"/>
				<line class="st28" x1="278.98" y1="203.36" x2="167.06" y2="203.36"/>
				<line class="st26" x1="158.97" y1="194.68" x2="155.47" y2="194.68"/>
				<line class="st26" x1="158.97" y1="203.36" x2="155.47" y2="203.36"/>
				<line class="st26" x1="158.97" y1="212.05" x2="155.47" y2="212.05"/>
				<line class="st26" x1="158.97" y1="220.73" x2="155.47" y2="220.73"/>
				<line class="st29" x1="169.8" y1="212.05" x2="211.82" y2="212.05"/>
				<line class="st29" x1="169.8" y1="220.95" x2="225.55" y2="220.95"/>
				<line class="st29" x1="169.8" y1="229.85" x2="245.4" y2="229.85"/>
				<line class="st30" x1="216.25" y1="212.05" x2="278.98" y2="212.05"/>
				<line class="st30" x1="229.54" y1="220.95" x2="278.98" y2="220.95"/>
				<line class="st30" x1="250.06" y1="229.85" x2="278.98" y2="229.85"/>
			</g>
		</g>
		<g>
			<g>
				<path class="st31" d="M140.08,209.18c1.59-4.58,3.05-9.39,5.54-6.96c2.62,2.56,2.41,2.25,1.46,5.8
					C146.13,211.56,138.75,213.03,140.08,209.18z"/>
				<path class="st31" d="M142.93,202.63c0.79-2.18,2.08-4.67,3.42-5.7c1.33-1.03-0.69,2.58-1.16,4.27
					C144.7,202.88,142.26,204.46,142.93,202.63z"/>
			</g>
			<path class="st32" d="M140.78,227.45c1.87-7,2.8-16.15,2.8-16.15l-3.5-2.35c0,0-7.11,14.63-10.96,25.73l-19.83-5.09l-2.42-0.49
				l6.45,12.89c0,0,19.1,2.78,20.27,2.12C134.78,243.45,138.88,234.58,140.78,227.45z"/>
			<path class="st6" d="M133.6,244.1c-1.17,0.66-20.27-2.12-20.27-2.12l-6.45-12.89l2.42,0.49c1.78,0.75,4.67,3.64,7.01,6.7
				c1.69,2.21,2.62,3,5.18,3.96c3.91,1.47,8.07,2.51,9.63,2.62c2.64,0.18,2.9,0.31,3.46-0.47
				C134.58,242.39,134.78,243.45,133.6,244.1z"/>
			<path class="st32" d="M86.91,268.02c1.24,3.21,1.53,6.71,0.78,10.07c-1.48,6.68,0.2,7.12,0.2,7.12s9.05,5.74,16.58,8.09
				c5.39,1.68,9.99,1.39,9.86-4.56l0-0.08c-0.01-0.36-0.02-0.71-0.03-1.04c-0.25-13.39,2.54-14.07,3.22-29.05
				c0.71-15.38-3.4-23.95-7.47-27.67c-4.08-3.71-9.64-3.85-20.11-1.37c-7.86,1.85-10.45,3.94-10.39,9.76
				c0.02,1.93,0.33,4.28,0.85,7.16C81.71,253.76,84.81,262.55,86.91,268.02z"/>
			<path class="st6" d="M86.91,268.02c1.24,3.21,1.53,6.71,0.78,10.07c-1.48,6.68,0.2,7.12,0.2,7.12s9.05,5.74,16.58,8.09l7.03-0.67
				l2.82-2.21l0.01-1.76c-0.01-0.36-0.02-0.71-0.03-1.04c-1.61,0.15-5.26,0.34-10.62-0.28c-4.14-0.47-7.9-1.65-10.41-2.61
				c-1.83-0.69-2.9-2.58-2.56-4.51c0.46-2.63,0.99-6.41,0.97-9.34c-0.02-2.95-1.39-7.93-2.5-11.52c-0.85-2.76-1.14-5.64-0.94-8.52
				c0.35-4.97-0.01-9.71-0.01-9.71l-5.57-3.02l-3.11,1.16c0.02,1.93,0.33,4.28,0.85,7.16C81.71,253.76,84.81,262.55,86.91,268.02z"
				/>
			<path class="st33" d="M86.8,296.42c-0.64,0.1-2.29-2.79-2.29-2.79l0.69-0.92c0.39-0.52,0.93-0.9,1.56-1.09l0.11-0.03
				c0.56-0.17,1.17,0.03,1.49,0.51c0.47,0.7,1.2,1.5,2.05,1.47h0.01c0.03,0.02,0.06,0.02,0.09,0.02
				C91.26,293.61,87.44,296.32,86.8,296.42z"/>
			<g>
				<path class="st34" d="M112.2,203.39c0,0,0.7,1.95-0.36,3.5l-4.32-5.84l3.01-0.03L112.2,203.39z"/>
				<path class="st31" d="M88.76,211.12c0.19,7.54,6.69,11.9,6.69,11.9l-0.43,6.86l4.38,2.84l3.01,1.95l1.73-3.61l0.24-4.42
					c0.06-1.03,0.8-1.89,1.81-2.1c1.12-0.24,2.68-0.89,4.28-2.58c0.09-0.1,0.19-0.21,0.27-0.34c0.01-0.01,0.01-0.01,0.01-0.01
					c2.85-3.88,3.93-18.75-5.83-22.97C94.85,194.27,88.57,203.57,88.76,211.12z"/>
				<path class="st35" d="M99.7,228.6l-0.29,4.11l3.01,1.95l1.73-3.61l0.24-4.42c0.06-1.03,0.8-1.89,1.81-2.1
					c1.12-0.24,2.68-0.89,4.28-2.58c0.09-0.1,0.19-0.21,0.27-0.34c-0.2,0.12-2.55,1.5-6.14,1.9
					C101.95,223.81,99.89,225.95,99.7,228.6z"/>
				<path class="st34" d="M99.28,213.44c-0.38,0.16-0.75-0.43-0.75-0.43s-2.11-4.75-2.84-5.48c-1.3-1.32-4.37-1.2-4.61,2.88
					c-0.19,3.15,3.54,9.88,4.68,11.86c0.17,0.31,0.1,0.73-0.19,0.95c-0.12,0.09-0.28,0.14-0.42,0.16H95.1
					c-0.17,0-0.35-0.05-0.49-0.17c-2.41-2.11-13.02-12.29-4.59-21.86c0,0,6.69,0.43,7.71,3.66c1.02,3.24,1.75,7.61,1.75,7.61
					S99.68,213.27,99.28,213.44z"/>
				<path class="st34" d="M112.2,203.39c0,0-5.86-4.56-14.75,1l-7.28-1.86c0,0-0.31-0.1-0.15-1.19c0.16-1.09,0.97-11.8,13.72-9.39
					C111.08,193.33,115.57,198.41,112.2,203.39z"/>
			</g>
			<path class="st12" d="M95.07,226.68c0,0-1.06,0.59-2.11,2.17c0,0,1.45,0.65,2.71,1.42c1.15,0.7,6.69,4.61,6.69,4.61l1.63-3.34
				C103.98,231.54,98.2,227.56,95.07,226.68z"/>
			<path class="st12" d="M103.98,231.54c0,0,1.94,0.66,2.53,2.11c0,0,0.99-1.9-0.28-5.28c0,0-1.06-1-1.88-1.36L103.98,231.54z"/>
			<path class="st36" d="M88.59,291.7c0,0,1.03,1.29,1.33,1.46c0.3,0.17,0.36-0.19,0.24-0.44C90.05,292.47,88.63,291.36,88.59,291.7
				z"/>
			<path class="st37" d="M95.16,223.37H95.1c-0.17,0-0.35-0.05-0.49-0.17c-2.41-2.11-13.02-12.29-4.59-21.86
				c0,0-0.42,1.66-0.24,3.05C89.78,204.39,84.41,213.07,95.16,223.37z"/>
			<g>
				<path class="st38" d="M135.34,427.25c0,1.47-15.65,2.66-34.96,2.66c-19.31,0-34.96-1.19-34.96-2.66
					c0-1.47,15.65-2.66,34.96-2.66C119.69,424.59,135.34,425.78,135.34,427.25z"/>
				<path class="st39" d="M83.1,417.1c0.46,1.77,0.28,2.4,0.47,3.55c0.23,1.43,1.54,1.95,2.3,3.12c0.84,1.29,2.15,3.36-2.98,3.47
					c-5.5,0.11-8.75-0.27-7.82-3.38c0.93-3.1,1.11-4.47,1.05-5.49c-0.06-1.01,0-2.07,0.62-2.68
					C77.36,415.09,82.29,413.99,83.1,417.1z"/>
				<path class="st12" d="M84.26,318.34c0,0-8.67-13.84,3.64-33.12c0,0,9.6,4.3,17.28,4.81c6.05,0.41,9.12-0.22,9.12-0.22
					s0.51,18.54,0.53,28.53H84.26z"/>
				<g>
					<g>
						<path class="st12" d="M90.11,358.57c2.37-10.01-7.48-11.77-10.59-4.53c-4.4,10.24-4.05,55.22-3.81,61.75
							c0.03,0.86,0.48,0.7,0.96,0.52c1.4-0.51,2.58-0.71,3.13-0.59c1.08,0.23,3.23,1.35,3.23,1.35
							C83.96,408.17,87.81,368.26,90.11,358.57z"/>
						<path class="st12" d="M98.96,319.69c1.04-12.43-3.7-22.09-11.14-17.98c-3.13,1.73-4.27,5.18-4.69,8.44
							c-0.42,3.25-2.72,37.08-3.53,43.19c-1.82,13.78,8.67,10.07,9.8,6.25C92.28,349.94,98.4,326.46,98.96,319.69z"/>
					</g>
				</g>
				<path class="st12" d="M116.47,357.93c0.39-9.33-7.41-8.79-10.56-1.54c-6.8,15.66,0.05,49,1.45,64.73
					c1.52-2.53,4.41-3.39,5.09-3.34c1.1,0.08,1.7,0.95,1.7,0.95C113.92,399.44,116.05,367.9,116.47,357.93z"/>
				<path class="st12" d="M106.26,358.94c1.16,3.81,11.18,8.22,10.14-5.65c-0.46-6.15-1.7-40.11-1.94-43.38
					c-0.24-3.27-0.79-8.06-2.37-8.66c-7.91-2.99-15.58,6.78-13.5,19.07C99.97,328.54,103.85,351.04,106.26,358.94z"/>
				<path class="st40" d="M114.15,418.73c-0.22-19.29,1.91-50.83,2.32-60.81c0.03-0.62,0.01-1.19-0.03-1.72
					c0.04-0.87,0.04-1.83-0.05-2.91c-0.09-1.25-0.22-3.67-0.36-6.73l-14.26-39.74l-3.01,14.55c1.4,8.24,4.63,26.81,6.94,35.59
					c-6.42,15.88,0.27,48.61,1.65,64.16c1.52-2.53,4.41-3.39,5.09-3.34C113.55,417.86,114.15,418.73,114.15,418.73z"/>
				<path class="st39" d="M114.12,419.02c0.42,0.81,2.4,2.67,5.16,3.91c2.75,1.23,8.59,1.81,5.35,2.89
					c-3.24,1.08-7.02,0.43-8.94,0.12c-1.91-0.31-3.77-0.35-6.03-0.36c-2.98-0.02-3-0.2-2.6-3.56
					C107.61,417.38,112.78,416.4,114.12,419.02z"/>
			</g>
			<path class="st31" d="M86.25,288.94l1.53,2.15c0,0,2.74-0.43,4.04,2.11c1.29,2.53-3.28,5.71-4.59,4.54
				c-1.3-1.17-4.13-6.58-4.13-6.58L86.25,288.94z"/>
			<path class="st32" d="M74.82,282.11c4.13,4.17,8.47,10.03,8.47,10.03l0.79-0.53l3.02-2.05c0,0-6.2-12.98-7.96-19.31
				c-0.85-3.08-2.32-5.57-3.65-7.36c0.12-0.11,0.23-0.23,0.35-0.35c4.49-4.78,7.99-10.95,10.66-14.73c1.29-1.83,2.17-3.92,2.55-6.09
				c0.26-1.48,0.28-2.99,0.04-4.49c-0.38-2.37-1.38-4.55-3.67-5.11c-0.86-0.21-1.74-0.13-2.52,0.19c-0.87,0.35-1.64,0.99-2.16,1.83
				c-3.5,5.66-13.42,21-14.98,24.78c-0.27,0.66-0.45,1.31-0.53,1.94c-0.05,0.21-0.08,0.42-0.11,0.66
				C64.53,267.72,70.69,277.94,74.82,282.11z"/>
			<path class="st6" d="M74.82,282.11c4.13,4.17,8.47,10.03,8.47,10.03l0.79-0.53c0,0-4.55-6.34-6.7-8.9
				c-3.29-3.93-5.61-7-7.57-10.6c-1.96-3.61-2.89-10.56-1.85-12.52c1.03-1.95,6.83-10.58,8.08-12.24
				c1.24-1.65,11.43-11.81,8.5-14.64c-0.47-0.45-1.13-0.44-1.64-0.41c-0.87,0.35-1.64,0.99-2.16,1.83
				c-3.5,5.66-13.42,21-14.98,24.78c-0.27,0.66-0.45,1.31-0.53,1.94c-0.05,0.21-0.08,0.42-0.11,0.66
				C64.53,267.72,70.69,277.94,74.82,282.11z"/>
			<path class="st12" d="M91.04,291.21c0,0-1.4,4.94-7.62,7.77c-5.36,2.45,8.59,3.85,8.9,3.3c0.31-0.54,2.99-9.55,2.99-9.55
				L91.04,291.21z"/>
		</g>
		<g>
			<path class="st38" d="M502.93,427.25c0,1.47-21.08,2.66-47.08,2.66c-26,0-47.08-1.19-47.08-2.66c0-1.47,21.08-2.66,47.08-2.66
				C481.86,424.59,502.93,425.78,502.93,427.25z"/>
			<path id="XMLID_39_" class="st41" d="M421.72,249.7c0,0,11.91,10.42,20.82,11.48c8.91,1.06,23.94-15.85,23.94-15.85
				s-0.95-9.01-6.5-7.95c-5.56,1.06-13.01,14.45-16.24,15.08c-3.23,0.63-20.01-6.49-20.01-6.49s-0.48,0.34-1.04,1.28
				C422.1,248.27,421.72,249.7,421.72,249.7z"/>
			<g>
				<path class="st42" d="M406.58,256.5L406.58,256.5c-14.02,0-25.38-11.36-25.38-25.38l0,0c0-14.02,11.36-25.38,25.38-25.38l0,0
					c14.02,0,25.38,11.36,25.38,25.38l0,0C431.95,245.14,420.59,256.5,406.58,256.5z"/>
				<text transform="matrix(1 0 0 1 387.7616 239.1628)" class="st43 st44 st45">CSS</text>
			</g>
			<g>
				<path class="st31" d="M401.12,252.03c-1.48-0.52-14.31-4.78-14.03-2.11c0.31,2.95,4.67,5.5,6.3,5.97
					c2.91,0.84,7.49,0.2,8.58-1.34C402.75,253.46,402.53,252.52,401.12,252.03z"/>
				<path class="st31" d="M399.64,250.48c-0.51-0.51-3.58-3.51-4.18-2.97c-0.92,0.81,0.99,2.88,2.25,4.25
					c0.68,0.74,2.1,1.29,2.63,0.66C400.87,251.8,400.46,251.3,399.64,250.48z"/>
			</g>
			<g>
				<path class="st39" d="M483.09,418.61c-0.44,1.61,0.68,1.85,0.51,2.9c-0.21,1.3-2.41,2.12-3.13,3.19
					c-0.79,1.18-2.04,2.89,2.83,2.98c5.21,0.1,8.29-0.06,7.41-2.9c-0.88-2.84-1.05-4.09-1-5.01c0.06-0.93,0-1.89-0.59-2.44
					C488.54,416.78,483.86,415.78,483.09,418.61z"/>
				<path class="st39" d="M430.81,419.24c-0.47,0.87-2.7,2.9-5.8,4.23c-3.09,1.33-9.66,1.96-6.01,3.13
					c3.64,1.17,7.9,0.46,10.05,0.13c2.15-0.33,4.24-0.38,6.78-0.39c3.35-0.02,3.37-0.22,2.92-3.86
					C438.13,417.47,432.32,416.41,430.81,419.24z"/>
				<path class="st32" d="M477.02,327c0,0,10.8-15.51-0.67-32.13l-28.53-2.41c0,0-3.82,18.14-5.57,29.08L477.02,327z"/>
				<g>
					<g>
						<path class="st32" d="M464.97,373.97c-4.53-10.49,6.32-14.3,11.18-6.98c6.88,10.36,12.51,43.62,13.45,50.8
							c0.12,0.94,0.48,2.07,0.06,2.47c-0.79,0.76-2.67,1.06-3.46,1.17c-1.26,0.17-2.49,0.38-2.87-1.14
							C480.72,410.01,469.36,384.13,464.97,373.97z"/>
						<path class="st32" d="M460.08,325.85c0.96-13.81,8.01-23.54,15.76-17.71c3.26,2.45,3.97,6.44,3.88,10.08
							c-0.08,3.64-3.29,41.11-3.42,47.95c-0.3,15.42-11.59,9.48-12.22,5.09C462.47,360.2,459.55,333.38,460.08,325.85z"/>
					</g>
				</g>
				<path class="st32" d="M438.84,421.56c1.63-16.17,9.99-43.78,7.01-57.29c-1.9-8.58-11.93-9.55-12.25,0.8
					c-0.34,11.07,0.36,32.37-2.36,53.6C430.97,420.75,438.62,423.44,438.84,421.56z"/>
				<path class="st32" d="M445.03,367.55c-1.98,3.97-14.13,7.01-10.55-8c1.59-6.66,8.84-43.64,9.67-47.19
					c0.84-3.54,2.28-8.69,4.18-9.06c9.51-1.86,16.55,10.21,12.07,23.31C457.4,335.37,449.13,359.33,445.03,367.55z"/>
				<path class="st46" d="M486.2,421.44c0.79-0.11,2.67-0.41,3.46-1.17c0.42-0.4,0.06-1.53-0.06-2.47
					c-0.93-7.15-6.52-40.11-13.35-50.64c0.02-0.32,0.04-0.64,0.04-0.98c0.02-1.22,0.15-3.42,0.33-6.22l-14.68-37.75l-1.93,6.24v0
					c0.07,9.82,2.6,32.78,4.05,42.82c0.04,0.25,0.11,0.5,0.21,0.75c0.17,0.62,0.39,1.27,0.69,1.95
					c4.39,10.16,15.75,36.04,18.36,46.33C483.71,421.82,484.94,421.61,486.2,421.44z"/>
			</g>
			<path id="XMLID_38_" class="st31" d="M462.25,198.36c-3.26-3.73-8.08-4.13-11.8-3.72c-4.88,0.54-9.13,3.83-10.54,8.54
				c-0.61,2.03-0.73,4.41,0.22,7.03c3.04,8.38,6.21,13.73,9.18,15.32c1.13,0.61,3.29,0.2,5.6-0.61c0.3-0.11,0.64,0.02,0.79,0.3
				l0.97,1.82l8.58-1.85c0,0-1.1-2.39-1.69-4.9C464.82,218.73,468.22,205.19,462.25,198.36z"/>
			<path id="XMLID_37_" class="st47" d="M444.92,210.32c1.07-0.08,2.08,0.48,2.49,1.46c0.71,1.68,1.79,4.02,2.65,4.79
				c0.18,0.16,0.56,0.21,0.94,0.01c0.38-0.2,0.45-0.52,0.43-0.73c-0.07-0.72-0.61-2.3-0.99-3.34c-0.49-1.34,0.09-2.76,1.69-3.11
				c0.29-0.06,1.02-0.03,1.39,0.09c2.53,0.77,0.79,4.74,0.74,6.82c-0.04,1.46,1.72,4.86,2.49,5.16c2.55,1,6.41,0.1,8.45-2.43
				c2.05-2.53,2.49-10.98,1.37-16.04c-1.12-5.06-5.17-7.91-6.5-8.24c-0.66-0.16-1.21-0.16-1.59-0.12c-0.41,0.04-0.81-0.1-1.12-0.36
				c-1.35-1.17-5.37-3.85-11.75-1.1c-7.95,3.43-9.29,10.77-9.14,14.09c0.09,2.16,1.79,2,2.97,1.62c0.65-0.21,1.35-0.04,1.87,0.4
				C441.99,209.85,443.14,210.46,444.92,210.32z"/>
			<path id="XMLID_36_" class="st48" d="M456.42,228.42c0,0-0.74-0.82-0.46-1.32c0.35-0.62,4.11-3.6,8.5-3.44
				c0.68,0.02,1.52,0.02,2.34,1.81c0.82,1.78,1.01,2.96,1.01,2.96H456.42z"/>
			<path id="XMLID_35_" class="st48" d="M476.36,294.87c-4.76,2.57-6.95,1.37-13.78,0.97c-11.94-0.7-14.75-3.38-14.75-3.38
				c0.68-0.36,2.58-12.41,2.14-27.36c-0.09-3.1-0.05-10.04-1.59-12.73c-0.85-1.48-3.36-4.48-4.94-7.64
				c-1.29-2.6-1.97-5.31-0.55-7.38c3.51-5.16,9.06-7.91,9.06-7.91s10.17-4.08,18.84-3.15c5.5,0.58,10.39,3.17,11.7,10.09
				C485.86,254.2,476.36,294.87,476.36,294.87z"/>
			<path id="XMLID_32_" class="st48" d="M451.57,234.24c-1.24-0.75-4.97-2.83-9.79,4.68c-4.82,7.51-8.67,13.15-10.36,14.16
				c-1.69,1.01-5.83,0.29-7.32,0.29c-1.49,0-23.36-1.71-23.36-1.71s-1.48,1.68-1.23,4.21c0,0,20.03,5.25,32.45,5.3
				c12.42,0.05,21.86-18.74,22.29-21C454.69,237.91,454.52,236.05,451.57,234.24z"/>
			<path id="XMLID_5_" class="st31" d="M450.4,211.37l1.3,4.16c0,0,1.01,0.98,1.99-0.14c0.98-1.12,1.82-5.02,0.04-5.67
				C451.94,209.06,450.85,209.98,450.4,211.37z"/>
			<path class="st47" d="M444.92,210.32c0,0-3.52,1.1-7.45-0.49c-3.94-1.59-7.22-7.88-7.22-7.88s1.26,0.71,2.41,0.44
				c0,0-1.86-0.93-2.41-3.17c0,0,6.95,2.24,9.52-1.7c2.57-3.94,9.62-4.48,9.62-4.48L444.92,210.32z"/>
			<path class="st49" d="M448.57,249.05c-0.65,0.3-0.68,1.56-0.81,2.37c0.36,0.51,0.41,0.59,0.61,0.95
				c1.54,2.69,1.5,9.63,1.59,12.73c0.43,14.95-1.46,26.99-2.14,27.36c0,0,0.34,0.32,1.26,0.76c1.77-6.21,3.37-19.86,3.48-25.01
				C452.72,260.28,449.89,248.43,448.57,249.05z"/>
		</g>
		<g>
			<path class="st11" d="M241.6,318.03H114.55c-1.72,0-3.11-1.39-3.11-3.11v-25.09c0-1.72,1.39-3.11,3.11-3.11H241.6
				c1.72,0,3.11,1.39,3.11,3.11v25.09C244.71,316.64,243.32,318.03,241.6,318.03z"/>
			<linearGradient id="SVGID_8_" gradientUnits="userSpaceOnUse" x1="241.9868" y1="298.9766" x2="158.1005" y2="299.1586">
				<stop  offset="0" style="stop-color:#FF6E3A"/>
				<stop  offset="0.9826" style="stop-color:#FFB846"/>
			</linearGradient>
			<path class="st50" d="M239.37,314.77H112.32c-1.72,0-3.11-1.39-3.11-3.11v-25.09c0-1.72,1.39-3.11,3.11-3.11h127.05
				c1.72,0,3.11,1.39,3.11,3.11v25.09C242.48,313.38,241.09,314.77,239.37,314.77z"/>
			<g>
				<path class="st12" d="M226.64,304.46h-101.6c-2.95,0-5.34-2.39-5.34-5.34l0,0c0-2.95,2.39-5.34,5.34-5.34h101.6
					c2.95,0,5.34,2.39,5.34,5.34l0,0C231.98,302.07,229.59,304.46,226.64,304.46z"/>
				<circle class="st12" cx="220.14" cy="299.12" r="11.84"/>
				<line class="st51" x1="125.94" y1="296.67" x2="125.94" y2="301.61"/>
				<g>
					<path class="st52" d="M223.25,298.53c0,2.12-1.72,3.84-3.85,3.84c-2.12,0-3.84-1.72-3.84-3.84c0-2.12,1.72-3.84,3.84-3.84
						C221.53,294.69,223.25,296.41,223.25,298.53z"/>
					<line class="st53" x1="224.71" y1="303.55" x2="222.1" y2="301.28"/>
				</g>
			</g>
		</g>
	</g>
</g>
<g id="DESIGNED_BY_FREEPIK">
	<g>
		<g id="XMLID_1_">
			<g id="XMLID_21_">
				<path id="XMLID_29_" class="st54" d="M301.1,462.68c-0.43,0.44-0.8,0.93-1.11,1.45l-0.47-0.24c-0.07-0.3-0.35-0.5-0.66-0.47
					c-0.33,0.04-0.57,0.34-0.53,0.67c0.04,0.33,0.34,0.57,0.67,0.53c0.07-0.01,0.13-0.03,0.18-0.05l0.45,0.23
					c-0.25,0.55-0.43,1.14-0.54,1.74l0.75,0.13c0.23-1.31,0.85-2.51,1.79-3.47L301.1,462.68z"/>
				<path id="XMLID_28_" class="st54" d="M306.59,460.37c-0.17,0-0.34,0.01-0.51,0.02l-0.07-0.63c0.19-0.15,0.3-0.39,0.27-0.64
					c-0.05-0.39-0.4-0.67-0.79-0.63c-0.39,0.05-0.67,0.4-0.63,0.8c0.03,0.25,0.19,0.46,0.41,0.56l0.07,0.62
					c-0.71,0.12-1.4,0.33-2.06,0.65l0.33,0.68c0.93-0.45,1.94-0.67,3-0.67c0.5,0,0.99,0.05,1.47,0.16l0.16-0.74
					C307.69,460.43,307.14,460.37,306.59,460.37z"/>
				<path id="XMLID_27_" class="st54" d="M313.19,462.92c0.33-0.04,0.57-0.34,0.53-0.67c-0.04-0.33-0.34-0.57-0.67-0.53
					c-0.31,0.04-0.54,0.3-0.53,0.61l-0.42,0.36c-0.42-0.43-0.89-0.81-1.41-1.14l-0.4,0.64c1.13,0.71,2.02,1.73,2.56,2.93l0.69-0.31
					c-0.25-0.55-0.57-1.07-0.94-1.54l0.4-0.35C313.06,462.93,313.13,462.93,313.19,462.92z"/>
				<path id="XMLID_26_" class="st54" d="M306.04,470.58c-0.39,0.02-0.77,0.03-1.16,0.03c-0.88,0-1.73-0.06-2.48-0.18
					c-0.39-0.06-0.85-0.16-1.27-0.29c1.05,1.86,3.07,3.13,5.39,3.13c2.86,0,5.26-1.92,5.95-4.5c-0.68,0.45-1.51,0.83-2.46,1.12
					C308.84,470.26,307.46,470.5,306.04,470.58z"/>
				<path id="XMLID_22_" class="st54" d="M306.59,461.89c-3.35,0-6.08,2.67-6.08,5.94c0,0.43,0.05,0.85,0.14,1.26
					c0.67,0.48,2.71,0.89,5.35,0.73c2.88-0.17,5.3-0.96,6.67-2.16c0-0.2-0.02-0.39-0.04-0.58
					C312.24,464.12,309.65,461.89,306.59,461.89z M304.43,468.4c-1.02,0-1.85-0.83-1.85-1.85c0-1.02,0.83-1.85,1.85-1.85
					c1.02,0,1.85,0.83,1.85,1.85C306.28,467.57,305.45,468.4,304.43,468.4z M309.17,467.5c-0.75,0-1.36-0.61-1.36-1.36
					s0.61-1.36,1.36-1.36s1.36,0.61,1.36,1.36S309.92,467.5,309.17,467.5z"/>
			</g>
			<path id="XMLID_19_" class="st54" d="M322.6,463.76c-0.29-0.12-0.81-0.31-1.38-0.24c-0.55,0.07-0.84,0.34-0.84,1.01v0.87h2.23
				v1.72h-2.23v5.45h-1.93v-5.45h-1.34v-1.72h1.34v-0.89c0-1.68,0.9-2.78,2.57-2.78c0.64,0,1.16,0.12,1.59,0.31V463.76z"/>
			<path id="XMLID_17_" class="st54" d="M327.3,467.09c-0.18-0.03-0.36-0.05-0.53-0.05c-0.9,0-1.51,0.55-1.51,1.61v3.91h-1.93v-7.17
				h1.87v0.79c0.45-0.67,1.14-0.98,2.02-0.98c0.41,0,0.85,0.13,1.09,0.34L327.3,467.09z"/>
			<path id="XMLID_14_" class="st54" d="M334.96,468.97c0,0.22-0.01,0.49-0.04,0.65h-5.08c0.21,1.04,0.93,1.49,1.84,1.49
				c0.62,0,1.29-0.25,1.81-0.69l1.13,1.24c-0.81,0.75-1.85,1.09-3.06,1.09c-2.2,0-3.72-1.5-3.72-3.75c0-2.26,1.48-3.8,3.63-3.8
				C333.54,465.2,334.96,466.73,334.96,468.97z M329.85,468.3h3.17c-0.18-0.92-0.73-1.44-1.56-1.44
				C330.55,466.86,330.02,467.41,329.85,468.3z"/>
			<path id="XMLID_11_" class="st54" d="M342.62,468.97c0,0.22-0.01,0.49-0.04,0.65h-5.08c0.21,1.04,0.93,1.49,1.84,1.49
				c0.62,0,1.3-0.25,1.81-0.69l1.13,1.24c-0.81,0.75-1.85,1.09-3.06,1.09c-2.2,0-3.72-1.5-3.72-3.75c0-2.26,1.48-3.8,3.63-3.8
				C341.2,465.2,342.61,466.73,342.62,468.97z M337.5,468.3h3.18c-0.18-0.92-0.73-1.44-1.56-1.44
				C338.21,466.86,337.67,467.41,337.5,468.3z"/>
			<path id="XMLID_8_" class="st54" d="M350.96,468.97c0,2.15-1.5,3.77-3.47,3.77c-0.96,0-1.64-0.38-2.11-0.93v3.71h-1.92v-10.13
				h1.89v0.79c0.47-0.58,1.15-0.98,2.14-0.98C349.47,465.2,350.96,466.82,350.96,468.97z M345.29,468.97c0,1.13,0.75,1.98,1.84,1.98
				c1.14,0,1.85-0.88,1.85-1.98c0-1.1-0.71-1.98-1.85-1.98C346.04,467,345.29,467.84,345.29,468.97z"/>
			<path id="XMLID_4_" class="st54" d="M354.07,463.05c0,0.7-0.54,1.23-1.24,1.23c-0.7,0-1.23-0.53-1.23-1.23
				c0-0.7,0.53-1.24,1.23-1.24C353.53,461.8,354.07,462.35,354.07,463.05z M353.81,472.56h-1.93v-7.17h1.93V472.56z"/>
			<path id="XMLID_2_" class="st54" d="M357.03,467.95l2.7-2.55h2.37l-3.48,3.38l3.5,3.8h-2.38l-2.72-2.9v2.9h-1.93v-10.66h1.93
				V467.95z"/>
		</g>
		<g>
			<path class="st54" d="M225.41,472.5v-1.05c-0.53,0.72-1.39,1.23-2.39,1.23c-1.85,0-3.15-1.41-3.15-3.71
				c0-2.26,1.29-3.72,3.15-3.72c0.95,0,1.82,0.47,2.39,1.25v-3.76h1.1v9.77H225.41z M225.41,470.58v-3.21
				c-0.4-0.62-1.25-1.14-2.12-1.14c-1.42,0-2.27,1.17-2.27,2.74c0,1.57,0.85,2.72,2.27,2.72
				C224.17,471.69,225.02,471.2,225.41,470.58z"/>
			<path class="st54" d="M227.93,468.95c0-2.05,1.46-3.71,3.49-3.71c2.14,0,3.4,1.67,3.4,3.79v0.28h-5.73
				c0.09,1.33,1.03,2.45,2.55,2.45c0.81,0,1.63-0.32,2.18-0.89l0.53,0.72c-0.7,0.7-1.66,1.08-2.81,1.08
				C229.44,472.67,227.93,471.17,227.93,468.95z M231.4,466.16c-1.51,0-2.26,1.27-2.31,2.36h4.64
				C233.72,467.46,233.01,466.16,231.4,466.16z"/>
			<path class="st54" d="M235.61,471.56l0.57-0.79c0.47,0.54,1.36,1.01,2.33,1.01c1.08,0,1.67-0.51,1.67-1.22
				c0-1.71-4.38-0.66-4.38-3.28c0-1.1,0.95-2.04,2.64-2.04c1.2,0,2.05,0.45,2.62,1.03l-0.51,0.76c-0.42-0.51-1.2-0.89-2.11-0.89
				c-0.97,0-1.57,0.48-1.57,1.11c0,1.55,4.38,0.53,4.38,3.28c0,1.19-0.95,2.14-2.78,2.14C237.31,472.67,236.32,472.32,235.61,471.56
				z"/>
			<path class="st54" d="M242.48,463.68c0-0.41,0.34-0.75,0.73-0.75c0.41,0,0.75,0.34,0.75,0.75c0,0.41-0.34,0.73-0.75,0.73
				C242.81,464.41,242.48,464.09,242.48,463.68z M242.67,472.5v-7.08h1.1v7.08H242.67z"/>
			<path class="st54" d="M245.58,474.32l0.56-0.82c0.59,0.7,1.29,0.97,2.3,0.97c1.17,0,2.27-0.57,2.27-2.12v-1.01
				c-0.51,0.72-1.38,1.26-2.37,1.26c-1.85,0-3.15-1.38-3.15-3.66c0-2.27,1.29-3.68,3.15-3.68c0.95,0,1.8,0.47,2.37,1.25v-1.07h1.1
				v6.87c0,2.34-1.64,3.08-3.37,3.08C247.24,475.37,246.42,475.14,245.58,474.32z M250.71,470.46v-3.09
				c-0.38-0.62-1.23-1.14-2.11-1.14c-1.42,0-2.27,1.13-2.27,2.7c0,1.55,0.85,2.7,2.27,2.7
				C249.48,471.62,250.33,471.08,250.71,470.46z"/>
			<path class="st54" d="M258.41,472.5v-4.63c0-1.25-0.63-1.64-1.58-1.64c-0.86,0-1.68,0.53-2.09,1.1v5.17h-1.1v-7.08h1.1v1.03
				c0.5-0.59,1.46-1.2,2.52-1.2c1.48,0,2.26,0.75,2.26,2.29v4.97H258.41z"/>
			<path class="st54" d="M260.93,468.95c0-2.05,1.46-3.71,3.49-3.71c2.14,0,3.4,1.67,3.4,3.79v0.28h-5.73
				c0.09,1.33,1.03,2.45,2.55,2.45c0.81,0,1.63-0.32,2.18-0.89l0.53,0.72c-0.7,0.7-1.66,1.08-2.81,1.08
				C262.44,472.67,260.93,471.17,260.93,468.95z M264.4,466.16c-1.51,0-2.26,1.27-2.31,2.36h4.64
				C266.72,467.46,266.02,466.16,264.4,466.16z"/>
			<path class="st54" d="M274.35,472.5v-1.05c-0.53,0.72-1.39,1.23-2.39,1.23c-1.85,0-3.15-1.41-3.15-3.71
				c0-2.26,1.29-3.72,3.15-3.72c0.95,0,1.82,0.47,2.39,1.25v-3.76h1.1v9.77H274.35z M274.35,470.58v-3.21
				c-0.4-0.62-1.24-1.14-2.12-1.14c-1.42,0-2.27,1.17-2.27,2.74c0,1.57,0.85,2.72,2.27,2.72
				C273.11,471.69,273.95,471.2,274.35,470.58z"/>
			<path class="st54" d="M280.69,472.5v-9.77h1.1v3.76c0.57-0.78,1.42-1.25,2.39-1.25c1.85,0,3.15,1.46,3.15,3.72
				c0,2.3-1.3,3.71-3.15,3.71c-1,0-1.86-0.51-2.39-1.23v1.05H280.69z M283.9,471.69c1.44,0,2.29-1.16,2.29-2.72
				c0-1.57-0.85-2.74-2.29-2.74c-0.86,0-1.73,0.53-2.11,1.14v3.21C282.17,471.2,283.04,471.69,283.9,471.69z"/>
			<path class="st54" d="M288.53,474.27c0.16,0.07,0.43,0.12,0.6,0.12c0.48,0,0.81-0.16,1.05-0.75l0.47-1.07l-2.96-7.15h1.19
				l2.36,5.8l2.34-5.8h1.2l-3.54,8.51c-0.42,1.03-1.14,1.42-2.08,1.44c-0.23,0-0.6-0.04-0.81-0.1L288.53,474.27z"/>
		</g>
	</g>
</g>
</svg>
