<?xml version="1.0" encoding="utf-8"?>
<!-- Generator: Adobe Illustrator 23.0.2, SVG Export Plug-In . SVG Version: 6.00 Build 0)  -->
<svg version="1.1" xmlns="http://www.w3.org/2000/svg" xmlns:xlink="http://www.w3.org/1999/xlink" x="0px" y="0px"
	 viewBox="0 0 530.81 500" style="enable-background:new 0 0 530.81 500;" xml:space="preserve">
<style type="text/css">
	.st0{fill:#D5DBDA;}
	.st1{fill:#FFFFFF;}
	.st2{fill:#EFEFEF;}
	.st3{fill:#FFD04D;}
	.st4{fill:#00BFD8;}
	.st5{opacity:0.15;}
	.st6{opacity:0.26;}
	.st7{opacity:0.62;}
	.st8{fill:#66341B;}
	.st9{fill:#723E24;}
	.st10{opacity:0.3;}
	.st11{fill:#E8F6F7;}
	.st12{fill:#D0E0E2;}
	.st13{fill:#FFE1BD;}
	.st14{fill:#F4F4F4;}
	.st15{fill:#EAEAEA;}
	.st16{fill:#3A3A3A;}
	.st17{fill:#E2E2E2;}
	.st18{fill:#F4D5B5;}
	.st19{fill:#632F00;}
	.st20{fill:#E8C5A0;}
	.st21{fill:#8C4200;}
	.st22{fill:#606060;}
	.st23{fill:#E5BB98;}
	.st24{fill:#D8D8D8;}
	.st25{fill:#09424C;}
	.st26{fill:#0C5A71;}
	.st27{opacity:0.1;}
	.st28{fill:#0B0B3A;}
	.st29{opacity:0.39;fill:#CE9006;}
	.st30{fill:#D69507;}
	.st31{fill:#EFAF11;}
	.st32{fill:#CE9006;}
	.st33{fill:#FAFEFF;}
	.st34{fill:#B4EFF9;}
	.st35{fill:#75D9EF;}
	.st36{opacity:0.5;}
	.st37{fill:#282C2D;}
	.st38{fill:#D6D6D6;}
	.st39{fill:#525252;}
	.st40{fill:#A5A5AF;}
	.st41{fill:#F1F2F2;}
	.st42{fill:#A7A9AC;}
	.st43{fill:#383838;}
	.st44{fill:#E6E7E8;}
	.st45{fill:#58595B;}
	.st46{fill:#594A42;}
	.st47{fill:#81553A;}
	.st48{opacity:0.55;fill:#EFAF11;}
	.st49{fill:#709E3E;}
	.st50{fill:#93BC6C;}
	.st51{fill:#4C2311;}
	.st52{fill:#1A1A47;}
	.st53{opacity:0.54;fill:#3D3D72;}
	.st54{clip-path:url(#SVGID_2_);}
	.st55{fill:#E1EDF9;}
	.st56{fill:#C2E0F2;}
	.st57{fill:#FFD19F;}
	.st58{fill:#006466;}
	.st59{fill:#007D87;}
	.st60{opacity:0.18;fill:#00B3B7;}
	.st61{opacity:0.45;fill:#00B3B7;}
	.st62{fill:#3D3D72;}
	.st63{fill:#33305B;}
</style>
<g id="BACKGROUND">
</g>
<g id="OBJECTS">
	<g>
		<g>
			<g>
				<g>
					<g>
						<g>
							<rect x="178.73" y="29.38" class="st0" width="327.34" height="193.36"/>
						</g>
					</g>
				</g>
				<g>
					<g>
						<g>
							<rect x="187.82" y="33.17" class="st1" width="309.17" height="185.79"/>
						</g>
					</g>
				</g>
				<g>
					<g>
						<g>
							<rect x="210.48" y="41.76" class="st2" width="261.72" height="12.41"/>
						</g>
					</g>
				</g>
				<g>
					<g>
						<g>
							<g>
								<rect x="219.99" y="159.83" class="st3" width="14.24" height="35.74"/>
							</g>
						</g>
					</g>
					<g>
						<g>
							<g>
								<rect x="252.07" y="128.46" class="st4" width="14.24" height="67.11"/>
							</g>
						</g>
					</g>
					<g>
						<g>
							<g>
								<rect x="284.15" y="135.39" class="st3" width="14.24" height="60.17"/>
							</g>
						</g>
					</g>
					<g>
						<g>
							<g>
								<rect x="316.23" y="101.42" class="st4" width="14.24" height="94.15"/>
							</g>
						</g>
					</g>
					<g class="st5">
						<g>
							<g>
								<rect x="252.07" y="128.46" class="st6" width="6.53" height="67.11"/>
							</g>
						</g>
					</g>
					<g class="st5">
						<g>
							<g>
								<rect x="219.99" y="159.83" class="st6" width="6.53" height="35.74"/>
							</g>
						</g>
					</g>
					<g class="st7">
						<g>
							<g>
								<rect x="316.23" y="101.42" class="st6" width="6.53" height="94.15"/>
							</g>
						</g>
					</g>
					<g class="st5">
						<g>
							<g>
								<rect x="284.15" y="135.39" class="st6" width="6.53" height="60.17"/>
							</g>
						</g>
					</g>
					<g>
						<g>
							<g>
								<polygon class="st0" points="337.99,205.4 210.59,205.4 210.59,69.74 212.53,69.74 212.53,203.46 337.99,203.46 								"/>
							</g>
						</g>
					</g>
					<g>
						<g>
							<g>
								<polygon class="st0" points="223.68,143.09 222.38,141.65 255.71,111.72 286.58,118.43 320,81.21 321.45,82.51 
									287.27,120.56 256.27,113.83 								"/>
							</g>
						</g>
					</g>
					<g>
						<g>
							<g>
								<polygon class="st0" points="324.07,88.01 314.64,78.97 326.81,75.72 								"/>
							</g>
						</g>
					</g>
					<g>
						<g>
							<g>
								<g>
									<rect x="350.06" y="151.32" class="st4" width="11.95" height="11.95"/>
								</g>
							</g>
						</g>
						<g>
							<g>
								<g>
									<rect x="350.06" y="172.25" class="st3" width="11.95" height="11.95"/>
								</g>
							</g>
						</g>
						<g>
							<g>
								<g>
									<rect x="365.3" y="177.41" class="st2" width="37.87" height="6.79"/>
								</g>
							</g>
						</g>
						<g>
							<g>
								<g>
									<rect x="365.3" y="156.48" class="st2" width="37.87" height="6.79"/>
								</g>
							</g>
						</g>
					</g>
					<g>
						<g>
							<g>
								<g>
									<rect x="420.32" y="151.32" class="st4" width="11.95" height="11.95"/>
								</g>
							</g>
						</g>
						<g>
							<g>
								<g>
									<rect x="420.32" y="172.25" class="st3" width="11.95" height="11.95"/>
								</g>
							</g>
						</g>
						<g>
							<g>
								<g>
									<rect x="435.55" y="177.41" class="st2" width="37.87" height="6.79"/>
								</g>
							</g>
						</g>
						<g>
							<g>
								<g>
									<rect x="435.55" y="156.48" class="st2" width="37.87" height="6.79"/>
								</g>
							</g>
						</g>
					</g>
					<g>
						<g>
							<g>
								<g>
									<rect x="360.26" y="77.94" class="st2" width="111.95" height="2.55"/>
								</g>
							</g>
						</g>
						<g>
							<g>
								<g>
									<rect x="351.47" y="84.12" class="st2" width="120.74" height="2.55"/>
								</g>
							</g>
						</g>
						<g>
							<g>
								<g>
									<rect x="351.47" y="90.29" class="st2" width="120.74" height="2.55"/>
								</g>
							</g>
						</g>
						<g>
							<g>
								<g>
									<rect x="351.47" y="96.47" class="st2" width="120.74" height="2.55"/>
								</g>
							</g>
						</g>
						<g>
							<g>
								<g>
									<rect x="351.47" y="102.64" class="st2" width="120.74" height="2.55"/>
								</g>
							</g>
						</g>
						<g>
							<g>
								<g>
									<rect x="351.47" y="108.82" class="st2" width="120.74" height="2.55"/>
								</g>
							</g>
						</g>
						<g>
							<g>
								<g>
									<rect x="351.47" y="115" class="st2" width="120.74" height="2.55"/>
								</g>
							</g>
						</g>
						<g>
							<g>
								<g>
									<rect x="351.47" y="121.17" class="st2" width="120.74" height="2.55"/>
								</g>
							</g>
						</g>
						<g>
							<g>
								<g>
									<rect x="368.7" y="127.35" class="st2" width="103.51" height="2.55"/>
								</g>
							</g>
						</g>
					</g>
				</g>
				<g>
					<g>
						<g>
							<g>
								<g>
									<path class="st8" d="M513.09,27.82c0,1.39-1.13,2.52-2.52,2.52H174.23c-1.39,0-2.52-1.13-2.52-2.52l0,0
										c0-1.39,1.13-2.52,2.52-2.52h336.34C511.96,25.3,513.09,26.43,513.09,27.82L513.09,27.82z"/>
								</g>
							</g>
						</g>
					</g>
					<g>
						<g>
							<g>
								<g>
									<path class="st8" d="M513.09,224.31c0,1.39-1.13,2.52-2.52,2.52H174.23c-1.39,0-2.52-1.13-2.52-2.52l0,0
										c0-1.39,1.13-2.52,2.52-2.52h336.34C511.96,221.79,513.09,222.91,513.09,224.31L513.09,224.31z"/>
								</g>
							</g>
						</g>
					</g>
				</g>
			</g>
			<g>
				<g>
					<g>
						<g>
							<g>
								<g>
									<g>
										<path class="st9" d="M122.97,446.15l1.83-97.58h-6.49l1.82,97.58c0.02,0.99,0.66,1.79,1.42,1.79
											C122.31,447.94,122.95,447.14,122.97,446.15z"/>
									</g>
								</g>
							</g>
							<g>
								<g>
									<g>
										<path class="st9" d="M63.32,434.73l37.7-90.02l-6.03-2.4l-34.31,91.37c-0.35,0.93-0.05,1.91,0.66,2.19
											C62.04,436.16,62.93,435.64,63.32,434.73z"/>
									</g>
								</g>
							</g>
							<g>
								<g>
									<g>
										<path class="st9" d="M179.79,434.73l-37.7-90.02l6.03-2.4l34.31,91.37c0.35,0.93,0.05,1.91-0.66,2.19
											C181.06,436.16,180.17,435.64,179.79,434.73z"/>
									</g>
								</g>
							</g>
						</g>
						<g class="st10">
							<g>
								<g>
									<g>
										<path d="M93.94,345.11l3.84,1.52L62.34,435.8c0.4-0.19,0.77-0.57,0.98-1.07l37.7-90.02l-6.03-2.4L93.94,345.11z"/>
									</g>
								</g>
							</g>
							<g>
								<g>
									<g>
										<path d="M118.35,351.14h4.84l-1.81,96.78c0.06,0.01,0.11,0.02,0.17,0.02c0.76,0,1.4-0.8,1.42-1.79l1.83-97.58h-6.49
											L118.35,351.14z"/>
									</g>
								</g>
							</g>
							<g>
								<g>
									<g>
										<path d="M182.43,433.68l-34.31-91.37l-6.03,2.4l0.69,1.66l3.73-1.48l34.11,90.84c0.37,0.22,0.78,0.29,1.14,0.15
											C182.48,435.59,182.77,434.61,182.43,433.68z"/>
									</g>
								</g>
							</g>
						</g>
					</g>
					<g>
						<g>
							<g>
								<g>
									<path class="st11" d="M166.28,353.18c-6.58,5.36-16.34,10.29-41.12,10.78c-32.59,0.64-49.66-3.06-58.92-19.87
										c-15.47-28.07,3.89-118.77,34.42-98.68c25.52,16.8,30.63,70.41,34.01,77.82C138.04,330.64,182.25,340.18,166.28,353.18z"/>
								</g>
							</g>
						</g>
					</g>
					<g>
						<g>
							<g>
								<path class="st12" d="M130.81,357.01c-32.59,0.64-49.66-3.06-58.92-19.87c-10.56-19.16-4.89-67.5,9.48-89.86
									c-18.39,17.05-26.98,75.3-15.13,96.81c9.26,16.81,26.32,20.51,58.92,19.87c24.78-0.49,34.53-5.42,41.12-10.78
									c2.24-1.82,3.3-3.58,3.45-5.27C163.12,352.58,152.98,356.57,130.81,357.01z"/>
							</g>
						</g>
					</g>
				</g>
				<g>
					<g>
						<path class="st13" d="M144.72,142.42c2.23-6.43,4.28-13.18,7.78-9.77c3.67,3.59,3.38,3.16,2.05,8.14
							C153.2,145.78,142.84,147.83,144.72,142.42z"/>
						<path class="st13" d="M148.7,133.24c1.11-3.06,2.92-6.55,4.79-8c1.87-1.45-0.96,3.62-1.63,5.99
							C151.19,133.59,147.77,135.81,148.7,133.24z"/>
					</g>
					<path class="st14" d="M145.7,168.06c2.62-9.82,3.93-22.67,3.93-22.67l-4.9-3.3c0,0-9.98,20.52-15.38,36.1l-27.83-7.14
						l-3.39-0.69l9.05,18.09c0,0,26.8,3.9,28.45,2.98C137.27,190.51,143.03,178.07,145.7,168.06z"/>
					<path class="st15" d="M135.62,191.43c-1.65,0.92-28.45-2.98-28.45-2.98l-9.05-18.09l3.39,0.69c2.5,1.05,6.55,5.1,9.84,9.41
						c2.37,3.11,3.68,4.21,7.27,5.56c5.49,2.06,11.32,3.52,13.51,3.67c3.7,0.25,4.07,0.43,4.86-0.66
						C136.99,189.03,137.27,190.51,135.62,191.43z"/>
					<path class="st14" d="M70.11,224.99c1.73,4.5,2.15,9.42,1.1,14.13c-2.08,9.37,0.29,10,0.29,10s12.7,8.06,23.26,11.35
						c7.57,2.35,14.02,1.96,13.84-6.4l-0.01-0.12c-0.01-0.51-0.03-0.99-0.04-1.47c-0.36-18.78,3.56-19.74,4.52-40.77
						c1-21.57-4.77-33.61-10.48-38.83c-5.72-5.21-13.53-5.4-28.22-1.93c-11.03,2.6-14.67,5.53-14.58,13.69
						c0.03,2.71,0.47,6.01,1.19,10.05C62.81,204.99,67.16,217.32,70.11,224.99z"/>
					<path class="st16" d="M96.76,178.78c0,0,11.45,37.52,9.16,55.49l-4.22,7.67l-4.61-8.37c0,0,3.75-35.93-3.43-54.16L96.76,178.78
						z"/>
					<path class="st17" d="M70.11,224.99c1.73,4.5,2.15,9.42,1.1,14.13c-2.08,9.37,0.29,10,0.29,10s12.7,8.06,23.26,11.35l9.87-0.94
						l3.95-3.1l0.02-2.48c-0.01-0.51-0.03-0.99-0.04-1.47c-2.25,0.21-7.38,0.48-14.9-0.39c-5.81-0.66-11.09-2.32-14.61-3.66
						c-2.57-0.97-4.07-3.62-3.59-6.33c0.64-3.69,1.4-8.99,1.37-13.1c-0.03-4.14-1.94-11.12-3.51-16.17
						c-1.2-3.87-1.6-7.92-1.32-11.95c0.49-6.98-0.01-13.62-0.01-13.62l-7.82-4.24l-4.36,1.62c0.03,2.71,0.47,6.01,1.19,10.05
						C62.81,204.99,67.16,217.32,70.11,224.99z"/>
					<path class="st18" d="M69.95,264.84c-0.9,0.15-3.21-3.91-3.21-3.91l0.97-1.29c0.55-0.73,1.31-1.26,2.18-1.53l0.16-0.05
						c0.78-0.24,1.64,0.04,2.09,0.72c0.66,0.98,1.69,2.11,2.88,2.06h0.02c0.04,0.02,0.08,0.02,0.13,0.02
						C76.21,260.89,70.85,264.7,69.95,264.84z"/>
					<g>
						<path class="st19" d="M105.59,134.31c0,0,0.98,2.74-0.5,4.91l-6.06-8.2l4.22-0.04L105.59,134.31z"/>
						<path class="st13" d="M72.71,145.15c0.27,10.57,9.39,16.7,9.39,16.7l-0.61,9.62l6.15,3.99l4.22,2.73l2.42-5.06l0.33-6.2
							c0.08-1.44,1.12-2.65,2.54-2.95c1.57-0.34,3.76-1.26,6-3.63c0.13-0.14,0.27-0.3,0.38-0.47c0.01-0.01,0.01-0.01,0.01-0.01
							c4-5.45,5.51-26.31-8.18-32.23C81.24,121.5,72.43,134.56,72.71,145.15z"/>
						<path class="st20" d="M88.05,169.69l-0.41,5.77l4.22,2.73l2.42-5.06l0.33-6.2c0.08-1.44,1.12-2.65,2.54-2.95
							c1.57-0.34,3.76-1.26,6-3.63c0.13-0.14,0.27-0.3,0.38-0.47c-0.28,0.16-3.58,2.1-8.61,2.66
							C91.21,162.95,88.32,165.96,88.05,169.69z"/>
						<path class="st21" d="M87.47,148.41c-0.54,0.22-1.05-0.61-1.05-0.61s-2.97-6.66-3.99-7.69c-1.82-1.85-6.13-1.68-6.47,4.04
							c-0.27,4.43,4.96,13.86,6.57,16.64c0.24,0.44,0.15,1.02-0.27,1.34c-0.17,0.12-0.39,0.19-0.58,0.22H81.6
							c-0.24,0-0.49-0.07-0.68-0.24c-3.38-2.97-18.27-17.24-6.45-30.67c0,0,9.39,0.61,10.82,5.13c1.44,4.55,2.46,10.68,2.46,10.68
							S88.03,148.16,87.47,148.41z"/>
						<path class="st21" d="M105.59,134.31c0,0-8.22-6.4-20.69,1.4l-10.22-2.61c0,0-0.43-0.14-0.2-1.67
							c0.23-1.53,1.35-16.55,19.25-13.18C104.02,120.19,110.33,127.32,105.59,134.31z"/>
					</g>
					<path class="st22" d="M97.55,175.59l-0.06,0.49c-0.11,0.93-0.36,1.84-0.73,2.7l0,0l-3.1,0.63l-2.7-2.01l3.1-3.6l0.48,0.12
						c1.11,0.28,2.13,0.84,2.97,1.62L97.55,175.59z"/>
					<path class="st17" d="M81.56,166.99c0,0-1.49,0.83-2.97,3.05c0,0,2.03,0.91,3.8,1.99c1.62,0.99,9.38,6.47,9.38,6.47l2.28-4.69
						C94.05,173.81,85.95,168.21,81.56,166.99z"/>
					<path class="st17" d="M94.05,173.81c0,0,2.72,0.93,3.55,2.96c0,0,1.39-2.66-0.39-7.4c0,0-1.49-1.41-2.64-1.91L94.05,173.81z"/>
					<path class="st23" d="M72.46,258.22c0,0,1.44,1.81,1.87,2.05c0.43,0.24,0.5-0.27,0.34-0.62
						C74.51,259.29,72.52,257.74,72.46,258.22z"/>
					<path class="st19" d="M81.68,162.34H81.6c-0.24,0-0.49-0.07-0.68-0.24c-3.38-2.97-18.27-17.24-6.45-30.67
						c0,0-0.58,2.33-0.34,4.28C74.14,135.71,66.6,147.89,81.68,162.34z"/>
					<g>
						<path class="st24" d="M138.06,448.41c0,2.06-21.96,3.73-49.06,3.73c-27.09,0-49.06-1.67-49.06-3.73
							c0-2.06,21.96-3.73,49.06-3.73C116.09,444.68,138.06,446.35,138.06,448.41z"/>
						<path class="st21" d="M64.76,434.17c0.65,2.48,0.4,3.36,0.65,4.98c0.32,2,2.16,2.73,3.22,4.38c1.17,1.81,3.02,4.72-4.18,4.86
							c-7.71,0.15-12.28-0.38-10.97-4.74c1.31-4.36,1.56-6.28,1.47-7.7c-0.09-1.42,0-2.9,0.87-3.76
							C56.7,431.35,63.62,429.81,64.76,434.17z"/>
						<path class="st16" d="M66.39,295.6c0,0-12.17-19.43,5.11-46.48c0,0,13.47,6.03,24.25,6.76c8.49,0.57,12.8-0.31,12.8-0.31
							s0.72,26.01,0.74,40.03H66.39z"/>
						<g>
							<g>
								<path class="st16" d="M74.59,352.05c3.33-14.04-10.49-16.51-14.85-6.36c-6.17,14.37-5.68,77.48-5.35,86.65
									c0.04,1.2,0.67,0.97,1.34,0.73c1.97-0.71,3.61-0.99,4.39-0.82c1.52,0.32,4.54,1.89,4.54,1.89
									C65.96,421.65,71.37,365.65,74.59,352.05z"/>
								<path class="st16" d="M87.02,297.49c1.46-17.44-5.2-30.99-15.63-25.23c-4.39,2.42-6,7.27-6.58,11.84
									c-0.59,4.57-3.82,52.03-4.95,60.6c-2.55,19.33,12.16,14.12,13.76,8.77C77.64,339.94,86.22,306.99,87.02,297.49z"/>
							</g>
						</g>
						<path class="st16" d="M111.58,351.14c0.55-13.09-10.4-12.33-14.82-2.16c-9.54,21.97,0.07,68.76,2.03,90.82
							c2.14-3.55,6.19-4.76,7.15-4.68c1.55,0.12,2.38,1.34,2.38,1.34C108.01,409.4,111,365.14,111.58,351.14z"/>
						<path class="st16" d="M97.25,352.56c1.63,5.34,15.69,11.53,14.22-7.93c-0.65-8.63-2.39-56.28-2.72-60.87
							c-0.34-4.6-1.1-11.31-3.32-12.14c-11.1-4.19-21.87,9.51-18.95,26.76C88.44,309.91,93.87,341.48,97.25,352.56z"/>
						<path class="st21" d="M108.28,436.86c0.58,1.13,3.37,3.75,7.24,5.48c3.86,1.72,12.05,2.54,7.5,4.05
							c-4.55,1.52-9.85,0.6-12.54,0.17c-2.68-0.43-5.29-0.49-8.46-0.51c-4.18-0.03-4.21-0.29-3.65-5
							C99.15,434.57,106.4,433.2,108.28,436.86z"/>
					</g>
					<path class="st13" d="M69.18,254.35l2.14,3.02c0,0,3.85-0.6,5.66,2.96c1.82,3.56-4.61,8.01-6.43,6.37
						c-1.83-1.64-5.8-9.23-5.8-9.23L69.18,254.35z"/>
					<path class="st14" d="M53.14,244.76c5.8,5.85,11.89,14.08,11.89,14.08l1.11-0.75l4.24-2.88c0,0-8.69-18.21-11.16-27.1
						c-1.19-4.32-3.25-7.81-5.12-10.33c0.17-0.16,0.32-0.32,0.48-0.49c6.3-6.71,11.21-15.36,14.95-20.67
						c1.8-2.56,3.05-5.5,3.58-8.54c0.36-2.07,0.4-4.19,0.06-6.3c-0.53-3.32-1.93-6.39-5.15-7.18c-1.21-0.3-2.44-0.18-3.53,0.27
						c-1.22,0.49-2.3,1.4-3.03,2.56c-4.91,7.95-18.83,29.46-21.02,34.77c-0.38,0.93-0.63,1.84-0.74,2.72
						c-0.07,0.29-0.11,0.59-0.15,0.93C38.7,224.57,47.34,238.91,53.14,244.76z"/>
					<path class="st15" d="M53.14,244.76c5.8,5.85,11.89,14.08,11.89,14.08l1.11-0.75c0,0-6.38-8.89-9.4-12.49
						c-4.62-5.51-7.87-9.82-10.62-14.88c-2.76-5.06-4.05-14.82-2.59-17.56c1.45-2.74,9.59-14.84,11.33-17.17
						c1.75-2.32,16.03-16.57,11.93-20.54c-0.66-0.64-1.58-0.62-2.3-0.57c-1.22,0.49-2.3,1.4-3.03,2.56
						c-4.91,7.95-18.83,29.46-21.02,34.77c-0.38,0.93-0.63,1.84-0.74,2.72c-0.07,0.29-0.11,0.59-0.15,0.93
						C38.7,224.57,47.34,238.91,53.14,244.76z"/>
					<path class="st16" d="M75.9,257.53c0,0-1.96,6.92-10.69,10.91c-7.53,3.43,12.05,5.4,12.49,4.63c0.44-0.76,4.2-13.4,4.2-13.4
						L75.9,257.53z"/>
				</g>
				<g>
					<g>
						<g>
							<g>
								<g>
									<g>
										<g>
											<path class="st9" d="M225.85,440.66l1.84-98.18h-6.53l1.84,98.18c0.02,1,0.66,1.8,1.43,1.8
												C225.19,442.46,225.83,441.66,225.85,440.66z"/>
										</g>
									</g>
								</g>
								<g>
									<g>
										<g>
											<path class="st9" d="M165.83,429.18l37.93-90.58l-6.07-2.41l-34.52,91.93c-0.35,0.93-0.05,1.92,0.66,2.2
												C164.55,430.61,165.44,430.09,165.83,429.18z"/>
										</g>
									</g>
								</g>
								<g>
									<g>
										<g>
											<path class="st9" d="M283.01,429.18l-37.93-90.58l6.07-2.41l34.52,91.93c0.35,0.93,0.05,1.92-0.66,2.2
												C284.29,430.61,283.4,430.09,283.01,429.18z"/>
										</g>
									</g>
								</g>
							</g>
							<g class="st10">
								<g>
									<g>
										<g>
											<path d="M196.64,339l3.86,1.53l-35.65,89.72c0.4-0.2,0.77-0.57,0.98-1.07l37.93-90.57l-6.07-2.41L196.64,339z"/>
										</g>
									</g>
								</g>
								<g>
									<g>
										<g>
											<path d="M221.2,345.06h4.87l-1.82,97.38c0.06,0.01,0.11,0.02,0.17,0.02c0.77,0,1.41-0.81,1.43-1.8l1.84-98.18h-6.53
												L221.2,345.06z"/>
										</g>
									</g>
								</g>
								<g>
									<g>
										<g>
											<path d="M285.67,428.12l-34.52-91.93l-6.07,2.41l0.7,1.67l3.76-1.49l34.32,91.4c0.37,0.22,0.78,0.29,1.15,0.15
												C285.72,430.04,286.02,429.05,285.67,428.12z"/>
										</g>
									</g>
								</g>
							</g>
						</g>
						<g>
							<g>
								<g>
									<path class="st11" d="M271.97,308.89c0,37.66-21.29,46.67-47.55,46.67c-26.26,0-47.55-9.02-47.55-46.67
										c0-37.66,21.29-74.05,47.55-74.05C250.68,234.84,271.97,271.23,271.97,308.89z"/>
								</g>
							</g>
						</g>
						<g>
							<g>
								<g>
									<path class="st12" d="M228.24,347.08c-26.26,0-47.55-9.02-47.55-46.67c0-12.97,2.52-25.78,6.91-37.02
										c-6.7,13-10.72,29.13-10.72,45.49c0,37.66,21.29,46.67,47.55,46.67c20.59,0,38.12-5.55,44.73-26.09
										C260.87,343.11,245.65,347.08,228.24,347.08z"/>
								</g>
							</g>
						</g>
					</g>
					<g>
						<g>
							<g>
								<g>
									<path class="st25" d="M201.63,299.02c0,0-6.11,13.02-7.35,21.71c-1.82,12.7,0.87,18.2,17.09,18.71
										c16.22,0.51,20.95-2.65,28.69-2.65c7.74,0,16.73-14.67,6.77-32.08L201.63,299.02z"/>
								</g>
							</g>
						</g>
						<g>
							<path class="st13" d="M208.6,405.65l-0.3,4.93c0,0-4.79,14.13-5.03,17.69c-0.41,6.21,2.33,13.17,5,13.13
								c3.04-0.05,7.23-3.94,9.09-11.72c1.26-5.27-0.78-15.6-0.05-18.02c0.73-2.42,2.2-7.12,2.2-7.12L208.6,405.65z"/>
							<path class="st21" d="M217.74,426.65c-2.1,2.12-6.37,6.58-8.07,6.5c-1.76-0.09-4.85-5.5-5.87-7.74
								c-0.29,1.2-0.49,2.21-0.53,2.86c-0.41,6.21,2.33,13.17,5,13.13c3.04-0.04,7.23-3.94,9.09-11.72
								C217.57,428.79,217.69,427.75,217.74,426.65z"/>
							<g>
								<g>
									<g>
										<g>
											<path class="st26" d="M219.26,408.05c0,0,19.39-61.21,21.81-68.74c2.42-7.53,4.37-21.85-6.85-24.35
												c-9.69-2.16-13.76,12.3-15.53,21.2c-1.77,8.9-10.7,68.31-10.7,68.31s-1.05,3.34,4.73,4.3
												C218.51,409.73,219.26,408.05,219.26,408.05z"/>
										</g>
									</g>
								</g>
								<g class="st27">
									<g>
										<g>
											<path d="M230.81,314.9c-4.21,5.75-6.35,16.49-7.54,22.47c-1.77,8.9-10.61,69.53-10.61,69.53s1.49,0.76,4.71,2.21
												c-0.34-0.04-1.17-0.03-1.54-0.01c-6.24,0.44-7.76-3.41-7.76-3.41s8.84-60.63,10.61-69.53
												C220.24,328.39,223.54,316.37,230.81,314.9z"/>
										</g>
									</g>
								</g>
							</g>
						</g>
						<g>
							<path class="st13" d="M184.29,403.3l-0.65,4.89c0,0-5.79,13.75-6.28,17.29c-0.85,6.17,1.39,13.3,4.05,13.45
								c3.03,0.17,7.49-3.42,9.9-11.05c1.64-5.17,0.33-15.61,1.23-17.98c0.9-2.37,2.7-6.95,2.7-6.95L184.29,403.3z"/>
							<path class="st21" d="M191.92,424.89c-2.25,1.97-6.83,6.11-8.51,5.91c-1.75-0.21-4.44-5.83-5.3-8.13
								c-0.37,1.18-0.64,2.17-0.73,2.82c-0.85,6.17,1.39,13.3,4.05,13.45c3.03,0.17,7.49-3.42,9.9-11.05
								C191.6,427.01,191.78,425.99,191.92,424.89z"/>
							<g>
								<g>
									<g>
										<g>
											<path class="st26" d="M194.76,406.45c0,0,23.69-59.67,26.64-67.01c2.95-7.34,5.92-21.48-5.1-24.77
												c-9.51-2.84-14.6,11.29-17,20.04c-2.4,8.75-15.53,67.38-15.53,67.38s-1.29,3.26,4.42,4.62
												C193.89,408.07,194.76,406.45,194.76,406.45z"/>
										</g>
									</g>
								</g>
								<g class="st27">
									<g>
										<g>
											<path d="M212.9,314.36c-4.61,5.44-7.5,16-9.11,21.88c-2.4,8.75-15.53,68.59-15.53,68.59s1.43,0.87,4.55,2.54
												c-0.33-0.07-1.17-0.11-1.54-0.11c-6.25,0-7.5-3.95-7.5-3.95s13.13-59.84,15.53-68.59
												C201.4,327.06,205.54,315.31,212.9,314.36z"/>
										</g>
									</g>
								</g>
							</g>
						</g>
						<g>
							<path id="XMLID_453_" class="st28" d="M212.08,175.26c0,0,2.15-9.22,17.52-6.26c14.67,2.83,13.74,23.29,15.45,28.86
								c1.33,4.35,4.1,10.58,5.25,13.09c0.28,0.61-0.03,1.32-0.66,1.53c-5.42,1.8-28.44,8.55-44.14-0.86
								c-1.38-0.83-2.53-2.05-3.13-3.54c-0.27-0.67-0.46-1.42-0.42-2.19c0.11-2.45,1.49-5.44,0.43-12.59
								C201.3,186.14,202.58,175.05,212.08,175.26z"/>
							<path id="XMLID_458_" class="st13" d="M207.56,195.03c0,0-1.96,2.42-1.24,6.47c0.71,4.05,4.32,3.92,4.32,3.92l0.49-4.02
								l-1.07-7.08L207.56,195.03z"/>
							<path id="XMLID_459_" class="st13" d="M241.89,195.03c0,0,1.96,2.42,1.24,6.47c-0.71,4.05-4.32,3.92-4.32,3.92l-0.49-4.02
								l1.07-7.08L241.89,195.03z"/>
							<path id="XMLID_530_" class="st3" d="M244.38,273.35c-0.22,4.17-0.22,5.92,0.26,11c0.44,4.68,2.01,21.81,2.01,21.81
								s-3.71,1.49-9.71,2.61c-8.24,1.57-22.42-2.65-35.58-7.12c0,0,4.83-11.87,4.9-21.63c0.02-1.33-0.01-2.71-0.09-4.11
								c-0.07-1.81-0.69-5.04-1.41-9c-0.14-0.74-0.27-1.51-0.41-2.3c-0.5-2.86-0.99-6-1.34-9.2c-0.35-3.21-0.56-6.48-0.48-9.59
								c-1.2-8.59,1.43-17.04,1.43-17.04s10.85-4.53,15.43-5.15c0,0,8.13-1.86,13.84,0.03c7.47,2.48,11.56,3.92,14.91,5.75
								c0.36,0.2,2.54,6.56,1.58,12.17c-1.4,8.22-3.47,19.5-4.57,26.27C244.71,270.56,244.42,272.55,244.38,273.35z"/>
							<path id="XMLID_524_" class="st29" d="M246.65,308.17c0,0-3.71-0.52-9.71,0.6c-2.29-5.9-1.57-27.32-1.57-27.32
								c-6.4-1.07-16.14-4.91-16.14-4.91c-2.56,1.21-10.48,2.94-12.97,3.47c0.02-1.33-0.01-2.71-0.09-4.11
								c-0.07-1.81-0.69-5.04-1.41-9c3-2.09,8.56,2.53,8.56,2.53l28.1-4.41c0,0,2.02,1.19,3.73,2.83c-0.44,2.71-0.73,4.69-0.78,5.49
								c-0.22,4.17-0.22,5.92,0.26,11C245.09,289.03,246.65,308.17,246.65,308.17z"/>
							<path id="XMLID_531_" class="st13" d="M240.67,190.41c0,4.12-0.83,13.71-3.41,20.06c-1.66,4.07-4.38,6.96-7.27,8.69
								c-0.03,1.65-0.07,3.82,1.08,3.99c0.33,0.73,0.75,0.92,0.53,2.07c-0.78,4.1-5.55,8.63-6.72,9.76c-1.17,1.14-1.9,0-1.9,0
								c-1.36-1.49-2.57-3.44-3.48-5.15c-0.59-1.11-1.05-2.12-1.34-2.82c-0.73-1.81,0.32-3.26,0.32-3.26
								c1.26-0.15,0.8-2.87,0.7-4.32c-2.44-1.74-4.75-4.72-6.46-8.22c-3.44-7.02-3.63-15.95-3.63-20.81
								c0-8.71,7.07-15.79,15.79-15.79C233.61,174.62,240.67,181.69,240.67,190.41z"/>
							<path id="XMLID_525_" class="st20" d="M229.77,219.23c-0.93,0.34-4.73,1.82-5.46,3.41c-0.83,1.84-1.3,4.81-2.07,5.64
								c-0.66,0.7-2.23,1.35-2.74,1.55c-0.59-1.11-1.05-2.12-1.34-2.82c-0.73-1.81,0.32-3.26,0.32-3.26c1.26-0.15,0.8-2.87,0.7-4.32
								c0,0,2.66,1.09,4.99,0.91C226.31,220.18,228.84,219.53,229.77,219.23z"/>
							<path id="XMLID_464_" class="st13" d="M235.54,261c0,0,2.51-0.48,3.31-0.48c0.8,0-1.49,7.17-1.49,7.17s-0.83-0.88-1.81-1.04
								c-0.99-0.16-0.61-5.57-0.61-5.57L235.54,261z"/>
							<path id="XMLID_461_" class="st30" d="M248.15,229.41c0,0,7.14,3.67,6.71,9.22c-0.43,5.55-8.78,35.85-10.23,39.84
								c-1.44,3.98-37.86-8.11-37.86-8.11s1.14-4.87,2.13-6.21c0,0,24.9,2.65,28.17,3.93c0,0,5.05-24.04,6.61-28.31
								C245.26,235.51,248.15,229.41,248.15,229.41z"/>
							<path id="XMLID_528_" class="st31" d="M236.05,267.16c-3.78,2.13-32.54,14.08-35.2,13.34c-2.67-0.75-5.87-3.1-6.3-10.14
								c-0.38-6.25,3.24-30.87,4.09-36.57c0.11-0.75,0.53-1.92,1.08-2.46c0.18-0.18,0.37-0.38,0.55-0.53
								c1.83-1.38,3.7-2.02,3.7-2.02c0.36,0.81,0.26,4.14,0.71,9.99c0.05,0.67,0.01,1.33-0.13,1.98c-0.72,3.41-1.59,7.84-1.54,10.2
								c0,0.14,0.01,0.27,0.03,0.43c0.25,2.48,2.08,7.17,2.12,9.15c0.06,4.68,0.04,5.33,0.03,5.41c1.03-0.17,4.62-0.81,9-1.59
								c9.04-1.62,21.43-3.85,21.43-3.85C236.7,262.78,236.05,267.16,236.05,267.16z"/>
							<path id="XMLID_456_" class="st28" d="M205.89,196.6c0,0,5-0.84,7.88-4.59c2.22-2.88,3.5-6.95,3.5-6.95s1.75,3.75,7.61,6.42
								c5.87,2.67,12.24,4.48,18.18,5.12c0,0,0.39-13.66-4.09-19.2c-4.48-5.55-16.11-8.75-24.01-3.95
								C207.07,178.25,205.89,196.6,205.89,196.6z"/>
							<path id="XMLID_465_" class="st32" d="M218.53,223.66c0,0,0.82,7.36,4.45,11.34c0,0-1.2-0.4-3.44,2.29
								c-0.3,0.37-0.9,0.23-1.01-0.24c-0.69-2.99-2.97-10.32-1.7-12.87C216.83,224.18,217.48,223.42,218.53,223.66z"/>
							<path id="XMLID_452_" class="st32" d="M230.96,223.11c0,0-1.02,3.73-2.22,6.3c-1.51,3.25-4.04,5.74-4.04,5.74
								s2.79,0.52,4.09,2.36c0.21,0.31,0.62,0.23,0.8-0.1c0.84-1.62,1.32-3.09,2.25-6.42c1.06-3.8,1.11-5.88,0.98-7.46
								C232.82,223.53,232.09,222.63,230.96,223.11z"/>
							<path id="XMLID_523_" class="st29" d="M203.15,267.9c-2.91-2.49,0.56-7.23,0.32-8.89c-0.24-1.66-0.24-1.94-0.45-3.61
								c-0.1-0.79-0.26-2.87,0.03-4.04c0.25,2.48,2.08,7.17,2.12,9.15c0.06,4.68,0.04,5.33,0.03,5.41
								c1.03-0.17,10.68-1.9,15.06-2.68C221.27,263.79,205.11,269.57,203.15,267.9z"/>
							<path id="XMLID_462_" class="st13" d="M208.28,265.39l-3.08,0.54c0,0-3.5-0.3-5.78-0.16c-1.67,0.1-3.47,0.62-4.42,0.94
								c-0.35,0.12-0.62-0.15-0.74-0.51c-0.18-0.53-0.5-1.98-0.37-3.16c0.12-1.16,0.51-2.36,0.8-3.04c0.14-0.32,0.41-0.56,0.74-0.68
								c1.14-0.4,2.51-0.36,4.5-0.19c2.4,0.2,3.42,1.04,4.53,2.34l1.27,1.51c0.41,0.48,0.97,0.81,1.59,0.94l1.52,0.32
								c0,0-0.17,0.27-0.31,0.55C208.37,265.14,208.28,265.39,208.28,265.39z"/>
						</g>
					</g>
				</g>
				<g>
					<g>
						<g>
							<g>
								<polygon class="st33" points="146.4,295.35 147.83,267.77 134.32,267.77 135.75,295.35 								"/>
							</g>
						</g>
					</g>
					<g>
						<g>
							<g>
								<polygon class="st34" points="136.96,294.06 135.71,269.07 146.44,269.07 145.19,294.06 								"/>
							</g>
						</g>
					</g>
					<g>
						<g>
							<g>
								<polygon class="st35" points="136.12,275.18 136.96,294.06 145.19,294.06 146.03,275.18 								"/>
							</g>
						</g>
					</g>
					<g class="st36">
						<g>
							<g>
								<path class="st1" d="M137.83,291.36h2.24l-1.33-19.69c-0.27-2.38-2.5-2.51-2.15,0.2L137.83,291.36z"/>
							</g>
						</g>
					</g>
				</g>
				<g>
					<g>
						<g>
							<g>
								<rect x="103.01" y="299.13" class="st37" width="62.56" height="3.92"/>
							</g>
						</g>
					</g>
					<g>
						<g>
							<g>
								<rect x="103.62" y="295.23" class="st38" width="56.67" height="3.14"/>
							</g>
						</g>
					</g>
					<g>
						<g>
							<g>
								<rect x="100.67" y="297.63" class="st39" width="62.56" height="1.5"/>
							</g>
						</g>
					</g>
					<g>
						<g>
							<g>
								<rect x="104.78" y="296.44" class="st40" width="54.34" height="0.32"/>
							</g>
						</g>
					</g>
					<g>
						<g>
							<g>
								<rect x="104.78" y="297.14" class="st40" width="54.34" height="0.32"/>
							</g>
						</g>
					</g>
					<g>
						<g>
							<g>
								<rect x="104.78" y="295.71" class="st40" width="54.34" height="0.32"/>
							</g>
						</g>
					</g>
				</g>
				<g>
					<g>
						<g>
							<g>
								<g>
									<rect x="385.42" y="295.9" class="st41" width="25.84" height="6.41"/>
								</g>
							</g>
						</g>
						<g>
							<g>
								<g>
									<rect x="403.1" y="295.9" class="st42" width="8.15" height="6.41"/>
								</g>
							</g>
						</g>
						<g>
							<g>
								<g>
									<rect x="383.82" y="295.9" class="st42" width="25.84" height="0.74"/>
								</g>
							</g>
						</g>
						<g>
							<g>
								<g>
									<rect x="383.82" y="301.57" class="st42" width="25.84" height="0.74"/>
								</g>
							</g>
						</g>
						<g>
							<g>
								<g>
									<rect x="403.8" y="295.9" class="st43" width="33.71" height="6.41"/>
								</g>
							</g>
						</g>
						<g>
							<g>
								<g>
									<rect x="407.43" y="297.39" class="st42" width="18.04" height="3.43"/>
								</g>
							</g>
						</g>
						<g>
							<g>
								<g>
									<rect x="408.4" y="297.57" class="st44" width="16.09" height="3.06"/>
								</g>
							</g>
						</g>
						<g>
							<g>
								<g>
									<path class="st42" d="M430.71,299.11c0,0.95,0.94,1.72,2.11,1.72c1.16,0,2.11-0.77,2.11-1.72c0-0.95-0.94-1.72-2.11-1.72
										C431.65,297.39,430.71,298.16,430.71,299.11z"/>
								</g>
							</g>
						</g>
						<g>
							<g>
								<g>
									<rect x="386.96" y="297.06" class="st42" width="14.73" height="0.65"/>
								</g>
							</g>
						</g>
						<g>
							<g>
								<g>
									<rect x="386.96" y="299.56" class="st42" width="14.73" height="0.65"/>
								</g>
							</g>
						</g>
						<g>
							<g>
								<g>
									<rect x="386.96" y="300.49" class="st42" width="14.73" height="0.65"/>
								</g>
							</g>
						</g>
						<g>
							<g>
								<g>
									<rect x="391.58" y="298.5" class="st42" width="9.18" height="0.65"/>
								</g>
							</g>
						</g>
						<g>
							<g>
								<g>
									<rect x="386.96" y="298.5" class="st42" width="3.88" height="0.65"/>
								</g>
							</g>
						</g>
					</g>
					<g>
						<g>
							<g>
								<g>
									<rect x="380.56" y="289.64" class="st41" width="25.84" height="6.41"/>
								</g>
							</g>
						</g>
						<g>
							<g>
								<g>
									<rect x="398.24" y="289.64" class="st42" width="8.15" height="6.41"/>
								</g>
							</g>
						</g>
						<g>
							<g>
								<g>
									<rect x="378.96" y="289.64" class="st42" width="25.84" height="0.74"/>
								</g>
							</g>
						</g>
						<g>
							<g>
								<g>
									<rect x="378.96" y="295.31" class="st42" width="25.84" height="0.74"/>
								</g>
							</g>
						</g>
						<g>
							<g>
								<g>
									<rect x="398.94" y="289.64" class="st45" width="33.71" height="6.41"/>
								</g>
							</g>
						</g>
						<g>
							<g>
								<g>
									<rect x="402.56" y="291.13" class="st42" width="18.04" height="3.43"/>
								</g>
							</g>
						</g>
						<g>
							<g>
								<g>
									<rect x="403.53" y="291.31" class="st44" width="16.09" height="3.06"/>
								</g>
							</g>
						</g>
						<g>
							<g>
								<g>
									<path class="st42" d="M425.84,292.85c0,0.95,0.94,1.72,2.11,1.72c1.16,0,2.11-0.77,2.11-1.72c0-0.95-0.94-1.72-2.11-1.72
										C426.78,291.13,425.84,291.9,425.84,292.85z"/>
								</g>
							</g>
						</g>
						<g>
							<g>
								<g>
									<rect x="382.09" y="290.81" class="st42" width="14.73" height="0.65"/>
								</g>
							</g>
						</g>
						<g>
							<g>
								<g>
									<rect x="382.09" y="293.3" class="st42" width="14.73" height="0.65"/>
								</g>
							</g>
						</g>
						<g>
							<g>
								<g>
									<rect x="382.09" y="294.24" class="st42" width="14.73" height="0.65"/>
								</g>
							</g>
						</g>
						<g>
							<g>
								<g>
									<rect x="386.71" y="292.24" class="st42" width="9.18" height="0.65"/>
								</g>
							</g>
						</g>
						<g>
							<g>
								<g>
									<rect x="382.09" y="292.24" class="st42" width="3.88" height="0.65"/>
								</g>
							</g>
						</g>
					</g>
					<g>
						<g>
							<g>
								<g>
									<rect x="385.42" y="283.38" class="st41" width="25.84" height="6.41"/>
								</g>
							</g>
						</g>
						<g>
							<g>
								<g>
									<rect x="403.1" y="283.38" class="st42" width="8.15" height="6.41"/>
								</g>
							</g>
						</g>
						<g>
							<g>
								<g>
									<rect x="383.82" y="283.38" class="st42" width="25.84" height="0.74"/>
								</g>
							</g>
						</g>
						<g>
							<g>
								<g>
									<rect x="383.82" y="289.06" class="st42" width="25.84" height="0.74"/>
								</g>
							</g>
						</g>
						<g>
							<g>
								<g>
									<rect x="403.8" y="283.38" class="st46" width="33.71" height="6.41"/>
								</g>
							</g>
						</g>
						<g>
							<g>
								<g>
									<rect x="407.43" y="284.87" class="st42" width="18.04" height="3.43"/>
								</g>
							</g>
						</g>
						<g>
							<g>
								<g>
									<rect x="408.4" y="285.06" class="st44" width="16.09" height="3.06"/>
								</g>
							</g>
						</g>
						<g>
							<g>
								<g>
									<path class="st42" d="M430.71,286.59c0,0.95,0.94,1.72,2.11,1.72c1.16,0,2.11-0.77,2.11-1.72c0-0.95-0.94-1.72-2.11-1.72
										C431.65,284.87,430.71,285.64,430.71,286.59z"/>
								</g>
							</g>
						</g>
						<g>
							<g>
								<g>
									<rect x="386.96" y="284.55" class="st42" width="14.73" height="0.65"/>
								</g>
							</g>
						</g>
						<g>
							<g>
								<g>
									<rect x="386.96" y="287.04" class="st42" width="14.73" height="0.65"/>
								</g>
							</g>
						</g>
						<g>
							<g>
								<g>
									<rect x="386.96" y="287.98" class="st42" width="14.73" height="0.65"/>
								</g>
							</g>
						</g>
						<g>
							<g>
								<g>
									<rect x="391.58" y="285.98" class="st42" width="9.18" height="0.65"/>
								</g>
							</g>
						</g>
						<g>
							<g>
								<g>
									<rect x="386.96" y="285.98" class="st42" width="3.88" height="0.65"/>
								</g>
							</g>
						</g>
					</g>
				</g>
				<g>
					<g>
						<g>
							<g>
								<polygon class="st33" points="439.75,302.14 441.18,280.92 427.67,280.92 429.1,302.14 								"/>
							</g>
						</g>
					</g>
					<g>
						<g>
							<g>
								<polygon class="st34" points="430.31,300.84 429.06,282.21 439.79,282.21 438.54,300.84 								"/>
							</g>
						</g>
					</g>
					<g>
						<g>
							<g>
								<polygon class="st35" points="429.47,288.32 430.31,300.84 438.54,300.84 439.38,288.32 								"/>
							</g>
						</g>
					</g>
					<g class="st36">
						<g>
							<g>
								<path class="st1" d="M431.18,298.14h2.24l-1.33-13.33c-0.27-2.38-2.5-2.51-2.15,0.2L431.18,298.14z"/>
							</g>
						</g>
					</g>
				</g>
				<g>
					<g>
						<g>
							<g>
								<path class="st47" d="M167.05,280.58c0.55,4.76,3.69,8.77,8.15,10.52c0.09,0.04,0.16-0.12,0.07-0.16
									c-4.27-2.06-7.45-5.52-8.06-10.36C167.19,280.48,167.03,280.48,167.05,280.58L167.05,280.58z"/>
							</g>
						</g>
						<g>
							<g>
								<path class="st47" d="M174.81,273.47c2.54,5.95,1.29,12.22-2.93,17.02c-0.08,0.09,0.05,0.22,0.13,0.13
									c4.54-4.64,5.48-11.35,2.91-17.22C174.89,273.31,174.77,273.39,174.81,273.47L174.81,273.47z"/>
							</g>
						</g>
						<g>
							<g>
								<path class="st47" d="M187.19,276.12c2.16,2.84,1.13,6.13-0.33,9.05c-1.38,2.77-3.87,4.04-6.57,5.23
									c-0.13,0.06-0.04,0.28,0.1,0.23c3.45-1.23,5.85-3.12,7.24-6.52c1.17-2.86,1.75-5.53-0.27-8.13
									C187.28,275.9,187.11,276.02,187.19,276.12L187.19,276.12z"/>
							</g>
						</g>
						<g>
							<g>
								<path class="st47" d="M185.88,285.49c2.12,0.5,4.48-0.66,5.74-2.34c0.06-0.09-0.08-0.2-0.15-0.12
									c-1.51,1.76-3.33,2.3-5.57,2.33C185.82,285.36,185.8,285.48,185.88,285.49L185.88,285.49z"/>
							</g>
						</g>
						<g>
							<g>
								<path class="st47" d="M179.89,274.46c-0.38,3.21-1.23,8.53-4.42,10.16c-0.1,0.05-0.03,0.22,0.08,0.18
									c3.41-1.26,4.21-7.3,4.51-10.34C180.05,274.35,179.9,274.36,179.89,274.46L179.89,274.46z"/>
							</g>
						</g>
						<g>
							<g>
								<path class="st47" d="M161.22,278.91c0.56,3.66,3.65,6.48,7.43,6.24c0.08-0.01,0.08-0.13,0-0.13
									c-3.68-0.17-6.66-2.44-7.29-6.15C161.34,278.78,161.21,278.82,161.22,278.91L161.22,278.91z"/>
							</g>
						</g>
					</g>
					<path class="st3" d="M191.12,287.48h-26.78c0,0-2.17,5.23-2.17,6.52c0,1.29,2.96,3.94,6.14,3.94h18.84
						c3.18,0,6.14-2.65,6.14-3.94C193.3,292.71,191.12,287.48,191.12,287.48z"/>
					<polygon class="st31" points="188.28,299.29 167.19,299.29 167.93,297.94 187.54,297.94 					"/>
					<path class="st31" d="M170.31,294c0-1.29,2.17-6.52,2.17-6.52h-8.14c0,0-2.17,5.23-2.17,6.52c0,1.29,2.96,3.94,6.14,3.94h8.14
						C173.27,297.94,170.31,295.29,170.31,294z"/>
					<polygon class="st48" points="167.93,297.94 167.19,299.29 175.33,299.29 176.07,297.94 					"/>
					<g>
						<g>
							<g>
								<path class="st49" d="M176.73,277.74c0.61-0.48,3.01-1.33,4.61-0.31c2.92,1.85,3.25,4.52,3.33,5.41
									c-1.46,0.27-2.94,0.54-4.43,0.42C175.23,282.86,175.6,278.63,176.73,277.74z"/>
							</g>
							<g>
								<path class="st49" d="M188.94,275.08c0.4-0.35,2.03-1.01,3.17-0.36c2.07,1.18,2.39,3.01,2.47,3.62
									c-1,0.23-2.01,0.47-3.04,0.43C188.07,278.65,188.19,275.72,188.94,275.08z"/>
							</g>
							<g>
								<path class="st49" d="M187.84,273.35c-0.32-0.18-1.5-0.42-2.18,0.16c-1.24,1.07-1.22,2.35-1.19,2.78
									c0.7,0.03,1.41,0.06,2.1-0.1C188.88,275.66,188.42,273.69,187.84,273.35z"/>
							</g>
							<g>
								<path class="st49" d="M164.02,275.83c-0.54-0.23-1.12-0.36-1.7-0.26c-0.58,0.1-1.16,0.45-1.53,1.04
									c-0.37,0.59-0.48,1.42-0.2,2.03c0.33,0.73,1.09,0.96,1.78,1.04c1.37,0.17,3.01-0.9,4.37-1.34
									C166.08,277.19,165.12,276.3,164.02,275.83z"/>
							</g>
							<g>
								<path class="st49" d="M167.57,279.36c-0.54,0.34-1.03,0.88-1,1.51c0.04,0.78,0.89,1.31,1.68,1.34
									c0.78,0.04,3.59-0.73,4.78-0.12C170.96,278.17,168.86,278.55,167.57,279.36z"/>
							</g>
							<g>
								<path class="st49" d="M191.19,280.73c-0.45,0.21-0.9,0.6-0.99,1.14c-0.1,0.67,0.43,1.24,1,1.38
									c0.57,0.15,2.75-0.09,3.52,0.6C194.72,280.88,192.27,280.23,191.19,280.73z"/>
							</g>
							<g>
								<path class="st49" d="M176.29,284.58c0.64-0.18,3.05-0.39,4.05,0.9c1.83,2.36,0.26,4.39,0.05,5.12
									c-1.27-0.24-2.56-0.49-3.73-1.05C172.7,287.68,174.12,284.91,176.29,284.58z"/>
							</g>
							<g>
								<path class="st49" d="M167.55,285c-0.58-0.2-2.55-0.17-3.37,1.08c-1.49,2.28-0.87,4.45-0.65,5.17
									c1.12-0.21,2.26-0.43,3.27-0.95C170.23,288.56,168.62,285.37,167.55,285z"/>
							</g>
							<g>
								<path class="st49" d="M173.93,273.21c0.56,0.12,1.18,0.45,1.4,1.04c0.28,0.73-0.19,1.51-0.81,1.81
									c-0.61,0.31-3.16,0.58-3.87,1.56C170.74,273.29,172.58,272.92,173.93,273.21z"/>
							</g>
						</g>
						<g class="st7">
							<g>
								<g>
									<path class="st50" d="M160.48,277.45c2.17-0.17,4.19,0.22,6.19,1.08c0.04,0.02,0.08-0.04,0.04-0.06
										c-1.95-0.93-4.08-1.26-6.22-1.07C160.44,277.39,160.44,277.45,160.48,277.45L160.48,277.45z"/>
								</g>
							</g>
							<g>
								<g>
									<path class="st50" d="M161.22,276.96c1.66-0.5,3.2-0.29,4.73,0.49c0.04,0.02,0.08-0.04,0.04-0.06
										c-1.42-0.92-3.21-1.05-4.78-0.48C161.17,276.91,161.18,276.97,161.22,276.96L161.22,276.96z"/>
								</g>
							</g>
							<g>
								<g>
									<path class="st50" d="M160.86,277.72c0.67,1.49,3.1,1.29,4.38,0.95c0.07-0.02,0.04-0.13-0.03-0.11
										c-1.24,0.3-3.63,0.54-4.29-0.88C160.9,277.65,160.84,277.68,160.86,277.72L160.86,277.72z"/>
								</g>
							</g>
							<g>
								<g>
									<path class="st50" d="M167.18,279.95c2.15-0.86,4.23-0.07,5.44,1.85c0.02,0.03,0.07,0,0.05-0.03
										c-1.04-2.05-3.46-2.77-5.52-1.88C167.12,279.91,167.15,279.97,167.18,279.95L167.18,279.95z"/>
								</g>
							</g>
							<g>
								<g>
									<path class="st50" d="M167.44,280.22c1.72,0.2,3.3,0.69,4.89,1.36c0.02,0.01,0.03-0.03,0.01-0.04
										c-1.53-0.78-3.2-1.21-4.91-1.38C167.4,280.16,167.4,280.22,167.44,280.22L167.44,280.22z"/>
								</g>
							</g>
							<g>
								<g>
									<path class="st50" d="M166.9,280.68c1.59,0.91,3.39,1.36,5.22,1.19c0.06-0.01,0.06-0.1,0-0.09
										c-1.85,0.07-3.56-0.26-5.2-1.14C166.89,280.62,166.87,280.66,166.9,280.68L166.9,280.68z"/>
								</g>
							</g>
							<g>
								<g>
									<path class="st50" d="M170.81,277.44c0.94-1.53,2.19-2.61,3.74-3.49c0.06-0.03,0.01-0.12-0.05-0.09
										c-1.59,0.72-2.89,2.04-3.74,3.55C170.74,277.45,170.79,277.48,170.81,277.44L170.81,277.44z"/>
								</g>
							</g>
							<g>
								<g>
									<path class="st50" d="M172.41,276.69c1.23-0.5,2.33-1.38,2.92-2.59c0.02-0.05-0.04-0.09-0.07-0.04
										c-0.71,1.14-1.61,2.05-2.86,2.58C172.36,276.65,172.37,276.7,172.41,276.69L172.41,276.69z"/>
								</g>
							</g>
							<g>
								<g>
									<path class="st50" d="M170.86,276.39c0.47-1.66,1.81-2.66,3.5-2.82c0.06-0.01,0.06-0.09,0-0.09
										c-1.73,0.02-3.14,1.25-3.56,2.9C170.78,276.42,170.84,276.43,170.86,276.39L170.86,276.39z"/>
								</g>
							</g>
							<g>
								<g>
									<path class="st50" d="M184.74,276.34c0.71-1.14,1.63-1.9,2.77-2.58c0.06-0.04,0.01-0.12-0.05-0.09
										c-1.19,0.51-2.15,1.53-2.77,2.64C184.67,276.34,184.72,276.38,184.74,276.34L184.74,276.34z"/>
								</g>
							</g>
							<g>
								<g>
									<path class="st50" d="M185.92,275.79c0.91-0.37,1.74-1.01,2.17-1.92c0.02-0.05-0.04-0.09-0.07-0.04
										c-0.54,0.84-1.19,1.51-2.12,1.91C185.87,275.75,185.89,275.8,185.92,275.79L185.92,275.79z"/>
								</g>
							</g>
							<g>
								<g>
									<path class="st50" d="M184.78,275.56c0.35-1.23,1.34-1.94,2.58-2.08c0.06-0.01,0.06-0.09,0-0.09
										c-1.29,0-2.34,0.94-2.65,2.16C184.7,275.59,184.76,275.6,184.78,275.56L184.78,275.56z"/>
								</g>
							</g>
							<g>
								<g>
									<path class="st50" d="M163.75,290.89c1.13-2.18,2.66-3.92,4.5-5.51c0.03-0.03-0.01-0.09-0.05-0.06
										c-1.96,1.4-3.47,3.39-4.51,5.54C163.67,290.89,163.73,290.92,163.75,290.89L163.75,290.89z"/>
								</g>
							</g>
							<g>
								<g>
									<path class="st50" d="M163.51,290.96c-0.39-2.89,1.39-5.17,4.14-5.88c0.05-0.01,0.03-0.09-0.02-0.08
										c-2.86,0.47-4.59,3.19-4.2,5.98C163.44,291.04,163.52,291.01,163.51,290.96L163.51,290.96z"/>
								</g>
							</g>
							<g>
								<g>
									<path class="st50" d="M163.98,290.84c2.46-0.25,4.56-2.19,4.62-4.74c0-0.04-0.06-0.05-0.07-0.01
										c-0.35,2.49-1.98,4.38-4.55,4.67C163.93,290.77,163.93,290.85,163.98,290.84L163.98,290.84z"/>
								</g>
							</g>
							<g>
								<g>
									<path class="st50" d="M175.42,285.1c2.15,0.97,3.61,2.81,4.18,5.09c0.01,0.04,0.07,0.02,0.06-0.02
										c-0.46-2.31-2.07-4.19-4.21-5.12C175.42,285.03,175.39,285.08,175.42,285.1L175.42,285.1z"/>
								</g>
							</g>
							<g>
								<g>
									<path class="st50" d="M175.71,285.22c2.31,0.35,4.86,1.15,4.78,3.98c0,0.05,0.08,0.05,0.08,0
										c0.25-2.87-2.55-3.72-4.85-4.04C175.69,285.15,175.67,285.21,175.71,285.22L175.71,285.22z"/>
								</g>
							</g>
							<g>
								<g>
									<path class="st50" d="M175.58,285.59c-0.47,2.17,1.68,3.42,3.42,4c0.03,0.01,0.06-0.04,0.02-0.06
										c-1.58-0.76-3.84-1.73-3.38-3.93C175.66,285.57,175.59,285.55,175.58,285.59L175.58,285.59z"/>
								</g>
							</g>
							<g>
								<g>
									<path class="st50" d="M176.57,278.56c0.04,3.15,4.63,4.16,7.08,4.14c0.04,0,0.04-0.06,0-0.06c-2.45-0.1-6.9-0.95-7.05-4.08
										C176.61,278.54,176.57,278.54,176.57,278.56L176.57,278.56z"/>
								</g>
							</g>
							<g>
								<g>
									<path class="st50" d="M177.18,278.95c2.16,1.53,4.48,2.8,6.95,3.76c0.04,0.02,0.06-0.05,0.02-0.07
										c-2.46-0.99-4.77-2.2-6.94-3.72C177.18,278.89,177.16,278.93,177.18,278.95L177.18,278.95z"/>
								</g>
							</g>
							<g>
								<g>
									<path class="st50" d="M177.24,278.45c2.82,0.53,5.11,1.96,6.98,4.11c0.04,0.05,0.11-0.02,0.07-0.07
										c-1.73-2.21-4.29-3.62-7.03-4.1C177.22,278.39,177.2,278.45,177.24,278.45L177.24,278.45z"/>
								</g>
							</g>
							<g>
								<g>
									<path class="st50" d="M177.54,277.7c3.5-0.19,6.4,1.12,6.83,4.92c0,0.04,0.07,0.05,0.07,0c0-1.5-0.68-2.93-1.86-3.88
										c-1.46-1.18-3.25-1.24-5.04-1.11C177.5,277.64,177.5,277.7,177.54,277.7L177.54,277.7z"/>
								</g>
							</g>
							<g>
								<g>
									<path class="st50" d="M188.58,275.8c0.23,2.25,3.6,2.7,5.38,2.54c0.04,0,0.04-0.06,0-0.06c-1.78,0.04-5-0.24-5.34-2.48
										C188.61,275.77,188.58,275.78,188.58,275.8L188.58,275.8z"/>
								</g>
							</g>
							<g>
								<g>
									<path class="st50" d="M189.05,276.04c1.66,0.96,3.41,1.74,5.25,2.27c0.05,0.01,0.06-0.06,0.02-0.07
										c-1.83-0.56-3.58-1.29-5.25-2.24C189.04,275.99,189.02,276.03,189.05,276.04L189.05,276.04z"/>
								</g>
							</g>
							<g>
								<g>
									<path class="st50" d="M189.07,275.7c2.08,0.23,3.77,1.1,5.28,2.52c0.05,0.05,0.12-0.02,0.07-0.07
										c-1.38-1.49-3.35-2.33-5.35-2.51C189.03,275.64,189.03,275.69,189.07,275.7L189.07,275.7z"/>
								</g>
							</g>
							<g>
								<g>
									<path class="st50" d="M189.24,275.15c2.49-0.31,4.65,0.42,5.22,3.09c0.01,0.04,0.07,0.03,0.07-0.01
										c-0.06-1.07-0.67-2.05-1.56-2.65c-1.13-0.76-2.45-0.69-3.74-0.5C189.2,275.09,189.21,275.15,189.24,275.15L189.24,275.15z"
										/>
								</g>
							</g>
							<g>
								<g>
									<path class="st50" d="M190.24,282c0.23,0.41,0.63,0.7,1.08,0.81c0.46,0.12,0.94,0.06,1.4,0.14
										c0.69,0.12,1.32,0.39,1.92,0.76c0.01,0,0.01-0.01,0.01-0.01c-0.68-0.44-1.4-0.75-2.21-0.85c-0.83-0.1-1.69-0.06-2.17-0.88
										C190.27,281.96,190.23,281.98,190.24,282L190.24,282z"/>
								</g>
							</g>
							<g>
								<g>
									<path class="st50" d="M190.55,281.6c1.62,0.03,2.96,0.75,3.98,1.97c0.01,0.01,0.03,0,0.02-0.02c-0.92-1.29-2.44-2-4-2.01
										C190.51,281.55,190.51,281.6,190.55,281.6L190.55,281.6z"/>
								</g>
							</g>
							<g>
								<g>
									<path class="st50" d="M191.01,281.33c1.59-0.51,2.99,0.36,3.46,1.9c0.01,0.03,0.06,0.02,0.05-0.01
										c-0.32-1.63-2.02-2.45-3.53-1.93C190.97,281.29,190.98,281.34,191.01,281.33L191.01,281.33z"/>
								</g>
							</g>
						</g>
						<g>
							<g>
								<path class="st50" d="M161.62,280.29c-0.55-0.48-2.74-1.33-4.19-0.31c-2.66,1.85-3.22,4.73-3.29,5.62
									c1.33,0.27,2.93,0.32,4.28,0.21C162.99,285.41,162.65,281.17,161.62,280.29z"/>
							</g>
							<g>
								<path class="st50" d="M186.92,275.53c-0.46-0.32-2.22-0.8-3.26,0.09c-1.9,1.64-1.92,3.72-1.9,4.41c1.04,0.1,2.11,0.2,3.14,0
									C188.38,279.36,187.79,276.13,186.92,275.53z"/>
							</g>
							<g>
								<path class="st50" d="M175.94,270.51c-0.45,0.21-0.91,0.6-0.99,1.14c-0.1,0.67,0.43,1.24,1,1.39
									c0.57,0.15,2.75-0.09,3.52,0.6C179.47,270.65,177.01,270.01,175.94,270.51z"/>
							</g>
							<g>
								<path class="st50" d="M186.14,284.81c0.52-0.29,2.58-0.98,3.77-0.11c2.16,1.58,1.26,3.61,1.25,4.25
									c-1.17,0.07-2.36,0.13-3.52-0.08C183.72,288.15,184.31,285.55,186.14,284.81z"/>
							</g>
							<g>
								<g>
									<g>
										<path class="st49" d="M154.42,285.42c0.96-0.53,1.71-1.27,2.49-2.02c1.24-1.19,2.5-1.99,4.1-2.64
											c0.05-0.02,0.03-0.1-0.02-0.09c-2.81,0.82-4.19,3.29-6.61,4.67C154.32,285.37,154.37,285.45,154.42,285.42L154.42,285.42z
											"/>
									</g>
								</g>
								<g>
									<g>
										<path class="st49" d="M154.42,285.11c0.74-1.04,1.31-2.2,2.17-3.14c1.19-1.31,2.56-1.59,4.27-1.56
											c0.08,0,0.1-0.13,0.02-0.14c-3.51-0.62-4.96,2.29-6.51,4.82C154.36,285.11,154.4,285.13,154.42,285.11L154.42,285.11z"/>
									</g>
								</g>
								<g>
									<g>
										<path class="st49" d="M155.3,285.57c2.57-0.12,7.24-0.7,6.38-4.43c-0.02-0.08-0.13-0.06-0.14,0.02
											c-0.02,1.15-0.17,2.34-1.15,3.09c-1.3,0.99-3.53,1.12-5.09,1.23C155.24,285.48,155.24,285.57,155.3,285.57L155.3,285.57z"
											/>
									</g>
								</g>
								<g>
									<g>
										<path class="st49" d="M154.69,285.47c1.36-0.45,2.82-0.71,4.13-1.29c1.3-0.57,1.86-1.71,2.5-2.91
											c0.03-0.05-0.05-0.1-0.08-0.05c-0.88,1.44-1.57,2.49-3.22,3.11c-1.1,0.41-2.25,0.67-3.35,1.05
											C154.61,285.4,154.64,285.49,154.69,285.47L154.69,285.47z"/>
									</g>
								</g>
								<g>
									<g>
										<path class="st49" d="M175.76,271.34c1.28,0.36,2.48,0.99,3.41,1.96c0.03,0.03,0.07-0.01,0.04-0.04
											c-0.95-1-2.07-1.7-3.44-1.96C175.74,271.29,175.73,271.33,175.76,271.34L175.76,271.34z"/>
									</g>
								</g>
								<g>
									<g>
										<path class="st49" d="M175.24,271.71c0.14,0.42,0.45,0.55,0.85,0.69c0.8,0.27,1.62,0.53,2.44,0.72
											c0.05,0.01,0.06-0.05,0.02-0.07c-0.52-0.2-1.04-0.36-1.57-0.52c-0.53-0.16-1.42-0.27-1.65-0.85
											C175.31,271.63,175.22,271.65,175.24,271.71L175.24,271.71z"/>
									</g>
								</g>
								<g>
									<g>
										<path class="st49" d="M175.78,271.11c1.61-0.26,2.85,0.61,3.51,2.03c0.02,0.04,0.07,0.01,0.06-0.03
											c-0.41-1.58-2.07-2.38-3.6-2.1C175.69,271.03,175.72,271.12,175.78,271.11L175.78,271.11z"/>
									</g>
								</g>
								<g>
									<g>
										<path class="st49" d="M182.14,279.92c1.59-1.06,3.14-2.22,4.64-3.39c0.02-0.01,0-0.04-0.02-0.03
											c-1.65,0.96-3.07,2.3-4.65,3.38C182.09,279.9,182.11,279.94,182.14,279.92L182.14,279.92z"/>
									</g>
								</g>
								<g>
									<g>
										<path class="st49" d="M182.55,279.86c1.75-0.27,3.78-1.36,4.47-3.09c0.01-0.03-0.04-0.06-0.06-0.02
											c-0.81,1.69-2.6,2.8-4.42,3.09C182.52,279.83,182.53,279.86,182.55,279.86L182.55,279.86z"/>
									</g>
								</g>
								<g>
									<g>
										<path class="st49" d="M182.07,279.7c0.89-1.7,2.39-2.93,4.22-3.48c0.04-0.01,0.02-0.07-0.02-0.06
											c-1.85,0.35-3.43,1.87-4.27,3.5C181.97,279.7,182.04,279.74,182.07,279.7L182.07,279.7z"/>
									</g>
								</g>
								<g>
									<g>
										<path class="st49" d="M182.89,279.92c1.24-0.01,2.45-0.1,3.48-0.87c0.67-0.5,1.12-1.23,0.76-2.05
											c-0.02-0.03-0.07-0.01-0.06,0.03c0.72,2.33-2.65,2.81-4.18,2.85C182.87,279.88,182.87,279.92,182.89,279.92L182.89,279.92
											z"/>
									</g>
								</g>
								<g>
									<g>
										<path class="st49" d="M181.93,279.37c0.16-0.65,0.41-1.3,0.74-1.87c0.71-1.21,2.06-1.79,3.43-1.72
											c0.06,0,0.06-0.09,0-0.09c-2.33-0.28-3.78,1.62-4.24,3.67C181.85,279.4,181.92,279.42,181.93,279.37L181.93,279.37z"/>
									</g>
								</g>
								<g>
									<g>
										<path class="st49" d="M186.71,285.03c1.64,1.01,2.92,2.32,4.19,3.76c0.02,0.03,0.06-0.01,0.04-0.04
											c-1.21-1.47-2.57-2.77-4.2-3.76C186.71,284.98,186.68,285.01,186.71,285.03L186.71,285.03z"/>
									</g>
								</g>
								<g>
									<g>
										<path class="st49" d="M186.9,284.91c2.07,0.35,3.48,1.67,4.1,3.64c0.01,0.04,0.07,0.02,0.06-0.02
											c-0.46-2.02-2.14-3.37-4.15-3.67C186.89,284.86,186.88,284.91,186.9,284.91L186.9,284.91z"/>
									</g>
								</g>
								<g>
									<g>
										<path class="st49" d="M187.31,284.79c1-0.1,2.06,0.14,2.83,0.82c0.74,0.65,0.8,1.47,0.86,2.39c0,0.05,0.07,0.05,0.07,0
											c0.01-0.94-0.12-1.82-0.86-2.46c-0.8-0.69-1.86-0.93-2.89-0.8C187.29,284.75,187.29,284.79,187.31,284.79L187.31,284.79z"
											/>
									</g>
								</g>
								<g>
									<g>
										<path class="st49" d="M186.56,285.05c-1.22,1.71,3.1,3.54,4.21,3.76c0.05,0.01,0.07-0.06,0.02-0.08
											c-1.04-0.3-5.25-1.96-4.18-3.66C186.63,285.04,186.58,285.02,186.56,285.05L186.56,285.05z"/>
									</g>
								</g>
								<g>
									<g>
										<path class="st49" d="M186.08,285.22c-0.79,0.51-0.74,1.49-0.16,2.16c0.93,1.07,2.69,1.46,4.04,1.44
											c0.06,0,0.06-0.09,0-0.09c-0.84-0.05-1.65-0.18-2.43-0.48c-1-0.39-3.12-1.85-1.42-2.98
											C186.14,285.24,186.11,285.2,186.08,285.22L186.08,285.22z"/>
									</g>
								</g>
							</g>
						</g>
					</g>
				</g>
				<g>
					<g>
						<g>
							<g>
								<g>
									<g>
										<rect x="116.84" y="307.61" class="st51" width="7.47" height="146.93"/>
									</g>
								</g>
							</g>
						</g>
						<g>
							<g>
								<g>
									<g>
										<rect x="424.24" y="307.61" class="st51" width="7.47" height="146.93"/>
									</g>
								</g>
							</g>
						</g>
					</g>
					<g>
						<g>
							<g>
								<rect x="101.68" y="303.33" class="st51" width="345.19" height="6.48"/>
							</g>
						</g>
					</g>
					<g>
						<g>
							<g>
								<rect x="98.06" y="302.04" class="st8" width="352.43" height="2.9"/>
							</g>
						</g>
					</g>
				</g>
				<g>
					<g>
						<g>
							<g>
								<rect x="159.29" y="300.54" class="st39" width="74.5" height="1.5"/>
							</g>
						</g>
					</g>
					<g>
						<g>
							<g>
								<path class="st38" d="M230.64,298.6c0,0-29.45-1.74-33.78,1.3c-5.94-2.71-34.43-1.3-34.43-1.3v1.93h68.21V298.6z"/>
							</g>
						</g>
					</g>
					<g>
						<g>
							<g>
								<path class="st40" d="M230.64,299.9c-2.82-0.23-5.65-0.41-8.48-0.56c-2.83-0.16-5.66-0.3-8.49-0.37
									c-2.83-0.08-5.66-0.1-8.49,0c-1.41,0.05-2.83,0.14-4.23,0.31c-0.7,0.08-1.4,0.2-2.08,0.35c-0.67,0.17-1.37,0.35-1.92,0.72
									l-0.07,0.05l-0.08-0.04c-0.64-0.27-1.34-0.45-2.04-0.59c-0.7-0.14-1.41-0.24-2.12-0.32c-1.43-0.16-2.86-0.25-4.3-0.31
									c-2.88-0.12-5.76-0.11-8.64-0.05c-2.88,0.06-5.76,0.17-8.64,0.32c-2.88,0.13-5.76,0.29-8.63,0.5
									c5.74-0.52,11.5-0.88,17.26-1.03c2.88-0.08,5.77-0.1,8.65-0.01c1.44,0.05,2.88,0.13,4.32,0.28
									c0.72,0.08,1.44,0.18,2.15,0.31c0.71,0.14,1.42,0.31,2.11,0.61l-0.16,0.01c0.64-0.42,1.35-0.58,2.04-0.76
									c0.7-0.15,1.41-0.26,2.11-0.34c1.41-0.16,2.83-0.24,4.25-0.29c2.84-0.08,5.67-0.04,8.51,0.05
									C219.35,298.94,225,299.35,230.64,299.9z"/>
							</g>
						</g>
					</g>
					<g>
						<g>
							<g>
								<path class="st40" d="M230.64,299.9c-2.82-0.08-5.64-0.13-8.46-0.17c-2.82-0.05-5.64-0.1-8.46-0.12
									c-2.82-0.02-5.64-0.01-8.45,0.05c-1.41,0.03-2.82,0.08-4.22,0.16c-0.7,0.04-1.4,0.09-2.1,0.17
									c-0.69,0.08-1.4,0.16-2.04,0.37l-0.04,0.01l-0.04-0.01c-0.68-0.13-1.4-0.18-2.1-0.23c-0.71-0.05-1.42-0.07-2.13-0.1
									c-1.42-0.05-2.85-0.07-4.28-0.09c-2.85-0.03-5.71-0.02-8.56,0.01l-17.12,0.25l8.56-0.29l8.56-0.17
									c2.85-0.04,5.71-0.07,8.56-0.06c1.43,0.01,2.86,0.02,4.28,0.06c0.71,0.02,1.43,0.04,2.14,0.09
									c0.72,0.05,1.43,0.08,2.15,0.22l-0.09,0.01c0.71-0.23,1.41-0.3,2.12-0.37c0.71-0.08,1.41-0.12,2.12-0.16
									c1.41-0.08,2.82-0.11,4.23-0.14c2.82-0.04,5.64-0.03,8.46,0c2.82,0.04,5.64,0.09,8.46,0.18
									C225.01,299.66,227.83,299.77,230.64,299.9z"/>
							</g>
						</g>
					</g>
				</g>
				<g>
					<g>
						<g>
							<g>
								<rect x="266.04" y="300.54" class="st39" width="74.5" height="1.5"/>
							</g>
						</g>
					</g>
					<g>
						<g>
							<g>
								<path class="st38" d="M337.39,298.6c0,0-29.45-1.74-33.78,1.3c-5.94-2.71-34.43-1.3-34.43-1.3v1.93h68.21V298.6z"/>
							</g>
						</g>
					</g>
					<g>
						<g>
							<g>
								<path class="st40" d="M337.39,299.9c-2.82-0.23-5.65-0.41-8.48-0.56c-2.83-0.16-5.66-0.3-8.49-0.37
									c-2.83-0.08-5.66-0.1-8.49,0c-1.41,0.05-2.82,0.14-4.23,0.31c-0.7,0.08-1.4,0.2-2.08,0.35c-0.67,0.17-1.37,0.35-1.92,0.72
									l-0.07,0.05l-0.09-0.04c-0.64-0.27-1.34-0.45-2.04-0.59c-0.7-0.14-1.41-0.24-2.12-0.32c-1.43-0.16-2.86-0.25-4.3-0.31
									c-2.88-0.12-5.76-0.11-8.64-0.05c-2.88,0.06-5.76,0.17-8.64,0.32c-2.88,0.13-5.76,0.29-8.63,0.5
									c5.74-0.52,11.5-0.88,17.26-1.03c2.88-0.08,5.77-0.1,8.65-0.01c1.44,0.05,2.88,0.13,4.32,0.28
									c0.72,0.08,1.44,0.18,2.15,0.31c0.71,0.14,1.42,0.31,2.11,0.61l-0.16,0.01c0.63-0.42,1.35-0.58,2.04-0.76
									c0.7-0.15,1.41-0.26,2.11-0.34c1.41-0.16,2.83-0.24,4.25-0.29c2.84-0.08,5.67-0.04,8.51,0.05
									C326.1,298.94,331.75,299.35,337.39,299.9z"/>
							</g>
						</g>
					</g>
					<g>
						<g>
							<g>
								<path class="st40" d="M337.39,299.9c-2.82-0.08-5.64-0.13-8.46-0.17c-2.82-0.05-5.64-0.1-8.46-0.12
									c-2.82-0.02-5.64-0.01-8.45,0.05c-1.41,0.03-2.82,0.08-4.22,0.16c-0.7,0.04-1.4,0.09-2.1,0.17
									c-0.69,0.08-1.4,0.16-2.04,0.37l-0.04,0.01l-0.04-0.01c-0.68-0.13-1.4-0.18-2.1-0.23c-0.71-0.05-1.42-0.07-2.13-0.1
									c-1.42-0.05-2.85-0.07-4.28-0.09c-2.85-0.03-5.71-0.02-8.56,0.01l-17.12,0.25l8.56-0.29l8.56-0.17
									c2.85-0.04,5.71-0.07,8.56-0.06c1.43,0.01,2.86,0.02,4.28,0.06c0.71,0.02,1.43,0.04,2.14,0.09
									c0.72,0.05,1.43,0.08,2.15,0.22l-0.09,0.01c0.71-0.23,1.41-0.3,2.12-0.37c0.7-0.08,1.41-0.12,2.12-0.16
									c1.41-0.08,2.82-0.11,4.23-0.14c2.82-0.04,5.64-0.03,8.46,0c2.82,0.04,5.64,0.09,8.46,0.18
									C331.76,299.66,334.58,299.77,337.39,299.9z"/>
							</g>
						</g>
					</g>
				</g>
				<g>
					<g>
						<polygon class="st13" points="376.4,427.85 377.64,435.29 383.31,435.29 385.75,434.87 383.96,423.31 						"/>
						<path id="XMLID_514_" class="st52" d="M384.73,425.72c-0.54,0.25-1.12,0.47-1.71,0.68c-3.13,1.05-7.35,1.63-7.35,1.63
							c-6.78-11.12-24.37-65.31-24.37-65.31c-1.62-6.85,8.66,1.92,12.94,1.66c1.48-0.08,2.89,0.13,3.94,0.57
							c4.09,1.73,10.09,13.3,10.09,13.3s1.83,4,3.74,12.26C383.92,398.77,384.73,425.72,384.73,425.72z"/>
						<path id="XMLID_504_" class="st53" d="M384.73,425.72c-0.54,0.25-1.12,0.47-1.71,0.68c-0.43-3.3-1.06-8.56-2-16.94
							c-2.1-18.78-14-40.29-16.78-45.09c1.48-0.08,2.89,0.13,3.94,0.57c4.09,1.73,10.09,13.3,10.09,13.3s1.83,4,3.74,12.26
							C383.92,398.77,384.73,425.72,384.73,425.72z"/>
						<path id="XMLID_421_" class="st52" d="M377.26,434.2c0,0,2.42,0.05,4.33-0.67c2.29-0.85,3.65-2.31,3.65-2.31
							s6.02,3.68,6.01,10.28c0,0.34-0.23,0.65-0.55,0.77c0,0-14.43,6.41-19.4,8.17c-3.04,1.08-7.97,2.06-7.97,2.06
							c-0.36,0.08-0.72-0.05-0.85-0.38c-0.26-0.67-0.39-1.85,1.08-2.98c2.24-1.72,4.68-3.12,6.38-4.54c1.7-1.42,3.43-5.34,4.81-6.46
							C376.51,436.73,377.26,434.2,377.26,434.2z"/>
					</g>
					<g>
						<defs>
							<path id="SVGID_1_" d="M367.81,356.81l21.9,5.23l25.89,0.12l26.8-6.75l48.02,89.4l-6.52,26.98c0,0-151.58,10.91-155.63,7.48
								c-4.04-3.43-23.01-21.83-25.68-29C299.92,443.1,367.81,356.81,367.81,356.81z"/>
						</defs>
						<clipPath id="SVGID_2_">
							<use xlink:href="#SVGID_1_"  style="overflow:visible;"/>
						</clipPath>
						<g class="st54">
							<g>
								<g>
									<g>
										<g>
											<g>
												<path class="st9" d="M407.16,467.01l2.11-112.68h-7.5l2.11,112.68c0.02,1.14,0.76,2.07,1.64,2.07
													C406.4,469.08,407.14,468.16,407.16,467.01z"/>
											</g>
										</g>
									</g>
									<g>
										<g>
											<g>
												<path class="st9" d="M338.28,453.83l43.53-103.95l-6.97-2.77l-39.62,105.51c-0.4,1.07-0.06,2.2,0.76,2.53
													C336.81,455.48,337.83,454.89,338.28,453.83z"/>
											</g>
										</g>
									</g>
									<g>
										<g>
											<g>
												<path class="st9" d="M472.77,453.83l-43.53-103.95l6.97-2.77l39.62,105.51c0.4,1.07,0.06,2.2-0.76,2.53
													C474.23,455.48,473.21,454.89,472.77,453.83z"/>
											</g>
										</g>
									</g>
								</g>
								<g class="st10">
									<g>
										<g>
											<g>
												<path d="M373.63,350.34l4.43,1.76l-40.92,102.97c0.46-0.22,0.89-0.65,1.13-1.23l43.53-103.95l-6.97-2.77L373.63,350.34z
													"/>
											</g>
										</g>
									</g>
									<g>
										<g>
											<g>
												<path d="M401.83,357.3h5.59l-2.09,111.76c0.07,0.01,0.13,0.03,0.2,0.03c0.88,0,1.62-0.93,1.64-2.07l2.11-112.68h-7.5
													L401.83,357.3z"/>
											</g>
										</g>
									</g>
									<g>
										<g>
											<g>
												<path d="M475.81,452.62L436.2,347.12l-6.97,2.77l0.8,1.91l4.31-1.71l39.39,104.9c0.42,0.26,0.9,0.34,1.32,0.17
													C475.87,454.83,476.21,453.69,475.81,452.62z"/>
											</g>
										</g>
									</g>
								</g>
							</g>
						</g>
					</g>
					<g>
						<path id="XMLID_401_" class="st1" d="M352.72,297.17h-68.88l-13.64-42.87c-0.69-2.16,0.92-4.36,3.19-4.36h61.85
							c1.46,0,2.75,0.94,3.19,2.33L352.72,297.17z"/>
						<path id="XMLID_402_" class="st55" d="M351.61,297.17h-65.95l-13.51-42.08c-0.68-2.12,0.92-4.28,3.16-4.28h58.99
							c1.44,0,2.72,0.93,3.16,2.29L351.61,297.17z"/>
						<path id="XMLID_550_" class="st56" d="M310.23,258.77h-30.05c-0.45,0-0.81-0.36-0.81-0.81l0,0c0-0.45,0.36-0.81,0.81-0.81
							h30.05c0.45,0,0.81,0.36,0.81,0.81l0,0C311.04,258.41,310.68,258.77,310.23,258.77z"/>
						<path id="XMLID_549_" class="st56" d="M314.89,262.52h-33.51c-0.45,0-0.81-0.36-0.81-0.81l0,0c0-0.45,0.36-0.81,0.81-0.81
							h33.51c0.45,0,0.81,0.36,0.81,0.81l0,0C315.7,262.15,315.33,262.52,314.89,262.52z"/>
						<path id="XMLID_547_" class="st56" d="M311.78,266.26H282.6c-0.45,0-0.81-0.36-0.81-0.81l0,0c0-0.45,0.36-0.81,0.81-0.81
							h29.18c0.45,0,0.81,0.36,0.81,0.81l0,0C312.59,265.9,312.23,266.26,311.78,266.26z"/>
						<path id="XMLID_546_" class="st56" d="M306.92,270.01h-23.13c-0.45,0-0.81-0.36-0.81-0.81l0,0c0-0.45,0.36-0.81,0.81-0.81
							h23.13c0.45,0,0.81,0.36,0.81,0.81l0,0C307.73,269.65,307.37,270.01,306.92,270.01z"/>
						<path id="XMLID_545_" class="st56" d="M318.52,273.76h-33.51c-0.45,0-0.81-0.36-0.81-0.81l0,0c0-0.45,0.36-0.81,0.81-0.81
							h33.51c0.45,0,0.81,0.36,0.81,0.81l0,0C319.33,273.39,318.97,273.76,318.52,273.76z"/>
						<path id="XMLID_544_" class="st56" d="M315.4,277.5h-29.18c-0.45,0-0.81-0.36-0.81-0.81l0,0c0-0.45,0.36-0.81,0.81-0.81h29.18
							c0.45,0,0.81,0.36,0.81,0.81l0,0C316.21,277.14,315.84,277.5,315.4,277.5z"/>
						<path id="XMLID_542_" class="st56" d="M322.11,285h-33.51c-0.45,0-0.81-0.36-0.81-0.81l0,0c0-0.45,0.36-0.81,0.81-0.81h33.51
							c0.45,0,0.81,0.36,0.81,0.81l0,0C322.92,284.63,322.56,285,322.11,285z"/>
						<path id="XMLID_539_" class="st56" d="M323.33,288.74h-33.51c-0.45,0-0.81-0.36-0.81-0.81l0,0c0-0.45,0.36-0.81,0.81-0.81
							h33.51c0.45,0,0.81,0.36,0.81,0.81l0,0C324.14,288.38,323.78,288.74,323.33,288.74z"/>
						<path id="XMLID_405_" class="st56" d="M341.15,288.74h-10.82c-1.01,0-1.9-0.65-2.2-1.62l-9.02-28.56
							c-0.47-1.49,0.64-3.01,2.2-3.01h10.82c1.01,0,1.9,0.65,2.2,1.62l9.02,28.56C343.82,287.22,342.71,288.74,341.15,288.74z"/>
						<path id="XMLID_403_" class="st1" d="M358.5,300.29h-74.9c-1.22,0-2.22-0.99-2.22-2.22l0,0c0-1.22,0.99-2.22,2.22-2.22h74.9
							c1.22,0,2.22,0.99,2.22,2.22l0,0C360.71,299.3,359.72,300.29,358.5,300.29z"/>
						<g id="XMLID_404_">
							<path id="XMLID_419_" class="st52" d="M380.12,241.06c-0.65,0-1.29-0.34-1.64-0.94l-2.49-4.38
								c-0.25-0.44-0.31-0.96-0.17-1.45c0.14-0.49,0.47-0.89,0.92-1.13l6.94-3.66c0.9-0.48,2.03-0.14,2.52,0.76l2.37,4.35
								c0.24,0.44,0.29,0.95,0.15,1.43c-0.14,0.48-0.46,0.88-0.9,1.12l-6.81,3.7C380.73,240.99,380.42,241.06,380.12,241.06z
								 M384.56,230.14c-0.16,0-0.32,0.04-0.47,0.12l-6.94,3.66c-0.24,0.13-0.42,0.35-0.5,0.61c-0.08,0.26-0.04,0.54,0.09,0.78v0
								l2.49,4.38c0.27,0.47,0.88,0.65,1.36,0.39l6.81-3.7c0.24-0.13,0.41-0.34,0.49-0.6c0.08-0.26,0.05-0.53-0.08-0.77l-2.37-4.35
								C385.26,230.33,384.91,230.14,384.56,230.14z"/>
						</g>
						<path id="XMLID_538_" class="st13" d="M351.7,286.37c-0.48,0.62-0.87,1.02-0.87,1.02s-3.63-2.75-4.64-3.01
							c-1-0.25-3.16,0.54-4.39,0.61c-1.23,0.08-1.33-0.66-1.33-0.66s-4.69,1.95-5.44,2.14c-0.76,0.18-1.26-0.07-0.8-1.26
							c0.1-0.26,0.42-0.67,0.86-1.18l0.01-0.01c1.6-1.81,4.89-4.7,6.08-5.27c1.51-0.72,3.57-1.76,5.22-1.15
							c1.66,0.61,7.03,4.64,7.03,4.64C353.58,283.64,352.51,285.32,351.7,286.37z"/>
						<path id="XMLID_533_" class="st57" d="M352.81,282.5l-1.12,3.87c-0.48,0.62-0.87,1.02-0.87,1.02s-3.63-2.75-4.64-3.01
							c-1-0.25-3.16,0.54-4.39,0.61c-1.23,0.08-1.33-0.66-1.33-0.66s-4.69,1.95-5.44,2.14c-0.76,0.18-1.26-0.07-0.8-1.26
							c0.1-0.26,0.42-0.67,0.86-1.18c-0.4,0.55-0.84,1.12-0.58,1.82c0.32,0.85,5.35-1.55,8.98-3.74c0.06-0.03,0.35-0.18,0.45-0.01
							c0.07,0.12-0.15,0.35-0.2,0.41c-0.61,0.65-3.65,0.88-3.04,1.85c0.87,1.37,3.99-1.14,5.71-0.58c1.71,0.56,3.86,2.13,3.86,2.13
							S351.25,283,352.81,282.5z"/>
						<path id="XMLID_406_" class="st58" d="M350.27,287.39c0,0,17.82,15.58,31.15,17.17c13.33,1.59,35.81-23.71,35.81-23.71
							s-1.41-13.47-9.73-11.89c-8.31,1.58-19.45,21.62-24.28,22.55c-4.83,0.94-29.93-9.7-29.93-9.7s-0.71,0.5-1.55,1.91
							C350.83,285.25,350.27,287.39,350.27,287.39z"/>
						<path id="XMLID_407_" class="st13" d="M410.89,210.6c-4.88-5.58-12.08-6.18-17.64-5.57c-7.3,0.81-13.65,5.73-15.76,12.77
							c-0.91,3.04-1.09,6.6,0.33,10.52c4.54,12.54,9.29,20.54,13.73,22.91c1.69,0.91,4.93,0.3,8.38-0.91
							c0.45-0.16,0.96,0.03,1.19,0.45l1.46,2.73l12.83-2.77c0,0-1.65-3.57-2.52-7.32C414.73,241.06,419.81,220.81,410.89,210.6z"/>
						<path id="XMLID_408_" class="st28" d="M384.97,228.49c1.59-0.13,3.11,0.71,3.73,2.19c1.05,2.51,2.68,6.02,3.96,7.16
							c0.26,0.23,0.84,0.31,1.41,0.01c0.56-0.3,0.68-0.78,0.64-1.09c-0.11-1.08-0.91-3.43-1.48-5c-0.73-2,0.14-4.12,2.53-4.66
							c0.43-0.1,1.53-0.04,2.09,0.13c3.79,1.15,1.18,7.1,1.1,10.2c-0.05,2.19,2.57,7.26,3.73,7.72c3.81,1.49,9.58,0.14,12.65-3.64
							c3.06-3.78,3.73-16.43,2.05-23.99c-1.68-7.57-7.73-11.83-9.73-12.32c-0.99-0.24-1.8-0.24-2.38-0.18
							c-0.61,0.06-1.21-0.14-1.67-0.55c-2.02-1.75-8.04-5.76-17.57-1.65c-11.89,5.13-13.89,16.1-13.67,21.08
							c0.14,3.23,2.68,2.99,4.44,2.43c0.97-0.31,2.02-0.06,2.79,0.6C380.58,227.78,382.3,228.7,384.97,228.49z"/>
						<path id="XMLID_409_" class="st59" d="M402.17,255.56c0,0-1.1-1.23-0.68-1.98c0.52-0.93,6.15-5.39,12.72-5.15
							c1.02,0.04,2.27,0.04,3.49,2.7c1.22,2.67,1.51,4.43,1.51,4.43H402.17z"/>
						<path id="XMLID_509_" class="st59" d="M427.17,363.3c-0.4,0.1-0.83,0.19-1.28,0.28c-5.58,1.04-14.65,1.16-14.65,1.16
							c-17.88-0.32-26.92-16.98-29.82-21.95c-1.02-1.75-1.43-2.91-1.43-2.91c1.02-0.54,13.17-7.09,12.52-29.46
							c-0.13-4.63-0.07-15.01-2.38-19.04c-1.27-2.21-5.03-6.7-7.39-11.43c-1.94-3.89-2.94-7.95-0.82-11.04
							c5.26-7.72,13.55-11.83,13.55-11.83s15.22-6.1,28.18-4.71c8.22,0.86,15.55,4.74,17.5,15.09
							C446.19,294.11,427.17,363.3,427.17,363.3z"/>
						<path id="XMLID_503_" class="st60" d="M397.48,304.56c2.21,22-12.77,35.86-16.06,38.23c-1.02-1.75-1.43-2.91-1.43-2.91
							c1.02-0.54,12.44-10.46,12.52-29.46c0.02-4.64-0.07-15.01-2.38-19.04c-1.27-2.21-5.03-6.7-7.39-11.43l1-0.39l6.1-1.01
							l3.1,2.52C392.94,281.07,396.05,290.31,397.48,304.56z"/>
						<path id="XMLID_484_" class="st61" d="M427.17,363.3c-0.4,0.1-0.83,0.19-1.28,0.28c1.14-6.01,8.37-43.75,10.72-57.44
							c4.64-27.02-0.19-40.71-2.91-45.61c-2.2-3.96-6.44-6.06-10.05-8.17c8.22,0.86,15.55,4.74,17.5,15.09
							C446.19,294.11,427.17,363.3,427.17,363.3z"/>
						<path id="XMLID_412_" class="st13" d="M339.44,443.93c0,0-1.89,0.82-4.25,0.82c-2.63,0-3.39-0.98-3.39-0.98v-5.99l8.65-1.11
							L339.44,443.93z"/>
						<path id="XMLID_513_" class="st62" d="M407.4,360.2c-0.05,3.89-1.09,10.1-6.92,11.85c-8.7,2.61-15.13,1.13-25.22-0.62
							c-8.45-1.45-30.71-6.24-34.8-7.8c-0.53-0.2-1.05,0.25-0.95,0.8c1.93,9.43,3.47,13.51,4.72,27.67
							c1.05,11.89-3.52,45.56-3.52,45.56s-1.39,0.43-2.88,0.67c-0.56,0.08-1.14,0.15-1.66,0.15c-2.19,0-4.83-0.41-4.83-0.41
							s-9.03-49.58-10.25-69.66c-1.21-20.09,0.7-21.75,9.83-26c9.13-4.26,49.95-2.68,49.95-2.68l0.01,0.01
							c0.11,0.35,2.41,6.63,9.18,12.3C394.09,355.43,399.72,358.6,407.4,360.2z"/>
						<g>
							<path class="st63" d="M382.58,343.2c-1.12-1.93-1.64-3.3-1.69-3.46l-0.01-0.01c0,0-0.47-0.02-1.29-0.04
								C380.41,340.8,381.39,341.99,382.58,343.2z"/>
							<path class="st63" d="M401.77,358.64c-0.82,2.95-2.59,5.82-6.26,6.92c-8.7,2.61-15.13,1.13-25.22-0.62
								c-8.45-1.45-30.71-6.24-34.8-7.8c-0.53-0.2-1.05,0.25-0.95,0.8c1.93,9.43,3.47,13.51,4.72,27.67
								c0.82,9.26,0.47,39.45,0.28,52.36c0.68-0.17,1.17-0.31,1.17-0.31s4.57-33.66,3.52-45.56c-1.25-14.16-2.79-18.23-4.72-27.67
								c-0.1-0.55,0.42-1,0.95-0.8c4.09,1.56,26.35,6.35,34.8,7.8c10.09,1.74,16.52,3.22,25.22,0.62c5.83-1.75,6.87-7.96,6.92-11.85
								C405.38,359.78,403.51,359.25,401.77,358.64z"/>
						</g>
						<path id="XMLID_420_" class="st52" d="M331.65,442.93c0,0,2.26,0.89,4.29,0.89c2.45,0,4.23-0.89,4.23-0.89
							s4.36,5.55,2.04,11.73c-0.12,0.32-0.44,0.53-0.79,0.53h-29.21c-0.36,0-0.66-0.28-0.66-0.63c-0.01-0.72,0.28-1.87,2.05-2.41
							c2.7-0.83,5.48-1.28,7.57-2.02c2.09-0.74,5.08-3.8,6.76-4.37C330.06,445.04,331.65,442.93,331.65,442.93z"/>
						<path id="XMLID_536_" class="st13" d="M318.4,296.52c0,0-2.6-0.68-3.95-0.96c-0.54-0.11-1.04-0.17-1.44-0.21
							c-0.57-0.05-1.15-0.02-1.71,0.05l-13.97,1.93c-0.4,0.06-0.77-0.23-0.83-0.64c-0.08-0.55,0.13-1.09,0.54-1.45l1.37-1.18
							l4.08-3.51c2.02-1.74,3.62-2.05,6.29-2.18c0.5-0.03,2.5,0.51,2.88,0.58c2.74,0.5,3.36,0.82,5.18,1.19
							c0.72,0.15,1.21,0.22,1.53,0.24c0.49,0.04,0.61-0.02,0.61-0.02C319.95,293.88,318.4,296.52,318.4,296.52z"/>
						<path id="XMLID_534_" class="st14" d="M339.72,297.91c-0.02,0.03-0.05,0.04-0.08,0.02c-0.36-0.15-2.54-1.05-3.73-1.47
							c-0.44-0.15-0.85-0.27-1.21-0.36c-0.52-0.13-1.37-0.23-1.9-0.23h-14.02c-0.43,0-0.82-0.34-0.81-0.77
							c0.01-0.54,0.28-1.04,0.73-1.33l1.51-0.98c-1.43,1.09-1.66,1.91-0.94,1.99c0.57,0.07,1.93-0.08,5.37-1.04
							c0.08-0.02,0.11,0.1,0.04,0.14c-0.79,0.49-0.5,1.5,0.48,1.46c0.58-0.03,3.04-0.18,3.6-0.22c2.2-0.13,5.4-0.33,6.02-0.22
							c1.24,0.23,2.19,0.6,3.08,1.07c0.6,0.31,1.17-0.37,1.39-1.01c0.31-0.91,0.77-2.14,1.24-3.08c0.48,0.1,0.61,0.06,0.61,0.06
							C341.54,295.27,339.97,297.57,339.72,297.91z"/>
						<path id="XMLID_423_" class="st59" d="M394.9,264.27c-1.85-1.13-7.44-4.23-14.64,7.01c-7.21,11.24-12.97,19.67-15.49,21.18
							c-2.52,1.51-8.72,0.43-10.95,0.43c-2.23,0-34.93-2.55-34.93-2.55s-1.57,3.38-1.84,6.3c0,0,29.96,7.86,48.53,7.93
							c18.57,0.07,32.69-28.03,33.34-31.42C399.57,269.76,399.32,266.96,394.9,264.27z"/>
						<g id="XMLID_424_">
							<path id="XMLID_417_" class="st52" d="M376.98,238.1c-0.16,0-0.31-0.09-0.38-0.24c-0.11-0.21-0.02-0.47,0.19-0.58l16.11-8.26
								c1.82-0.93,5.56-2.85,8.33,1.22c0.13,0.2,0.08,0.47-0.11,0.6c-0.2,0.13-0.47,0.09-0.6-0.11c-2.16-3.17-4.74-2.21-7.19-0.95
								l-16.14,8.27C377.11,238.08,377.05,238.1,376.98,238.1z"/>
						</g>
						<path id="XMLID_482_" class="st13" d="M393.16,230.05l1.95,6.21c0,0,1.51,1.46,2.97-0.22c1.46-1.68,2.73-7.51,0.05-8.48
							C395.46,226.6,393.84,227.97,393.16,230.05z"/>
					</g>
					<g>
						<g>
							<g>
								<path class="st11" d="M466.39,320.05c0-31.38-0.74-53.5-20.62-56.82c-27.05-4.53-48.2,18.89-43.88,63.76
									c2.48,25.71-8.06,34.53-17.04,39.56c-5.81,3.25-17.04,2.55-17.04,2.55s-5.21-0.62-8.7-0.95c2.16,1,48.47,23.82,81.52,6.96
									C469.92,360.16,466.39,338.51,466.39,320.05z"/>
							</g>
						</g>
					</g>
					<g>
						<g>
							<g>
								<path class="st12" d="M466.39,320.05c0-31.38-0.74-53.5-20.62-56.82c-0.96-0.16-1.9-0.28-2.84-0.37
									c-21.67,2.15-35.87,24.97-32.09,64.15c2.48,25.71-8.06,34.53-17.04,39.56c-5.81,3.25-17.04,2.55-17.04,2.55
									s-0.26-0.08-0.75-0.23c-4.35,0.45-8.2,0.21-8.2,0.21s-5.21-0.62-8.7-0.95c2.16,1,48.47,23.82,81.52,6.96
									C469.92,360.16,466.39,338.51,466.39,320.05z"/>
							</g>
						</g>
					</g>
				</g>
			</g>
		</g>
	</g>
</g>
<g id="DESIGNED_BY_FREEPIK">
</g>
</svg>
